<svg xmlns="http://www.w3.org/2000/svg" viewBox="0 0 1075 901"><defs><style>.cls-1{fill:#fff;}.cls-2{font-size:204px;}.cls-2,.cls-4,.cls-5{fill:#8c2133;}.cls-2,.cls-4{font-family:Helvetica-Bold, Helvetica;font-weight:700;}.cls-3{fill:none;stroke:#8c2133;stroke-miterlimit:10;stroke-width:20px;}.cls-4{font-size:203.04px;}</style></defs><title>ИКОНКИ ТЕСТОВ</title><g id="КРУГИ"><circle class="cls-1" cx="538" cy="451" r="391"/></g><g id="Layer_9" data-name="Layer 9"><text class="cls-2" transform="translate(240.99 405.73)">1</text><circle class="cls-3" cx="538" cy="451" r="391"/><text class="cls-4" transform="translate(240.16 405.35)">10</text><path class="cls-5" d="M692.64,264.29c-24-.8-46.1,19.79-45.58,46.41a45.53,45.53,0,0,0,48.11,44.65c23.71-1.09,42.83-20.77,43.19-45.09C738.73,285.1,717.57,263.4,692.64,264.29Z"/><path class="cls-5" d="M711.93,464.42c-9.53-1.41-15.21-5-18.65-8-5.12-4.53-16.47-19-21.1-24.45-1.22-1.42-1.94-2.13-2.58-2.06-1.09.12-1.71,1.82-1.88,2.25-2.4,6.14-33.63,64.75-36.67,68.85-.2.27-1.06,1.38-.7,2.22.26.61,1.12.89,2.3,1.07l16.82,2.52c12.77,1.94,25.65,3.38,38.3,5.95,20.11,4.07,33.64,16.35,40.92,35.44q14.43,37.83,28.58,75.76c2.46,6.58,5.44,13,7,19.92,2.75,12.25-5.61,26.82-17.62,30.55-14.56,4.52-30.2-1.61-36.61-20-8.77-25.18-18.6-50-28-74.93-1.39-3.69-3-7.29-4.32-11a3.41,3.41,0,0,0-3.22-2.53q-25.71-3.81-51.4-7.71c-10.77-1.63-21.56-3.22-32.29-5.09a6.79,6.79,0,0,0-7.21,2.56c-11.87,14-23.89,28-35.83,41.92-11.51,13.47-26.38,19.26-43.82,19.93-22.88.87-45.74,2.2-68.61,3.32-8.65.42-17.31.9-26,1.15a27.24,27.24,0,0,1-26.1-17.29,27.53,27.53,0,0,1,6.44-29.82,28.37,28.37,0,0,1,18.86-7.69c17.84-.83,35.68-1.78,53.52-2.64,13.36-.65,26.72-1.28,40.08-1.79a6.41,6.41,0,0,0,5.21-2.41c11.34-13.34,22.79-26.6,34.21-39.89a24.06,24.06,0,0,1,1.69-1.93,13,13,0,0,0,4.53-8.8c.54-5.54,6.58-16.21,7.69-18.16,18.24-32.1,31.57-67.06,52.11-97.74.18-.26.89-1.29.54-2-.16-.34-.59-.6-1.45-.73-13.32-1.9-26.63-3.77-39.93-5.81a3.11,3.11,0,0,0-3.62,1.73Q553,403.86,542.87,420.71c-7,11.62-14.13,23.21-21.14,34.85-1.24,2.05-3.31,3.26-4.71,5.12-3.3,1.63-6.56,3.31-10.35,3.61-7.13.58-12.69-2.43-17.4-7.45A18,18,0,0,1,487.2,454a19.84,19.84,0,0,1-2.59-10.24c0-7,4.19-12.21,7.49-17.75,7.42-12.47,15.1-24.79,22.64-37.19,5.59-9.2,10.64-18.78,16.82-27.56,7.18-10.18,17.5-15.85,30.09-16.74,8.64-.61,17,1.64,25.47,2.81q22.23,3.09,44.41,6.61c9.57,1.51,19.34,2,28.66,4.83a31,31,0,0,1,18.44,14.6c3.56,6.29,8.07,11.77,12.53,17.34,8.22,10.25,16.57,20.4,24.65,30.75,1.91,2.44,3.73,2.45,6.3,1.7q28.77-8.38,57.57-16.61c5.23-1.51,10.48-3,15.69-4.52,11.59-3.46,23.16,2.61,26,14.39A20.45,20.45,0,0,1,819.16,432c-3.57,5.84-9.69,8.05-12.66,9.09-12.55,4.38-39.79,12.49-76,21.95l-8.31,1.73Z"/><path class="cls-5" d="M692.64,264.29c24.93-.89,46.09,20.81,45.72,46-.36,24.32-19.48,44-43.19,45.09a45.53,45.53,0,0,1-48.11-44.65C646.54,284.08,668.65,263.49,692.64,264.29Z"/></g></svg>