<svg xmlns="http://www.w3.org/2000/svg" viewBox="0 0 1075 901"><defs><style>.cls-1{fill:#fff;}.cls-2{fill:none;stroke:#8c2133;stroke-miterlimit:10;stroke-width:20px;}.cls-3,.cls-4{fill:#8c2133;}.cls-4{font-size:130.07px;font-family:Helvetica-Bold, Helvetica;font-weight:700;}</style></defs><title>ИКОНКИ ТЕСТОВ-87</title><g id="КРУГИ"><circle class="cls-1" cx="538" cy="455" r="391"/></g><g id="Layer_9" data-name="Layer 9"><circle class="cls-2" cx="538" cy="451" r="391"/><path class="cls-3" d="M615.59,350c-20.48-.68-39.35,16.9-38.91,39.62a39,39,0,0,0,77.93-.37C654.93,367.78,636.86,349.26,615.59,350Z"/><path class="cls-3" d="M632.06,520.86c-8.14-1.2-13-4.24-15.93-6.85-4.37-3.88-14.06-16.26-18-20.87-1-1.22-1.66-1.83-2.2-1.77-.93.11-1.46,1.56-1.6,1.92-2.05,5.24-28.72,55.27-31.3,58.78-.17.23-.91,1.18-.61,1.89.22.52,1,.76,2,.91,4.78.72,9.57,1.43,14.35,2.16,10.91,1.65,21.9,2.88,32.7,5.07,17.16,3.48,28.71,14,34.93,30.26q12.32,32.28,24.4,64.66c2.1,5.63,4.64,11.08,6,17,2.34,10.46-4.8,22.89-15.05,26.08-12.43,3.86-25.78-1.38-31.25-17.1-7.48-21.49-15.88-42.66-23.9-64-1.19-3.15-2.6-6.22-3.69-9.41a2.92,2.92,0,0,0-2.75-2.16q-21.95-3.26-43.88-6.57c-9.19-1.4-18.39-2.75-27.55-4.35a5.8,5.8,0,0,0-6.16,2.18c-10.14,12-20.39,23.86-30.59,35.79-9.82,11.5-22.52,16.44-37.4,17-19.53.74-39,1.88-58.57,2.83-7.39.36-14.77.77-22.17,1a23.25,23.25,0,0,1-22.28-14.76A23.51,23.51,0,0,1,357,615.14a24.25,24.25,0,0,1,16.09-6.57c15.23-.7,30.46-1.51,45.69-2.25,11.4-.55,22.8-1.09,34.21-1.52a5.49,5.49,0,0,0,4.44-2.06q14.54-17.09,29.21-34a19,19,0,0,1,1.45-1.65,11.16,11.16,0,0,0,3.86-7.51c.46-4.73,5.61-13.84,6.56-15.51,15.57-27.4,27-57.24,44.49-83.43.15-.22.75-1.1.46-1.72-.14-.29-.51-.51-1.24-.61-11.37-1.63-22.74-3.22-34.08-5a2.66,2.66,0,0,0-3.09,1.48q-8.66,14.4-17.31,28.78c-6,9.92-12.06,19.81-18.05,29.74-1.05,1.75-2.82,2.79-4,4.38-2.82,1.39-5.61,2.82-8.84,3.08-6.09.49-10.83-2.08-14.86-6.36a16.15,16.15,0,0,1-1.76-2.45,16.92,16.92,0,0,1-2.21-8.75c0-5.93,3.57-10.42,6.39-15.14,6.34-10.65,12.89-21.16,19.33-31.75,4.77-7.85,9.08-16,14.36-23.52,6.13-8.69,14.93-13.53,25.68-14.29,7.37-.52,14.52,1.4,21.74,2.4q19,2.63,37.91,5.64c8.17,1.28,16.51,1.74,24.46,4.12a26.41,26.41,0,0,1,15.75,12.46c3,5.37,6.88,10.05,10.69,14.8,7,8.75,14.15,17.41,21,26.25,1.63,2.08,3.18,2.09,5.38,1.45,16.36-4.77,32.75-9.46,49.14-14.18,4.46-1.28,8.94-2.53,13.39-3.85,9.9-3,19.76,2.23,22.18,12.28a17.5,17.5,0,0,1-1.87,13.29c-3.05,5-8.28,6.87-10.81,7.76-10.72,3.74-34,10.67-64.87,18.74l-7.1,1.47Z"/><path class="cls-3" d="M615.59,350c21.27-.76,39.34,17.76,39,39.25a39,39,0,0,1-77.93.37C576.24,366.92,595.11,349.34,615.59,350Z"/><text class="cls-4" transform="translate(348.25 287.44)">5-10-5</text></g></svg>