<svg width="120" height="120" viewBox="0 0 120 120" fill="none" xmlns="http://www.w3.org/2000/svg">
<g filter="url(#filter0_d)">
<rect x="4" y="3" width="112" height="112" rx="15" fill="url(#paint0_linear)" fill-opacity="0.6"/>
</g>
<g filter="url(#filter1_d)">
<rect x="40" y="25" width="40" height="41" rx="10" fill="url(#paint1_linear)"/>
</g>
<g filter="url(#filter2_d)">
<rect x="5" y="4" width="110" height="110" rx="14" stroke="white" stroke-width="2"/>
</g>
<path d="M57.7954 53.394V46.8828H51.2329V42.3882H57.7954V35.877H62.1704V42.3882H68.75V46.8828H62.1704V53.394H57.7954Z" fill="white"/>
<path d="M27.5684 77.4102H33.5039V84.5586H34.2598V87.875H32.8184V86H27.4102V87.875H25.9688V84.5586H26.6953C27.0508 83.8242 27.2852 82.9727 27.3984 82.0039C27.5117 81.0312 27.5684 79.8027 27.5684 78.3184V77.4102ZM29.2207 78.8516C29.2207 81.4609 28.9844 83.3633 28.5117 84.5586H31.7754V78.8516H29.2207ZM35.0801 81.7578C35.0801 80.8828 35.2109 80.1484 35.4727 79.5547C35.668 79.1172 35.9336 78.7246 36.2695 78.377C36.6094 78.0293 36.9805 77.7715 37.3828 77.6035C37.918 77.377 38.5352 77.2637 39.2344 77.2637C40.5 77.2637 41.5117 77.6562 42.2695 78.4414C43.0312 79.2266 43.4121 80.3184 43.4121 81.7168C43.4121 83.1035 43.0352 84.1895 42.2812 84.9746C41.5273 85.7559 40.5195 86.1465 39.2578 86.1465C37.9805 86.1465 36.9648 85.7578 36.2109 84.9805C35.457 84.1992 35.0801 83.125 35.0801 81.7578ZM36.8672 81.6992C36.8672 82.6719 37.0918 83.4102 37.541 83.9141C37.9902 84.4141 38.5605 84.6641 39.252 84.6641C39.9434 84.6641 40.5098 84.416 40.9512 83.9199C41.3965 83.4199 41.6191 82.6719 41.6191 81.6758C41.6191 80.6914 41.4023 79.957 40.9688 79.4727C40.5391 78.9883 39.9668 78.7461 39.252 78.7461C38.5371 78.7461 37.9609 78.9922 37.5234 79.4844C37.0859 79.9727 36.8672 80.7109 36.8672 81.6992ZM44.8066 77.4102H51.2285V78.8516H46.541V80.8438H48.8613C49.502 80.8438 50.0332 80.9219 50.4551 81.0781C50.877 81.2344 51.2363 81.5234 51.5332 81.9453C51.834 82.3672 51.9844 82.8613 51.9844 83.4277C51.9844 84.0098 51.834 84.5078 51.5332 84.9219C51.2324 85.3359 50.8887 85.6191 50.502 85.7715C50.1191 85.9238 49.5723 86 48.8613 86H44.8066V77.4102ZM46.541 84.5586H48.2285C48.7676 84.5586 49.1465 84.5332 49.3652 84.4824C49.584 84.4277 49.7734 84.3066 49.9336 84.1191C50.0977 83.9316 50.1797 83.7012 50.1797 83.4277C50.1797 83.0293 50.0371 82.7402 49.752 82.5605C49.4707 82.377 48.9883 82.2852 48.3047 82.2852H46.541V84.5586ZM60.6855 86H58.7988L58.0488 84.0488H54.6152L53.9062 86H52.0664L55.4121 77.4102H57.2461L60.6855 86ZM57.4922 82.6016L56.3086 79.4141L55.1484 82.6016H57.4922ZM61.6172 77.4102H65.0508C65.7305 77.4102 66.2363 77.4395 66.5684 77.498C66.9043 77.5527 67.2031 77.6699 67.4648 77.8496C67.7305 78.0293 67.9512 78.2695 68.127 78.5703C68.3027 78.8672 68.3906 79.2012 68.3906 79.5723C68.3906 79.9746 68.2812 80.3438 68.0625 80.6797C67.8477 81.0156 67.5547 81.2676 67.1836 81.4355C67.707 81.5879 68.1094 81.8477 68.3906 82.2148C68.6719 82.582 68.8125 83.0137 68.8125 83.5098C68.8125 83.9004 68.7207 84.2812 68.5371 84.6523C68.3574 85.0195 68.1094 85.3145 67.793 85.5371C67.4805 85.7559 67.0938 85.8906 66.6328 85.9414C66.3438 85.9727 65.6465 85.9922 64.541 86H61.6172V77.4102ZM63.3516 78.8398V80.8262H64.4883C65.1641 80.8262 65.584 80.8164 65.748 80.7969C66.0449 80.7617 66.2773 80.6602 66.4453 80.4922C66.6172 80.3203 66.7031 80.0957 66.7031 79.8184C66.7031 79.5527 66.6289 79.3379 66.4805 79.1738C66.3359 79.0059 66.1191 78.9043 65.8301 78.8691C65.6582 78.8496 65.1641 78.8398 64.3477 78.8398H63.3516ZM63.3516 82.2559V84.5527H64.957C65.582 84.5527 65.9785 84.5352 66.1465 84.5C66.4043 84.4531 66.6133 84.3398 66.7734 84.1602C66.9375 83.9766 67.0195 83.7324 67.0195 83.4277C67.0195 83.1699 66.957 82.9512 66.832 82.7715C66.707 82.5918 66.5254 82.4609 66.2871 82.3789C66.0527 82.2969 65.541 82.2559 64.752 82.2559H63.3516ZM70.3066 77.4102H71.9297V83.1289L75.4102 77.4102H77.1387V86H75.5156V80.3926L72.041 86H70.3066V77.4102ZM80.8418 86V78.8633H78.293V77.4102H85.1191V78.8633H82.5762V86H80.8418ZM86.2793 77.4102H88.0137V80.8438H90.334C91.4277 80.8438 92.2188 81.0996 92.707 81.6113C93.1992 82.123 93.4453 82.7363 93.4453 83.4512C93.4453 84.0371 93.2969 84.5352 93 84.9453C92.7031 85.3555 92.3633 85.6348 91.9805 85.7832C91.6016 85.9277 91.0527 86 90.334 86H86.2793V77.4102ZM88.0137 84.5586H89.7012C90.248 84.5586 90.627 84.5332 90.8379 84.4824C91.0488 84.4277 91.2363 84.3066 91.4004 84.1191C91.5684 83.9316 91.6523 83.7012 91.6523 83.4277C91.6523 83.0332 91.5098 82.7441 91.2246 82.5605C90.9434 82.377 90.4609 82.2852 89.7773 82.2852H88.0137V84.5586ZM39.2812 94.4102H42.7148C43.3945 94.4102 43.9004 94.4395 44.2324 94.498C44.5684 94.5527 44.8672 94.6699 45.1289 94.8496C45.3945 95.0293 45.6152 95.2695 45.791 95.5703C45.9668 95.8672 46.0547 96.2012 46.0547 96.5723C46.0547 96.9746 45.9453 97.3438 45.7266 97.6797C45.5117 98.0156 45.2188 98.2676 44.8477 98.4355C45.3711 98.5879 45.7734 98.8477 46.0547 99.2148C46.3359 99.582 46.4766 100.014 46.4766 100.51C46.4766 100.9 46.3848 101.281 46.2012 101.652C46.0215 102.02 45.7734 102.314 45.457 102.537C45.1445 102.756 44.7578 102.891 44.2969 102.941C44.0078 102.973 43.3105 102.992 42.2051 103H39.2812V94.4102ZM41.0156 95.8398V97.8262H42.1523C42.8281 97.8262 43.248 97.8164 43.4121 97.7969C43.709 97.7617 43.9414 97.6602 44.1094 97.4922C44.2812 97.3203 44.3672 97.0957 44.3672 96.8184C44.3672 96.5527 44.293 96.3379 44.1445 96.1738C44 96.0059 43.7832 95.9043 43.4941 95.8691C43.3223 95.8496 42.8281 95.8398 42.0117 95.8398H41.0156ZM41.0156 99.2559V101.553H42.6211C43.2461 101.553 43.6426 101.535 43.8105 101.5C44.0684 101.453 44.2773 101.34 44.4375 101.16C44.6016 100.977 44.6836 100.732 44.6836 100.428C44.6836 100.17 44.6211 99.9512 44.4961 99.7715C44.3711 99.5918 44.1895 99.4609 43.9512 99.3789C43.7168 99.2969 43.2051 99.2559 42.416 99.2559H41.0156ZM47.9707 94.4102H49.5938V100.129L53.0742 94.4102H54.8027V103H53.1797V97.3926L49.7051 103H47.9707V94.4102ZM57.2637 94.4102H63.1992V101.559H63.9551V104.875H62.5137V103H57.1055V104.875H55.6641V101.559H56.3906C56.7461 100.824 56.9805 99.9727 57.0938 99.0039C57.207 98.0312 57.2637 96.8027 57.2637 95.3184V94.4102ZM58.916 95.8516C58.916 98.4609 58.6797 100.363 58.207 101.559H61.4707V95.8516H58.916ZM65.127 103V94.4102H71.4961V95.8633H66.8613V97.7676H71.1738V99.2148H66.8613V101.553H71.6602V103H65.127ZM72.7793 98.7578C72.7793 97.8828 72.9102 97.1484 73.1719 96.5547C73.3672 96.1172 73.6328 95.7246 73.9688 95.377C74.3086 95.0293 74.6797 94.7715 75.082 94.6035C75.6172 94.377 76.2344 94.2637 76.9336 94.2637C78.1992 94.2637 79.2109 94.6562 79.9688 95.4414C80.7305 96.2266 81.1113 97.3184 81.1113 98.7168C81.1113 100.104 80.7344 101.189 79.9805 101.975C79.2266 102.756 78.2188 103.146 76.957 103.146C75.6797 103.146 74.6641 102.758 73.9102 101.98C73.1562 101.199 72.7793 100.125 72.7793 98.7578ZM74.5664 98.6992C74.5664 99.6719 74.791 100.41 75.2402 100.914C75.6895 101.414 76.2598 101.664 76.9512 101.664C77.6426 101.664 78.209 101.416 78.6504 100.92C79.0957 100.42 79.3184 99.6719 79.3184 98.6758C79.3184 97.6914 79.1016 96.957 78.668 96.4727C78.2383 95.9883 77.666 95.7461 76.9512 95.7461C76.2363 95.7461 75.6602 95.9922 75.2227 96.4844C74.7852 96.9727 74.5664 97.7109 74.5664 98.6992Z" fill="#8C2133"/>
<defs>
<filter id="filter0_d" x="0" y="0" width="120" height="120" filterUnits="userSpaceOnUse" color-interpolation-filters="sRGB">
<feFlood flood-opacity="0" result="BackgroundImageFix"/>
<feColorMatrix in="SourceAlpha" type="matrix" values="0 0 0 0 0 0 0 0 0 0 0 0 0 0 0 0 0 0 127 0"/>
<feOffset dy="1"/>
<feGaussianBlur stdDeviation="2"/>
<feColorMatrix type="matrix" values="0 0 0 0 0.533634 0 0 0 0 0.593599 0 0 0 0 0.713537 0 0 0 0.12 0"/>
<feBlend mode="normal" in2="BackgroundImageFix" result="effect1_dropShadow"/>
<feBlend mode="normal" in="SourceGraphic" in2="effect1_dropShadow" result="shape"/>
</filter>
<filter id="filter1_d" x="36" y="22" width="48" height="49" filterUnits="userSpaceOnUse" color-interpolation-filters="sRGB">
<feFlood flood-opacity="0" result="BackgroundImageFix"/>
<feColorMatrix in="SourceAlpha" type="matrix" values="0 0 0 0 0 0 0 0 0 0 0 0 0 0 0 0 0 0 127 0"/>
<feOffset dy="1"/>
<feGaussianBlur stdDeviation="2"/>
<feColorMatrix type="matrix" values="0 0 0 0 0.533634 0 0 0 0 0.593599 0 0 0 0 0.713537 0 0 0 0.3 0"/>
<feBlend mode="normal" in2="BackgroundImageFix" result="effect1_dropShadow"/>
<feBlend mode="normal" in="SourceGraphic" in2="effect1_dropShadow" result="shape"/>
</filter>
<filter id="filter2_d" x="0" y="0" width="120" height="120" filterUnits="userSpaceOnUse" color-interpolation-filters="sRGB">
<feFlood flood-opacity="0" result="BackgroundImageFix"/>
<feColorMatrix in="SourceAlpha" type="matrix" values="0 0 0 0 0 0 0 0 0 0 0 0 0 0 0 0 0 0 127 0"/>
<feOffset dy="1"/>
<feGaussianBlur stdDeviation="2"/>
<feColorMatrix type="matrix" values="0 0 0 0 0.533634 0 0 0 0 0.593599 0 0 0 0 0.713537 0 0 0 0.3 0"/>
<feBlend mode="normal" in2="BackgroundImageFix" result="effect1_dropShadow"/>
<feBlend mode="normal" in="SourceGraphic" in2="effect1_dropShadow" result="shape"/>
</filter>
<linearGradient id="paint0_linear" x1="60" y1="3" x2="60" y2="115" gradientUnits="userSpaceOnUse">
<stop stop-color="white" stop-opacity="0.12"/>
<stop offset="0.536458" stop-color="white" stop-opacity="0"/>
<stop offset="1" stop-color="white" stop-opacity="0"/>
</linearGradient>
<linearGradient id="paint1_linear" x1="60" y1="25" x2="60" y2="66" gradientUnits="userSpaceOnUse">
<stop stop-color="#973545"/>
<stop offset="0.223958" stop-color="#A73245"/>
<stop offset="1" stop-color="#6C202C"/>
</linearGradient>
</defs>
</svg>
