<?xml version="1.0" encoding="utf-8"?>
<!-- Generator: Adobe Illustrator 24.0.3, SVG Export Plug-In . SVG Version: 6.00 Build 0)  -->
<svg version="1.1" id="Layer_1" xmlns="http://www.w3.org/2000/svg" xmlns:xlink="http://www.w3.org/1999/xlink" x="0px" y="0px"
	 viewBox="0 0 300 300" style="enable-background:new 0 0 300 300;" xml:space="preserve">
<style type="text/css">
	.st0{fill-rule:evenodd;clip-rule:evenodd;}
</style>
<title>azess2</title>
<path id="AZESS" class="st0" d="M12.6,173.8c0,0.3,0.2,0.5,0.5,0.5h37.1l0.8-0.8v-8.9l-0.8-1H31.3c-0.3,0-0.5-0.2-0.5-0.6v-0.9
	l11.5-21.8l0.4,0.1l17.1,33.8h11.9c0.2,0,0.5-0.1,0.6-0.3c0.1-0.2,0.1-0.4,0.1-0.7v-1c0-0.2,0-0.5-0.1-0.7c-0.1-0.3-0.2-0.6-0.4-0.8
	l-24.1-45.2H37l-24.3,45.9l-0.3,1.4C12.5,173.2,12.5,173.5,12.6,173.8z M121.3,125.7h-42l-0.6,1v8.4l0.7,1.1h25.4l0.7,1.1
	l-25.8,25.8l-1,0.7v9.5l1,1.1h42l0.7-1v-8.5l-0.8-1H96.5l-0.7-1.1l25.6-25.7l1-0.8v-9.5L121.3,125.7z M129.8,173.2l1,1.1h45.8l0.7-1
	v-8.5l-0.8-1h-34l-0.7-1.1v-25.4l0.7-1.1h34l0.8-1.1v-8.4l-0.7-1h-45.8l-1,0.7L129.8,173.2L129.8,173.2z M171.9,144.7h-26.2
	l-0.8,0.8v8.9l0.8,0.8h26.2l0.8-0.8v-8.9L171.9,144.7z M185.3,150.4c0.3,0.8,0.7,1.6,1.2,2.3c0.5,0.7,1.1,1.3,1.7,1.8
	c0.6,0.4,1.3,0.7,2,0.7h30.1v8.5h-34.9l-0.7,1v8.5l0.6,1h41.6c0.7,0,1.4-0.3,1.9-0.7c0.7-0.5,1.3-1.1,1.8-1.8c0.5-0.7,1-1.4,1.3-2.2
	c0.3-0.7,0.5-1.5,0.5-2.2v-15.6c0-0.8-0.2-1.5-0.5-2.2c-0.3-0.8-0.8-1.6-1.3-2.3c-0.5-0.7-1.1-1.3-1.8-1.8c-0.6-0.4-1.2-0.7-1.9-0.7
	h-30.1v-8.5h34.8l0.8-1.1v-8.4l-0.7-1h-41.5c-0.7,0-1.4,0.3-2,0.7c-0.7,0.5-1.2,1.1-1.7,1.8c-0.5,0.7-0.9,1.5-1.2,2.3
	c-0.3,0.7-0.5,1.5-0.5,2.2v15.6C184.8,149.1,185,149.8,185.3,150.4L185.3,150.4z M240.4,150.4c0.3,0.8,0.7,1.6,1.2,2.3
	c0.5,0.7,1,1.3,1.7,1.8c0.6,0.4,1.3,0.7,2,0.7h30.1v8.5h-34.9l-0.7,1v8.5l0.6,1h41.5c0.7,0,1.4-0.3,2-0.7c0.7-0.5,1.3-1.1,1.8-1.8
	c0.5-0.7,0.9-1.4,1.3-2.2c0.3-0.7,0.5-1.5,0.5-2.2v-15.6c0-0.8-0.2-1.5-0.5-2.2c-0.3-0.8-0.8-1.6-1.3-2.3c-0.5-0.7-1.1-1.3-1.8-1.8
	c-0.6-0.4-1.2-0.7-2-0.7H252v-8.5h34.8l0.8-1.1v-8.4l-0.7-1h-41.5c-0.7,0-1.4,0.3-2,0.7c-0.7,0.5-1.2,1.1-1.7,1.8
	c-0.5,0.7-0.9,1.5-1.2,2.3c-0.3,0.7-0.5,1.5-0.5,2.2v15.6C239.9,149.1,240.1,149.8,240.4,150.4L240.4,150.4z"/>
</svg>
