<svg width="30" height="30" viewBox="0 0 30 30" fill="none" xmlns="http://www.w3.org/2000/svg">
<path fill-rule="evenodd" clip-rule="evenodd" d="M0 5C0 2.23858 2.23858 0 5 0H25C27.7614 0 30 2.23858 30 5V25C30 27.7614 27.7614 30 25 30H5C2.23858 30 0 27.7614 0 25V5ZM12.704 24.7558C12.704 24.7414 12.703 24.7269 12.7021 24.7127C12.7011 24.6989 12.7002 24.6854 12.7002 24.6722V18.1413C12.7002 18.1047 12.7002 18.0868 12.6913 18.0771C12.6828 18.0679 12.6663 18.0662 12.634 18.0628L12.6258 18.0619C12.2973 18.0273 11.9948 17.9278 11.7448 17.7009C11.5495 17.5217 11.4216 17.281 11.3825 17.0188C11.3673 16.9344 11.3596 16.8488 11.3595 16.763V11.9908C11.3534 11.732 11.4254 11.4773 11.566 11.2599C11.7528 10.9786 12.0257 10.8244 12.3454 10.7412C12.4891 10.7046 12.6368 10.6863 12.7851 10.6869C14.5523 10.6869 16.3198 10.6876 18.0876 10.689C18.4019 10.689 18.6953 10.7692 18.941 10.9815C19.1621 11.1717 19.2862 11.4187 19.3556 11.6966C19.3851 11.8107 19.4005 11.9281 19.4016 12.046V16.7543C19.4076 16.9984 19.3458 17.2394 19.2231 17.4505C19.043 17.751 18.7668 17.919 18.4366 18.0097C18.3286 18.0412 18.2172 18.0597 18.1048 18.0649C18.0713 18.0649 18.0605 18.0799 18.063 18.1108V18.1643V24.6722V24.6722C18.063 24.7006 18.063 24.729 18.0596 24.7558H12.704ZM7.34415 24.7127C7.34511 24.7269 7.34608 24.7414 7.34608 24.7558H11.3631L11.3644 24.7388C11.3654 24.7249 11.3665 24.7112 11.3665 24.6973V19.4699C11.3665 19.3926 11.3661 19.3918 11.29 19.3863C11.1564 19.377 11.0245 19.3506 10.8976 19.3078C10.5636 19.1953 10.3012 18.9973 10.1495 18.6709C10.0622 18.4684 10.0207 18.2492 10.0279 18.0289V11.4258C10.029 11.3331 10.0381 11.2407 10.055 11.1495C10.0791 11.0087 10.1187 10.8709 10.1729 10.7387C10.1884 10.7011 10.18 10.6869 10.1382 10.6869H10.0847H7.42799C7.27984 10.6862 7.13221 10.7046 6.98875 10.7416C6.66904 10.8244 6.39614 10.979 6.20933 11.2603C6.06825 11.4795 5.99632 11.7361 6.00288 11.9967V16.753C6.00278 16.8421 6.01047 16.9311 6.02586 17.0188C6.06486 17.2809 6.19244 17.5218 6.38737 17.7013C6.63603 17.9265 6.93651 18.0268 7.26291 18.0611L7.27889 18.0627L7.29182 18.0637C7.31403 18.0655 7.32648 18.0665 7.33345 18.0732C7.34235 18.0817 7.34234 18.0995 7.34232 18.1401L7.34231 18.1468V24.6722C7.34231 24.6854 7.34323 24.6989 7.34415 24.7127L7.34415 24.7127ZM19.3995 24.7549C19.3995 24.7434 19.3986 24.7318 19.3976 24.7202C19.3967 24.7086 19.3958 24.697 19.3958 24.6855V19.4799C19.3958 19.437 19.3958 19.416 19.4062 19.4045C19.4162 19.3936 19.4356 19.3912 19.4737 19.3867L19.4877 19.385C19.8346 19.3503 20.148 19.2371 20.3984 18.9834C20.5748 18.8007 20.6858 18.5647 20.7139 18.3122C20.7294 18.1954 20.7365 18.0777 20.7352 17.9599V11.4905C20.7347 11.2387 20.6878 10.9893 20.5969 10.7545C20.573 10.6914 20.5747 10.6881 20.6387 10.6881C20.9034 10.6881 21.1681 10.6878 21.4327 10.6875C22.1086 10.6867 22.7843 10.686 23.4613 10.6902C23.8257 10.6923 24.1542 10.8043 24.4054 11.0855C24.5884 11.2916 24.6871 11.5381 24.7355 11.8064C24.7414 11.8378 24.7477 11.8691 24.7539 11.9005V16.9155L24.7351 17.0204C24.696 17.2825 24.5684 17.5233 24.3736 17.7029C24.125 17.9277 23.8245 18.0288 23.496 18.0627C23.4847 18.0639 23.475 18.0646 23.4668 18.0653C23.4441 18.0671 23.4317 18.068 23.4249 18.0747C23.4168 18.0827 23.4169 18.099 23.417 18.1348L23.417 18.1484V24.6721C23.417 24.7005 23.417 24.729 23.4137 24.7557L19.3995 24.7549ZM14.598 9.88213C14.8454 9.98207 15.1101 10.0318 15.3769 10.0286C15.6414 10.0294 15.9034 9.97814 16.1481 9.8776C16.3927 9.77706 16.6151 9.62926 16.8025 9.44265C16.9899 9.25604 17.1387 9.0343 17.2403 8.79011C17.3419 8.54593 17.3944 8.2841 17.3946 8.01962C17.4009 6.90837 16.4961 6.00984 15.3848 6.00273C15.1181 5.9984 14.8531 6.04713 14.6054 6.14609C14.3576 6.24505 14.132 6.39227 13.9417 6.57919C13.7513 6.76611 13.6 6.989 13.4966 7.23491C13.3931 7.48082 13.3396 7.74484 13.339 8.01162C13.3385 8.27841 13.391 8.54263 13.4935 8.78895C13.596 9.03526 13.7464 9.25875 13.936 9.44642C14.1256 9.63409 14.3507 9.78219 14.598 9.88213ZM20.7337 6.00265C21.0004 5.99909 21.2652 6.04859 21.5126 6.14826C21.7601 6.24793 21.9852 6.3958 22.175 6.58325C22.3648 6.77071 22.5154 6.99402 22.6181 7.2402C22.7208 7.48638 22.7735 7.75052 22.7733 8.01726C22.773 8.28401 22.7197 8.54804 22.6165 8.79401C22.5132 9.03997 22.3622 9.26297 22.172 9.45003C21.9818 9.63709 21.7564 9.78448 21.5088 9.88364C21.2611 9.9828 20.9963 10.0318 20.7295 10.0276C19.6755 10.0168 18.7235 9.18177 18.7235 8.02162C18.7218 7.75675 18.7726 7.49416 18.8729 7.249C18.9732 7.00385 19.1211 6.78099 19.3079 6.59328C19.4948 6.40558 19.717 6.25674 19.9618 6.15537C20.2065 6.05399 20.4688 6.00209 20.7337 6.00265ZM10.7967 6.15388C10.5514 6.05272 10.2883 6.00127 10.0229 6.00249V6.00332C9.48914 6.0041 8.97751 6.2169 8.6006 6.5949C8.22369 6.9729 8.01238 7.48515 8.01316 8.01896C8.01394 8.55276 8.22673 9.06439 8.60474 9.4413C8.98274 9.8182 9.49499 10.0295 10.0288 10.0287C11.0535 10.0195 12.0327 9.20836 12.0382 8.02272C12.04 7.75731 11.9892 7.49418 11.8887 7.24855C11.7881 7.00292 11.6399 6.77969 11.4524 6.59178C11.265 6.40387 11.0421 6.25503 10.7967 6.15388Z" fill="white"/>
</svg>
