<?xml version="1.0" encoding="utf-8"?>
<!-- Generator: Adobe Illustrator 24.0.3, SVG Export Plug-In . SVG Version: 6.00 Build 0)  -->
<svg version="1.1" id="Layer_1" xmlns="http://www.w3.org/2000/svg" xmlns:xlink="http://www.w3.org/1999/xlink" x="0px" y="0px"
	 viewBox="0 0 30 30" style="enable-background:new 0 0 30 30;" xml:space="preserve">
<style type="text/css">
	.st0{fill-rule:evenodd;clip-rule:evenodd;fill:#8C2133;}
</style>
<path class="st0" d="M0,5c0-2.8,2.2-5,5-5h20c2.8,0,5,2.2,5,5v20c0,2.8-2.2,5-5,5H5c-2.8,0-5-2.2-5-5V5z M12.7,24.8
	C12.7,24.7,12.7,24.7,12.7,24.8C12.7,24.7,12.7,24.7,12.7,24.8l0-6.6c0,0,0-0.1,0-0.1c0,0,0,0-0.1,0l0,0c-0.3,0-0.6-0.1-0.9-0.4
	c-0.2-0.2-0.3-0.4-0.4-0.7c0-0.1,0-0.2,0-0.3V12c0-0.3,0.1-0.5,0.2-0.7c0.2-0.3,0.5-0.4,0.8-0.5c0.1,0,0.3-0.1,0.4-0.1
	c1.8,0,3.5,0,5.3,0c0.3,0,0.6,0.1,0.9,0.3c0.2,0.2,0.3,0.4,0.4,0.7c0,0.1,0,0.2,0,0.3v4.7c0,0.2-0.1,0.5-0.2,0.7
	c-0.2,0.3-0.5,0.5-0.8,0.6c-0.1,0-0.2,0-0.3,0.1c0,0,0,0,0,0v0.1v6.5l0,0c0,0,0,0.1,0,0.1H12.7z M7.3,24.7
	C7.3,24.7,7.3,24.7,7.3,24.7l4,0l0,0c0,0,0,0,0,0v-5.2c0-0.1,0-0.1-0.1-0.1c-0.1,0-0.3,0-0.4-0.1c-0.3-0.1-0.6-0.3-0.7-0.6
	C10.1,18.5,10,18.2,10,18v-6.6c0-0.1,0-0.2,0-0.3c0-0.1,0.1-0.3,0.1-0.4c0,0,0-0.1,0-0.1h-0.1H7.4c-0.1,0-0.3,0-0.4,0.1
	c-0.3,0.1-0.6,0.2-0.8,0.5C6.1,11.5,6,11.7,6,12v4.8c0,0.1,0,0.2,0,0.3c0,0.3,0.2,0.5,0.4,0.7c0.2,0.2,0.5,0.3,0.9,0.4l0,0l0,0
	c0,0,0,0,0,0c0,0,0,0,0,0.1l0,0L7.3,24.7C7.3,24.7,7.3,24.7,7.3,24.7L7.3,24.7z M19.4,24.8C19.4,24.7,19.4,24.7,19.4,24.8
	C19.4,24.7,19.4,24.7,19.4,24.8l0-5.3c0,0,0-0.1,0-0.1c0,0,0,0,0.1,0l0,0c0.3,0,0.7-0.1,0.9-0.4c0.2-0.2,0.3-0.4,0.3-0.7
	c0-0.1,0-0.2,0-0.4v-6.5c0-0.3,0-0.5-0.1-0.7c0-0.1,0-0.1,0-0.1c0.3,0,0.5,0,0.8,0c0.7,0,1.4,0,2,0c0.4,0,0.7,0.1,0.9,0.4
	c0.2,0.2,0.3,0.5,0.3,0.7c0,0,0,0.1,0,0.1v5l0,0.1c0,0.3-0.2,0.5-0.4,0.7c-0.2,0.2-0.5,0.3-0.9,0.4c0,0,0,0,0,0c0,0,0,0,0,0
	c0,0,0,0,0,0.1v0v6.5c0,0,0,0.1,0,0.1L19.4,24.8z M14.6,9.9c0.2,0.1,0.5,0.1,0.8,0.1c0.3,0,0.5-0.1,0.8-0.2c0.2-0.1,0.5-0.2,0.7-0.4
	C17,9.3,17.1,9,17.2,8.8c0.1-0.2,0.2-0.5,0.2-0.8c0-1.1-0.9-2-2-2c-0.3,0-0.5,0-0.8,0.1c-0.2,0.1-0.5,0.2-0.7,0.4
	c-0.2,0.2-0.3,0.4-0.4,0.7c-0.1,0.2-0.2,0.5-0.2,0.8c0,0.3,0.1,0.5,0.2,0.8c0.1,0.2,0.3,0.5,0.4,0.7C14.1,9.6,14.4,9.8,14.6,9.9z
	 M20.7,6c0.3,0,0.5,0,0.8,0.1c0.2,0.1,0.5,0.2,0.7,0.4c0.2,0.2,0.3,0.4,0.4,0.7c0.1,0.2,0.2,0.5,0.2,0.8c0,0.3-0.1,0.5-0.2,0.8
	c-0.1,0.2-0.3,0.5-0.4,0.7c-0.2,0.2-0.4,0.3-0.7,0.4C21.3,10,21,10,20.7,10c-1.1,0-2-0.8-2-2c0-0.3,0-0.5,0.1-0.8
	C19,7,19.1,6.8,19.3,6.6c0.2-0.2,0.4-0.3,0.7-0.4C20.2,6.1,20.5,6,20.7,6z M10.8,6.2C10.6,6.1,10.3,6,10,6v0C9.5,6,9,6.2,8.6,6.6
	C8.2,7,8,7.5,8,8c0,0.5,0.2,1,0.6,1.4C9,9.8,9.5,10,10,10c1,0,2-0.8,2-2c0-0.3,0-0.5-0.1-0.8c-0.1-0.2-0.2-0.5-0.4-0.7
	C11.3,6.4,11,6.3,10.8,6.2z"/>
</svg>
