<svg width="11" height="15" viewBox="0 0 11 15" fill="none" xmlns="http://www.w3.org/2000/svg">
<path d="M0.00173432 7.50101C0.00173432 5.37962 0.00173432 3.2581 0.00173432 1.13646C0.00173432 0.431122 0.411828 0 1.08074 0C3.17978 0 5.27882 0 7.37786 0C7.59609 0 7.59643 7.16715e-07 7.59643 0.239024C7.59643 1.22371 7.59643 2.2084 7.59643 3.19309C7.59643 3.4926 7.69185 3.59195 7.97808 3.59195H10.8022C10.9993 3.59195 11 3.59195 11 3.80311C11 7.17315 11 10.5433 11 13.9136C11 14.5276 10.5628 14.998 9.9817 14.9984C6.99378 15.0005 4.00598 15.0005 1.01829 14.9984C0.435767 14.9984 0.000346948 14.5287 0 13.9128C0.000462598 11.7753 0.00104042 9.63804 0.00173432 7.50101ZM5.35792 8.56158C6.16469 8.56158 6.97135 8.56158 7.77789 8.56158C8.01798 8.56158 8.1068 8.46297 8.1061 8.20965C8.10367 7.21689 7.45315 6.27216 6.53234 5.96092C5.86343 5.73473 5.16814 5.78275 4.49159 5.8788C3.44589 6.02544 2.62952 7.05926 2.60662 8.16932C2.60038 8.4747 2.67844 8.56122 2.96676 8.56158C3.76381 8.56207 4.56087 8.56207 5.35792 8.56158ZM6.93515 3.48784C6.92682 3.34926 6.92891 3.24698 6.91399 3.14726C6.84835 2.72138 6.62927 2.33886 6.30266 2.07985C5.97605 1.82085 5.56724 1.70545 5.1619 1.75785C4.38231 1.85573 3.74461 2.55777 3.7741 3.4926C3.79492 4.15248 4.04958 4.72071 4.51519 5.17053C5.00369 5.64234 5.59732 5.67571 6.11115 5.23872C6.64545 4.7834 6.90219 4.17228 6.93515 3.48784ZM5.50919 11.1007H2.21076C2.00918 11.1007 1.80725 11.0974 1.60568 11.1036C1.54001 11.1031 1.47663 11.1291 1.42852 11.1763C1.3804 11.2235 1.35119 11.2884 1.34685 11.3576C1.33869 11.4262 1.35419 11.4955 1.39051 11.553C1.42684 11.6104 1.48155 11.6521 1.54461 11.6704C1.6191 11.6906 1.69618 11.698 1.77291 11.6923H9.2774C9.34461 11.6972 9.41208 11.6885 9.4762 11.6667C9.53776 11.6432 9.58959 11.5977 9.62267 11.538C9.65576 11.4783 9.66801 11.4083 9.65731 11.34C9.64785 11.2743 9.6166 11.2143 9.56913 11.1706C9.52166 11.127 9.46106 11.1026 9.39814 11.1018C9.33603 11.0981 9.27358 11.1018 9.21113 11.1018L5.50919 11.1007ZM5.50052 13.2475H9.25971C9.31761 13.2506 9.37566 13.2482 9.43318 13.2405C9.49845 13.2278 9.55725 13.1907 9.59889 13.1361C9.64054 13.0815 9.66229 13.0129 9.66019 12.9428C9.65809 12.8727 9.63229 12.8057 9.58746 12.754C9.54263 12.7023 9.48174 12.6693 9.41583 12.6609C9.36323 12.6561 9.31039 12.6547 9.25762 12.6569H1.70941C1.671 12.6555 1.63254 12.6564 1.59423 12.6598C1.52651 12.6658 1.46338 12.6984 1.41722 12.7511C1.37107 12.8038 1.34522 12.8729 1.34477 12.9447C1.34452 13.0162 1.36837 13.0854 1.41205 13.14C1.45572 13.1946 1.51637 13.231 1.58313 13.2427C1.64076 13.2489 1.69873 13.2506 1.7566 13.2478L5.50052 13.2475ZM5.51058 9.5448H1.76354C1.70116 9.54284 1.63873 9.54455 1.57653 9.54994C1.51209 9.55915 1.45298 9.59266 1.41008 9.64429C1.36717 9.69593 1.34338 9.76221 1.34309 9.83092C1.34279 9.89963 1.36601 9.96614 1.40847 10.0182C1.45092 10.0702 1.50975 10.1043 1.5741 10.1141C1.63174 10.1201 1.68969 10.1222 1.74758 10.1204H9.24166C9.30406 10.1223 9.36651 10.1203 9.42867 10.1141C9.49393 10.1073 9.55427 10.0744 9.59744 10.0223C9.64062 9.97013 9.66339 9.90257 9.66112 9.83332C9.66112 9.65002 9.54802 9.5459 9.33048 9.54554C8.05672 9.54358 6.78342 9.54285 5.51058 9.54334V9.5448Z" fill="white"/>
<path d="M9.51951 2.99589C9.0776 2.99589 8.63569 2.99194 8.19418 2.99787C8.05569 2.99985 8.00124 2.9583 8.00203 2.8115C8.00755 1.91999 8.00439 1.02809 8.00558 0.136191C8.00558 0.0906857 7.98072 0.0246044 8.03596 0.00402817C8.0912 -0.0165481 8.11842 0.0467636 8.15157 0.0796064C9.07589 1.00132 9.99983 1.92382 10.9234 2.84711C10.9557 2.87956 11.0185 2.90805 10.9948 2.96344C10.9711 3.01884 10.9076 2.99471 10.8618 2.9951C10.4144 2.99668 9.96695 2.99589 9.51951 2.99589Z" fill="white"/>
<path d="M5.39781 7.73242C4.93787 7.73242 4.47778 7.73242 4.01752 7.73242C3.88759 7.73242 3.87892 7.7193 3.91459 7.59624C3.98533 7.34905 4.1371 7.13106 4.34684 6.97538C4.55659 6.8197 4.81286 6.73483 5.07672 6.73366C5.30332 6.73225 5.53015 6.73178 5.75674 6.73366C6.27863 6.73952 6.77882 7.1387 6.89139 7.6321C6.91381 7.73078 6.85909 7.73219 6.78822 7.73219C6.32491 7.73203 5.86144 7.73211 5.39781 7.73242Z" fill="white"/>
<path d="M5.31984 2.70029C5.46566 2.70013 5.60979 2.72623 5.7422 2.7768C5.87461 2.82736 5.99214 2.90117 6.08664 2.9931C6.18113 3.08503 6.25032 3.19288 6.2894 3.30917C6.32849 3.42545 6.33653 3.54738 6.31297 3.66649C6.25365 3.98688 6.09706 4.26855 5.81912 4.49804C5.49576 4.76484 5.14934 4.76989 4.83344 4.5C4.46466 4.18438 4.25417 3.81097 4.34874 3.36041C4.42907 2.97578 4.84734 2.70001 5.31984 2.70029Z" fill="white"/>
</svg>
