<svg width="172" height="172" viewBox="0 0 172 172" fill="none" xmlns="http://www.w3.org/2000/svg">
<g filter="url(#filter0_d)">
<path d="M4 18C4 9.71572 10.7157 3 19 3H153C161.284 3 168 9.71573 168 18V152C168 160.284 161.284 167 153 167H19C10.7157 167 4 160.284 4 152V18Z" fill="url(#paint0_linear)" fill-opacity="0.6"/>
</g>
<g filter="url(#filter1_d)">
<path d="M57 50C57 41.7157 63.7157 35 72 35H100C108.284 35 115 41.7157 115 50V80C115 88.2843 108.284 95 100 95H72C63.7157 95 57 88.2843 57 80V50Z" fill="url(#paint1_linear)"/>
</g>
<g filter="url(#filter2_d)">
<path fill-rule="evenodd" clip-rule="evenodd" d="M153 5H19C11.8203 5 6 10.8203 6 18V152C6 159.18 11.8203 165 19 165H153C160.18 165 166 159.18 166 152V18C166 10.8203 160.18 5 153 5ZM19 3C10.7157 3 4 9.71572 4 18V152C4 160.284 10.7157 167 19 167H153C161.284 167 168 160.284 168 152V18C168 9.71573 161.284 3 153 3H19Z" fill="white"/>
</g>
<path d="M82.8506 77.8486V68.5469H73.4756V62.126H82.8506V52.8242H89.1006V62.126H98.5V68.5469H89.1006V77.8486H82.8506Z" fill="white"/>
<path d="M30.9277 123.844L32.6094 124.377C32.3516 125.314 31.9219 126.012 31.3203 126.469C30.7227 126.922 29.9629 127.148 29.041 127.148C27.9004 127.148 26.9629 126.76 26.2285 125.982C25.4941 125.201 25.127 124.135 25.127 122.783C25.127 121.354 25.4961 120.244 26.2344 119.455C26.9727 118.662 27.9434 118.266 29.1465 118.266C30.1973 118.266 31.0508 118.576 31.707 119.197C32.0977 119.564 32.3906 120.092 32.5859 120.779L30.8691 121.189C30.7676 120.744 30.5547 120.393 30.2305 120.135C29.9102 119.877 29.5195 119.748 29.0586 119.748C28.4219 119.748 27.9043 119.977 27.5059 120.434C27.1113 120.891 26.9141 121.631 26.9141 122.654C26.9141 123.74 27.1094 124.514 27.5 124.975C27.8906 125.436 28.3984 125.666 29.0234 125.666C29.4844 125.666 29.8809 125.52 30.2129 125.227C30.5449 124.934 30.7832 124.473 30.9277 123.844Z" fill="#8C2133"/>
<path d="M33.4473 122.76C33.4473 121.885 33.5781 121.15 33.8398 120.557C34.0352 120.119 34.3008 119.727 34.6367 119.379C34.9766 119.031 35.3477 118.773 35.75 118.605C36.2852 118.379 36.9023 118.266 37.6016 118.266C38.8672 118.266 39.8789 118.658 40.6367 119.443C41.3984 120.229 41.7793 121.32 41.7793 122.719C41.7793 124.105 41.4023 125.191 40.6484 125.977C39.8945 126.758 38.8867 127.148 37.625 127.148C36.3477 127.148 35.332 126.76 34.5781 125.982C33.8242 125.201 33.4473 124.127 33.4473 122.76ZM35.2344 122.701C35.2344 123.674 35.459 124.412 35.9082 124.916C36.3574 125.416 36.9277 125.666 37.6191 125.666C38.3105 125.666 38.877 125.418 39.3184 124.922C39.7637 124.422 39.9863 123.674 39.9863 122.678C39.9863 121.693 39.7695 120.959 39.3359 120.475C38.9062 119.99 38.334 119.748 37.6191 119.748C36.9043 119.748 36.3281 119.994 35.8906 120.486C35.4531 120.975 35.2344 121.713 35.2344 122.701Z" fill="#8C2133"/>
<path d="M44.3633 120.756L42.6758 120.363C43.0391 118.965 44.0723 118.266 45.7754 118.266C46.7832 118.266 47.543 118.488 48.0547 118.934C48.5703 119.375 48.8281 119.895 48.8281 120.492C48.8281 120.902 48.7109 121.273 48.4766 121.605C48.2422 121.934 47.8906 122.223 47.4219 122.473C47.9922 122.668 48.4199 122.945 48.7051 123.305C48.9902 123.66 49.1328 124.1 49.1328 124.623C49.1328 125.377 48.8555 125.986 48.3008 126.451C47.75 126.916 46.9238 127.148 45.8223 127.148C44.9238 127.148 44.2148 127 43.6953 126.703C43.1758 126.402 42.7852 125.842 42.5234 125.021L44.1113 124.5C44.2754 125.016 44.4922 125.35 44.7617 125.502C45.0352 125.654 45.3711 125.73 45.7695 125.73C46.3164 125.73 46.7148 125.613 46.9648 125.379C47.2148 125.141 47.3398 124.869 47.3398 124.564C47.3398 124.213 47.1973 123.93 46.9121 123.715C46.6309 123.5 46.2051 123.393 45.6348 123.393H45.2422V122.098H45.4414C45.9727 122.098 46.3789 121.979 46.6602 121.74C46.9414 121.502 47.082 121.186 47.082 120.791C47.082 120.479 46.9668 120.215 46.7363 120C46.5098 119.785 46.1836 119.678 45.7578 119.678C45.0312 119.678 44.5664 120.037 44.3633 120.756Z" fill="#8C2133"/>
<path d="M51.3535 118.412H57.2891V125.561H58.0449V128.877H56.6035V127.002H51.1953V128.877H49.7539V125.561H50.4805C50.8359 124.826 51.0703 123.975 51.1836 123.006C51.2969 122.033 51.3535 120.805 51.3535 119.32V118.412ZM53.0059 119.854C53.0059 122.463 52.7695 124.365 52.2969 125.561H55.5605V119.854H53.0059Z" fill="#8C2133"/>
<path d="M66.9629 127.002H65.0762L64.3262 125.051H60.8926L60.1836 127.002H58.3438L61.6895 118.412H63.5234L66.9629 127.002ZM63.7695 123.604L62.5859 120.416L61.4258 123.604H63.7695Z" fill="#8C2133"/>
<path d="M69.2246 127.002V119.865H66.6758V118.412H73.502V119.865H70.959V127.002H69.2246Z" fill="#8C2133"/>
<path d="M74.6621 118.412H76.3965V121.846H78.7168C79.8105 121.846 80.6016 122.102 81.0898 122.613C81.582 123.125 81.8281 123.738 81.8281 124.453C81.8281 125.039 81.6797 125.537 81.3828 125.947C81.0859 126.357 80.7461 126.637 80.3633 126.785C79.9844 126.93 79.4355 127.002 78.7168 127.002H74.6621V118.412ZM76.3965 125.561H78.084C78.6309 125.561 79.0098 125.535 79.2207 125.484C79.4316 125.43 79.6191 125.309 79.7832 125.121C79.9512 124.934 80.0352 124.703 80.0352 124.43C80.0352 124.035 79.8926 123.746 79.6074 123.562C79.3262 123.379 78.8438 123.287 78.1602 123.287H76.3965V125.561Z" fill="#8C2133"/>
<path d="M86.6152 118.412H93.4473V127.002H91.7129V119.854H88.3496V127.002H86.6152V118.412Z" fill="#8C2133"/>
<path d="M95.2168 127.002V118.412H98C99.0547 118.412 99.7422 118.455 100.062 118.541C100.555 118.67 100.967 118.951 101.299 119.385C101.631 119.814 101.797 120.371 101.797 121.055C101.797 121.582 101.701 122.025 101.51 122.385C101.318 122.744 101.074 123.027 100.777 123.234C100.484 123.438 100.186 123.572 99.8809 123.639C99.4668 123.721 98.8672 123.762 98.082 123.762H96.9512V127.002H95.2168ZM96.9512 119.865V122.303H97.9004C98.584 122.303 99.041 122.258 99.2715 122.168C99.502 122.078 99.6816 121.938 99.8105 121.746C99.9434 121.555 100.01 121.332 100.01 121.078C100.01 120.766 99.918 120.508 99.7344 120.305C99.5508 120.102 99.3184 119.975 99.0371 119.924C98.8301 119.885 98.4141 119.865 97.7891 119.865H96.9512Z" fill="#8C2133"/>
<path d="M102.705 122.76C102.705 121.885 102.836 121.15 103.098 120.557C103.293 120.119 103.559 119.727 103.895 119.379C104.234 119.031 104.605 118.773 105.008 118.605C105.543 118.379 106.16 118.266 106.859 118.266C108.125 118.266 109.137 118.658 109.895 119.443C110.656 120.229 111.037 121.32 111.037 122.719C111.037 124.105 110.66 125.191 109.906 125.977C109.152 126.758 108.145 127.148 106.883 127.148C105.605 127.148 104.59 126.76 103.836 125.982C103.082 125.201 102.705 124.127 102.705 122.76ZM104.492 122.701C104.492 123.674 104.717 124.412 105.166 124.916C105.615 125.416 106.186 125.666 106.877 125.666C107.568 125.666 108.135 125.418 108.576 124.922C109.021 124.422 109.244 123.674 109.244 122.678C109.244 121.693 109.027 120.959 108.594 120.475C108.164 119.99 107.592 119.748 106.877 119.748C106.162 119.748 105.586 119.994 105.148 120.486C104.711 120.975 104.492 121.713 104.492 122.701Z" fill="#8C2133"/>
<path d="M117.494 126V127.002H115.795V126C114.424 125.949 113.455 125.611 112.889 124.986C112.326 124.357 112.045 123.572 112.045 122.631C112.045 121.639 112.34 120.844 112.93 120.246C113.52 119.645 114.475 119.318 115.795 119.268V118.418H117.494V119.268C118.857 119.318 119.822 119.654 120.389 120.275C120.959 120.896 121.244 121.684 121.244 122.637C121.244 123.582 120.961 124.367 120.395 124.992C119.828 125.613 118.861 125.949 117.494 126ZM117.494 124.553C117.947 124.553 118.336 124.477 118.66 124.324C118.988 124.172 119.221 123.967 119.357 123.709C119.494 123.451 119.562 123.074 119.562 122.578C119.562 121.336 118.873 120.715 117.494 120.715V124.553ZM115.795 124.553V120.715C115.064 120.715 114.537 120.879 114.213 121.207C113.889 121.531 113.727 122.023 113.727 122.684C113.727 123.93 114.416 124.553 115.795 124.553Z" fill="#8C2133"/>
<path d="M122.662 118.412H124.285V124.131L127.766 118.412H129.494V127.002H127.871V121.395L124.396 127.002H122.662V118.412Z" fill="#8C2133"/>
<path d="M131.879 118.412H137.896V127.002H136.162V119.865H133.578V123.533C133.578 124.584 133.543 125.318 133.473 125.736C133.402 126.15 133.23 126.475 132.957 126.709C132.688 126.939 132.264 127.055 131.686 127.055C131.482 127.055 131.113 127.035 130.578 126.996V125.654L130.965 125.66C131.328 125.66 131.572 125.611 131.697 125.514C131.822 125.416 131.885 125.176 131.885 124.793L131.879 123.316V118.412Z" fill="#8C2133"/>
<path d="M139.725 118.412H141.459V121.846H143.779C144.873 121.846 145.664 122.102 146.152 122.613C146.645 123.125 146.891 123.738 146.891 124.453C146.891 125.039 146.742 125.537 146.445 125.947C146.148 126.357 145.809 126.637 145.426 126.785C145.047 126.93 144.498 127.002 143.779 127.002H139.725V118.412ZM141.459 125.561H143.146C143.693 125.561 144.072 125.535 144.283 125.484C144.494 125.43 144.682 125.309 144.846 125.121C145.014 124.934 145.098 124.703 145.098 124.43C145.098 124.035 144.955 123.746 144.67 123.562C144.389 123.379 143.906 123.287 143.223 123.287H141.459V125.561Z" fill="#8C2133"/>
<path d="M62.5918 134.412H64.2148V140.131L67.6953 134.412H69.4238V143.002H67.8008V137.395L64.3262 143.002H62.5918V134.412Z" fill="#8C2133"/>
<path d="M71.2812 134.412H77.0996V135.854H73.0156V143.002H71.2812V134.412Z" fill="#8C2133"/>
<path d="M78.002 143.002V134.412H80.7852C81.8398 134.412 82.5273 134.455 82.8477 134.541C83.3398 134.67 83.752 134.951 84.084 135.385C84.416 135.814 84.582 136.371 84.582 137.055C84.582 137.582 84.4863 138.025 84.2949 138.385C84.1035 138.744 83.8594 139.027 83.5625 139.234C83.2695 139.438 82.9707 139.572 82.666 139.639C82.252 139.721 81.6523 139.762 80.8672 139.762H79.7363V143.002H78.002ZM79.7363 135.865V138.303H80.6855C81.3691 138.303 81.8262 138.258 82.0566 138.168C82.2871 138.078 82.4668 137.938 82.5957 137.746C82.7285 137.555 82.7949 137.332 82.7949 137.078C82.7949 136.766 82.7031 136.508 82.5195 136.305C82.3359 136.102 82.1035 135.975 81.8223 135.924C81.6152 135.885 81.1992 135.865 80.5742 135.865H79.7363Z" fill="#8C2133"/>
<path d="M85.4902 138.76C85.4902 137.885 85.6211 137.15 85.8828 136.557C86.0781 136.119 86.3438 135.727 86.6797 135.379C87.0195 135.031 87.3906 134.773 87.793 134.605C88.3281 134.379 88.9453 134.266 89.6445 134.266C90.9102 134.266 91.9219 134.658 92.6797 135.443C93.4414 136.229 93.8223 137.32 93.8223 138.719C93.8223 140.105 93.4453 141.191 92.6914 141.977C91.9375 142.758 90.9297 143.148 89.668 143.148C88.3906 143.148 87.375 142.76 86.6211 141.982C85.8672 141.201 85.4902 140.127 85.4902 138.76ZM87.2773 138.701C87.2773 139.674 87.502 140.412 87.9512 140.916C88.4004 141.416 88.9707 141.666 89.6621 141.666C90.3535 141.666 90.9199 141.418 91.3613 140.922C91.8066 140.422 92.0293 139.674 92.0293 138.678C92.0293 137.693 91.8125 136.959 91.3789 136.475C90.9492 135.99 90.377 135.748 89.6621 135.748C88.9473 135.748 88.3711 135.994 87.9336 136.486C87.4961 136.975 87.2773 137.713 87.2773 138.701Z" fill="#8C2133"/>
<path d="M95.2109 134.412H96.9453V138.068C97.332 138.029 97.5938 137.93 97.7305 137.77C97.8672 137.609 98.0781 137.164 98.3633 136.434C98.7227 135.504 99.084 134.926 99.4473 134.699C99.8066 134.473 100.387 134.359 101.188 134.359C101.227 134.359 101.311 134.357 101.439 134.354V135.637L101.193 135.631C100.838 135.631 100.578 135.676 100.414 135.766C100.25 135.852 100.117 135.984 100.016 136.164C99.9141 136.344 99.7637 136.713 99.5645 137.271C99.459 137.568 99.3438 137.816 99.2188 138.016C99.0977 138.215 98.8809 138.402 98.5684 138.578C98.9551 138.688 99.2734 138.908 99.5234 139.24C99.7773 139.572 100.055 140.041 100.355 140.646L101.527 143.002H99.4883L98.4629 140.781C98.4473 140.75 98.4141 140.689 98.3633 140.6C98.3438 140.568 98.2715 140.434 98.1465 140.195C97.9238 139.773 97.7402 139.51 97.5957 139.404C97.4551 139.299 97.2383 139.244 96.9453 139.24V143.002H95.2109V134.412Z" fill="#8C2133"/>
<path d="M110.252 143.002H108.365L107.615 141.051H104.182L103.473 143.002H101.633L104.979 134.412H106.812L110.252 143.002ZM107.059 139.604L105.875 136.416L104.715 139.604H107.059Z" fill="#8C2133"/>
<defs>
<filter id="filter0_d" x="0" y="0" width="172" height="172" filterUnits="userSpaceOnUse" color-interpolation-filters="sRGB">
<feFlood flood-opacity="0" result="BackgroundImageFix"/>
<feColorMatrix in="SourceAlpha" type="matrix" values="0 0 0 0 0 0 0 0 0 0 0 0 0 0 0 0 0 0 127 0"/>
<feOffset dy="1"/>
<feGaussianBlur stdDeviation="2"/>
<feColorMatrix type="matrix" values="0 0 0 0 0.533634 0 0 0 0 0.593599 0 0 0 0 0.713537 0 0 0 0.12 0"/>
<feBlend mode="normal" in2="BackgroundImageFix" result="effect1_dropShadow"/>
<feBlend mode="normal" in="SourceGraphic" in2="effect1_dropShadow" result="shape"/>
</filter>
<filter id="filter1_d" x="53" y="32" width="66" height="68" filterUnits="userSpaceOnUse" color-interpolation-filters="sRGB">
<feFlood flood-opacity="0" result="BackgroundImageFix"/>
<feColorMatrix in="SourceAlpha" type="matrix" values="0 0 0 0 0 0 0 0 0 0 0 0 0 0 0 0 0 0 127 0"/>
<feOffset dy="1"/>
<feGaussianBlur stdDeviation="2"/>
<feColorMatrix type="matrix" values="0 0 0 0 0.533634 0 0 0 0 0.593599 0 0 0 0 0.713537 0 0 0 0.3 0"/>
<feBlend mode="normal" in2="BackgroundImageFix" result="effect1_dropShadow"/>
<feBlend mode="normal" in="SourceGraphic" in2="effect1_dropShadow" result="shape"/>
</filter>
<filter id="filter2_d" x="0" y="0" width="172" height="172" filterUnits="userSpaceOnUse" color-interpolation-filters="sRGB">
<feFlood flood-opacity="0" result="BackgroundImageFix"/>
<feColorMatrix in="SourceAlpha" type="matrix" values="0 0 0 0 0 0 0 0 0 0 0 0 0 0 0 0 0 0 127 0"/>
<feOffset dy="1"/>
<feGaussianBlur stdDeviation="2"/>
<feColorMatrix type="matrix" values="0 0 0 0 0.533634 0 0 0 0 0.593599 0 0 0 0 0.713537 0 0 0 0.3 0"/>
<feBlend mode="normal" in2="BackgroundImageFix" result="effect1_dropShadow"/>
<feBlend mode="normal" in="SourceGraphic" in2="effect1_dropShadow" result="shape"/>
</filter>
<linearGradient id="paint0_linear" x1="86" y1="3" x2="86" y2="167" gradientUnits="userSpaceOnUse">
<stop stop-color="white" stop-opacity="0.12"/>
<stop offset="0.536458" stop-color="white" stop-opacity="0"/>
<stop offset="1" stop-color="white" stop-opacity="0"/>
</linearGradient>
<linearGradient id="paint1_linear" x1="86" y1="35" x2="86" y2="95" gradientUnits="userSpaceOnUse">
<stop stop-color="#973545"/>
<stop offset="0.223958" stop-color="#A73245"/>
<stop offset="1" stop-color="#6C202C"/>
</linearGradient>
</defs>
</svg>
