<svg width="30" height="30" viewBox="0 0 30 30" fill="none" xmlns="http://www.w3.org/2000/svg">
<path fill-rule="evenodd" clip-rule="evenodd" d="M5 0C2.23858 0 0 2.23858 0 5V25C0 27.7614 2.23858 30 5 30H25C27.7614 30 30 27.7614 30 25V5C30 2.23858 27.7614 0 25 0H5ZM18.4002 9.72305C17.3456 9.31576 16.1348 9.08491 14.8475 9.08491C13.5694 9.08491 12.3641 9.31345 11.3145 9.71546L14.8527 6.62305L18.4002 9.72305ZM23.6938 12.724C23.0894 12.1997 22.2794 11.9375 21.2635 11.9375H16.8563V14.8231H18.9872V13.7054H20.9202C21.4095 13.7054 21.79 13.8183 22.0617 14.0442C22.3335 14.27 22.4692 14.6483 22.469 15.179C22.469 15.7087 22.3333 16.0958 22.0617 16.3403C21.7902 16.5848 21.4097 16.7062 20.9202 16.7045H20.0877L16.8486 16.7006L16.855 22.1232H18.9859V18.4606H21.1232C22.2384 18.4606 23.0964 18.2118 23.6973 17.7141C24.2982 17.2164 24.5986 16.3663 24.5986 15.1638C24.5995 14.0627 24.2979 13.2495 23.6938 12.724ZM13.9128 13.4519C14.2715 13.9461 14.525 14.5052 14.6584 15.0963C14.7867 15.6497 14.8533 16.2149 14.8571 16.7822C14.8571 18.1364 14.5778 19.2834 14.0191 20.2231C13.2614 21.4898 12.0919 22.1232 10.5105 22.1232H6.00098V20.3483L8.1221 20.3543H10.1404C11.174 20.3545 11.8944 19.8596 12.3017 18.8695C12.5245 18.3258 12.6358 17.6787 12.6358 16.9281C12.6356 15.8913 12.4684 15.0954 12.1343 14.5403C11.8001 13.9852 11.1355 13.7077 10.1404 13.7077H8.12112V18.4501H6V11.9375H10.5118C11.1605 11.9475 11.7003 12.0216 12.131 12.1599C12.8639 12.3948 13.4579 12.8254 13.9128 13.4519Z" fill="#8C2133"/>
</svg>
