<svg width="30" height="30" viewBox="0 0 30 30" fill="none" xmlns="http://www.w3.org/2000/svg">
<path fill-rule="evenodd" clip-rule="evenodd" d="M5 0C2.23858 0 0 2.23858 0 5V25C0 27.7614 2.23858 30 5 30H25C27.7614 30 30 27.7614 30 25V5C30 2.23858 27.7614 0 25 0H5ZM18.4 9.72497C17.3454 9.31768 16.1346 9.08683 14.8473 9.08683C13.5692 9.08683 12.364 9.31537 11.3143 9.71738L14.8526 6.62497L18.4 9.72497ZM23.6951 12.7258C23.0908 12.2015 22.2807 11.9393 21.2649 11.9393H16.8577V14.8249H18.9886V13.7072H20.9216C21.4109 13.7072 21.7914 13.8201 22.0631 14.046C22.3348 14.2718 22.4706 14.6501 22.4704 15.1808C22.4704 15.7105 22.3346 16.0976 22.0631 16.342C21.7916 16.5865 21.4111 16.7079 20.9216 16.7062H20.0891L16.85 16.7024L16.8564 22.125H18.9873V18.4624H21.1246C22.2397 18.4624 23.0978 18.2136 23.6987 17.7159C24.2996 17.2182 24.6 16.3681 24.6 15.1656C24.6009 14.0645 24.2992 13.2513 23.6951 12.7258ZM13.9128 13.4537C14.2715 13.9479 14.525 14.507 14.6584 15.0981C14.7867 15.6515 14.8533 16.2167 14.8571 16.784C14.8571 18.1382 14.5778 19.2852 14.0191 20.2249C13.2614 21.4916 12.0919 22.125 10.5105 22.125H6.00098V20.3501L8.1221 20.3561H10.1404C11.174 20.3563 11.8944 19.8614 12.3017 18.8712C12.5245 18.3276 12.6358 17.6804 12.6358 16.9298C12.6356 15.8931 12.4684 15.0972 12.1343 14.5421C11.8001 13.987 11.1355 13.7094 10.1404 13.7094H8.12112V18.4519H6V11.9393H10.5118C11.1605 11.9492 11.7003 12.0234 12.131 12.1617C12.8639 12.3965 13.4579 12.8272 13.9128 13.4537Z" fill="white"/>
</svg>
