<svg width="17" height="17" viewBox="0 0 17 17" fill="none" xmlns="http://www.w3.org/2000/svg">
<path fill-rule="evenodd" clip-rule="evenodd" d="M5 0C2.23858 0 0 2.23858 0 5V12C0 14.7614 2.23858 17 5 17H12C14.7614 17 17 14.7614 17 12V5C17 2.23858 14.7614 0 12 0H5ZM12.5053 6.5439C12.5871 6.46352 12.669 6.38314 12.7506 6.30251V6.23163L10.7689 4.25H10.6981C10.6262 4.32286 10.5545 4.39594 10.4827 4.46905C10.2696 4.68612 10.0562 4.90344 9.8387 5.1161C9.7407 5.21211 9.73972 5.27447 9.8387 5.37345C10.4388 5.96577 11.035 6.56191 11.6273 7.16187C11.7263 7.26086 11.7885 7.26086 11.8847 7.16187C12.0886 6.95309 12.297 6.74849 12.5053 6.5439ZM4.25709 12.6011L4.70489 10.4246C4.70778 10.4105 4.70975 10.3952 4.71173 10.3797C4.71859 10.3262 4.72575 10.2703 4.77239 10.2524C4.82503 10.2322 4.86201 10.2767 4.89659 10.3183C4.90636 10.3301 4.91594 10.3416 4.92562 10.3514C5.50091 10.925 6.07501 11.4994 6.64792 12.0747C6.65778 12.0846 6.6695 12.0944 6.68144 12.1043C6.72269 12.1388 6.76671 12.1755 6.7469 12.2279C6.72889 12.2741 6.67269 12.2815 6.61908 12.2885C6.60375 12.2906 6.58863 12.2925 6.57467 12.2954L4.39903 12.743C4.27801 12.7694 4.23069 12.7221 4.25709 12.6011ZM11.1843 7.85814C11.2133 7.83076 11.2432 7.80246 11.2467 7.75205C11.2394 7.71351 11.2101 7.68481 11.1806 7.65592C11.1766 7.65201 11.1727 7.6481 11.1687 7.64416C10.5629 7.04155 9.95914 6.4367 9.35732 5.8296C9.27141 5.74329 9.21301 5.7419 9.1257 5.8296C7.86928 7.09051 6.61062 8.34911 5.34971 9.6054C5.26082 9.69409 5.26617 9.74991 5.35209 9.83524C5.95918 10.4368 6.5635 11.0411 7.16505 11.6482C7.25058 11.7345 7.3064 11.7387 7.39469 11.6502C8.6527 10.3909 9.91084 9.13173 11.1691 7.87281C11.174 7.86787 11.1792 7.86302 11.1843 7.85814Z" fill="#8C2133"/>
</svg>
