<svg width="40" height="40" viewBox="0 0 40 40" fill="none" xmlns="http://www.w3.org/2000/svg">
<ellipse cx="19.5" cy="20" rx="19.5" ry="20" fill="white"/>
<path fill-rule="evenodd" clip-rule="evenodd" d="M20 0.997506C9.50521 0.997506 0.997506 9.50521 0.997506 20C0.997506 30.4948 9.50521 39.0025 20 39.0025C30.4948 39.0025 39.0025 30.4948 39.0025 20C39.0025 9.50521 30.4948 0.997506 20 0.997506ZM0 20C0 8.9543 8.9543 0 20 0C31.0457 0 40 8.9543 40 20C40 31.0457 31.0457 40 20 40C8.9543 40 0 31.0457 0 20Z" fill="#17191A"/>
<path d="M20.1014 7.0001C27.1503 7.02623 32.8435 12.8587 32.8204 20.0276C32.7974 27.1674 26.9406 33.0413 19.8861 32.9998C12.8843 32.9583 7.15498 27.0587 7.17957 19.9149C7.20365 12.7198 12.9535 6.97293 20.1014 7.0001ZM19.9749 30.4548C25.7715 30.4656 30.3201 25.8739 30.3221 20.0097C30.3221 14.1337 25.789 9.45637 20.0652 9.43074C14.2757 9.40461 9.67843 14.063 9.6704 19.9656C9.66237 25.8426 14.1824 30.4436 19.9749 30.4548Z" fill="#17191A"/>
<path d="M19.9949 29C15.2063 28.9944 11.2894 24.9498 11.2821 20.0098C11.2747 15.1393 15.2455 11.0475 20.0248 11.0004C24.7285 10.9543 28.7179 15.1003 28.7179 20.0346C28.7179 24.969 24.7932 29.0051 19.9949 29ZM19.3393 17.4765H19.3354C19.3354 18.3682 19.3432 19.26 19.3354 20.1517C19.329 20.7272 19.549 21.0784 20.1399 21.0814C21.4996 21.088 22.8593 21.0936 24.219 21.0814C24.6016 21.0789 24.9897 20.9801 24.9789 20.4734C24.9681 19.9667 24.5698 19.9095 24.191 19.9014C23.5609 19.8877 22.9308 19.8897 22.3002 19.8907C20.3109 19.8938 20.6343 19.9125 20.6181 18.1975C20.6054 17.0322 20.6181 15.8669 20.5995 14.7015C20.5936 14.2856 20.4295 13.9461 19.9664 13.9415C19.4912 13.9355 19.3486 14.28 19.3447 14.6985C19.3334 15.6247 19.3393 16.5503 19.3393 17.4765Z" fill="#17191A"/>
</svg>
