<svg width="39" height="39" viewBox="0 0 39 39" fill="none" xmlns="http://www.w3.org/2000/svg">
<circle cx="19.5" cy="19.5" r="19.5" fill="white"/>
<path fill-rule="evenodd" clip-rule="evenodd" d="M19.5 0.972569C9.26758 0.972569 0.972569 9.26758 0.972569 19.5C0.972569 29.7324 9.26758 38.0274 19.5 38.0274C29.7324 38.0274 38.0274 29.7324 38.0274 19.5C38.0274 9.26758 29.7324 0.972569 19.5 0.972569ZM0 19.5C0 8.73045 8.73045 0 19.5 0C30.2696 0 39 8.73045 39 19.5C39 30.2696 30.2696 39 19.5 39C8.73045 39 0 30.2696 0 19.5Z" fill="#17191A"/>
<path d="M18.9896 28.9957C15.9028 28.9957 12.8158 28.997 9.72863 28.9995C9.35769 29.0084 8.99452 28.8939 8.69758 28.6745C8.27174 28.3548 8 27.9335 8 27.3803C8 22.4637 8 17.5472 8 12.6308C8 11.9923 8.33396 11.5389 8.87258 11.2221C9.13487 11.0666 9.4374 10.9898 9.74321 11.0011C10.2614 11.015 10.7806 11.0044 11.2988 11.0049C11.4582 11.0049 11.4636 11.0107 11.4636 11.1641C11.4636 11.559 11.4636 11.954 11.466 12.349C11.4614 12.6691 11.574 12.9802 11.7832 13.2251C11.9924 13.4699 12.2842 13.6322 12.605 13.682C13.3419 13.8109 13.951 13.2985 14.1037 12.7516C14.1426 12.6234 14.1637 12.4905 14.1664 12.3566C14.1664 11.9545 14.1664 11.5523 14.1664 11.1502C14.1664 11.0159 14.1771 11.0064 14.3122 11.0064H19.8175H23.6486C23.826 11.0064 23.828 11.0088 23.828 11.1837C23.828 11.5753 23.8231 11.9665 23.828 12.3581C23.8305 12.6093 23.9021 12.8551 24.0351 13.0694C24.2295 13.3819 24.5139 13.5717 24.8702 13.669C25.4424 13.8258 26.1521 13.484 26.3772 12.9678C26.4759 12.7561 26.5284 12.5263 26.5313 12.2934C26.5269 11.9099 26.5313 11.5317 26.5313 11.1506C26.5313 11.0116 26.5381 11.004 26.6732 11.004C27.2133 11.004 27.7538 11.0097 28.2939 11.004C29.1087 10.9925 29.8383 11.6165 29.9812 12.3749C29.9985 12.5079 30.0034 12.6422 29.9958 12.7761C29.9958 16.8389 29.9958 20.9018 29.9958 24.965C29.9958 25.7655 29.9822 26.5664 29.9997 27.3664C30.0143 28.0159 29.4796 28.7196 28.8603 28.9037C28.6703 28.9643 28.4722 28.9966 28.2725 28.9995C25.1782 28.9954 22.0839 28.9941 18.9896 28.9957ZM18.9999 15.1133H9.56919C9.40828 15.1133 9.40731 15.1133 9.40731 15.2691C9.40731 16.5035 9.40731 17.7379 9.40731 18.9724C9.40731 21.7023 9.40731 24.4321 9.40731 27.1618C9.40731 27.4738 9.52203 27.5932 9.83558 27.5932C12.1106 27.5932 14.3856 27.5932 16.6607 27.5932H28.1753C28.467 27.5932 28.5943 27.4676 28.5943 27.1814C28.5943 26.1908 28.5943 25.2002 28.5943 24.2096C28.5943 21.2259 28.5943 18.2422 28.5943 15.2585C28.5943 15.1109 28.5943 15.1109 28.4461 15.1109L18.9999 15.1133Z" fill="#17191A"/>
<path d="M14 10.9984C14 11.4543 14 11.9096 14 12.365C14 12.6909 13.5499 12.98 13.0684 12.9987C12.5404 13.0191 12.2045 12.8017 12.0322 12.5256C12.0101 12.4837 12.001 12.4392 12.0055 12.3948C12.0055 11.4803 12.0144 10.5659 12 9.65192C11.9952 9.3381 12.4911 9.00333 12.9576 9.00008C13.4638 8.99542 13.8064 9.20634 13.974 9.48058C13.9959 9.52635 14.004 9.57464 13.9979 9.62258L14 10.9984Z" fill="#17191A"/>
<path d="M25.9894 11.009C25.9894 11.4471 25.9608 11.8862 25.9989 12.3225C26.0276 12.6416 25.4723 13.0118 25.0145 12.9997C24.5792 12.9885 24.1739 12.7904 24.0444 12.5378C24.017 12.4865 24.0025 12.4324 24.0015 12.3778C24.0015 11.4648 23.9981 10.5513 24.0015 9.63827C24.0015 9.30431 24.4484 9.02059 24.9396 9.00059C25.1607 8.99441 25.3788 9.03698 25.5618 9.122C25.7447 9.20702 25.8827 9.32998 25.9553 9.47269C25.9798 9.52831 25.9911 9.58626 25.9887 9.64432L25.9894 11.009Z" fill="#17191A"/>
<path d="M21.5093 23H20.3608C20.1386 23 20.0023 22.8297 20.0014 22.544C19.9995 21.8295 19.9995 21.1161 20.0014 20.4037C20.0028 20.298 20.036 20.1971 20.094 20.1219C20.152 20.0467 20.2304 20.0031 20.3129 20C21.0993 20 21.8856 20 22.6717 20C22.7564 19.9987 22.8381 20.0403 22.8991 20.1156C22.96 20.191 22.9953 20.2941 22.9972 20.4025C23.0009 21.1419 23.0009 21.8815 22.9972 22.6214C22.9972 22.8226 22.8424 22.9988 22.6764 22.9994C22.2864 22.9994 21.8966 22.9994 21.507 22.9994L21.5093 23Z" fill="#17191A"/>
<path d="M12.4898 24H13.6375C13.8611 24 13.9981 24.1126 13.9986 24.302C14.0005 24.7777 14.0005 25.2533 13.9986 25.729C13.9974 25.8008 13.9632 25.8694 13.9035 25.92C13.8437 25.9706 13.7631 25.9992 13.6789 25.9997C12.8995 25.9997 12.1205 25.9997 11.342 25.9997C11.2974 26.0015 11.2529 25.9954 11.2112 25.9818C11.1695 25.9682 11.1315 25.9475 11.0996 25.9209C11.0677 25.8943 11.0425 25.8623 11.0257 25.8271C11.0089 25.7918 11.0008 25.754 11.0019 25.7159C10.9994 25.2318 10.9994 24.7481 11.0019 24.2648C11.0054 24.1945 11.0406 24.128 11.1 24.0792C11.1594 24.0303 11.2386 24.0028 11.3211 24.0024C11.711 24.0024 12.1004 24.0024 12.4898 24.0024V24Z" fill="#17191A"/>
<path d="M16.4998 19C16.1202 19 15.7406 19 15.361 19C15.1284 19 15 18.8332 15 18.5358C15 17.8435 15 17.1513 15 16.4594C15 16.1716 15.1326 16 15.3559 16C16.1188 16 16.8817 16 17.6446 16C17.8679 16 18 16.1716 18 16.457C18 17.1494 18 17.8415 18 18.5335C18 18.8314 17.8697 18.9994 17.639 19C17.2594 19 16.8798 19 16.4998 19Z" fill="#17191A"/>
<path d="M21.4958 19C21.1164 19 20.7368 19 20.3571 19C20.1325 19 20 18.8302 20 18.5455C20 17.8533 20 17.161 20 16.4688C20 16.165 20.1297 16.0006 20.3692 16C21.128 16 21.8875 16 22.6476 16C22.8666 16 22.9995 16.1698 23 16.4486C23 17.1491 23 17.8499 23 18.5508C23 18.8278 22.8647 18.9988 22.6462 18.9994C22.2621 18.9998 21.8786 19 21.4958 19Z" fill="#17191A"/>
<path d="M12.496 22.9995C12.1166 22.9995 11.7371 22.9995 11.3576 22.9995C11.1325 22.9995 11 22.8298 11 22.5451C11 21.853 11 21.1611 11 20.4693C11 20.165 11.1297 20.0006 11.3688 20C12.128 20 12.8876 20 13.6475 20C13.8665 20 13.9995 20.1692 14 20.4479C14 21.1487 14 21.8496 14 22.5504C14 22.8274 13.8642 22.9983 13.6461 22.9989C13.2629 23.0001 12.8796 23.0003 12.496 22.9995Z" fill="#17191A"/>
<path d="M21.5005 25.9996C21.1209 25.9996 20.7409 25.9996 20.3614 25.9996C20.1288 25.9996 20.0005 25.8884 20 25.6903C20 25.2292 20 24.7679 20 24.3065C20 24.1148 20.133 24.0004 20.3558 24H22.6437C22.8674 24 22.9995 24.1144 23 24.3045C23 24.7659 23 25.2272 23 25.6883C23 25.8868 22.8702 25.9988 22.64 25.9996C22.2598 26.0001 21.88 26.0001 21.5005 25.9996Z" fill="#17191A"/>
<path d="M25.5006 18.9999C25.1175 18.9999 24.735 18.9999 24.3519 18.9999C24.1353 18.9999 24.0005 18.8213 24 18.548C24 17.8565 24 17.1649 24 16.473C24 16.1706 24.1325 16.0003 24.3677 16.0003C25.1335 16.0003 25.8991 16.0003 26.6646 16.0003C26.7082 15.9982 26.7516 16.0075 26.7923 16.0275C26.833 16.0476 26.8701 16.078 26.9013 16.117C26.9325 16.156 26.9572 16.2027 26.9739 16.2543C26.9906 16.3058 26.9989 16.3612 26.9984 16.4171C27.0005 17.1391 27.0005 17.8615 26.9984 18.5843C26.9988 18.6395 26.9906 18.6942 26.9742 18.7453C26.9578 18.7963 26.9335 18.8426 26.9028 18.8814C26.8722 18.9201 26.8357 18.9506 26.7957 18.971C26.7556 18.9913 26.7128 19.0012 26.6697 18.9999C26.2797 18.9999 25.8901 18.9999 25.5006 18.9999Z" fill="#17191A"/>
<path d="M16.5117 20.0018H17.6501C17.8607 20.0018 17.9993 20.1739 17.9998 20.44C17.9998 21.1494 17.9998 21.8586 17.9998 22.5675C18.0014 22.6246 17.994 22.6814 17.9778 22.7346C17.9616 22.7878 17.937 22.8362 17.9056 22.8767C17.8742 22.9172 17.8367 22.9491 17.7953 22.9702C17.7539 22.9914 17.7095 23.0015 17.665 22.9998C16.8921 22.9998 16.1193 22.9998 15.3464 22.9998C15.1367 22.9998 15.0005 22.8212 15 22.5544C15 21.8582 15 21.1619 15 20.4656C15 20.1727 15.1344 20.0006 15.3627 20C15.7453 20 16.1283 20 16.5117 20V20.0018Z" fill="#17191A"/>
<path d="M25.487 22.9982C25.104 22.9982 24.7211 22.9982 24.3384 22.9982C24.294 23.0003 24.2498 22.9907 24.2084 22.97C24.1671 22.9493 24.1294 22.918 24.0979 22.878C24.0663 22.838 24.0415 22.7902 24.0249 22.7374C24.0083 22.6847 24.0003 22.6281 24.0014 22.5713C23.9995 21.8568 23.9995 21.1433 24.0014 20.4307C23.9999 20.3737 24.0076 20.3168 24.0239 20.2638C24.0403 20.2107 24.065 20.1624 24.0965 20.1221C24.128 20.0817 24.1657 20.0501 24.2071 20.0291C24.2486 20.0082 24.2929 19.9983 24.3375 20.0002C25.1069 20.0002 25.876 20.0002 26.6449 20.0002C26.8675 20.0002 26.9995 20.1789 27 20.4617C27 21.1488 27 21.8361 27 22.5237C27 22.8333 26.8685 23 26.6253 23H25.487V22.9982Z" fill="#17191A"/>
<path d="M16.4941 25.9975C16.1077 25.9975 15.7212 25.9975 15.3348 25.9975C15.2914 25.9984 15.2482 25.9919 15.2078 25.9784C15.1674 25.9648 15.1306 25.9445 15.0995 25.9186C15.0684 25.8927 15.0438 25.8618 15.0269 25.8276C15.0101 25.7935 15.0014 25.7568 15.0014 25.7198C14.9995 25.238 14.9995 24.7566 15.0014 24.2754C15.0011 24.2394 15.0091 24.2038 15.0251 24.1705C15.041 24.1372 15.0645 24.107 15.0942 24.0815C15.1239 24.056 15.1592 24.0358 15.1981 24.022C15.237 24.0082 15.2787 24.0011 15.3209 24.0012C16.1036 23.9996 16.8865 23.9996 17.6696 24.0012C17.7134 24.0006 17.7568 24.0076 17.7973 24.0217C17.8378 24.0358 17.8745 24.0567 17.9053 24.0832C17.9361 24.1097 17.9604 24.1412 17.9766 24.1759C17.9928 24.2105 18.0007 24.2476 17.9998 24.2849C17.9998 24.7611 17.9998 25.2366 17.9998 25.7114C18.0014 25.7496 17.9938 25.7876 17.9774 25.8231C17.9611 25.8587 17.9363 25.891 17.9047 25.9179C17.873 25.9449 17.8352 25.9661 17.7936 25.9801C17.7519 25.994 17.7074 26.0005 17.6627 25.9991C17.273 26.0011 16.8833 25.9991 16.4936 25.9991L16.4941 25.9975Z" fill="#17191A"/>
</svg>
