<svg width="14" height="15" viewBox="0 0 14 15" fill="none" xmlns="http://www.w3.org/2000/svg">
<path d="M5.50037 11.9699C4.77844 11.9734 4.06295 11.834 3.3951 11.5599C2.72725 11.2857 2.12022 10.8821 1.60898 10.3724C1.09774 9.86266 0.692384 9.25683 0.416247 8.58979C0.140109 7.92275 -0.00135091 7.20768 9.72275e-06 6.48574C0.00430921 3.46651 2.47254 0.986371 5.51724 0.995631C8.54341 1.00357 10.9997 3.47875 11.0027 6.48971C11.0034 7.21144 10.8614 7.9262 10.5849 8.59285C10.3083 9.2595 9.90271 9.8649 9.39134 10.3742C8.87997 10.8835 8.27294 11.2867 7.60518 11.5605C6.93742 11.8344 6.2221 11.9735 5.50037 11.9699V11.9699ZM1.26009 6.50029C1.26902 8.85046 3.14525 10.7469 5.50666 10.7475C7.88791 10.7475 9.78001 8.8789 9.75157 6.44208C9.72544 4.17791 7.89485 2.22595 5.39321 2.28052C3.1641 2.32748 1.25612 4.17626 1.26009 6.50029Z" fill="white"/>
<path d="M12.7567 15C12.3995 14.9818 12.0975 14.8591 11.8492 14.6104C11.5846 14.3458 11.32 14.0845 11.0577 13.8206C10.8143 13.5769 10.5729 13.3318 10.3301 13.088C9.94382 12.7004 9.55698 12.3134 9.16958 11.9268C9.06772 11.8253 8.96552 11.7238 8.86465 11.6216C8.80843 11.5647 8.80876 11.5356 8.87424 11.4923C9.09193 11.3468 9.29924 11.1863 9.49469 11.0121C9.70813 10.8231 9.90815 10.6196 10.0933 10.4028C10.238 10.2349 10.3722 10.0582 10.4951 9.87368C10.5431 9.80092 10.5702 9.80059 10.6334 9.86343C10.939 10.1686 11.2442 10.4738 11.5492 10.7792L12.7051 11.9348C13.0302 12.2602 13.3586 12.582 13.6788 12.9124C13.8464 13.0854 13.9351 13.3007 13.9814 13.5392C14.0975 14.1421 13.6642 14.7562 13.1357 14.9305C13.0128 14.9695 12.8854 14.9929 12.7567 15V15Z" fill="white"/>
<path d="M6.15703 3.63055C5.91163 3.59582 5.6659 3.62459 5.42314 3.64609C4.86322 3.69603 4.32975 3.84453 3.85978 4.16732C3.43843 4.45737 3.12854 4.84333 2.90794 5.30371C2.77602 5.57762 2.68211 5.86826 2.62881 6.16757C2.59342 6.36766 2.55704 6.57007 2.57523 6.77744C2.58747 6.91668 2.46807 7.06021 2.27757 7.07741C2.14859 7.08899 1.99083 6.97158 1.96933 6.83631C1.95311 6.71001 1.95511 6.58203 1.97529 6.4563C1.99513 6.30549 2.01663 6.15401 2.04739 6.00386C2.10585 5.72992 2.18864 5.46173 2.29477 5.2025C2.50033 4.6904 2.82331 4.23374 3.23768 3.86933C3.60148 3.54423 4.02746 3.32628 4.49445 3.18472C4.74652 3.10839 5.00518 3.05579 5.26704 3.02763C5.59479 2.99224 5.92486 2.96909 6.25493 3.00712C6.42856 3.0273 6.53836 3.12685 6.57805 3.29717C6.60385 3.40697 6.48445 3.57267 6.35348 3.61269C6.28924 3.62833 6.22304 3.63435 6.15703 3.63055Z" fill="white"/>
</svg>
