<svg width="11" height="11" viewBox="0 0 11 11" fill="none" xmlns="http://www.w3.org/2000/svg">
<path d="M5.1641 0.00126778C6.70609 0.00126778 8.24817 0.000845391 9.79033 0C9.95341 0 10.0959 0.0355065 10.2004 0.168148C10.2618 0.246009 10.3194 0.327166 10.3181 0.433686C10.3172 0.442114 10.3172 0.450619 10.3181 0.459047C10.366 0.712665 10.2266 0.87777 10.062 1.04008C9.63436 1.4621 9.2131 1.88996 8.78829 2.31476C8.49815 2.60516 8.20497 2.89327 7.91534 3.18391C7.51192 3.58818 7.10951 3.99303 6.70812 4.39848C6.67843 4.42695 6.65509 4.46136 6.63962 4.49947C6.62415 4.53758 6.6169 4.57853 6.61834 4.61964C6.62054 6.34981 6.62147 8.07991 6.62113 9.80991C6.62113 9.97654 6.57903 10.117 6.4436 10.2236C6.17882 10.4331 5.87321 10.3841 5.65459 10.1543C5.50065 9.99277 5.33935 9.83857 5.18363 9.6793C5.0061 9.49797 4.82704 9.31764 4.65103 9.13605C4.37687 8.8553 4.09307 8.5852 3.82323 8.29912C3.7817 8.25519 3.74942 8.20337 3.7283 8.14674C3.70717 8.0901 3.69762 8.0298 3.70022 7.96941C3.70208 7.09325 3.70208 6.21717 3.70022 5.34118C3.70022 5.09796 3.69718 4.85449 3.702 4.61152C3.70372 4.57306 3.69716 4.53468 3.68276 4.49898C3.66837 4.46328 3.64647 4.43108 3.61856 4.40457C3.40222 4.18722 3.18487 3.97114 2.96904 3.75354C2.72253 3.50499 2.47829 3.25416 2.23102 3.00638C2.0053 2.7799 1.77603 2.55697 1.55031 2.33074C1.31698 2.09665 1.08695 1.85901 0.853621 1.62493C0.637539 1.40834 0.419427 1.19378 0.20157 0.97947C0.134016 0.910625 0.0737581 0.834984 0.0217556 0.75375C0.00682117 0.727051 0.000281084 0.696471 0.00298812 0.665999C0.00298812 0.599551 0.00653833 0.53285 0.000958751 0.467163C-0.0167945 0.26427 0.215012 -0.00659386 0.446565 0.00177551C0.493484 0.00329721 0.540403 0.00177551 0.587323 0.00177551L5.1641 0.00126778Z" fill="white"/>
</svg>
