<svg width="40" height="40" viewBox="0 0 40 40" fill="none" xmlns="http://www.w3.org/2000/svg">
<circle cx="20" cy="20" r="20" fill="white"/>
<path fill-rule="evenodd" clip-rule="evenodd" d="M20 0.997506C9.50521 0.997506 0.997506 9.50521 0.997506 20C0.997506 30.4948 9.50521 39.0025 20 39.0025C30.4948 39.0025 39.0025 30.4948 39.0025 20C39.0025 9.50521 30.4948 0.997506 20 0.997506ZM0 20C0 8.9543 8.9543 0 20 0C31.0457 0 40 8.9543 40 20C40 31.0457 31.0457 40 20 40C8.9543 40 0 31.0457 0 20Z" fill="#17191A"/>
<path d="M27.1182 16.7833C27.0597 17.4509 27.0017 18.1189 26.9442 18.7873C26.9217 19.0496 26.9092 19.3134 26.8753 19.5743C26.8374 19.8641 26.8713 20.1952 26.3816 20.1359C25.9531 20.0835 25.7536 19.9364 25.7556 19.47C25.7596 18.2611 25.7481 17.0586 26.226 15.9114C26.4703 15.3239 26.8594 14.894 27.4384 14.6351C27.8644 14.4446 28.209 14.5239 28.4454 14.9474C28.4818 15.0132 28.5132 15.082 28.5516 15.1469C28.9546 15.8287 29.1691 15.8287 29.599 15.1469C30.0439 14.4426 30.3117 14.3778 31.026 14.7922C31.6065 15.1284 31.8933 15.6666 32.0484 16.2885C32.3242 17.3927 32.3506 18.5254 32.4175 19.6526C32.4479 20.1688 32.0185 20.0516 31.7407 20.1289C31.4055 20.2252 31.3107 20.0262 31.2858 19.7374C31.2035 18.7863 31.1137 17.8361 30.9018 16.8855C30.9018 17.5813 30.8793 18.278 30.9092 18.9723C30.9312 19.471 30.7367 19.6421 30.2504 19.6257C29.4597 19.5994 28.6683 19.5994 27.8763 19.6257C27.403 19.6411 27.2399 19.4481 27.2529 18.9927C27.2738 18.2611 27.2584 17.5279 27.2584 16.7952L27.1182 16.7833Z" fill="#17191A"/>
<path d="M28.981 20.8378V21.5605C28.981 23.1615 28.984 24.7625 28.978 26.363C28.978 26.8852 28.5192 27.4044 28.0753 27.4159C27.6628 27.4258 27.2683 26.983 27.2633 26.4268C27.2469 24.4318 27.2553 22.4343 27.2449 20.4378C27.2449 20.0538 27.399 19.8997 27.7855 19.9066C28.6334 19.9221 29.4813 19.9241 30.3292 19.9066C30.7346 19.8977 30.9082 20.0398 30.9057 20.4593C30.8933 22.4742 30.9057 24.4897 30.8923 26.5047C30.8878 27.161 30.593 27.4623 30.0374 27.4623C29.4818 27.4623 29.177 27.1565 29.1706 26.5081C29.1551 24.8124 29.1661 23.1166 29.1601 21.4234C29.1591 21.2248 29.2135 21.0164 28.981 20.8378Z" fill="#17191A"/>
<path d="M21.8095 22.2962C21.5756 22.6388 21.6309 22.8697 21.6295 23.0872C21.6225 24.2343 21.6295 25.387 21.624 26.5366C21.624 26.977 21.5506 27.3954 20.9905 27.4318C20.5387 27.4613 20.1187 27.0293 20.1147 26.5156C20.1003 24.6872 20.1078 22.8588 20.0943 21.0293C20.0913 20.6553 20.2135 20.4737 20.6135 20.4807C21.3671 20.4972 22.1217 20.4942 22.8753 20.4807C23.2245 20.4742 23.409 20.5934 23.409 20.9615C23.409 22.752 23.416 24.5431 23.409 26.3336C23.4049 26.4846 23.3681 26.633 23.3013 26.7685C23.1147 27.1535 22.8823 27.5376 22.3771 27.4393C21.8913 27.3451 21.822 26.9156 21.817 26.5086C21.803 25.359 21.809 24.2089 21.8075 23.0593C21.8095 22.8548 21.8095 22.6498 21.8095 22.2962Z" fill="#17191A"/>
<path d="M19.7947 18.367C18.9159 18.0363 18.9134 18.0353 19.4296 17.1905C19.535 17.0123 19.6559 16.8438 19.7907 16.6867C20.2017 16.2224 20.5274 16.1989 21.0092 16.5795C21.7478 17.1635 21.8396 17.163 22.4929 16.5012C22.8316 16.1585 23.1688 16.2069 23.487 16.4987C23.8939 16.8728 24.1593 17.356 24.4261 17.8324C24.6037 18.1491 24.3383 18.1655 24.1418 18.2159C23.3418 18.4199 23.3418 18.4194 23.3418 19.2648C23.3418 20.2044 23.3418 20.2044 22.3732 20.2054C21.8835 20.2054 21.3942 20.2054 20.9044 20.2054C20.1104 20.2029 20.1104 20.2019 20.1064 19.4324C20.1064 19.2064 20.1009 18.9805 20.1034 18.7545C20.1034 18.5371 20.0251 18.3905 19.7922 18.363L19.7947 18.367Z" fill="#17191A"/>
<path d="M14.9627 22.6877H14.6245C13.5702 22.6877 13.5622 22.6877 13.3916 21.6403C13.3348 21.2912 13.1881 21.0982 12.8136 21.0917C12.4914 21.0862 12.4146 20.9082 12.4814 20.5969C12.6929 19.6368 13.3512 19.1301 14.3039 19.2767C14.7966 19.3526 15.2679 19.3765 15.7502 19.2229C16.2659 19.0558 16.6236 19.3196 16.8974 19.7176C17.047 19.9326 17.1467 20.179 17.2789 20.4064C17.5283 20.8348 17.5123 21.1176 16.9153 21.1077C16.6265 21.1032 16.5428 21.2732 16.5193 21.5401C16.4196 22.6872 16.4116 22.6872 15.2465 22.6872L14.9627 22.6877Z" fill="#17191A"/>
<path d="M14.9353 24.247C14.6361 24.7273 14.7478 25.1113 14.7294 25.4734C14.7099 25.8679 14.7343 26.264 14.7214 26.659C14.7089 27.0325 14.6471 27.4251 14.1663 27.4216C13.7254 27.4186 13.4964 27.0934 13.4446 26.6869C13.3997 26.3343 13.4176 25.9732 13.4161 25.6156C13.4161 24.9004 13.4271 24.1852 13.4161 23.4709C13.4101 23.1143 13.5468 22.9582 13.9149 22.9652C14.6106 22.9787 15.3079 22.9807 16.0037 22.9652C16.3777 22.9557 16.5024 23.1338 16.5079 23.4744C16.5264 24.5662 16.5244 25.657 16.4311 26.7458C16.4002 27.1073 16.1922 27.3682 15.8416 27.4016C15.477 27.4365 15.2615 27.1617 15.1508 26.8415C15.0012 26.4071 15.0431 25.9492 15.0351 25.4984C15.0246 25.1293 15.08 24.7562 14.9353 24.247Z" fill="#17191A"/>
<path d="M9.72569 22.9223C9.59801 23.1168 9.52021 23.2819 9.31622 23.2559C8.62694 23.1671 7.90275 23.4883 7.24141 23.0759C7.06535 22.9661 7.14166 23.1597 7.1242 23.1966C7.03946 23.368 6.89052 23.499 6.70973 23.5612C6.43193 23.6654 6.22345 23.5671 6.27732 23.2619C6.402 22.5587 6.54265 21.8514 6.95462 21.242C7.204 20.8704 7.53966 20.7766 7.93168 21.0031C8.29627 21.213 8.62495 21.1996 8.99153 20.9816C9.43043 20.7203 9.75163 20.9342 9.95412 21.3442C10.214 21.8704 10.3611 22.437 10.4998 23.005C10.5806 23.3342 10.4075 23.5452 10.1382 23.609C9.78155 23.6933 9.88031 23.3392 9.8035 23.1602C9.78106 23.1088 9.76809 23.0544 9.72569 22.9223Z" fill="#17191A"/>
<path d="M8.41989 24.9878C8.31265 25.4571 8.39345 25.9195 8.36452 26.3738C8.35614 26.5988 8.33516 26.8231 8.30168 27.0457C8.29021 27.1407 8.24706 27.2291 8.17919 27.2966C8.11133 27.3641 8.02271 27.4068 7.92762 27.4177C7.71515 27.4496 7.56652 27.3434 7.4543 27.1753C7.30445 26.9558 7.22288 26.6969 7.21989 26.4312C7.2134 25.6402 7.21989 24.8491 7.20742 24.0581C7.20243 23.709 7.32762 23.5299 7.69919 23.5394C8.18846 23.5524 8.67874 23.5494 9.16802 23.5394C9.50118 23.5334 9.64632 23.6796 9.64333 24.0132C9.63385 24.9359 9.63684 25.8586 9.63485 26.7823C9.63485 27.097 9.52413 27.3733 9.18597 27.3948C8.83186 27.4172 8.62487 27.1544 8.59744 26.8287C8.55455 26.323 8.573 25.8127 8.55704 25.3045C8.55255 25.2028 8.59395 25.0756 8.41989 24.9878Z" fill="#17191A"/>
<path d="M29.0815 14.2114C28.1474 14.2199 27.4481 13.5631 27.4267 12.6538C27.4057 11.7745 28.1873 10.996 29.081 11.0079C29.9484 11.0179 30.7269 11.781 30.7269 12.6239C30.7289 13.4967 29.9973 14.203 29.0815 14.2114Z" fill="#17191A"/>
<path d="M23.2214 14.4388C23.2214 15.3291 22.551 16.0144 21.7066 15.991C20.9326 15.9695 20.2104 15.2144 20.2144 14.4353C20.2204 13.6159 20.9151 12.9311 21.7376 12.9336C22.5934 12.9356 23.2239 13.574 23.2214 14.4388Z" fill="#17191A"/>
<path d="M16.3206 17.3821C16.3316 18.2095 15.7276 18.838 14.9216 18.8375C14.1475 18.8375 13.4587 18.1627 13.4587 17.4046C13.4587 16.6814 14.1311 16.0275 14.8956 16.008C15.0794 16.0047 15.2621 16.0375 15.4332 16.1048C15.6043 16.172 15.7604 16.2723 15.8928 16.3999C16.0251 16.5275 16.131 16.6799 16.2044 16.8484C16.2778 17.017 16.3173 17.1983 16.3206 17.3821V17.3821Z" fill="#17191A"/>
<path d="M9.65844 19.4563C9.66143 20.192 9.1966 20.6628 8.46543 20.6653C7.73425 20.6678 7.22253 20.1965 7.21356 19.5022C7.21078 19.3371 7.24082 19.1731 7.30192 19.0198C7.36303 18.8664 7.45399 18.7267 7.56952 18.6087C7.68505 18.4908 7.82286 18.397 7.97494 18.3327C8.12702 18.2684 8.29035 18.235 8.45545 18.2344C9.16318 18.2404 9.65545 18.7406 9.65844 19.4563Z" fill="#17191A"/>
<path d="M24.7925 20.7211C24.773 21.1944 24.9461 21.8483 24.3127 21.8822C23.764 21.9116 23.8383 21.2608 23.7875 20.8598C23.7052 20.2114 23.6837 19.554 23.6254 18.9017C23.59 18.5027 23.8054 18.382 24.157 18.348C24.5381 18.3121 24.6513 18.5037 24.6693 18.8393C24.7032 19.4747 24.7516 20.1091 24.7925 20.7211Z" fill="#17191A"/>
<path d="M19.7888 18.3611C19.911 19.3417 19.7808 20.3132 19.6542 21.2813C19.6187 21.5501 19.4711 21.9083 19.1554 21.8748C18.8671 21.8439 18.7414 21.5023 18.7429 21.2065C18.7469 20.5287 18.7504 19.8484 18.8088 19.1736C18.8726 18.4339 19.0307 18.3292 19.7928 18.3656L19.7888 18.3611Z" fill="#17191A"/>
<path d="M16.604 22.0602C16.604 21.9105 16.6015 21.7609 16.604 21.6113C16.6125 21.2427 16.9033 21.2302 17.1581 21.1853C17.4574 21.1325 17.5417 21.3041 17.5771 21.5689C17.6392 21.9762 17.6611 22.3887 17.6424 22.8003C17.6235 23.1026 17.4454 23.3135 17.1706 23.3529C16.8783 23.3948 16.7512 23.1325 16.6933 22.8951C16.627 22.6247 16.6155 22.3415 16.5801 22.0637L16.604 22.0602Z" fill="#17191A"/>
<path d="M13.2439 22.2231C13.2256 22.4319 13.1956 22.6395 13.1541 22.845C13.0962 23.0874 12.9601 23.3612 12.7027 23.3497C12.4005 23.3368 12.2174 23.0605 12.201 22.7637C12.1881 22.3723 12.2004 21.9805 12.2379 21.5906C12.2563 21.3527 12.3411 21.1418 12.6543 21.1961C12.9152 21.2405 13.1905 21.2689 13.2164 21.6216C13.2284 21.7886 13.2324 21.9567 13.2439 22.2231Z" fill="#17191A"/>
</svg>
