<svg width="242" height="242" viewBox="0 0 242 242" fill="none" xmlns="http://www.w3.org/2000/svg">
<g filter="url(#filter0_d)">
<path d="M4 18C4 9.71573 10.7157 3 19 3H223C231.284 3 238 9.71573 238 18V222C238 230.284 231.284 237 223 237H19C10.7157 237 4 230.284 4 222V18Z" fill="url(#paint0_linear)" fill-opacity="0.6"/>
</g>
<g filter="url(#filter1_d)">
<path fill-rule="evenodd" clip-rule="evenodd" d="M223 5H19C11.8203 5 6 10.8203 6 18V222C6 229.18 11.8203 235 19 235H223C230.18 235 236 229.18 236 222V18C236 10.8203 230.18 5 223 5ZM19 3C10.7157 3 4 9.71573 4 18V222C4 230.284 10.7157 237 19 237H223C231.284 237 238 230.284 238 222V18C238 9.71573 231.284 3 223 3H19Z" fill="white"/>
</g>
<path d="M82.2695 147.252H94.043V149.895H85.4492V153.547H89.7031C90.8776 153.547 91.8516 153.69 92.625 153.977C93.3984 154.263 94.0573 154.793 94.6016 155.566C95.153 156.34 95.4287 157.246 95.4287 158.284C95.4287 159.351 95.153 160.264 94.6016 161.023C94.0501 161.783 93.4199 162.302 92.7109 162.581C92.0091 162.86 91.0065 163 89.7031 163H82.2695V147.252ZM85.4492 160.357H88.543C89.5312 160.357 90.2259 160.311 90.627 160.218C91.028 160.118 91.3753 159.896 91.6689 159.552C91.9697 159.208 92.1201 158.785 92.1201 158.284C92.1201 157.554 91.8587 157.024 91.3359 156.694C90.8203 156.358 89.9359 156.189 88.6826 156.189H85.4492V160.357Z" fill="black"/>
<path d="M98.0605 147.252H101.036V157.736L107.417 147.252H110.586V163H107.61V152.72L101.24 163H98.0605V147.252Z" fill="black"/>
<path d="M113.83 163V147.252H118.933C120.866 147.252 122.127 147.331 122.714 147.488C123.616 147.725 124.372 148.24 124.98 149.035C125.589 149.823 125.894 150.843 125.894 152.097C125.894 153.063 125.718 153.876 125.367 154.535C125.016 155.194 124.569 155.713 124.024 156.093C123.487 156.465 122.939 156.712 122.381 156.834C121.622 156.984 120.522 157.06 119.083 157.06H117.01V163H113.83ZM117.01 149.916V154.385H118.75C120.003 154.385 120.841 154.302 121.264 154.138C121.686 153.973 122.016 153.715 122.252 153.364C122.495 153.013 122.617 152.605 122.617 152.14C122.617 151.567 122.449 151.094 122.112 150.722C121.776 150.349 121.35 150.117 120.834 150.023C120.454 149.952 119.692 149.916 118.546 149.916H117.01Z" fill="black"/>
<path d="M138.097 147.252V153.955C138.627 153.912 139.028 153.715 139.3 153.364C139.572 153.013 139.948 152.211 140.428 150.958C141.058 149.318 141.702 148.272 142.361 147.821C143.013 147.377 144.098 147.155 145.616 147.155C145.688 147.155 145.842 147.152 146.078 147.145V149.497L145.616 149.486C144.972 149.486 144.499 149.569 144.198 149.733C143.897 149.891 143.654 150.134 143.468 150.464C143.282 150.793 143.006 151.47 142.641 152.494C142.447 153.038 142.236 153.493 142.007 153.858C141.785 154.224 141.387 154.567 140.814 154.89C141.523 155.097 142.107 155.506 142.565 156.114C143.031 156.716 143.539 157.572 144.091 158.682L146.239 163H142.501L140.61 158.929C140.589 158.871 140.528 158.76 140.428 158.596C140.37 158.488 140.242 158.241 140.041 157.854C139.64 157.103 139.311 156.623 139.053 156.415C138.795 156.207 138.476 156.104 138.097 156.104V163H134.992V156.104C134.627 156.104 134.312 156.204 134.047 156.404C133.782 156.605 133.452 157.088 133.059 157.854C132.837 158.284 132.704 158.531 132.661 158.596C132.597 158.703 132.536 158.814 132.479 158.929L130.588 163H126.85L128.998 158.682C129.528 157.615 130.026 156.77 130.491 156.146C130.964 155.516 131.562 155.097 132.285 154.89C131.712 154.567 131.311 154.227 131.082 153.869C130.86 153.504 130.649 153.046 130.448 152.494C130.09 151.492 129.818 150.822 129.632 150.485C129.453 150.149 129.209 149.898 128.901 149.733C128.601 149.569 128.106 149.486 127.419 149.486C127.333 149.486 127.197 149.49 127.011 149.497V147.145C127.247 147.152 127.401 147.155 127.473 147.155C129.012 147.155 130.108 147.381 130.76 147.832C131.404 148.29 132.038 149.332 132.661 150.958C133.148 152.218 133.524 153.024 133.789 153.375C134.061 153.719 134.462 153.912 134.992 153.955V147.252H138.097Z" fill="black"/>
<path d="M162.299 163H158.84L157.465 159.423H151.17L149.87 163H146.497L152.631 147.252H155.993L162.299 163ZM156.444 156.77L154.274 150.926L152.147 156.77H156.444Z" fill="black"/>
<path d="M51.5469 179.252H57.3584C58.6689 179.252 59.668 179.352 60.3555 179.553C61.2793 179.825 62.0706 180.308 62.7295 181.003C63.3883 181.698 63.8896 182.55 64.2334 183.56C64.5771 184.562 64.749 185.801 64.749 187.276C64.749 188.573 64.5879 189.69 64.2656 190.628C63.8717 191.774 63.3096 192.701 62.5791 193.41C62.0277 193.947 61.2829 194.366 60.3447 194.667C59.6429 194.889 58.7048 195 57.5303 195H51.5469V179.252ZM54.7266 181.916V192.347H57.1006C57.9886 192.347 58.6296 192.297 59.0234 192.196C59.5391 192.067 59.9652 191.849 60.3018 191.541C60.6455 191.233 60.9248 190.728 61.1396 190.026C61.3545 189.317 61.4619 188.354 61.4619 187.137C61.4619 185.919 61.3545 184.985 61.1396 184.333C60.9248 183.681 60.624 183.173 60.2373 182.808C59.8506 182.442 59.36 182.195 58.7656 182.066C58.3216 181.966 57.4515 181.916 56.1553 181.916H54.7266Z" fill="black"/>
<path d="M67.4668 195V179.252H74.1592C75.8421 179.252 77.0632 179.395 77.8223 179.682C78.5885 179.961 79.2008 180.462 79.6592 181.186C80.1175 181.909 80.3467 182.736 80.3467 183.667C80.3467 184.849 79.9993 185.826 79.3047 186.6C78.61 187.366 77.5716 187.849 76.1895 188.05C76.877 188.451 77.4427 188.891 77.8867 189.371C78.3379 189.851 78.943 190.703 79.7021 191.928L81.625 195H77.8223L75.5234 191.573C74.707 190.349 74.1484 189.579 73.8477 189.264C73.5469 188.941 73.2282 188.723 72.8916 188.608C72.555 188.487 72.0215 188.426 71.291 188.426H70.6465V195H67.4668ZM70.6465 185.912H72.999C74.5244 185.912 75.4769 185.848 75.8564 185.719C76.236 185.59 76.5332 185.368 76.748 185.053C76.9629 184.738 77.0703 184.344 77.0703 183.871C77.0703 183.341 76.9271 182.915 76.6406 182.593C76.3613 182.263 75.9639 182.056 75.4482 181.97C75.1904 181.934 74.417 181.916 73.1279 181.916H70.6465V185.912Z" fill="black"/>
<path d="M97.5557 195H94.0967L92.7217 191.423H86.4268L85.127 195H81.7539L87.8877 179.252H91.25L97.5557 195ZM91.7012 188.77L89.5312 182.926L87.4043 188.77H91.7012Z" fill="black"/>
<path d="M99.2744 195V179.252H110.07V181.916H102.454V185.644H109.028V188.308H102.454V195H99.2744Z" fill="black"/>
<path d="M116.247 195V181.916H111.574V179.252H124.089V181.916H119.427V195H116.247Z" fill="black"/>
<path d="M125.346 189.876L128.439 189.575C128.626 190.614 129.002 191.376 129.567 191.863C130.14 192.35 130.91 192.594 131.877 192.594C132.901 192.594 133.671 192.379 134.187 191.949C134.709 191.512 134.971 191.004 134.971 190.424C134.971 190.051 134.86 189.736 134.638 189.479C134.423 189.214 134.043 188.984 133.499 188.791C133.127 188.662 132.278 188.433 130.953 188.104C129.249 187.681 128.053 187.162 127.365 186.546C126.398 185.679 125.915 184.623 125.915 183.377C125.915 182.575 126.141 181.826 126.592 181.132C127.05 180.43 127.705 179.896 128.558 179.531C129.417 179.166 130.452 178.983 131.662 178.983C133.639 178.983 135.125 179.417 136.12 180.283C137.123 181.15 137.649 182.306 137.699 183.753L134.52 183.893C134.383 183.083 134.09 182.503 133.639 182.152C133.195 181.794 132.525 181.615 131.63 181.615C130.706 181.615 129.983 181.805 129.46 182.185C129.123 182.428 128.955 182.754 128.955 183.162C128.955 183.535 129.113 183.853 129.428 184.118C129.829 184.455 130.803 184.806 132.35 185.171C133.896 185.536 135.039 185.916 135.776 186.31C136.521 186.696 137.101 187.23 137.517 187.91C137.939 188.583 138.15 189.418 138.15 190.413C138.15 191.315 137.9 192.16 137.398 192.948C136.897 193.736 136.188 194.323 135.271 194.71C134.355 195.09 133.213 195.279 131.845 195.279C129.854 195.279 128.325 194.821 127.258 193.904C126.191 192.98 125.553 191.638 125.346 189.876Z" fill="black"/>
<path d="M146.948 195V179.252H152.051C153.984 179.252 155.245 179.331 155.832 179.488C156.734 179.725 157.49 180.24 158.099 181.035C158.707 181.823 159.012 182.843 159.012 184.097C159.012 185.063 158.836 185.876 158.485 186.535C158.134 187.194 157.687 187.713 157.143 188.093C156.605 188.465 156.058 188.712 155.499 188.834C154.74 188.984 153.641 189.06 152.201 189.06H150.128V195H146.948ZM150.128 181.916V186.385H151.868C153.121 186.385 153.959 186.302 154.382 186.138C154.804 185.973 155.134 185.715 155.37 185.364C155.614 185.013 155.735 184.605 155.735 184.14C155.735 183.567 155.567 183.094 155.23 182.722C154.894 182.349 154.468 182.117 153.952 182.023C153.573 181.952 152.81 181.916 151.664 181.916H150.128Z" fill="black"/>
<path d="M161.633 195V179.252H168.325C170.008 179.252 171.229 179.395 171.988 179.682C172.755 179.961 173.367 180.462 173.825 181.186C174.284 181.909 174.513 182.736 174.513 183.667C174.513 184.849 174.165 185.826 173.471 186.6C172.776 187.366 171.738 187.849 170.355 188.05C171.043 188.451 171.609 188.891 172.053 189.371C172.504 189.851 173.109 190.703 173.868 191.928L175.791 195H171.988L169.689 191.573C168.873 190.349 168.314 189.579 168.014 189.264C167.713 188.941 167.394 188.723 167.058 188.608C166.721 188.487 166.188 188.426 165.457 188.426H164.812V195H161.633ZM164.812 185.912H167.165C168.69 185.912 169.643 185.848 170.022 185.719C170.402 185.59 170.699 185.368 170.914 185.053C171.129 184.738 171.236 184.344 171.236 183.871C171.236 183.341 171.093 182.915 170.807 182.593C170.527 182.263 170.13 182.056 169.614 181.97C169.356 181.934 168.583 181.916 167.294 181.916H164.812V185.912Z" fill="black"/>
<path d="M176.876 187.223C176.876 185.618 177.116 184.272 177.596 183.184C177.954 182.382 178.441 181.662 179.057 181.024C179.68 180.387 180.36 179.914 181.098 179.606C182.079 179.191 183.21 178.983 184.492 178.983C186.812 178.983 188.667 179.703 190.057 181.143C191.453 182.582 192.151 184.584 192.151 187.147C192.151 189.69 191.46 191.681 190.078 193.12C188.696 194.552 186.848 195.269 184.535 195.269C182.193 195.269 180.331 194.556 178.949 193.131C177.567 191.699 176.876 189.729 176.876 187.223ZM180.152 187.115C180.152 188.898 180.564 190.252 181.388 191.176C182.211 192.092 183.257 192.551 184.524 192.551C185.792 192.551 186.83 192.096 187.64 191.187C188.456 190.27 188.864 188.898 188.864 187.072C188.864 185.268 188.467 183.921 187.672 183.033C186.884 182.145 185.835 181.701 184.524 181.701C183.214 181.701 182.158 182.152 181.355 183.055C180.553 183.95 180.152 185.303 180.152 187.115Z" fill="black"/>
<path fill-rule="evenodd" clip-rule="evenodd" d="M82.5742 38C82.5742 35.2386 84.8128 33 87.5742 33H155.424C158.186 33 160.424 35.2386 160.424 38V105.85C160.424 108.611 158.186 110.85 155.424 110.85H87.5742C84.8128 110.85 82.5742 108.611 82.5742 105.85V38ZM132.955 97.6411C132.224 97.3367 132.006 97.0109 132.006 96.2188V90.2509C132.006 89.8521 132.006 89.851 131.604 89.851C129.338 89.851 127.072 89.8526 124.806 89.8542H124.805C119.21 89.8581 113.617 89.862 108.022 89.842C104.861 89.8296 102.523 88.3646 101.206 85.4852C100.128 83.1259 100.372 80.7992 101.731 78.5915C101.904 78.3107 101.931 78.3208 102.107 78.605C103.267 80.4947 104.934 81.5957 107.149 81.8541C107.428 81.8853 107.709 81.9003 107.99 81.899H131.573C132.004 81.899 132.006 81.899 132.006 81.4755V75.4773C132.006 74.9346 132.188 74.5066 132.674 74.2414C133.16 73.9763 133.621 74.0887 134.063 74.3999C138.008 77.1891 141.957 79.9757 145.907 82.7596C146.178 82.9508 146.449 83.1425 146.72 83.3343C147.376 83.7985 148.032 84.2629 148.691 84.7201C148.997 84.912 149.238 85.192 149.381 85.5234V86.2222C149.251 86.5371 149.03 86.8062 148.746 86.9951C144.224 90.1835 139.705 93.3723 135.189 96.5615C135.052 96.6583 134.916 96.7591 134.781 96.86C134.387 97.1526 133.994 97.4456 133.537 97.6411H132.955ZM109.684 48.084C109.692 47.3548 109.411 46.8695 108.728 46.6235H108.146C107.631 46.8648 107.178 47.2011 106.726 47.537C106.564 47.6575 106.402 47.7781 106.237 47.8941C101.807 51.0233 97.3761 54.1474 92.9436 57.2661C92.6579 57.4522 92.4354 57.7205 92.3055 58.0357V58.7345C92.4459 59.0929 92.7099 59.3355 93.0189 59.5535C96.453 61.9757 99.8852 64.3979 103.316 66.8201C104.756 67.8305 106.193 68.8457 107.629 69.8659C107.95 70.0928 108.288 70.2366 108.69 70.1479C109.297 70.013 109.681 69.5322 109.681 68.8839V62.77C109.681 62.3734 109.682 62.3734 110.082 62.3734H133.722C134.081 62.3701 134.44 62.3946 134.795 62.4464C136.886 62.7827 138.48 63.856 139.579 65.6663C139.754 65.9551 139.78 65.9607 139.955 65.682C141.002 64.0148 141.371 62.2083 140.966 60.2759C140.237 56.801 137.28 54.4215 133.721 54.4215H110.081C109.678 54.4215 109.678 54.4204 109.678 54.0226C109.678 53.4643 109.677 52.9059 109.676 52.3476C109.673 50.9264 109.671 49.5052 109.684 48.084Z" fill="#8C2133"/>
<defs>
<filter id="filter0_d" x="0" y="0" width="242" height="242" filterUnits="userSpaceOnUse" color-interpolation-filters="sRGB">
<feFlood flood-opacity="0" result="BackgroundImageFix"/>
<feColorMatrix in="SourceAlpha" type="matrix" values="0 0 0 0 0 0 0 0 0 0 0 0 0 0 0 0 0 0 127 0"/>
<feOffset dy="1"/>
<feGaussianBlur stdDeviation="2"/>
<feColorMatrix type="matrix" values="0 0 0 0 0.533634 0 0 0 0 0.593599 0 0 0 0 0.713537 0 0 0 0.12 0"/>
<feBlend mode="normal" in2="BackgroundImageFix" result="effect1_dropShadow"/>
<feBlend mode="normal" in="SourceGraphic" in2="effect1_dropShadow" result="shape"/>
</filter>
<filter id="filter1_d" x="0" y="0" width="242" height="242" filterUnits="userSpaceOnUse" color-interpolation-filters="sRGB">
<feFlood flood-opacity="0" result="BackgroundImageFix"/>
<feColorMatrix in="SourceAlpha" type="matrix" values="0 0 0 0 0 0 0 0 0 0 0 0 0 0 0 0 0 0 127 0"/>
<feOffset dy="1"/>
<feGaussianBlur stdDeviation="2"/>
<feColorMatrix type="matrix" values="0 0 0 0 0.533634 0 0 0 0 0.593599 0 0 0 0 0.713537 0 0 0 0.3 0"/>
<feBlend mode="normal" in2="BackgroundImageFix" result="effect1_dropShadow"/>
<feBlend mode="normal" in="SourceGraphic" in2="effect1_dropShadow" result="shape"/>
</filter>
<linearGradient id="paint0_linear" x1="121" y1="3" x2="121" y2="237" gradientUnits="userSpaceOnUse">
<stop stop-color="white" stop-opacity="0.12"/>
<stop offset="0.536458" stop-color="white" stop-opacity="0"/>
<stop offset="1" stop-color="white" stop-opacity="0"/>
</linearGradient>
</defs>
</svg>
