<svg width="40" height="40" viewBox="0 0 40 40" fill="none" xmlns="http://www.w3.org/2000/svg">
<circle cx="20" cy="20" r="20" fill="white"/>
<path fill-rule="evenodd" clip-rule="evenodd" d="M20 0.997506C9.50521 0.997506 0.997506 9.50521 0.997506 20C0.997506 30.4948 9.50521 39.0025 20 39.0025C30.4948 39.0025 39.0025 30.4948 39.0025 20C39.0025 9.50521 30.4948 0.997506 20 0.997506ZM0 20C0 8.9543 8.9543 0 20 0C31.0457 0 40 8.9543 40 20C40 31.0457 31.0457 40 20 40C8.9543 40 0 31.0457 0 20Z" fill="#17191A"/>
<path d="M16.0207 31.4563C13.316 31.4393 11.0901 31.0193 8.9195 30.2702C8.51052 30.1296 8.34244 29.9241 8.35791 29.4832C8.46314 26.4852 9.56239 24.0662 12.2876 22.5505C12.7674 22.2832 13.0113 22.375 13.2756 22.8473C13.8826 23.9326 14.5669 24.9745 15.1803 26.0563C15.4437 26.5206 15.5749 26.4303 15.8128 26.0508C16.4731 24.9964 17.1823 23.972 17.8262 22.9086C18.0961 22.4637 18.3315 22.3934 18.7843 22.6528C21.0601 23.9555 22.1998 25.9909 22.5659 28.5071C22.8267 30.3026 22.8587 30.0129 21.2572 30.558C19.4307 31.1779 17.5345 31.4164 16.0207 31.4563Z" fill="#17191A"/>
<path d="M15.4455 13.1563C17.7283 13.1623 19.4983 14.9578 19.4854 17.255C19.4734 19.4849 17.6515 21.279 15.4061 21.2725C13.1482 21.2655 11.3467 19.4351 11.3597 17.1603C11.3717 14.9268 13.1856 13.1503 15.4455 13.1563Z" fill="#17191A"/>
<path d="M22.0198 19.9452C22.3654 19.6515 22.6432 19.4709 22.8487 19.2295C23.314 18.6809 23.8851 18.5497 24.5838 18.5677C26.2487 18.6101 27.916 18.5851 29.5823 18.5796C30.7225 18.5761 31.2592 18.031 31.2621 16.8804C31.2671 15.1377 31.2671 13.3948 31.2621 11.6515C31.2582 10.5108 30.7479 9.9951 29.6163 9.99311C26.3601 9.98812 23.1039 9.98812 19.8477 9.99311C18.6816 9.99311 18.2143 10.4569 18.1794 11.617C18.1589 12.2904 18.1544 12.2934 17.542 12.045C16.715 11.7098 16.6626 11.6041 16.8871 10.7238C17.1998 9.49834 18.2781 8.61804 19.6427 8.60657C23.0342 8.57765 26.4232 8.56917 29.8128 8.60957C31.4477 8.62902 32.5883 9.8764 32.5928 11.5083C32.5971 13.3663 32.5971 15.2242 32.5928 17.0819C32.5868 18.7377 31.4297 19.9043 29.7794 19.9143C28.0553 19.9243 26.3315 19.9243 24.6078 19.9143C24.4467 19.9078 24.286 19.9336 24.135 19.9903C23.9841 20.0469 23.846 20.1331 23.729 20.244C23.0048 20.8993 22.2592 21.5303 21.523 22.1722C21.4627 22.2245 21.315 22.3921 21.139 22.3717C21.0763 22.361 21.0179 22.3326 20.9709 22.2899C20.5135 21.9382 20.2796 21.9203 20.2347 21.6949C20.2232 21.6328 20.2267 21.5688 20.2447 21.5083C20.331 21.1712 20.4901 20.3058 20.7021 19.0804L22.1509 18.6355C22.188 18.6625 22.2183 18.6979 22.2392 18.7387C22.31 18.8784 22.2267 19.038 22.2133 19.1113C22.1689 19.3442 22.1055 19.5776 22.0198 19.9452Z" fill="#17191A"/>
<path d="M24.7482 15.2723C24.214 15.2803 23.7163 14.8099 23.6913 14.2748C23.6664 13.7216 24.1636 13.1985 24.7218 13.1915C25.2584 13.185 25.7532 13.6533 25.7771 14.189C25.8021 14.7466 25.3108 15.2638 24.7482 15.2723Z" fill="#17191A"/>
<path d="M27.8933 15.2688C27.3297 15.2858 26.814 14.786 26.814 14.2214C26.814 13.6818 27.3022 13.191 27.8424 13.1875C28.3825 13.184 28.8748 13.6603 28.8898 14.2035C28.9047 14.7466 28.4324 15.2529 27.8933 15.2688Z" fill="#17191A"/>
<path d="M21.6775 13.1914C21.9477 13.1913 22.207 13.2978 22.3991 13.4879C22.5911 13.678 22.7003 13.9362 22.703 14.2064C22.7129 14.7964 22.2376 15.2827 21.6651 15.2692C21.3951 15.2591 21.1397 15.1439 20.9534 14.9483C20.7671 14.7527 20.6645 14.492 20.6675 14.2218C20.6657 13.9515 20.7708 13.6914 20.9601 13.4984C21.1493 13.3053 21.4072 13.195 21.6775 13.1914Z" fill="#17191A"/>
</svg>
