<svg width="34" height="34" viewBox="0 0 34 34" fill="none" xmlns="http://www.w3.org/2000/svg">
<path fill-rule="evenodd" clip-rule="evenodd" d="M5 0C2.23858 0 0 2.23858 0 5V29C0 31.7614 2.23858 34 5 34H29C31.7614 34 34 31.7614 34 29V5C34 2.23858 31.7614 0 29 0H5ZM20.8543 11.0205C19.6591 10.5589 18.2868 10.2973 16.8279 10.2973C15.3794 10.2973 14.0134 10.5563 12.8238 11.0119L16.8338 7.50721L20.8543 11.0205ZM26.8544 14.4224C26.1695 13.8281 25.2514 13.5309 24.1001 13.5309H19.1053V16.8013H21.5203V15.5346H23.711C24.2655 15.5346 24.6968 15.6626 25.0047 15.9185C25.3127 16.1745 25.4666 16.6032 25.4663 17.2047C25.4663 17.805 25.3125 18.2437 25.0047 18.5207C24.697 18.7978 24.2658 18.9354 23.711 18.9335H22.7675L19.0966 18.9292L19.1038 25.0748H21.5188V20.9238H23.9411C25.2049 20.9238 26.1773 20.6418 26.8584 20.0778C27.5394 19.5137 27.8799 18.5503 27.8799 17.1874C27.8809 15.9395 27.539 15.0178 26.8544 14.4224ZM15.7678 15.2473C16.1744 15.8074 16.4617 16.441 16.6129 17.1109C16.7583 17.7381 16.8338 18.3787 16.8381 19.0217C16.8381 20.5564 16.5216 21.8563 15.8884 22.9213C15.0296 24.3569 13.7041 25.0748 11.9119 25.0748H6.80115V23.0632L9.20509 23.07H11.4925C12.6639 23.0703 13.4804 22.5093 13.942 21.3872C14.1944 20.771 14.3207 20.0376 14.3207 19.1869C14.3204 18.012 14.1309 17.1099 13.7522 16.4808C13.3735 15.8517 12.6203 15.5371 11.4925 15.5371H9.20398V20.9119H6.80004V13.5309H11.9134C12.6486 13.5422 13.2603 13.6262 13.7485 13.783C14.5792 14.0492 15.2523 14.5373 15.7678 15.2473Z" fill="white"/>
</svg>
