<svg width="40" height="40" viewBox="0 0 40 40" fill="none" xmlns="http://www.w3.org/2000/svg">
<circle cx="19.5" cy="19.5" r="19.5" fill="white"/>
<path fill-rule="evenodd" clip-rule="evenodd" d="M20 0.997506C9.50521 0.997506 0.997506 9.50521 0.997506 20C0.997506 30.4948 9.50521 39.0025 20 39.0025C30.4948 39.0025 39.0025 30.4948 39.0025 20C39.0025 9.50521 30.4948 0.997506 20 0.997506ZM0 20C0 8.9543 8.9543 0 20 0C31.0457 0 40 8.9543 40 20C40 31.0457 31.0457 40 20 40C8.9543 40 0 31.0457 0 20Z" fill="#17191A"/>
<path d="M21.4576 21.8978C21.6094 21.9806 21.8275 21.931 22.0168 21.94V21.9315C22.1686 21.9315 22.3204 21.9247 22.4722 21.9315C22.6387 21.9405 22.6776 21.8788 22.6437 21.7068C22.5163 21.074 22.1839 20.5062 21.7025 20.0987C21.2211 19.6912 20.6198 19.4688 19.9997 19.4688C19.3796 19.4688 18.7784 19.6912 18.2969 20.0987C17.8155 20.5062 17.4832 21.074 17.3557 21.7068C17.3193 21.8888 17.3775 21.9331 17.5348 21.9299C17.8157 21.9247 18.0965 21.921 18.3769 21.9299C18.5585 21.9368 18.6208 21.8904 18.6172 21.6783C18.6046 20.9396 19.1521 20.2974 19.8282 20.222C20.1749 20.1806 20.5241 20.2747 20.8082 20.4862C21.0922 20.6977 21.291 21.0115 21.366 21.367C21.4045 21.5511 21.286 21.8033 21.4576 21.8978Z" fill="#17191A"/>
<path d="M11.8867 16.9262C11.6993 16.9239 11.5186 16.9961 11.3844 17.1268C11.2502 17.2575 11.1735 17.4361 11.1712 17.6233C11.1689 17.8105 11.2411 17.9909 11.3721 18.1249C11.503 18.2589 11.6819 18.3354 11.8693 18.3378C12.0574 18.3401 12.2386 18.2677 12.3732 18.1365C12.5078 18.0054 12.5847 17.8263 12.587 17.6385C12.5893 17.4507 12.5168 17.2698 12.3855 17.1354C12.2542 17.001 12.0748 16.9242 11.8867 16.9219V16.9262Z" fill="#17191A"/>
<path d="M28.0809 16.9262C27.8934 16.9239 27.7127 16.9961 27.5785 17.1268C27.4443 17.2575 27.3677 17.4361 27.3654 17.6233C27.363 17.8105 27.4353 17.9909 27.5662 18.1249C27.6971 18.2589 27.876 18.3354 28.0635 18.3378C28.2515 18.3401 28.4328 18.2677 28.5674 18.1365C28.702 18.0054 28.7789 17.8263 28.7812 17.6385C28.7835 17.4507 28.711 17.2698 28.5797 17.1354C28.4483 17.001 28.2689 16.9242 28.0809 16.9219V16.9262Z" fill="#17191A"/>
<path d="M11.1729 21.602C10.9854 21.5997 10.8047 21.6718 10.6705 21.8026C10.5363 21.9333 10.4596 22.1119 10.4573 22.2991C10.455 22.4863 10.5273 22.6667 10.6582 22.8007C10.7891 22.9347 10.968 23.0112 11.1555 23.0135C11.3435 23.0158 11.5247 22.9435 11.6593 22.8123C11.7939 22.6812 11.8708 22.502 11.8732 22.3143C11.8755 22.1265 11.803 21.9455 11.6716 21.8111C11.5403 21.6768 11.3609 21.6 11.1729 21.5977V21.602Z" fill="#17191A"/>
<path d="M11.8916 13.0004C11.7041 12.9981 11.5234 13.0703 11.3893 13.201C11.2551 13.3317 11.1784 13.5103 11.1761 13.6975C11.1738 13.8847 11.246 14.0651 11.377 14.1991C11.5079 14.3331 11.6867 14.4097 11.8742 14.412C12.0622 14.4143 12.2435 14.3419 12.3781 14.2108C12.5127 14.0796 12.5896 13.9005 12.5919 13.7127C12.5942 13.525 12.5217 13.344 12.3904 13.2096C12.2591 13.0752 12.0796 12.9984 11.8916 12.9961V13.0004Z" fill="#17191A"/>
<path d="M28.0913 13.0004C27.9038 12.9981 27.7231 13.0703 27.589 13.201C27.4548 13.3317 27.3781 13.5103 27.3758 13.6975C27.3735 13.8847 27.4457 14.0651 27.5767 14.1991C27.7076 14.3331 27.8864 14.4097 28.0739 14.412C28.2619 14.4143 28.4432 14.3419 28.5778 14.2108C28.7124 14.0796 28.7893 13.9005 28.7916 13.7127C28.7939 13.525 28.7214 13.344 28.5901 13.2096C28.4588 13.0752 28.2793 12.9984 28.0913 12.9961V13.0004Z" fill="#17191A"/>
<path d="M16.0056 17.5668C15.8182 17.5645 15.6375 17.6367 15.5033 17.7674C15.3691 17.8981 15.2924 18.0767 15.2901 18.2639C15.2878 18.4511 15.36 18.6315 15.491 18.7655C15.6219 18.8995 15.8008 18.9761 15.9882 18.9784C16.1763 18.9807 16.3575 18.9083 16.4921 18.7772C16.6267 18.646 16.7036 18.4669 16.7059 18.2791C16.7082 18.0914 16.6357 17.9104 16.5044 17.776C16.3731 17.6416 16.1937 17.5648 16.0056 17.5625V17.5668Z" fill="#17191A"/>
<path d="M24.0681 17.5712C23.8806 17.5689 23.6999 17.641 23.5657 17.7718C23.4316 17.9025 23.3549 18.0811 23.3526 18.2683C23.3503 18.4554 23.4225 18.6359 23.5534 18.7699C23.6844 18.9038 23.8632 18.9804 24.0507 18.9827C24.2387 18.985 24.42 18.9126 24.5546 18.7815C24.6892 18.6504 24.7661 18.4712 24.7684 18.2835C24.7707 18.0957 24.6982 17.9147 24.5669 17.7803C24.4356 17.6459 24.2561 17.5691 24.0681 17.5668V17.5712Z" fill="#17191A"/>
<path d="M20.0013 20.8796C19.8138 20.8773 19.6331 20.9494 19.4989 21.0802C19.3647 21.2109 19.2881 21.3895 19.2857 21.5767C19.2834 21.7638 19.3557 21.9443 19.4866 22.0783C19.6175 22.2122 19.7964 22.2888 19.9839 22.2911C20.1719 22.2934 20.3532 22.221 20.4878 22.0899C20.6223 21.9588 20.6993 21.7796 20.7016 21.5919C20.7039 21.4041 20.6314 21.2231 20.5001 21.0887C20.3687 20.9543 20.1893 20.8775 20.0013 20.8752V20.8796Z" fill="#17191A"/>
<path d="M30.626 27.7045C30.2126 27.8546 29.9185 28.1366 29.7577 28.5674C29.7179 28.6797 29.7653 28.7179 29.8656 28.717C29.9909 28.717 30.1163 28.717 30.2416 28.717C30.3789 28.717 30.5162 28.717 30.6535 28.717C30.7207 28.717 30.7705 28.7032 30.7693 28.6148C30.7665 28.3445 30.7693 28.0746 30.7653 27.8043C30.7645 27.7045 30.7187 27.6697 30.626 27.7045Z" fill="#17191A"/>
<path d="M19.4341 14.3803C19.4363 14.5214 19.4942 14.6558 19.595 14.7542C19.6959 14.8527 19.8316 14.9071 19.9724 14.9055C20.042 14.9073 20.1112 14.8948 20.1757 14.8688C20.2403 14.8429 20.2989 14.8039 20.3479 14.7544C20.3969 14.7049 20.4353 14.6459 20.4608 14.581C20.4862 14.5161 20.4981 14.4467 20.4958 14.377C20.4958 14.0669 20.2823 13.846 19.9794 13.8439C19.9081 13.8419 19.8371 13.8544 19.7707 13.8805C19.7043 13.9066 19.6438 13.9459 19.5929 13.996C19.542 14.046 19.5017 14.1059 19.4744 14.1719C19.4472 14.238 19.4335 14.3088 19.4341 14.3803Z" fill="#17191A"/>
<path d="M19.628 25.5795C19.6301 25.7206 19.688 25.855 19.7888 25.9535C19.8897 26.0519 20.0254 26.1063 20.1662 26.1047C20.2358 26.1065 20.305 26.094 20.3695 26.0681C20.4341 26.0421 20.4927 26.0031 20.5417 25.9537C20.5907 25.9042 20.6291 25.8451 20.6546 25.7802C20.68 25.7153 20.6919 25.6459 20.6896 25.5762C20.6896 25.2661 20.4761 25.0452 20.1732 25.0432C20.1019 25.0412 20.0309 25.0536 19.9645 25.0797C19.8981 25.1058 19.8376 25.1451 19.7867 25.1952C19.7358 25.2453 19.6955 25.3051 19.6682 25.3712C19.641 25.4372 19.6273 25.5081 19.628 25.5795Z" fill="#17191A"/>
<path d="M9.38271 27.7084C9.28083 27.6707 9.22989 27.6921 9.23072 27.8099C9.23266 28.0666 9.23266 28.3232 9.23072 28.5796C9.23072 28.6731 9.27214 28.7176 9.36408 28.7167C9.4937 28.7167 9.62333 28.7167 9.75337 28.7167C9.87762 28.7167 10.0019 28.7121 10.1261 28.7167C10.2503 28.7213 10.2814 28.6785 10.2375 28.5615C10.1678 28.3633 10.0546 28.1835 9.90661 28.0358C9.75858 27.8881 9.57948 27.7761 9.38271 27.7084Z" fill="#17191A"/>
<path d="M17.9578 13.3243C18.1964 13.5162 18.4644 13.4142 18.7191 13.4435C18.9021 13.4642 19.0476 13.4031 19.1998 13.2849C19.6581 12.9313 20.1788 12.8622 20.6542 13.1914C20.9665 13.4081 21.2696 13.447 21.6161 13.448C21.8213 13.4512 22.0197 13.3724 22.17 13.2278C22.6537 12.797 22.9021 12.246 22.9997 11.6C23.0324 11.3783 22.9826 11.3223 22.7738 11.3243C21.8523 11.3324 20.9304 11.3278 20.0085 11.3278C19.0866 11.3278 18.1501 11.3278 17.2213 11.3278C17.1057 11.3278 16.9685 11.3046 16.9944 11.5036C17.0891 12.2389 17.379 12.8601 17.9578 13.3243Z" fill="#17191A"/>
<path d="M22.9608 26.4369C22.9608 26.2949 22.8318 26.2199 22.6765 26.2255C22.2901 26.2342 22.0405 26.2296 21.6541 26.2255C21.6067 26.2243 21.5053 26.2062 21.4623 26.2268C21.4193 26.2474 21.3183 26.4008 21.286 26.4369C20.6217 27.1801 19.4871 27.1801 19.1266 26.4369C19.1037 26.3898 18.9789 26.2489 18.9322 26.2268C18.8856 26.2046 18.7429 26.1939 18.6916 26.1955C18.3195 26.1991 17.9475 26.2032 17.5765 26.1955C17.4009 26.1909 17.3433 26.2575 17.3453 26.4369C17.3528 27.0968 17.3553 27.7568 17.3453 28.4167C17.3419 28.6217 17.4143 28.6775 17.6048 28.6729C18.4073 28.6642 19.2104 28.6693 20.013 28.6693C20.8235 28.6693 21.867 28.6617 22.6765 28.6693C22.8447 28.6693 22.9633 28.5889 22.9608 28.4167C22.9489 27.7347 22.9549 27.1199 22.9608 26.4369Z" fill="#17191A"/>
<path d="M26.1895 25.6626C26.1895 24.7341 26.1856 23.8051 26.1935 22.8761C26.1935 22.7112 26.1552 22.6553 25.9837 22.6563C24.4324 22.6623 22.8815 22.6603 21.3302 22.6593C21.2185 22.6551 21.1086 22.6885 21.0179 22.7542C20.471 23.1475 19.5914 23.143 19.0315 22.7542C18.9416 22.688 18.801 22.658 18.6895 22.6593C17.1382 22.6593 15.9459 22.6608 14.3949 22.6608C14.2238 22.6608 14.1587 22.7107 14.1592 22.8911C14.1642 24.7411 14.1642 26.5912 14.1592 28.4415C14.1592 28.6194 14.2203 28.6754 14.3934 28.6739C15.1243 28.6674 15.8552 28.6664 16.5856 28.6739C16.7567 28.6739 16.798 28.6199 16.796 28.454C16.7875 27.6545 16.789 26.8509 16.7935 26.0494C16.796 25.6536 16.9297 25.5257 17.3225 25.5242C17.7551 25.5242 18.1877 25.5207 18.6198 25.5242C18.7521 25.5242 18.8187 25.4967 18.8376 25.3453C18.9311 24.6422 19.4989 24.1334 20.1731 24.1314C20.5047 24.1313 20.8251 24.2519 21.0749 24.4709C21.3248 24.69 21.4872 24.9926 21.532 25.3228C21.5584 25.4957 21.6315 25.5262 21.7807 25.5227C22.2127 25.5172 22.6453 25.5192 23.0779 25.5227C23.4374 25.5227 23.5582 25.6481 23.5592 26.0124C23.5592 26.812 23.5652 27.6155 23.5557 28.4171C23.5557 28.617 23.6224 28.6729 23.8143 28.6704C24.5303 28.6614 25.2463 28.6634 25.9623 28.6704C26.1259 28.6704 26.197 28.6424 26.1945 28.45C26.1836 27.5206 26.1895 26.5916 26.1895 25.6626Z" fill="#17191A"/>
<path d="M28.6544 21.5942C28.2398 21.597 27.9616 21.8807 27.9649 22.2981C27.9634 22.3908 27.9803 22.4828 28.0146 22.5689C28.0489 22.655 28.1 22.7334 28.1648 22.7996C28.2297 22.8658 28.3071 22.9185 28.3924 22.9545C28.4778 22.9906 28.5694 23.0093 28.6621 23.0097C28.8493 23.0054 29.0277 22.9299 29.1612 22.7986C29.2947 22.6673 29.3732 22.4901 29.3807 22.3031C29.3819 22.2081 29.3638 22.114 29.3275 22.0263C29.2912 21.9386 29.2374 21.8592 29.1695 21.7929C29.1016 21.7266 29.0209 21.6748 28.9324 21.6407C28.8438 21.6065 28.7492 21.5907 28.6544 21.5942V21.5942Z" fill="#17191A"/>
<path d="M30.7933 18.9981C30.7933 16.5195 30.7943 14.041 30.7963 11.5624C30.7963 11.3946 30.7694 11.3242 30.5803 11.3247C28.4104 11.3311 26.2405 11.3311 24.0705 11.3247C23.886 11.3247 23.8146 11.3976 23.8017 11.5704C23.7787 11.8799 23.7249 12.1889 23.5952 12.4687C23.1801 13.365 22.7062 14.2026 21.5305 14.1684C21.4153 14.1654 21.3719 14.2317 21.3749 14.3407C21.3831 14.5066 21.3585 14.6724 21.3025 14.8286C21.0736 15.439 20.4515 15.8334 19.8559 15.743C19.1456 15.6339 18.6647 15.1109 18.6458 14.3915C18.6403 14.2011 18.5759 14.1498 18.4118 14.1699C18.0407 14.2156 17.7284 14.0991 17.4401 13.8604C16.7547 13.2947 16.3556 12.5692 16.2334 11.6885C16.1835 11.3297 16.1885 11.3287 15.8234 11.3287C13.7133 11.3287 11.6032 11.3323 9.49319 11.3242C9.26423 11.3242 9.20337 11.3925 9.20337 11.6191C9.20936 16.5448 9.20936 21.4707 9.20337 26.3967C9.20337 26.5861 9.25325 26.6685 9.4448 26.7213C10.3427 26.97 10.9149 27.5583 11.1583 28.4596C11.2042 28.6289 11.2815 28.6712 11.4381 28.6691C11.9619 28.6636 12.4857 28.6591 13.009 28.6691C13.203 28.6737 13.2414 28.6058 13.2409 28.423C13.2344 26.4635 13.2364 24.5041 13.2369 22.5482C13.2369 21.9795 13.3282 21.886 13.8854 21.886C14.701 21.886 15.5166 21.8775 16.3297 21.8915C16.5656 21.8956 16.6469 21.8172 16.6903 21.5856C16.9677 20.116 18.2587 18.9308 19.6833 18.8152C21.4412 18.6731 22.9886 19.8522 23.3298 21.6112C23.3717 21.8287 23.453 21.8936 23.666 21.891C24.5414 21.8805 25.4169 21.885 26.2923 21.888C26.6276 21.888 26.7528 22.0182 26.7578 22.3523C26.7578 22.4276 26.7578 22.503 26.7578 22.5783C26.7578 24.5142 26.7607 26.45 26.7533 28.3853C26.7533 28.6008 26.8126 28.6752 27.0311 28.6686C27.5245 28.6546 28.0188 28.6616 28.5126 28.6656C28.6473 28.6656 28.7281 28.6365 28.7705 28.4843C29.0369 27.5181 29.6809 26.9368 30.6312 26.6881C30.7619 26.6539 30.7923 26.6022 30.7918 26.4746C30.7911 23.9833 30.7916 21.4911 30.7933 18.9981ZM11.1713 23.7002C10.431 23.7002 9.80995 23.0642 9.81045 22.3085C9.81051 22.1277 9.84606 21.9487 9.91504 21.7817C9.98402 21.6147 10.0851 21.4631 10.2124 21.3356C10.3398 21.2081 10.4909 21.1072 10.657 21.0387C10.8232 20.9702 11.0012 20.9355 11.1807 20.9365C11.925 20.9365 12.56 21.578 12.5495 22.3181C12.5386 23.0712 11.911 23.7012 11.1713 23.7002ZM11.922 18.974C11.6534 18.9731 11.3911 18.8922 11.1681 18.7414C10.9451 18.5907 10.7714 18.3769 10.6689 18.1269C10.5663 17.8769 10.5395 17.6019 10.5917 17.3366C10.644 17.0713 10.7731 16.8274 10.9627 16.6359C11.1523 16.4443 11.3939 16.3135 11.6572 16.2599C11.9204 16.2064 12.1935 16.2325 12.4421 16.335C12.6906 16.4375 12.9035 16.6118 13.0539 16.8359C13.2043 17.06 13.2855 17.3239 13.2873 17.5944C13.2876 17.9596 13.144 18.31 12.888 18.5686C12.632 18.8273 12.2846 18.9731 11.922 18.974V18.974ZM11.907 15.0778C11.1698 15.0738 10.5298 14.4246 10.5367 13.6846C10.5437 12.9445 11.1852 12.3039 11.9215 12.309C12.284 12.316 12.6296 12.4652 12.8846 12.7248C13.1397 12.9844 13.2841 13.3339 13.2873 13.6991C13.2843 14.4422 12.6443 15.0818 11.907 15.0778V15.0778ZM15.9476 19.6498C15.679 19.6456 15.4177 19.5615 15.1966 19.408C14.9754 19.2546 14.8043 19.0387 14.7047 18.7875C14.6051 18.5362 14.5816 18.261 14.6371 17.9963C14.6925 17.7316 14.8245 17.4894 15.0164 17.3002C15.2082 17.1109 15.4514 16.983 15.7153 16.9327C15.9791 16.8823 16.2519 16.9118 16.4992 17.0172C16.7465 17.1227 16.9573 17.2996 17.105 17.5254C17.2527 17.7513 17.3308 18.0162 17.3293 18.2867C17.3276 18.4678 17.2904 18.6468 17.2199 18.8135C17.1494 18.9801 17.047 19.1312 16.9186 19.258C16.7901 19.3847 16.6381 19.4848 16.4712 19.5523C16.3044 19.6199 16.1259 19.6537 15.9461 19.6518L15.9476 19.6498ZM24.0446 19.6498C23.776 19.6488 23.5138 19.5678 23.2908 19.4169C23.0679 19.2661 22.8942 19.0522 22.7918 18.8022C22.6893 18.5521 22.6626 18.2771 22.7149 18.0118C22.7673 17.7465 22.8965 17.5028 23.0862 17.3113C23.2758 17.1197 23.5175 16.989 23.7808 16.9356C24.0441 16.8822 24.3171 16.9084 24.5657 17.011C24.8142 17.1135 25.027 17.2879 25.1773 17.512C25.3276 17.7362 25.4087 18.0001 25.4104 18.2706C25.4107 18.4517 25.3755 18.6311 25.3069 18.7986C25.2384 18.966 25.1377 19.1182 25.0108 19.2464C24.8838 19.3747 24.733 19.4765 24.567 19.546C24.4009 19.6156 24.2229 19.6515 24.0431 19.6518L24.0446 19.6498ZM28.0732 12.309C28.4355 12.3142 28.7816 12.4612 29.0384 12.7187C29.2952 12.9762 29.4426 13.3242 29.4494 13.6891C29.4494 14.4332 28.8174 15.0758 28.0792 15.0783C27.3409 15.0808 26.6994 14.4362 26.6984 13.6956C26.6974 12.9551 27.3369 12.3095 28.0732 12.309ZM26.6989 17.5989C26.6969 17.3244 26.776 17.0554 26.926 16.8263C27.0761 16.5971 27.2904 16.418 27.5417 16.3117C27.7931 16.2054 28.0701 16.1768 28.3376 16.2293C28.6051 16.2819 28.8511 16.4134 29.0443 16.6071C29.2375 16.8007 29.3692 17.0479 29.4227 17.3171C29.4762 17.5863 29.449 17.8654 29.3447 18.119C29.2404 18.3727 29.0636 18.5893 28.8367 18.7416C28.6099 18.8938 28.3432 18.9747 28.0707 18.974C27.7078 18.9747 27.3595 18.8302 27.1022 18.5724C26.845 18.3145 26.6999 17.9644 26.6989 17.5989ZM28.6658 23.7002C28.3032 23.6899 27.9591 23.5368 27.7073 23.2738C27.4555 23.0108 27.316 22.6588 27.3189 22.2935C27.321 22.1127 27.3585 21.9342 27.4293 21.7681C27.5 21.602 27.6027 21.4516 27.7313 21.3256C27.8599 21.1996 28.012 21.1003 28.1788 21.0337C28.3455 20.967 28.5238 20.9341 28.7032 20.937C29.436 20.9415 30.06 21.5745 30.0575 22.3106C30.056 23.0667 29.4046 23.7173 28.6658 23.7002V23.7002Z" fill="#17191A"/>
<path d="M32.2124 9.91016H7.78756C7.74105 9.91009 7.695 9.91916 7.65202 9.93683C7.60905 9.95451 7.57 9.98045 7.53712 10.0132C7.50424 10.0459 7.47817 10.0848 7.4604 10.1275C7.44264 10.1703 7.43353 10.2161 7.43359 10.2624V29.7349C7.43353 29.7812 7.44264 29.827 7.4604 29.8698C7.47817 29.9126 7.50424 29.9514 7.53712 29.9841C7.57 30.0168 7.60905 30.0428 7.65202 30.0605C7.695 30.0781 7.74105 30.0872 7.78756 30.0871H32.2124C32.2589 30.0872 32.3049 30.0781 32.3479 30.0605C32.3909 30.0428 32.4299 30.0168 32.4628 29.9841C32.4957 29.9514 32.5218 29.9126 32.5395 29.8698C32.5573 29.827 32.5664 29.7812 32.5663 29.7349V10.2624C32.5664 10.2161 32.5573 10.1703 32.5395 10.1275C32.5218 10.0848 32.4957 10.0459 32.4628 10.0132C32.4299 9.98045 32.3909 9.95451 32.3479 9.93683C32.3049 9.91916 32.2589 9.91009 32.2124 9.91016V9.91016ZM31.565 28.7869C31.565 29.2462 31.4754 29.3349 31.0103 29.3349H9.07123C8.98122 29.3385 8.89107 29.3362 8.80138 29.3279C8.5886 29.3 8.47695 29.1685 8.46794 28.9483C8.46794 28.8984 8.46794 28.8436 8.46794 28.7913V11.2284C8.46794 10.7715 8.56106 10.6804 9.01866 10.6804H31.0023C31.4679 10.6804 31.564 10.78 31.564 11.2488C31.5647 17.0943 31.565 22.9403 31.565 28.7869Z" fill="#17191A"/>
</svg>
