<svg width="30" height="30" viewBox="0 0 30 30" fill="none" xmlns="http://www.w3.org/2000/svg">
<path d="M12.2443 0H17.7435C17.7631 0.0366954 17.775 0.0770341 17.7784 0.118527C17.9509 1.13949 18.1265 2.15921 18.2959 3.1808C18.2991 3.22183 18.3156 3.26067 18.3429 3.29136C18.3702 3.32206 18.4068 3.34292 18.4471 3.35075C19.2287 3.58847 19.9848 3.90359 20.7042 4.29145C20.7498 4.3224 20.8042 4.33767 20.8592 4.33495C20.9142 4.33224 20.9668 4.31169 21.0092 4.2764C21.8241 3.70404 22.6423 3.13565 23.4638 2.57123C23.7138 2.3994 23.6513 2.39689 23.8537 2.60321C25.049 3.82026 26.2436 5.03836 27.4376 6.2575C27.5675 6.38982 27.5682 6.39045 27.4588 6.54222C26.8539 7.37839 26.2498 8.2131 25.6466 9.04634C25.5997 9.10906 25.5728 9.16487 25.6203 9.24828C26.0396 9.98569 26.366 10.7725 26.5921 11.5906C26.5992 11.6291 26.6192 11.664 26.6487 11.6897C26.6782 11.7153 26.7155 11.7301 26.7545 11.7317C27.7844 11.901 28.8136 12.0779 29.8434 12.246C29.9647 12.266 29.9997 12.3087 29.9997 12.431C29.9967 14.1735 29.9967 15.9161 29.9997 17.6587C29.9997 17.6794 29.9997 17.7007 29.9997 17.7214C30.004 17.7948 29.9672 17.8249 29.8972 17.8349C29.5641 17.8839 29.231 17.9353 28.8973 17.9855L26.8495 18.294C26.7539 18.3078 26.682 18.3316 26.6514 18.4451C26.434 19.2472 26.0978 20.0017 25.7078 20.7323C25.6798 20.775 25.6666 20.8259 25.6703 20.8769C25.674 20.9279 25.6945 20.9763 25.7284 21.0145C26.3377 21.8668 26.9408 22.7234 27.5494 23.5763C27.6157 23.6685 27.6119 23.7243 27.5319 23.8071C26.3004 25.0354 25.0738 26.265 23.8519 27.4959C23.7688 27.5799 23.7125 27.5912 23.6125 27.5184C22.7633 26.907 21.909 26.3031 21.0598 25.6916C21.0218 25.6578 20.9737 25.6376 20.923 25.6342C20.8724 25.6308 20.822 25.6444 20.7799 25.6728C20.0574 26.0627 19.2974 26.3779 18.5115 26.6135C18.4672 26.6236 18.4276 26.648 18.3986 26.6831C18.3697 26.7181 18.3531 26.7618 18.3515 26.8073C18.1859 27.8163 18.0159 28.8241 17.8516 29.8338C17.8316 29.9592 17.7891 30 17.6641 30C15.9231 29.9958 14.1826 29.9958 12.4424 30C12.3212 30 12.2774 29.9611 12.2581 29.8426C12.095 28.8498 11.9237 27.859 11.7581 26.8669C11.7545 26.8197 11.7352 26.7751 11.7034 26.7403C11.6716 26.7054 11.629 26.6822 11.5826 26.6743C10.7727 26.4455 9.99041 26.128 9.24979 25.7274C9.21274 25.7024 9.16847 25.6904 9.12392 25.6934C9.07936 25.6963 9.03704 25.714 9.00358 25.7437C8.15059 26.357 7.29323 26.9641 6.44148 27.5787C6.33963 27.652 6.28151 27.647 6.19152 27.5573C4.97588 26.3315 3.75691 25.1082 2.5346 23.8874C2.43399 23.787 2.44024 23.7243 2.5171 23.6177C3.12388 22.7686 3.72316 21.9144 4.32932 21.0659C4.36128 21.0291 4.38 20.9825 4.38249 20.9338C4.38498 20.885 4.3711 20.8368 4.34307 20.7969C3.94522 20.0764 3.62913 19.3134 3.40071 18.5223C3.39224 18.4779 3.36915 18.4376 3.33516 18.4079C3.30117 18.3782 3.25824 18.3609 3.21324 18.3586C2.79456 18.2927 2.3765 18.2181 1.95782 18.1491C1.30542 18.0413 0.652814 17.9344 0 17.8287V12.2867C0.204343 12.224 0.416809 12.2115 0.624902 12.1801C1.49268 12.0497 2.36067 11.9219 3.22887 11.7969C3.27005 11.7947 3.30927 11.7786 3.34014 11.7511C3.371 11.7237 3.39169 11.6866 3.39884 11.6458C3.62445 10.8366 3.93883 10.055 4.33619 9.31538C4.39868 9.18996 4.38931 9.11219 4.30932 9.00182C3.70254 8.17401 3.10389 7.33992 2.49711 6.51149C2.42774 6.41616 2.43462 6.36223 2.51835 6.28196C3.76107 5.05947 5.0015 3.83448 6.23964 2.60698C6.33775 2.50977 6.40149 2.50726 6.51085 2.58565C7.34197 3.17955 8.17746 3.76654 9.01046 4.35855C9.03921 4.38496 9.07577 4.40122 9.11458 4.40484C9.15339 4.40846 9.19231 4.39926 9.22542 4.37862C9.96508 3.96641 10.7489 3.63968 11.5619 3.40469C11.5948 3.39891 11.6248 3.38246 11.6474 3.35786C11.6699 3.33327 11.6838 3.3019 11.6869 3.2686C11.8269 2.41654 11.9685 1.56448 12.1118 0.712419C12.1531 0.47411 12.1725 0.232038 12.2443 0ZM15.0051 9.30096C12.0256 9.26835 9.27854 11.7022 9.26354 15.0179C9.24854 18.2884 11.8125 20.7379 14.8683 20.7994C18.0828 20.8621 20.7136 18.3373 20.723 15.0674C20.733 11.7305 17.9828 9.28152 15.0051 9.30096Z" fill="white"/>
</svg>
