<svg width="40" height="40" viewBox="0 0 40 40" fill="none" xmlns="http://www.w3.org/2000/svg">
<circle cx="20" cy="20" r="20" fill="white"/>
<path fill-rule="evenodd" clip-rule="evenodd" d="M20 0.997506C9.50521 0.997506 0.997506 9.50521 0.997506 20C0.997506 30.4948 9.50521 39.0025 20 39.0025C30.4948 39.0025 39.0025 30.4948 39.0025 20C39.0025 9.50521 30.4948 0.997506 20 0.997506ZM0 20C0 8.9543 8.9543 0 20 0C31.0457 0 40 8.9543 40 20C40 31.0457 31.0457 40 20 40C8.9543 40 0 31.0457 0 20Z" fill="#17191A"/>
<path d="M17.6117 7H22.3777C22.3947 7.0318 22.405 7.06676 22.408 7.10272C22.5575 7.98756 22.7097 8.87131 22.8564 9.75669C22.8592 9.79225 22.8735 9.82591 22.8972 9.85252C22.9209 9.87912 22.9526 9.8972 22.9875 9.90399C23.6649 10.11 24.3201 10.3831 24.9437 10.7193C24.9832 10.7461 25.0303 10.7593 25.078 10.757C25.1256 10.7546 25.1713 10.7368 25.208 10.7062C25.9142 10.2102 26.6233 9.71756 27.3353 9.2284C27.5519 9.07948 27.4978 9.0773 27.6732 9.25612C28.7091 10.3109 29.7444 11.3666 30.7792 12.4232C30.8919 12.5378 30.8924 12.5384 30.7976 12.6699C30.2734 13.3946 29.7498 14.118 29.227 14.8402C29.1864 14.8945 29.1631 14.9429 29.2043 15.0152C29.5676 15.6543 29.8505 16.3362 30.0465 17.0452C30.0527 17.0786 30.07 17.1088 30.0956 17.131C30.1211 17.1532 30.1535 17.1661 30.1873 17.1675C31.0798 17.3142 31.9718 17.4675 32.8643 17.6132C32.9694 17.6306 32.9997 17.6675 32.9997 17.7735C32.9972 19.2837 32.9972 20.794 32.9997 22.3042C32.9997 22.3222 32.9997 22.3406 32.9997 22.3586C33.0035 22.4222 32.9715 22.4483 32.9109 22.4569C32.6222 22.4993 32.3336 22.5439 32.0443 22.5874L30.2696 22.8548C30.1867 22.8668 30.1244 22.8874 30.0979 22.9858C29.9094 23.6809 29.6181 24.3348 29.2801 24.968C29.2558 25.005 29.2444 25.0491 29.2476 25.0933C29.2508 25.1376 29.2686 25.1795 29.298 25.2126C29.826 25.9512 30.3487 26.6936 30.8762 27.4328C30.9336 27.5127 30.9303 27.5611 30.861 27.6328C29.7937 28.6974 28.7306 29.763 27.6716 30.8298C27.5996 30.9026 27.5508 30.9124 27.4642 30.8493C26.7282 30.3194 25.9878 29.796 25.2518 29.2661C25.2189 29.2368 25.1772 29.2193 25.1333 29.2163C25.0894 29.2134 25.0457 29.2251 25.0092 29.2498C24.3831 29.5877 23.7244 29.8608 23.0433 30.065C23.0049 30.0738 22.9706 30.095 22.9455 30.1253C22.9204 30.1557 22.906 30.1936 22.9046 30.233C22.7611 31.1075 22.6138 31.9809 22.4714 32.856C22.454 32.9647 22.4172 33 22.3089 33C20.8 32.9964 19.2916 32.9964 17.7834 33C17.6784 33 17.6404 32.9663 17.6237 32.8636C17.4823 32.0032 17.3339 31.1444 17.1904 30.2846C17.1872 30.2437 17.1705 30.2051 17.1429 30.1749C17.1154 30.1447 17.0785 30.1245 17.0382 30.1178C16.3363 29.9195 15.6584 29.6442 15.0165 29.2971C14.9844 29.2754 14.946 29.265 14.9074 29.2676C14.8688 29.2701 14.8321 29.2855 14.8031 29.3112C14.0638 29.8427 13.3208 30.3689 12.5826 30.9015C12.4943 30.9651 12.444 30.9607 12.366 30.883C11.3124 29.8206 10.256 28.7604 9.19665 27.7024C9.10946 27.6154 9.11488 27.5611 9.18149 27.4687C9.70737 26.7328 10.2267 25.9925 10.7521 25.2571C10.7798 25.2252 10.796 25.1849 10.7982 25.1426C10.8003 25.1003 10.7883 25.0586 10.764 25.024C10.4192 24.3995 10.1452 23.7383 9.94729 23.0526C9.93994 23.0142 9.91993 22.9793 9.89047 22.9535C9.86102 22.9278 9.82381 22.9128 9.78481 22.9108C9.42195 22.8537 9.05963 22.789 8.69677 22.7292C8.13136 22.6358 7.56577 22.5432 7 22.4515V17.6485C7.1771 17.5941 7.36123 17.5833 7.54158 17.5561C8.29366 17.443 9.04591 17.3324 9.79835 17.224C9.83404 17.2221 9.86803 17.2081 9.89478 17.1843C9.92154 17.1605 9.93947 17.1284 9.94566 17.093C10.1412 16.3917 10.4137 15.7143 10.758 15.0733C10.8122 14.9646 10.8041 14.8972 10.7347 14.8016C10.2089 14.0841 9.69003 13.3613 9.16416 12.6433C9.10404 12.5607 9.11 12.5139 9.18257 12.4444C10.2596 11.3849 11.3346 10.3232 12.4077 9.25938C12.4927 9.17514 12.548 9.17296 12.6427 9.2409C13.363 9.75561 14.0871 10.2643 14.8091 10.7774C14.834 10.8003 14.8657 10.8144 14.8993 10.8175C14.9329 10.8207 14.9667 10.8127 14.9954 10.7948C15.6364 10.4376 16.3157 10.1544 17.0203 9.95073C17.0488 9.94572 17.0748 9.93146 17.0944 9.91015C17.114 9.88883 17.126 9.86165 17.1287 9.83279C17.25 9.09433 17.3727 8.35588 17.4969 7.61743C17.5327 7.4109 17.5495 7.2011 17.6117 7ZM20.0045 15.0608C17.4222 15.0326 15.0414 17.1419 15.0284 20.0155C15.0154 22.8499 17.2375 24.9729 19.8858 25.0261C22.6717 25.0805 24.9518 22.8923 24.9599 20.0584C24.9686 17.1664 22.5851 15.044 20.0045 15.0608Z" fill="#17191A"/>
</svg>
