<svg width="40" height="40" viewBox="0 0 40 40" fill="none" xmlns="http://www.w3.org/2000/svg">
<circle cx="20" cy="20" r="20" fill="white"/>
<path fill-rule="evenodd" clip-rule="evenodd" d="M20 0.997506C9.50521 0.997506 0.997506 9.50521 0.997506 20C0.997506 30.4948 9.50521 39.0025 20 39.0025C30.4948 39.0025 39.0025 30.4948 39.0025 20C39.0025 9.50521 30.4948 0.997506 20 0.997506ZM0 20C0 8.9543 8.9543 0 20 0C31.0457 0 40 8.9543 40 20C40 31.0457 31.0457 40 20 40C8.9543 40 0 31.0457 0 20Z" fill="#17191A"/>
<path d="M17.9935 14.9997C18.1255 15.0031 18.2569 14.9798 18.3797 14.9313C18.5025 14.8828 18.6143 14.81 18.7082 14.7172C18.8022 14.6245 18.8765 14.5137 18.9266 14.3916C18.9767 14.2695 19.0017 14.1385 18.9999 14.0066C19.0009 13.8753 18.976 13.7452 18.9266 13.6236C18.8773 13.502 18.8044 13.3913 18.7123 13.2979C18.6201 13.2044 18.5104 13.13 18.3895 13.0789C18.2686 13.0278 18.1388 13.001 18.0075 13C17.8762 12.9991 17.746 13.0239 17.6243 13.0733C17.5026 13.1226 17.3919 13.1954 17.2983 13.2875C17.2048 13.3796 17.1303 13.4892 17.0792 13.6101C17.0281 13.7309 17.0013 13.8606 17.0003 13.9919C16.9971 14.1238 17.0205 14.255 17.0691 14.3778C17.1176 14.5005 17.1904 14.6122 17.2831 14.7062C17.3758 14.8002 17.4864 14.8747 17.6085 14.9251C17.7305 14.9755 17.8615 15.0009 17.9935 14.9997Z" fill="#17191A"/>
<path d="M32.9865 27.829C32.7733 27.021 32.567 26.2104 32.3568 25.4008C32.1436 24.582 31.9264 23.7632 31.7146 22.9418C31.399 21.7192 31.0889 20.4956 30.7728 19.2731C30.5152 18.2757 30.252 17.2803 29.9933 16.2834C29.6028 14.7751 29.2143 13.2673 28.8278 11.76C28.7883 11.6065 28.7279 11.6101 28.6101 11.6607C28.1761 11.8475 27.7382 12.0261 27.3022 12.2083C26.2735 12.6375 25.2458 13.0667 24.2191 13.4959C24.0194 13.5793 24.0044 13.5737 23.9809 13.3562C23.9774 13.3291 23.9759 13.3009 23.9749 13.2733C23.9506 12.7525 23.8634 12.2368 23.7153 11.738C23.3769 10.577 22.733 9.53392 21.8541 8.72329C20.6247 7.58208 19.1812 7.0079 17.5236 7.00073C16.471 6.98436 15.4852 7.2433 14.5544 7.73561C13.6118 8.23459 12.8046 8.96513 12.2049 9.86194C11.6481 10.6807 11.279 11.5824 11.1442 12.5706C11.1033 12.8695 10.9575 12.9836 10.7128 13.0824C9.51428 13.565 8.3213 14.0639 7.12382 14.5516C7.00596 14.5997 6.981 14.6606 7.01246 14.7783C7.12481 15.201 7.23118 15.6258 7.34104 16.049C7.65514 17.2552 7.97174 18.4599 8.28334 19.6666C8.59745 20.8835 8.90555 22.1025 9.22016 23.3195C9.53476 24.5364 9.85186 25.7416 10.1665 26.9529C10.503 28.2494 10.8388 29.5468 11.1737 30.8453C11.2196 31.0224 11.2391 31.0285 11.4089 30.9579C11.9608 30.728 12.5128 30.4992 13.0648 30.2716C14.3608 29.7384 15.657 29.2058 16.9534 28.6739C17.1156 28.6074 17.2699 28.544 17.4657 28.589C18.2362 28.7676 19.0137 28.9201 19.7863 29.0854C21.2005 29.3884 22.6153 29.6925 24.0309 29.9979C24.8888 30.1826 25.7472 30.3658 26.6041 30.5557C26.7525 30.5882 26.9072 30.5714 27.0456 30.5076C28.0822 30.0722 29.1194 29.6388 30.1571 29.2072C31.0596 28.8319 31.9623 28.4566 32.8652 28.0813C32.988 28.0286 33.0225 27.9616 32.9865 27.829ZM17.5246 10.6117C18.8814 10.6117 20.0035 11.78 20.0015 13.1863C20.0015 14.5711 18.8644 15.7573 17.5186 15.7399C16.1599 15.7225 15.0528 14.6386 15.0353 13.1714C15.0188 11.782 16.1629 10.6096 17.5246 10.6117ZM31.0939 27.1847C29.9574 27.6494 28.8263 28.1264 27.6927 28.5987C27.3821 28.7282 27.069 28.8546 26.7589 28.9841C26.6879 29.0105 26.6105 29.0127 26.5382 28.9902C25.5528 28.7766 24.5677 28.5638 23.5829 28.3515L20.1818 27.6203C19.2759 27.4254 18.3702 27.23 17.4647 27.0338C17.3698 27.0133 17.2729 26.999 17.1716 26.9826C16.9543 27.0036 16.7646 27.1203 16.5658 27.2011C15.2625 27.7313 13.9626 28.2692 12.6618 28.8044C12.5559 28.8479 12.4486 28.8863 12.3462 28.9365C12.2438 28.9866 12.1964 28.9544 12.1654 28.8413C12.0351 28.326 11.8973 27.8122 11.7659 27.2978C11.5439 26.4402 11.3225 25.5821 11.1018 24.7237C10.8374 23.7002 10.5738 22.6767 10.3108 21.6532C10.094 20.817 9.87283 19.9824 9.6566 19.1456C9.44038 18.3089 9.22815 17.4722 9.01342 16.6355C8.93202 16.3192 8.85212 16.0019 8.76024 15.6882C8.72329 15.5613 8.76473 15.5091 8.87459 15.4641C9.57371 15.1806 10.2728 14.8937 10.9719 14.6033C11.0963 14.5521 11.1557 14.568 11.1847 14.7128C11.3165 15.3807 11.5662 16.0076 11.8453 16.6217C12.5709 18.2168 13.4932 19.6922 14.473 21.1323C15.2305 22.2489 16.035 23.3297 16.862 24.3921C17.2615 24.9039 17.7668 24.9039 18.1683 24.3962C19.2624 23.0181 20.2941 21.5918 21.2499 20.1098C22.0674 18.8319 22.8314 17.5224 23.4122 16.1099C23.4896 15.9211 23.5585 15.7276 23.6194 15.5327C23.6339 15.4746 23.6623 15.4211 23.7019 15.3769C23.7416 15.3328 23.7913 15.2995 23.8466 15.2799C24.9872 14.8111 26.1242 14.3336 27.2623 13.8587C27.3876 13.8075 27.515 13.7564 27.6373 13.7001C27.7596 13.6438 27.8121 13.6827 27.8435 13.8096C27.9674 14.3039 28.0967 14.7968 28.2246 15.2896C28.4483 16.1531 28.672 17.0162 28.8957 17.879C29.1018 18.6784 29.3087 19.4774 29.5164 20.2761L30.1981 22.9162C30.4045 23.7149 30.6109 24.5137 30.8173 25.3128C30.9536 25.8378 31.0859 26.3644 31.2307 26.8874C31.2737 27.042 31.2567 27.1182 31.0939 27.1847Z" fill="#17191A"/>
</svg>
