<svg width="40" height="40" viewBox="0 0 40 40" fill="none" xmlns="http://www.w3.org/2000/svg">
<circle cx="20" cy="20" r="20" fill="white"/>
<path fill-rule="evenodd" clip-rule="evenodd" d="M20 0.997506C9.50521 0.997506 0.997506 9.50521 0.997506 20C0.997506 30.4948 9.50521 39.0025 20 39.0025C30.4948 39.0025 39.0025 30.4948 39.0025 20C39.0025 9.50521 30.4948 0.997506 20 0.997506ZM0 20C0 8.9543 8.9543 0 20 0C31.0457 0 40 8.9543 40 20C40 31.0457 31.0457 40 20 40C8.9543 40 0 31.0457 0 20Z" fill="#17191A"/>
<path d="M19.2495 31.9995C18.9508 31.9662 18.6504 31.9404 18.3528 31.8985C16.1059 31.5973 13.9955 30.6561 12.278 29.1891C10.2462 27.4699 8.92723 25.3129 8.31086 22.7368C8.13596 21.9932 8.03501 21.2344 8.00945 20.4712C7.92705 18.3169 8.38296 16.2807 9.4032 14.3821C10.7158 11.9387 12.6493 10.1466 15.2037 9.00585C17.1449 8.1534 19.2817 7.83404 21.3902 8.08125C21.4987 8.09414 21.5529 8.121 21.4987 8.24564C21.3422 8.63453 21.2258 9.03808 21.1512 9.45015C21.1333 9.55008 21.0888 9.57372 20.9885 9.56405C20.4194 9.50957 19.8449 9.56429 19.2966 9.72522C19.1623 9.76157 19.0344 9.81791 18.9172 9.8923C18.671 10.0535 18.6185 10.249 18.7545 10.5096C18.8523 10.6833 18.9913 10.8308 19.1595 10.9394C19.4847 11.1715 19.8501 11.3348 20.2106 11.5051C20.5413 11.6609 20.879 11.8054 21.1864 12.008C21.2928 12.0741 21.3898 12.1539 21.4748 12.2454C21.6835 12.4845 21.6835 12.7558 21.4748 12.9928C21.3455 13.1252 21.2015 13.2427 21.0455 13.343C20.6752 13.6041 20.2838 13.8373 19.9352 14.129C19.7726 14.2633 19.6241 14.4057 19.5249 14.5932C19.3622 14.8973 19.4679 15.2078 19.7797 15.3566C19.8295 15.3808 19.8821 15.3996 19.9336 15.4211C20.1667 15.5189 20.2589 15.6618 20.2291 15.9073C20.1731 16.4382 19.9566 16.9399 19.6078 17.3466C19.4801 17.5003 19.3125 17.6168 19.1232 17.6835C19.0404 17.7147 18.9511 17.7249 18.8633 17.7132C18.7755 17.7015 18.6921 17.6682 18.6206 17.6163C18.4852 17.5192 18.3603 17.4083 18.2482 17.2854C17.8834 16.9093 17.5305 16.5257 17.0653 16.2646C16.7298 16.0738 16.3538 15.9634 15.9676 15.9422C15.3913 15.9132 14.9961 16.2254 14.6855 16.6638C14.4746 16.9614 14.3705 17.2966 14.4719 17.6571C14.5673 17.9956 14.7429 18.2884 15.1165 18.3899C15.3111 18.4437 15.5019 18.3781 15.6905 18.3303C15.9372 18.2674 16.173 18.1605 16.4332 18.1562C16.7157 18.1514 16.8729 18.2567 16.9753 18.5205C17.0642 18.7558 17.0876 19.004 17.1141 19.2506C17.1537 19.6159 17.1873 19.9818 17.286 20.3385C17.4486 20.9209 17.8058 21.3201 18.3658 21.5559C18.9036 21.7821 19.4501 21.9857 19.9651 22.2678C20.6123 22.624 21.1544 23.0844 21.4905 23.7533C21.6684 24.1037 21.7787 24.484 21.8158 24.8745C21.8537 25.2726 21.6976 25.6025 21.4038 25.8711C21.1658 26.0887 20.885 26.2418 20.6031 26.3928C20.3743 26.5153 20.1445 26.6361 19.9168 26.7597C19.3134 27.0869 18.9204 27.5865 18.6954 28.2248C18.6065 28.4762 18.5328 28.7346 18.381 28.9592C18.2717 29.1131 18.1186 29.2314 17.9413 29.299C17.764 29.3667 17.5705 29.3806 17.3852 29.339C17.0106 29.2482 16.8322 28.9963 16.9097 28.6223C17.0155 28.1119 16.9732 27.6247 16.7238 27.1626C16.4836 26.7167 16.507 26.2848 16.759 25.8496C16.9152 25.581 16.8675 25.3849 16.6273 25.1791C16.435 25.0267 16.2284 24.8929 16.0104 24.7794C15.7003 24.6037 15.3772 24.4479 15.1143 24.2003C14.6779 23.7893 14.6914 23.3288 15.1604 22.9512C15.3772 22.7771 15.6065 22.6208 15.8288 22.4547C16.4793 21.9712 16.3237 21.0955 15.7301 20.7474C15.4141 20.562 15.0671 20.461 14.7213 20.3568C14.2334 20.2085 13.7455 20.0635 13.2803 19.848C12.4759 19.4746 11.8915 18.881 11.4784 18.1084C11.0545 17.3138 10.7769 16.4779 10.695 15.5807C10.6847 15.4678 10.695 15.3529 10.6799 15.2363C10.527 15.4871 10.3978 15.7512 10.2939 16.0255C9.83839 17.1208 9.579 18.2863 9.52734 19.4698C9.39616 22.7594 10.5422 25.5407 12.9643 27.7821C14.4751 29.1789 16.2766 30.0305 18.3203 30.3657C19.003 30.4805 19.696 30.5239 20.3879 30.4952C22.6868 30.3913 24.7363 29.6279 26.5365 28.2049C26.692 28.0813 26.8379 27.9459 26.9918 27.8202C27.0596 27.7665 27.0726 27.7224 27.0048 27.6547C26.6839 27.3324 26.614 26.9617 26.7631 26.5367C26.8427 26.3354 26.9029 26.1271 26.943 25.9146C26.9591 25.8399 26.9511 25.7621 26.92 25.6922C26.889 25.6223 26.8365 25.5638 26.7701 25.5251C26.6216 25.4273 26.4497 25.3806 26.2855 25.3177C25.964 25.1947 25.9282 25.1388 25.9277 24.7982C25.9222 24.6246 25.9627 24.4526 26.045 24.2992C26.1274 24.1459 26.2488 24.0166 26.3971 23.9241C26.5598 23.8134 26.7381 23.7173 26.9013 23.6018C27.1826 23.4051 27.2369 23.1918 27.0889 22.8845C26.9563 22.6073 26.7356 22.3808 26.4606 22.2398C26.3229 22.1673 26.1754 22.1566 26.0171 22.1555C25.3769 22.1501 24.7817 22.0078 24.3317 21.5108C24.1695 21.329 24.0829 21.0931 24.0894 20.8505C24.0894 20.7264 24.0959 20.6023 24.097 20.4782C24.097 20.151 23.9587 19.8931 23.7056 19.6906C23.4671 19.5004 23.1873 19.3871 22.9092 19.271C22.7379 19.2001 22.5688 19.1233 22.3964 19.0561C22.0538 18.9213 21.8939 18.6591 21.8375 18.3104C21.702 17.4669 22.2636 16.4988 23.0691 16.1958C23.1488 16.1663 23.2117 16.1528 23.2779 16.2307C23.8259 16.8754 24.4163 17.4788 24.9535 18.1342C25.5741 18.8822 26.0834 19.7145 26.466 20.6055C26.7582 21.2991 27.3171 21.68 28.0262 21.6645C28.6962 21.6505 29.2128 21.3421 29.4709 20.7339C29.9864 19.5214 30.7269 18.463 31.6019 17.4863C31.6257 17.4594 31.6447 17.4143 31.6848 17.4207C31.7347 17.4293 31.7315 17.4831 31.7391 17.5212C31.889 18.2325 31.9746 18.9556 31.9949 19.682C32.0709 22.283 31.2927 24.8381 29.7774 26.9631C28.2621 29.0881 26.0916 30.6681 23.5923 31.4654C22.7039 31.7502 21.7832 31.9238 20.8514 31.9823C20.8194 31.9863 20.7878 31.9922 20.7565 32L19.2495 31.9995Z" fill="#17191A"/>
<path fill-rule="evenodd" clip-rule="evenodd" d="M20 30.4348C25.763 30.4348 30.4348 25.763 30.4348 20C30.4348 14.237 25.763 9.56522 20 9.56522C14.237 9.56522 9.56522 14.237 9.56522 20C9.56522 25.763 14.237 30.4348 20 30.4348ZM20 32C26.6274 32 32 26.6274 32 20C32 13.3726 26.6274 8 20 8C13.3726 8 8 13.3726 8 20C8 26.6274 13.3726 32 20 32Z" fill="#17191A"/>
</svg>
