<svg width="40" height="40" viewBox="0 0 40 40" fill="none" xmlns="http://www.w3.org/2000/svg">
<circle cx="20" cy="20" r="20" fill="white"/>
<path fill-rule="evenodd" clip-rule="evenodd" d="M20 0.997506C9.50521 0.997506 0.997506 9.50521 0.997506 20C0.997506 30.4948 9.50521 39.0025 20 39.0025C30.4948 39.0025 39.0025 30.4948 39.0025 20C39.0025 9.50521 30.4948 0.997506 20 0.997506ZM0 20C0 8.9543 8.9543 0 20 0C31.0457 0 40 8.9543 40 20C40 31.0457 31.0457 40 20 40C8.9543 40 0 31.0457 0 20Z" fill="#17191A"/>
<path d="M17.7807 32.9995C17.4945 32.9676 17.2067 32.9429 16.9215 32.9027C14.7682 32.6141 12.7457 31.7121 11.0997 30.3062C9.15259 28.6587 7.8886 26.5915 7.29791 24.1228C7.1303 23.4101 7.03355 22.6829 7.00905 21.9516C6.93009 19.887 7.367 17.9357 8.34474 16.1162C9.60266 13.7746 11.4556 12.0572 13.9036 10.9639C15.7639 10.147 17.8117 9.84096 19.8323 10.0779C19.9362 10.0902 19.9882 10.116 19.9362 10.2354C19.7863 10.6081 19.6747 10.9948 19.6032 11.3897C19.5861 11.4855 19.5435 11.5081 19.4474 11.4989C18.9019 11.4467 18.3514 11.4991 17.8259 11.6533C17.6972 11.6882 17.5746 11.7422 17.4623 11.8135C17.2264 11.9679 17.176 12.1553 17.3064 12.405C17.4002 12.5715 17.5333 12.7129 17.6945 12.8169C18.0062 13.0393 18.3564 13.1959 18.7018 13.3591C19.0188 13.5084 19.3424 13.6469 19.637 13.841C19.7389 13.9043 19.8319 13.9808 19.9134 14.0686C20.1134 14.2977 20.1134 14.5577 19.9134 14.7847C19.7894 14.9116 19.6514 15.0242 19.5019 15.1204C19.1471 15.3706 18.772 15.5941 18.4379 15.8737C18.2821 16.0024 18.1397 16.1388 18.0447 16.3185C17.8888 16.6099 17.9901 16.9075 18.2888 17.0501C18.3366 17.0733 18.387 17.0913 18.4364 17.1119C18.6598 17.2056 18.7481 17.3426 18.7195 17.5778C18.6659 18.0866 18.4584 18.5674 18.1241 18.9572C18.0017 19.1045 17.8412 19.2161 17.6597 19.28C17.5804 19.3099 17.4948 19.3197 17.4106 19.3085C17.3265 19.2972 17.2466 19.2653 17.1781 19.2156C17.0483 19.1225 16.9287 19.0162 16.8212 18.8985C16.4716 18.5381 16.1334 18.1705 15.6876 17.9202C15.366 17.7374 15.0058 17.6316 14.6356 17.6113C14.0833 17.5835 13.7046 17.8826 13.4069 18.3028C13.2048 18.588 13.1051 18.9093 13.2022 19.2547C13.2937 19.5791 13.462 19.8597 13.8199 19.957C14.0064 20.0085 14.1893 19.9457 14.3701 19.8999C14.6065 19.8396 14.8325 19.7372 15.0818 19.7331C15.3525 19.7284 15.5032 19.8293 15.6014 20.0821C15.6866 20.3076 15.7089 20.5455 15.7344 20.7818C15.7723 21.1319 15.8045 21.4826 15.8991 21.8244C16.0549 22.3825 16.3973 22.7651 16.9339 22.9911C17.4493 23.2079 17.973 23.403 18.4665 23.6733C19.0868 24.0146 19.6063 24.4559 19.9284 25.0969C20.0989 25.4327 20.2046 25.7971 20.2401 26.1714C20.2765 26.5529 20.1269 26.869 19.8453 27.1265C19.6172 27.335 19.3481 27.4817 19.078 27.6264C18.8587 27.7438 18.6385 27.8596 18.4203 27.978C17.842 28.2916 17.4654 28.7704 17.2498 29.3821C17.1646 29.623 17.0939 29.8707 16.9485 30.0859C16.8437 30.2334 16.697 30.3468 16.5271 30.4116C16.3572 30.4764 16.1717 30.4897 15.9941 30.4499C15.6351 30.3629 15.4642 30.1214 15.5385 29.7631C15.6398 29.274 15.5993 28.807 15.3603 28.3642C15.1302 27.9369 15.1525 27.5229 15.3941 27.1059C15.5437 26.8484 15.498 26.6605 15.2678 26.4633C15.0835 26.3173 14.8855 26.189 14.6766 26.0803C14.3795 25.9119 14.0698 25.7626 13.8179 25.5252C13.3996 25.1314 13.4126 24.6901 13.862 24.3282C14.0698 24.1614 14.2896 24.0116 14.5026 23.8525C15.126 23.3891 14.9769 22.5499 14.408 22.2162C14.1052 22.0386 13.7727 21.9418 13.4412 21.8419C12.9736 21.6998 12.5061 21.5608 12.0603 21.3544C11.2894 20.9965 10.7293 20.4276 10.3335 19.6872C9.92719 18.9258 9.6612 18.1246 9.58275 17.2648C9.57288 17.1567 9.58275 17.0465 9.5682 16.9348C9.42172 17.1751 9.2979 17.4283 9.1983 17.6911C8.76179 18.7407 8.5132 19.8577 8.46371 20.9919C8.33798 24.1444 9.43624 26.8098 11.7575 28.9578C13.2053 30.2965 14.9317 31.1125 16.8903 31.4338C17.5446 31.5438 18.2087 31.5854 18.8717 31.5579C21.0748 31.4583 23.039 30.7267 24.7641 29.363C24.9132 29.2446 25.053 29.1149 25.2005 28.9944C25.2654 28.9429 25.2779 28.9007 25.213 28.8358C24.9054 28.5269 24.8384 28.1716 24.9813 27.7644C25.0576 27.5715 25.1153 27.3718 25.1537 27.1682C25.1692 27.0966 25.1615 27.022 25.1317 26.955C25.102 26.888 25.0517 26.832 24.988 26.7949C24.8457 26.7012 24.681 26.6564 24.5236 26.5962C24.2155 26.4783 24.1812 26.4247 24.1807 26.0983C24.1755 25.9319 24.2142 25.7671 24.2932 25.6201C24.3721 25.4732 24.4884 25.3492 24.6306 25.2606C24.7864 25.1545 24.9574 25.0624 25.1137 24.9517C25.3834 24.7632 25.4353 24.5589 25.2935 24.2643C25.1664 23.9986 24.9549 23.7816 24.6914 23.6465C24.5594 23.577 24.4181 23.5667 24.2664 23.5657C23.6529 23.5605 23.0824 23.4241 22.6512 22.9478C22.4958 22.7737 22.4128 22.5475 22.419 22.3151C22.419 22.1962 22.4252 22.0772 22.4263 21.9583C22.4263 21.6447 22.2938 21.3976 22.0512 21.2035C21.8226 21.0212 21.5545 20.9126 21.288 20.8014C21.1238 20.7334 20.9618 20.6598 20.7965 20.5954C20.4682 20.4662 20.315 20.215 20.2609 19.8808C20.131 19.0725 20.6693 18.1447 21.4413 17.8543C21.5176 17.826 21.5779 17.8131 21.6413 17.8878C22.1665 18.5056 22.7323 19.0838 23.2471 19.7119C23.8418 20.4288 24.3299 21.2264 24.6966 22.0803C24.9766 22.745 25.5122 23.11 26.1917 23.0951C26.8339 23.0817 27.329 22.7862 27.5763 22.2034C28.0703 21.0413 28.78 20.027 29.6185 19.091C29.6413 19.0653 29.6595 19.022 29.698 19.0282C29.7458 19.0364 29.7427 19.0879 29.7499 19.1245C29.8936 19.8061 29.9757 20.4991 29.9951 21.1953C30.0679 23.6879 29.3222 26.1365 27.87 28.173C26.4178 30.2094 24.3377 31.7236 21.9426 32.4877C21.0913 32.7606 20.2089 32.927 19.3159 32.983C19.2853 32.9869 19.2549 32.9926 19.225 33L17.7807 32.9995Z" fill="#17191A"/>
<path d="M32 12.937C31.965 13.2318 31.9454 13.5282 31.8918 13.8194C31.6986 14.8784 31.207 15.792 30.5521 16.6262C30.04 17.2788 29.4701 17.8799 28.926 18.5059C28.0872 19.473 27.3648 20.5143 26.8851 21.7124C26.813 21.8962 26.6857 22 26.494 22C26.3023 22 26.1761 21.8884 26.105 21.7109C25.5939 20.4411 24.8122 19.35 23.9147 18.3367C23.3396 17.6852 22.7425 17.0535 22.2272 16.3506C21.5795 15.4681 21.1509 14.4943 21.036 13.3969C20.886 11.9595 21.2039 10.6295 22.0103 9.43145C22.8228 8.22454 23.9281 7.41214 25.3533 7.12611C27.3143 6.73211 29.0249 7.26264 30.4352 8.699C31.3127 9.59341 31.8058 10.6835 31.9567 11.9294C31.9717 12.0524 31.9856 12.1754 32 12.299V12.937ZM29.3722 12.5959C29.3722 10.9768 28.0928 9.66557 26.5079 9.66194C25.7368 9.65953 24.9963 9.96584 24.4493 10.5135C23.9024 11.0611 23.5937 11.8053 23.5913 12.5822C23.589 13.3591 23.893 14.1051 24.4366 14.6561C24.9802 15.2072 25.7188 15.5181 26.4899 15.5205C28.0959 15.5221 29.3732 14.2254 29.3743 12.5959H29.3722Z" fill="#17191A"/>
</svg>
