<svg width="30" height="30" viewBox="0 0 30 30" fill="none" xmlns="http://www.w3.org/2000/svg">
<path fill-rule="evenodd" clip-rule="evenodd" d="M0 5C0 2.23858 2.23858 0 5 0H25C27.7614 0 30 2.23858 30 5V25C30 27.7614 27.7614 30 25 30H5C2.23858 30 0 27.7614 0 25V5ZM19.4146 24.9059C19.1328 24.7886 19.0488 24.663 19.0488 24.3578V22.058C19.0488 21.9043 19.0488 21.9039 18.8942 21.9039C18.0208 21.9039 17.1476 21.9045 16.2745 21.9051H16.2741C14.1179 21.9066 11.9625 21.9081 9.80644 21.9004C8.58858 21.8957 7.68764 21.3311 7.17981 20.2215C6.76462 19.3123 6.85857 18.4157 7.38242 17.565C7.44909 17.4568 7.45948 17.4607 7.52702 17.5702C7.97425 18.2984 8.61672 18.7227 9.47005 18.8223C9.57771 18.8343 9.68598 18.8401 9.79431 18.8396H18.8821C19.0484 18.8396 19.0488 18.8396 19.0488 18.6764V16.3649C19.0488 16.1558 19.1189 15.9908 19.3064 15.8887C19.4938 15.7865 19.6714 15.8298 19.8415 15.9497C21.362 17.0246 22.8835 18.0984 24.406 19.1712C24.5103 19.2448 24.6146 19.3187 24.719 19.3926C24.9716 19.5715 25.2245 19.7505 25.4788 19.9267C25.5966 20.0006 25.6893 20.1086 25.7446 20.2362V20.5055C25.6945 20.6269 25.6093 20.7306 25.5 20.8034C23.7573 22.0321 22.0159 23.2609 20.2757 24.4898C20.2226 24.5271 20.1704 24.5659 20.1182 24.6048L20.1182 24.6049C19.9667 24.7176 19.815 24.8306 19.6389 24.9059H19.4146ZM10.4471 5.81035C10.4501 5.52938 10.3419 5.34235 10.0787 5.24753H9.85442C9.65563 5.34055 9.48123 5.47014 9.30705 5.59956C9.24452 5.64603 9.18202 5.69247 9.11843 5.73719C7.4115 6.94306 5.70399 8.14692 3.99591 9.34875C3.88583 9.42046 3.80009 9.52386 3.75 9.64531V9.9146C3.80412 10.0527 3.90586 10.1462 4.02492 10.2302C5.34826 11.1636 6.67089 12.097 7.99279 13.0305C8.54781 13.4198 9.10183 13.811 9.65484 14.2041C9.77866 14.2916 9.90897 14.347 10.064 14.3128C10.2977 14.2609 10.4458 14.0756 10.4458 13.8258V11.4697C10.4458 11.3169 10.4462 11.3169 10.6004 11.3169H19.7102C19.8486 11.3156 19.9868 11.325 20.1237 11.345C20.9293 11.4746 21.5437 11.8882 21.9671 12.5858C22.0347 12.6971 22.0446 12.6993 22.1122 12.5919C22.5157 11.9494 22.6577 11.2532 22.5018 10.5086C22.2208 9.16951 21.0814 8.25255 19.7098 8.25255H10.5999C10.4445 8.25255 10.4445 8.25212 10.4445 8.09886C10.4445 7.88369 10.4441 7.66852 10.4438 7.45335C10.4428 6.90568 10.4418 6.35802 10.4471 5.81035Z" fill="white"/>
</svg>
