<?xml version="1.0" encoding="utf-8"?>
<!-- Generator: Adobe Illustrator 24.0.3, SVG Export Plug-In . SVG Version: 6.00 Build 0)  -->
<svg version="1.1" id="Layer_1" xmlns="http://www.w3.org/2000/svg" xmlns:xlink="http://www.w3.org/1999/xlink" x="0px" y="0px"
	 viewBox="0 0 30 30" style="enable-background:new 0 0 30 30;" xml:space="preserve">
<style type="text/css">
	.st0{fill-rule:evenodd;clip-rule:evenodd;fill:#8C2133;}
</style>
<path class="st0" d="M0,5c0-2.8,2.2-5,5-5h20c2.8,0,5,2.2,5,5v20c0,2.8-2.2,5-5,5H5c-2.8,0-5-2.2-5-5V5z M19.4,24.9
	c-0.3-0.1-0.4-0.2-0.4-0.5v-2.3c0-0.2,0-0.2-0.2-0.2c-0.9,0-1.7,0-2.6,0h0c-2.2,0-4.3,0-6.5,0c-1.2,0-2.1-0.6-2.6-1.7
	c-0.4-0.9-0.3-1.8,0.2-2.7c0.1-0.1,0.1-0.1,0.1,0c0.4,0.7,1.1,1.2,1.9,1.3c0.1,0,0.2,0,0.3,0h9.1c0.2,0,0.2,0,0.2-0.2v-2.3
	c0-0.2,0.1-0.4,0.3-0.5c0.2-0.1,0.4-0.1,0.5,0.1c1.5,1.1,3,2.1,4.6,3.2c0.1,0.1,0.2,0.1,0.3,0.2c0.3,0.2,0.5,0.4,0.8,0.5
	c0.1,0.1,0.2,0.2,0.3,0.3v0.3c-0.1,0.1-0.1,0.2-0.2,0.3c-1.7,1.2-3.5,2.5-5.2,3.7c-0.1,0-0.1,0.1-0.2,0.1v0
	c-0.2,0.1-0.3,0.2-0.5,0.3H19.4z M10.4,5.8c0-0.3-0.1-0.5-0.4-0.6H9.9C9.7,5.3,9.5,5.5,9.3,5.6c-0.1,0-0.1,0.1-0.2,0.1
	C7.4,6.9,5.7,8.1,4,9.3C3.9,9.4,3.8,9.5,3.8,9.6v0.3c0.1,0.1,0.2,0.2,0.3,0.3c1.3,0.9,2.6,1.9,4,2.8c0.6,0.4,1.1,0.8,1.7,1.2
	c0.1,0.1,0.3,0.1,0.4,0.1c0.2-0.1,0.4-0.2,0.4-0.5v-2.4c0-0.2,0-0.2,0.2-0.2h9.1c0.1,0,0.3,0,0.4,0c0.8,0.1,1.4,0.5,1.8,1.2
	c0.1,0.1,0.1,0.1,0.1,0c0.4-0.6,0.5-1.3,0.4-2.1c-0.3-1.3-1.4-2.3-2.8-2.3h-9.1c-0.2,0-0.2,0-0.2-0.2c0-0.2,0-0.4,0-0.6
	C10.4,6.9,10.4,6.4,10.4,5.8z"/>
</svg>
