<svg width="40" height="40" viewBox="0 0 40 40" fill="none" xmlns="http://www.w3.org/2000/svg">
<path fill-rule="evenodd" clip-rule="evenodd" d="M1.05078 1.93359C1.27344 1.64453 1.52734 1.38281 1.80469 1.15234C2.67188 0.433594 3.78516 0 5 0H35C37.7617 0 40 2.23828 40 5V35C40 37.7617 37.7617 40 35 40H5C2.23828 40 0 37.7617 0 35V5C0 3.84375 0.390625 2.78125 1.05078 1.93359ZM11.3281 8C10.8594 8 10.3984 8.08984 9.96875 8.26953C9.53516 8.44531 9.14453 8.70703 8.8125 9.03906C8.65234 9.19922 8.50781 9.375 8.37891 9.56641C8.24609 9.76172 8.13281 9.97266 8.04297 10.1914C7.86719 10.6211 7.77734 11.082 7.77734 11.5508V16.8672L11.3281 16.8789V11.5508H29.0859V29.3125H11.3281V23.9844L7.77734 23.9727V29.3125C7.77734 29.7773 7.86719 30.2383 8.04297 30.6719C8.22266 31.1016 8.48438 31.4922 8.8125 31.8242C9.14453 32.1523 9.53516 32.4141 9.96875 32.5938C10.0938 32.6445 10.2227 32.6875 10.3516 32.7266C10.668 32.8164 10.9961 32.8633 11.3281 32.8594H29.0859C29.332 32.8633 29.5742 32.8359 29.8125 32.7852C30.0312 32.7422 30.2422 32.6758 30.4453 32.5938C30.8789 32.4141 31.2695 32.1523 31.5977 31.8242C31.9297 31.4922 32.1914 31.1016 32.3672 30.6719C32.5469 30.2383 32.6367 29.7773 32.6367 29.3125V11.5508C32.6367 11.0859 32.5469 10.625 32.3672 10.1914C32.3047 10.0391 32.2305 9.89062 32.1445 9.74609C31.9922 9.48828 31.8086 9.25 31.5977 9.03906C31.4844 8.92578 31.3672 8.82422 31.2422 8.73047C31 8.54297 30.7305 8.38672 30.4453 8.26953C30.2148 8.17578 29.9766 8.10547 29.7305 8.0625C29.5195 8.02344 29.3047 8.00391 29.0859 8.00391L11.3281 8ZM16.3477 15.7891L18.8086 13.3281L25.9102 20.4297L18.8086 27.6055L16.3477 25.1484L19.25 22.2422L6 22.2031V18.6562L19.25 18.6914L16.3477 15.7891Z" fill="#8C2133"/>
</svg>
