<svg width="12" height="12" viewBox="0 0 12 12" fill="none" xmlns="http://www.w3.org/2000/svg">
<path d="M6 4.5C6.39782 4.5 6.77936 4.65804 7.06066 4.93934C7.34196 5.22064 7.5 5.60218 7.5 6C7.5 6.39782 7.34196 6.77936 7.06066 7.06066C6.77936 7.34196 6.39782 7.5 6 7.5C5.60218 7.5 5.22064 7.34196 4.93934 7.06066C4.65804 6.77936 4.5 6.39782 4.5 6C4.5 5.60218 4.65804 5.22064 4.93934 4.93934C5.22064 4.65804 5.60218 4.5 6 4.5ZM6 2.25C8.5 2.25 10.635 3.805 11.5 6C10.635 8.195 8.5 9.75 6 9.75C3.5 9.75 1.365 8.195 0.5 6C1.365 3.805 3.5 2.25 6 2.25ZM1.59 6C1.99413 6.82515 2.62165 7.52037 3.40124 8.00663C4.18083 8.49288 5.0812 8.75066 6 8.75066C6.9188 8.75066 7.81917 8.49288 8.59876 8.00663C9.37835 7.52037 10.0059 6.82515 10.41 6C10.0059 5.17485 9.37835 4.47963 8.59876 3.99337C7.81917 3.50712 6.9188 3.24934 6 3.24934C5.0812 3.24934 4.18083 3.50712 3.40124 3.99337C2.62165 4.47963 1.99413 5.17485 1.59 6Z" fill="#C4C4C4"/>
</svg>
