<svg width="21" height="21" viewBox="0 0 21 21" fill="none" xmlns="http://www.w3.org/2000/svg">
<path fill-rule="evenodd" clip-rule="evenodd" d="M5 0C2.23858 0 0 2.23858 0 5V16C0 18.7614 2.23858 21 5 21H16C18.7614 21 21 18.7614 21 16V5C21 2.23858 18.7614 0 16 0H5ZM4.19922 16.8002H10.9723C10.9733 15.3368 10.974 13.8745 10.9742 12.4132C10.9738 11.9866 10.9637 11.9772 10.5333 11.9772C10.4691 11.9767 10.405 11.9761 10.3408 11.9754C10.0972 11.973 9.85385 11.9706 9.61047 11.9772C9.40359 11.9828 9.2977 11.9139 9.30185 11.6897C9.30901 11.2518 9.3075 10.8135 9.30185 10.3753C9.29921 10.1748 9.38324 10.0859 9.58485 10.0885C9.739 10.0906 9.89323 10.0894 10.0474 10.0882C10.2476 10.0866 10.4477 10.085 10.6475 10.0908C10.8906 10.096 10.9799 9.99279 10.9757 9.7569C10.9686 9.32807 10.9686 8.89924 10.9806 8.47079C11.016 7.12739 11.8594 6.25768 13.2016 6.18231C13.658 6.16083 14.1154 6.1752 14.5695 6.22527C14.7583 6.24449 14.8314 6.3289 14.8292 6.51128C14.825 6.88396 14.8258 7.25702 14.8292 7.62971C14.831 7.81925 14.741 7.89952 14.556 7.89763L14.534 7.89742C14.2708 7.89484 14.0076 7.89226 13.745 7.90253C13.1436 7.92627 12.8779 8.19495 12.8651 8.79034C12.8625 8.91873 12.8639 9.04724 12.8653 9.1757C12.8673 9.36433 12.8693 9.55285 12.8587 9.7407C12.8433 10.018 12.9665 10.0991 13.2227 10.0915C13.4395 10.0851 13.6563 10.0866 13.8731 10.088C14.0665 10.0892 14.2598 10.0905 14.4531 10.0862C14.6566 10.0817 14.7459 10.1447 14.715 10.3617C14.6494 10.8229 14.594 11.2853 14.539 11.7481C14.5179 11.9271 14.4079 11.9742 14.2481 11.9742C14.08 11.9731 13.9119 11.9739 13.7437 11.9746C13.539 11.9755 13.3343 11.9764 13.1297 11.9742C12.9409 11.9723 12.8625 12.0544 12.8625 12.2428C12.868 13.7622 12.8728 15.2813 12.8768 16.8002C13.1788 16.8002 13.4809 16.7999 13.783 16.7996C14.7115 16.7986 15.6406 16.7976 16.5697 16.8058C16.7615 16.8077 16.7992 16.7678 16.7992 16.5764C16.7919 12.5272 16.7919 8.47832 16.7992 4.42968C16.7996 4.23788 16.7615 4.2002 16.5697 4.2002C12.4465 4.20396 8.32297 4.20585 4.19922 4.20585V16.8002Z" fill="white"/>
</svg>
