<svg width="20" height="20" viewBox="0 0 20 20" fill="none" xmlns="http://www.w3.org/2000/svg">
<path fill-rule="evenodd" clip-rule="evenodd" d="M5 0C2.23858 0 0 2.23858 0 5V15C0 17.7614 2.23858 20 5 20H15C17.7614 20 20 17.7614 20 15V5C20 2.23858 17.7614 0 15 0H5ZM4 16H10.4506C10.4515 14.6063 10.4521 13.2136 10.4524 11.8219C10.452 11.4156 10.4423 11.4066 10.0325 11.4066C9.97135 11.4062 9.91023 11.4056 9.84913 11.405C9.61716 11.4027 9.38536 11.4004 9.15357 11.4066C8.95654 11.412 8.8557 11.3464 8.85965 11.1328C8.86646 10.7158 8.86503 10.2984 8.85965 9.88103C8.85713 9.6901 8.93717 9.60541 9.12917 9.60792C9.27598 9.60995 9.42287 9.60878 9.56973 9.60762C9.76033 9.60611 9.95089 9.6046 10.1412 9.61007C10.3727 9.6151 10.4578 9.51676 10.4538 9.2921C10.447 8.88369 10.447 8.47528 10.4585 8.06723C10.4922 6.78781 11.2954 5.95951 12.5737 5.88773C13.0084 5.86727 13.444 5.88095 13.8765 5.92864C14.0563 5.94694 14.1259 6.02733 14.1238 6.20103C14.1198 6.55597 14.1205 6.91127 14.1238 7.2662C14.1255 7.44672 14.0398 7.52316 13.8636 7.52137L13.8427 7.52116C13.592 7.51871 13.3413 7.51626 13.0912 7.52603C12.5185 7.54864 12.2655 7.80453 12.2533 8.37156C12.2508 8.49384 12.2521 8.61623 12.2534 8.73857C12.2553 8.91822 12.2572 9.09776 12.2471 9.27667C12.2324 9.54081 12.3498 9.61797 12.5938 9.61079C12.8002 9.60472 13.0067 9.60607 13.2132 9.60742C13.3974 9.60862 13.5815 9.60983 13.7656 9.60576C13.9594 9.60146 14.0444 9.66139 14.015 9.86811C13.9526 10.3074 13.8998 10.7477 13.8474 11.1884C13.8273 11.3589 13.7225 11.4038 13.5704 11.4038C13.4103 11.4028 13.2502 11.4035 13.09 11.4042C12.8951 11.4051 12.7001 11.4059 12.5052 11.4038C12.3254 11.402 12.2507 11.4802 12.2507 11.6597C12.256 13.1067 12.2605 14.5535 12.2644 16C12.552 16 12.8397 15.9997 13.1275 15.9994C14.0117 15.9985 14.8966 15.9975 15.7814 16.0054C15.9641 16.0072 16 15.9691 16 15.7868C15.9931 11.9305 15.9931 8.07441 16 4.21856C16.0004 4.03589 15.9641 4 15.7814 4C11.8545 4.00359 7.92739 4.00538 4 4.00538V16Z" fill="white"/>
</svg>
