<svg width="20" height="20" viewBox="0 0 20 20" fill="none" xmlns="http://www.w3.org/2000/svg">
<path fill-rule="evenodd" clip-rule="evenodd" d="M9.6076 19.2152C14.9137 19.2152 19.2152 14.9137 19.2152 9.6076C19.2152 4.30147 14.9137 0 9.6076 0C4.30147 0 0 4.30147 0 9.6076C0 14.9137 4.30147 19.2152 9.6076 19.2152ZM5.24168 14.2432H10.0824C10.0831 13.1972 10.0835 12.1516 10.0837 11.1065C10.0834 10.8016 10.0762 10.7949 9.7686 10.7949C9.72271 10.7946 9.67684 10.7941 9.63097 10.7937C9.45691 10.7919 9.28298 10.7902 9.10905 10.7949C8.96119 10.7987 8.88551 10.7494 8.88848 10.5894C8.89359 10.2765 8.89252 9.96327 8.88848 9.65005C8.88659 9.50678 8.94665 9.44322 9.09073 9.44511C9.20091 9.44663 9.31114 9.44576 9.42136 9.44488C9.56438 9.44375 9.70738 9.44262 9.8502 9.44672C10.0239 9.45022 10.0877 9.37643 10.0848 9.20784C10.0797 8.90163 10.0797 8.59488 10.0883 8.28867C10.1136 7.32883 10.7163 6.70725 11.6756 6.65338C12.0018 6.6379 12.3287 6.64816 12.6532 6.68408C12.7882 6.69755 12.8404 6.75815 12.8388 6.88849C12.8358 7.15485 12.8364 7.42147 12.8388 7.68782C12.8401 7.82329 12.7758 7.88065 12.6435 7.87931C12.4502 7.87715 12.2568 7.875 12.064 7.88254C11.6341 7.89951 11.4443 8.0918 11.4351 8.51731C11.4333 8.60895 11.4342 8.70076 11.4352 8.79257C11.4366 8.92742 11.4381 9.06226 11.4305 9.19653C11.4195 9.39474 11.5076 9.45238 11.6907 9.44726C11.8456 9.4427 12.0005 9.44372 12.1555 9.44473C12.2937 9.44563 12.4319 9.44654 12.57 9.44349C12.7154 9.44026 12.7793 9.48523 12.7572 9.64009C12.7103 9.96973 12.6707 10.3005 12.6314 10.6312C12.6163 10.7591 12.5377 10.7928 12.4235 10.7928C12.2982 10.7919 12.1728 10.7924 12.0474 10.793C11.9063 10.7936 11.7652 10.7942 11.6242 10.7928C11.4893 10.7914 11.4332 10.8499 11.4332 10.9845C11.437 12.0711 11.4404 13.1573 11.4435 14.2432C11.6632 14.2432 11.883 14.243 12.1028 14.2427C12.7625 14.242 13.4226 14.2412 14.0828 14.2473C14.2198 14.2483 14.2468 14.2201 14.2468 14.083C14.2417 11.1893 14.2417 8.29567 14.2468 5.40214C14.247 5.26506 14.2198 5.23813 14.0828 5.23813C11.1359 5.24064 8.18888 5.2419 5.24168 5.2419V14.2432Z" fill="white"/>
</svg>
