<svg width="20" height="20" viewBox="0 0 20 20" fill="none" xmlns="http://www.w3.org/2000/svg">
<path fill-rule="evenodd" clip-rule="evenodd" d="M19.2152 9.6076C19.2152 14.9137 14.9137 19.2152 9.6076 19.2152C4.30147 19.2152 0 14.9137 0 9.6076C0 4.30147 4.30147 0 9.6076 0C14.9137 0 19.2152 4.30147 19.2152 9.6076ZM9.38667 14.4038C9.14805 14.4038 8.90944 14.404 8.67082 14.4042H8.66983C8.19292 14.4045 7.71602 14.4048 7.23912 14.4038C6.84248 14.4029 6.45314 14.2972 6.11047 14.0974C5.58714 13.7977 5.19696 13.371 4.97822 12.8048C4.87026 12.5254 4.80369 12.2344 4.80369 11.9288C4.80604 11.1622 4.80631 10.3956 4.80657 9.62909C4.8068 8.97204 4.80703 8.31498 4.80857 7.65787C4.80857 7.11963 5.0106 6.64899 5.33293 6.22899C5.64369 5.8239 6.04852 5.54065 6.52584 5.36432C6.7214 5.28913 6.92862 5.24876 7.1381 5.24505L7.6031 5.24341C8.94693 5.23858 10.2909 5.23376 11.6345 5.24505C12.028 5.24865 12.4002 5.38565 12.7418 5.59205C13.0379 5.76842 13.295 6.00334 13.4972 6.28246C13.708 6.57548 13.864 6.89703 13.9236 7.26048C13.993 7.68344 13.9838 8.10825 13.9746 8.53294V8.53298C13.9705 8.72022 13.9665 8.90743 13.9691 9.09445C13.979 9.79318 13.9765 10.4921 13.974 11.191V11.191C13.9732 11.4372 13.9723 11.6834 13.972 11.9296C13.972 12.3493 13.8491 12.7341 13.6525 13.1037C13.4813 13.4298 13.2353 13.7106 12.9346 13.9232C12.6415 14.1327 12.3087 14.2801 11.9565 14.3563C11.6659 14.4184 11.3737 14.4116 11.0816 14.4047C10.9437 14.4015 10.8057 14.3982 10.668 14.4023C10.3693 14.411 10.0727 14.409 9.77597 14.4069H9.77589C9.64624 14.406 9.51656 14.4051 9.38667 14.4051V14.4038ZM11.8799 9.8013C11.9164 8.57266 10.7778 7.23864 9.24658 7.33246C7.98324 7.40957 6.98234 8.40019 6.90163 9.65479C6.80113 11.2165 8.09094 12.2524 9.2124 12.3146C10.7557 12.4 11.9059 11.168 11.8792 9.8013H11.8799ZM12.8775 6.77443C12.8808 6.51893 12.7089 6.33875 12.458 6.33489C12.1717 6.33027 11.9779 6.48423 11.975 6.71865C11.9709 7.02709 12.1323 7.23118 12.3824 7.2353C12.7084 7.24061 12.8734 7.08698 12.8775 6.77443ZM9.41663 11.3795C10.1973 11.3741 10.9825 10.6428 10.9347 9.84059C10.9846 8.99108 10.2106 8.27137 9.41637 8.27034C8.53782 8.27009 7.83482 8.95124 7.83688 9.84701C7.83688 10.6431 8.55658 11.3854 9.41663 11.3795Z" fill="white"/>
</svg>
