<svg width="20" height="20" viewBox="0 0 20 20" fill="none" xmlns="http://www.w3.org/2000/svg">
<path fill-rule="evenodd" clip-rule="evenodd" d="M9.6076 19.2152C14.9137 19.2152 19.2152 14.9137 19.2152 9.6076C19.2152 4.30147 14.9137 0 9.6076 0C4.30147 0 0 4.30147 0 9.6076C0 14.9137 4.30147 19.2152 9.6076 19.2152ZM7.81653 8.08596V9.03325V9.03376C7.81653 9.14325 7.81673 9.25276 7.81693 9.36228C7.81733 9.58136 7.81772 9.80047 7.81653 10.0195C7.81602 10.1321 7.77787 10.1641 7.66727 10.1608C7.56409 10.1577 7.49496 10.1042 7.43403 10.0248C6.9804 9.4418 6.58355 8.81673 6.24888 8.15816C6.11575 7.89317 5.9693 7.63356 5.76448 7.41286C5.72543 7.3678 5.67709 7.33172 5.62277 7.3071C5.56846 7.28249 5.50946 7.26992 5.44982 7.27026C4.90193 7.26923 4.35403 7.26847 3.80588 7.27231C3.64202 7.2741 3.55984 7.3463 3.52092 7.50452C3.47571 7.66878 3.48469 7.84324 3.54653 8.00198C3.55247 8.01666 3.55839 8.03136 3.56432 8.04607C3.60873 8.15624 3.65325 8.26671 3.70475 8.37219C4.07802 9.11261 4.50798 9.82307 4.99077 10.4972C5.46339 11.1557 5.97724 11.7832 6.5131 12.3918C6.86462 12.7912 7.25609 13.1443 7.7195 13.4108C7.74255 13.4241 7.76556 13.4376 7.7886 13.4512C7.94645 13.5441 8.10597 13.638 8.29453 13.6527C8.70123 13.6846 9.1089 13.6796 9.51638 13.6746C9.61912 13.6734 9.72185 13.6721 9.82454 13.6714C9.96715 13.6704 10.0877 13.6171 10.162 13.4866C10.2162 13.3947 10.2526 13.2934 10.2693 13.188C10.2906 13.0405 10.2967 12.892 10.3027 12.7433C10.3039 12.714 10.3051 12.6846 10.3064 12.6553C10.3072 12.6362 10.308 12.617 10.3087 12.5979C10.3139 12.4613 10.3191 12.3235 10.3696 12.1929C10.4341 12.0247 10.6141 11.9829 10.7508 12.1015C10.9002 12.2308 11.0396 12.37 11.1791 12.5093C11.2078 12.538 11.2365 12.5666 11.2652 12.5951C11.3562 12.6851 11.4454 12.7769 11.5346 12.8687C11.7598 13.1004 11.9848 13.3319 12.2381 13.5337L12.2405 13.5356C12.326 13.6036 12.4135 13.6732 12.5292 13.6719C12.7487 13.6697 12.9682 13.6717 13.1877 13.6737C13.613 13.6776 14.0383 13.6815 14.4632 13.6543C14.7131 13.6384 14.9435 13.3903 14.9691 13.1381C14.9895 12.9269 14.8727 12.781 14.7556 12.6346C14.7517 12.6298 14.7479 12.625 14.7441 12.6202C14.5264 12.3474 14.2865 12.0941 14.0467 11.841C13.9745 11.7648 13.9024 11.6886 13.8308 11.6119C13.6086 11.3741 13.3894 11.1345 13.1872 10.8784C13.0894 10.755 13.0881 10.7074 13.1634 10.573C13.3498 10.2389 13.5753 9.93062 13.8106 9.62979C13.9023 9.51294 13.9974 9.3987 14.0924 9.2845C14.2917 9.0449 14.4909 8.80548 14.6591 8.54245C14.7953 8.32995 14.9079 8.11002 14.9407 7.854C14.9755 7.58107 14.8345 7.35423 14.5743 7.2933C14.4916 7.27632 14.4071 7.26868 14.3227 7.27051C14.0974 7.26978 13.8721 7.27 13.6468 7.27022C13.2427 7.27061 12.8387 7.271 12.4347 7.2659C12.2517 7.26411 12.1372 7.33503 12.066 7.49454C12.0588 7.51084 12.0507 7.52673 12.0426 7.54258C12.0364 7.55461 12.0303 7.56662 12.0246 7.57877C11.8293 7.98871 11.6494 8.40485 11.4692 8.8215C11.4358 8.89874 11.4024 8.97599 11.3689 9.05322C11.2114 9.41832 11.024 9.76241 10.7222 10.0312L10.7218 10.0316C10.6661 10.0812 10.6096 10.1314 10.5383 10.1593C10.4311 10.201 10.3525 10.1616 10.3225 10.0515C10.3085 9.99038 10.3027 9.9277 10.3054 9.86508C10.3054 9.6899 10.3055 9.51472 10.3056 9.33953C10.306 8.79195 10.3064 8.24438 10.3031 7.6968C10.3018 7.48353 10.3 7.26181 10.0921 7.12509C9.9418 7.02626 9.76694 6.9894 9.59105 6.98786C8.98657 6.983 8.38235 6.98504 7.77813 6.98786C7.65526 6.99018 7.53595 7.02953 7.43582 7.10077C7.2863 7.20343 7.2182 7.39341 7.2607 7.59311C7.29628 7.76004 7.43095 7.78385 7.56793 7.80356C7.57034 7.80396 7.57271 7.80464 7.57507 7.80531C7.57873 7.80636 7.58237 7.8074 7.58611 7.8074C7.76993 7.84248 7.81653 7.89573 7.81653 8.08596Z" fill="white"/>
</svg>
