<svg width="126" height="20" viewBox="0 0 126 20" fill="none" xmlns="http://www.w3.org/2000/svg">
<path d="M30.0898 1.15625C30.6029 1.15625 31.0951 1.28516 31.5664 1.54297C32.0378 1.80078 32.4076 2.16927 32.6758 2.64844C32.9466 3.125 33.082 3.625 33.082 4.14844C33.082 4.66927 32.9492 5.16667 32.6836 5.64062C32.4206 6.11198 32.0521 6.48047 31.5781 6.74609C31.1068 7.00911 30.6107 7.14062 30.0898 7.14062C29.569 7.14062 29.0716 7.00911 28.5977 6.74609C28.1263 6.48047 27.7578 6.11198 27.4922 5.64062C27.2292 5.16667 27.0977 4.66927 27.0977 4.14844C27.0977 3.625 27.2318 3.125 27.5 2.64844C27.7708 2.16927 28.1419 1.80078 28.6133 1.54297C29.0846 1.28516 29.5768 1.15625 30.0898 1.15625ZM30.0898 1.74609C29.6784 1.74609 29.2826 1.84896 28.9023 2.05469C28.5247 2.26042 28.2279 2.55599 28.0117 2.94141C27.7956 3.32422 27.6875 3.72656 27.6875 4.14844C27.6875 4.5651 27.793 4.96354 28.0039 5.34375C28.2174 5.72396 28.5143 6.02083 28.8945 6.23438C29.2747 6.44531 29.6732 6.55078 30.0898 6.55078C30.5065 6.55078 30.9049 6.44531 31.2852 6.23438C31.6654 6.02083 31.9609 5.72396 32.1719 5.34375C32.3854 4.96354 32.4922 4.5651 32.4922 4.14844C32.4922 3.72917 32.3841 3.32682 32.168 2.94141C31.9518 2.55599 31.6536 2.26042 31.2734 2.05469C30.8958 1.84896 30.5013 1.74609 30.0898 1.74609ZM30.8164 4.59375L31.4453 4.80469C31.3464 5.13281 31.1823 5.38411 30.9531 5.55859C30.724 5.73307 30.4505 5.82031 30.1328 5.82031C29.6875 5.82031 29.3242 5.67448 29.043 5.38281C28.7617 5.09115 28.6211 4.6888 28.6211 4.17578C28.6211 3.83984 28.6836 3.54036 28.8086 3.27734C28.9336 3.01432 29.1133 2.81771 29.3477 2.6875C29.5846 2.55729 29.849 2.49219 30.1406 2.49219C30.4609 2.49219 30.7279 2.56901 30.9414 2.72266C31.1576 2.8737 31.3255 3.11328 31.4453 3.44141L30.8125 3.58984C30.7396 3.39974 30.6445 3.26172 30.5273 3.17578C30.4128 3.08984 30.276 3.04688 30.1172 3.04688C29.8802 3.04688 29.6862 3.13672 29.5352 3.31641C29.3841 3.49349 29.3086 3.77214 29.3086 4.15234C29.3086 4.53255 29.3828 4.8125 29.5312 4.99219C29.6797 5.17188 29.8581 5.26172 30.0664 5.26172C30.2409 5.26172 30.3919 5.21094 30.5195 5.10938C30.6471 5.00521 30.7461 4.83333 30.8164 4.59375Z" fill="white"/>
<path d="M39.3047 5.98047V7H35.457C35.4987 6.61458 35.6237 6.25 35.832 5.90625C36.0404 5.5599 36.4518 5.10156 37.0664 4.53125C37.5612 4.07031 37.8646 3.75781 37.9766 3.59375C38.1276 3.36719 38.2031 3.14323 38.2031 2.92188C38.2031 2.67708 38.1367 2.48958 38.0039 2.35938C37.8737 2.22656 37.6927 2.16016 37.4609 2.16016C37.2318 2.16016 37.0495 2.22917 36.9141 2.36719C36.7786 2.50521 36.7005 2.73438 36.6797 3.05469L35.5859 2.94531C35.651 2.34115 35.8555 1.90755 36.1992 1.64453C36.543 1.38151 36.9727 1.25 37.4883 1.25C38.0534 1.25 38.4974 1.40234 38.8203 1.70703C39.1432 2.01172 39.3047 2.39062 39.3047 2.84375C39.3047 3.10156 39.2578 3.34766 39.1641 3.58203C39.0729 3.8138 38.9271 4.05729 38.7266 4.3125C38.5938 4.48177 38.3542 4.72526 38.0078 5.04297C37.6615 5.36068 37.4414 5.57161 37.3477 5.67578C37.2565 5.77995 37.1823 5.88151 37.125 5.98047H39.3047Z" fill="white"/>
<path d="M41.9062 1.25C42.4609 1.25 42.8945 1.44792 43.207 1.84375C43.5794 2.3125 43.7656 3.08984 43.7656 4.17578C43.7656 5.25911 43.5781 6.03776 43.2031 6.51172C42.8932 6.90234 42.4609 7.09766 41.9062 7.09766C41.349 7.09766 40.8997 6.88411 40.5586 6.45703C40.2174 6.02734 40.0469 5.26302 40.0469 4.16406C40.0469 3.08594 40.2344 2.3099 40.6094 1.83594C40.9193 1.44531 41.3516 1.25 41.9062 1.25ZM41.9062 2.16016C41.7734 2.16016 41.6549 2.20312 41.5508 2.28906C41.4466 2.3724 41.3659 2.52344 41.3086 2.74219C41.2331 3.02604 41.1953 3.50391 41.1953 4.17578C41.1953 4.84766 41.2292 5.3099 41.2969 5.5625C41.3646 5.8125 41.4492 5.97917 41.5508 6.0625C41.6549 6.14583 41.7734 6.1875 41.9062 6.1875C42.0391 6.1875 42.1576 6.14583 42.2617 6.0625C42.3659 5.97656 42.4466 5.82422 42.5039 5.60547C42.5794 5.32422 42.6172 4.84766 42.6172 4.17578C42.6172 3.50391 42.5833 3.04297 42.5156 2.79297C42.4479 2.54036 42.362 2.3724 42.2578 2.28906C42.1562 2.20312 42.0391 2.16016 41.9062 2.16016Z" fill="white"/>
<path d="M48.2109 5.98047V7H44.3633C44.4049 6.61458 44.5299 6.25 44.7383 5.90625C44.9466 5.5599 45.3581 5.10156 45.9727 4.53125C46.4674 4.07031 46.7708 3.75781 46.8828 3.59375C47.0339 3.36719 47.1094 3.14323 47.1094 2.92188C47.1094 2.67708 47.043 2.48958 46.9102 2.35938C46.7799 2.22656 46.599 2.16016 46.3672 2.16016C46.138 2.16016 45.9557 2.22917 45.8203 2.36719C45.6849 2.50521 45.6068 2.73438 45.5859 3.05469L44.4922 2.94531C44.5573 2.34115 44.7617 1.90755 45.1055 1.64453C45.4492 1.38151 45.8789 1.25 46.3945 1.25C46.9596 1.25 47.4036 1.40234 47.7266 1.70703C48.0495 2.01172 48.2109 2.39062 48.2109 2.84375C48.2109 3.10156 48.1641 3.34766 48.0703 3.58203C47.9792 3.8138 47.8333 4.05729 47.6328 4.3125C47.5 4.48177 47.2604 4.72526 46.9141 5.04297C46.5677 5.36068 46.3477 5.57161 46.2539 5.67578C46.1628 5.77995 46.0885 5.88151 46.0312 5.98047H48.2109Z" fill="white"/>
<path d="M50.8125 1.25C51.3672 1.25 51.8008 1.44792 52.1133 1.84375C52.4857 2.3125 52.6719 3.08984 52.6719 4.17578C52.6719 5.25911 52.4844 6.03776 52.1094 6.51172C51.7995 6.90234 51.3672 7.09766 50.8125 7.09766C50.2552 7.09766 49.806 6.88411 49.4648 6.45703C49.1237 6.02734 48.9531 5.26302 48.9531 4.16406C48.9531 3.08594 49.1406 2.3099 49.5156 1.83594C49.8255 1.44531 50.2578 1.25 50.8125 1.25ZM50.8125 2.16016C50.6797 2.16016 50.5612 2.20312 50.457 2.28906C50.3529 2.3724 50.2721 2.52344 50.2148 2.74219C50.1393 3.02604 50.1016 3.50391 50.1016 4.17578C50.1016 4.84766 50.1354 5.3099 50.2031 5.5625C50.2708 5.8125 50.3555 5.97917 50.457 6.0625C50.5612 6.14583 50.6797 6.1875 50.8125 6.1875C50.9453 6.1875 51.0638 6.14583 51.168 6.0625C51.2721 5.97656 51.3529 5.82422 51.4102 5.60547C51.4857 5.32422 51.5234 4.84766 51.5234 4.17578C51.5234 3.50391 51.4896 3.04297 51.4219 2.79297C51.3542 2.54036 51.2682 2.3724 51.1641 2.28906C51.0625 2.20312 50.9453 2.16016 50.8125 2.16016Z" fill="white"/>
<path d="M55.875 1.27344H57.9883C58.4648 1.27344 58.8281 1.3099 59.0781 1.38281C59.4141 1.48177 59.7018 1.65755 59.9414 1.91016C60.181 2.16276 60.3633 2.47266 60.4883 2.83984C60.6133 3.20443 60.6758 3.65495 60.6758 4.19141C60.6758 4.66276 60.6172 5.06901 60.5 5.41016C60.3568 5.82682 60.1523 6.16406 59.8867 6.42188C59.6862 6.61719 59.4154 6.76953 59.0742 6.87891C58.819 6.95964 58.4779 7 58.0508 7H55.875V1.27344ZM57.0312 2.24219V6.03516H57.8945C58.2174 6.03516 58.4505 6.01693 58.5938 5.98047C58.7812 5.93359 58.9362 5.85417 59.0586 5.74219C59.1836 5.63021 59.2852 5.44661 59.3633 5.19141C59.4414 4.93359 59.4805 4.58333 59.4805 4.14062C59.4805 3.69792 59.4414 3.35807 59.3633 3.12109C59.2852 2.88411 59.1758 2.69922 59.0352 2.56641C58.8945 2.43359 58.7161 2.34375 58.5 2.29688C58.3385 2.26042 58.0221 2.24219 57.5508 2.24219H57.0312Z" fill="white"/>
<path d="M61.6641 7V1.27344H64.0977C64.7096 1.27344 65.1536 1.32552 65.4297 1.42969C65.7083 1.53125 65.931 1.71354 66.0977 1.97656C66.2643 2.23958 66.3477 2.54036 66.3477 2.87891C66.3477 3.30859 66.2214 3.66406 65.9688 3.94531C65.7161 4.22396 65.3385 4.39974 64.8359 4.47266C65.0859 4.61849 65.2917 4.77865 65.4531 4.95312C65.6172 5.1276 65.8372 5.4375 66.1133 5.88281L66.8125 7H65.4297L64.5938 5.75391C64.2969 5.30859 64.0938 5.02865 63.9844 4.91406C63.875 4.79688 63.7591 4.71745 63.6367 4.67578C63.5143 4.63151 63.3203 4.60938 63.0547 4.60938H62.8203V7H61.6641ZM62.8203 3.69531H63.6758C64.2305 3.69531 64.5768 3.67188 64.7148 3.625C64.8529 3.57812 64.9609 3.4974 65.0391 3.38281C65.1172 3.26823 65.1562 3.125 65.1562 2.95312C65.1562 2.76042 65.1042 2.60547 65 2.48828C64.8984 2.36849 64.7539 2.29297 64.5664 2.26172C64.4727 2.2487 64.1914 2.24219 63.7227 2.24219H62.8203V3.69531Z" fill="white"/>
<path d="M72.6055 7H71.3477L70.8477 5.69922H68.5586L68.0859 7H66.8594L69.0898 1.27344H70.3125L72.6055 7ZM70.4766 4.73438L69.6875 2.60938L68.9141 4.73438H70.4766Z" fill="white"/>
<path d="M73.2305 7V1.27344H77.1562V2.24219H74.3867V3.59766H76.7773V4.56641H74.3867V7H73.2305Z" fill="white"/>
<path d="M79.4023 7V2.24219H77.7031V1.27344H82.2539V2.24219H80.5586V7H79.4023Z" fill="white"/>
<path d="M82.7109 5.13672L83.8359 5.02734C83.9036 5.40495 84.0404 5.68229 84.2461 5.85938C84.4544 6.03646 84.7344 6.125 85.0859 6.125C85.4583 6.125 85.7383 6.04688 85.9258 5.89062C86.1159 5.73177 86.2109 5.54688 86.2109 5.33594C86.2109 5.20052 86.1706 5.08594 86.0898 4.99219C86.0117 4.89583 85.8737 4.8125 85.6758 4.74219C85.5404 4.69531 85.2318 4.61198 84.75 4.49219C84.1302 4.33854 83.6953 4.14974 83.4453 3.92578C83.0938 3.61068 82.918 3.22656 82.918 2.77344C82.918 2.48177 83 2.20964 83.1641 1.95703C83.3307 1.70182 83.569 1.50781 83.8789 1.375C84.1914 1.24219 84.5677 1.17578 85.0078 1.17578C85.7266 1.17578 86.2669 1.33333 86.6289 1.64844C86.9935 1.96354 87.1849 2.38411 87.2031 2.91016L86.0469 2.96094C85.9974 2.66667 85.8906 2.45573 85.7266 2.32812C85.5651 2.19792 85.3216 2.13281 84.9961 2.13281C84.6602 2.13281 84.3971 2.20182 84.207 2.33984C84.0846 2.42839 84.0234 2.54688 84.0234 2.69531C84.0234 2.83073 84.0807 2.94661 84.1953 3.04297C84.3411 3.16536 84.6953 3.29297 85.2578 3.42578C85.8203 3.55859 86.2357 3.69661 86.5039 3.83984C86.7747 3.98047 86.9857 4.17448 87.1367 4.42188C87.2904 4.66667 87.3672 4.97005 87.3672 5.33203C87.3672 5.66016 87.276 5.96745 87.0938 6.25391C86.9115 6.54036 86.6536 6.75391 86.3203 6.89453C85.987 7.03255 85.5716 7.10156 85.0742 7.10156C84.3503 7.10156 83.7943 6.9349 83.4062 6.60156C83.0182 6.26562 82.7865 5.77734 82.7109 5.13672Z" fill="white"/>
<path d="M88.3398 7V1.27344H90.1953C90.8984 1.27344 91.3568 1.30208 91.5703 1.35938C91.8984 1.44531 92.1732 1.63281 92.3945 1.92188C92.6159 2.20833 92.7266 2.57943 92.7266 3.03516C92.7266 3.38672 92.6628 3.68229 92.5352 3.92188C92.4076 4.16146 92.2448 4.35026 92.0469 4.48828C91.8516 4.6237 91.6523 4.71354 91.4492 4.75781C91.1732 4.8125 90.7734 4.83984 90.25 4.83984H89.4961V7H88.3398ZM89.4961 2.24219V3.86719H90.1289C90.5846 3.86719 90.8893 3.83724 91.043 3.77734C91.1966 3.71745 91.3164 3.6237 91.4023 3.49609C91.4909 3.36849 91.5352 3.22005 91.5352 3.05078C91.5352 2.84245 91.474 2.67057 91.3516 2.53516C91.2292 2.39974 91.0742 2.3151 90.8867 2.28125C90.7487 2.25521 90.4714 2.24219 90.0547 2.24219H89.4961Z" fill="white"/>
<path d="M93.6797 7V1.27344H96.1133C96.7253 1.27344 97.1693 1.32552 97.4453 1.42969C97.724 1.53125 97.9466 1.71354 98.1133 1.97656C98.2799 2.23958 98.3633 2.54036 98.3633 2.87891C98.3633 3.30859 98.237 3.66406 97.9844 3.94531C97.7318 4.22396 97.3542 4.39974 96.8516 4.47266C97.1016 4.61849 97.3073 4.77865 97.4688 4.95312C97.6328 5.1276 97.8529 5.4375 98.1289 5.88281L98.8281 7H97.4453L96.6094 5.75391C96.3125 5.30859 96.1094 5.02865 96 4.91406C95.8906 4.79688 95.7747 4.71745 95.6523 4.67578C95.5299 4.63151 95.3359 4.60938 95.0703 4.60938H94.8359V7H93.6797ZM94.8359 3.69531H95.6914C96.2461 3.69531 96.5924 3.67188 96.7305 3.625C96.8685 3.57812 96.9766 3.4974 97.0547 3.38281C97.1328 3.26823 97.1719 3.125 97.1719 2.95312C97.1719 2.76042 97.1198 2.60547 97.0156 2.48828C96.9141 2.36849 96.7695 2.29297 96.582 2.26172C96.4883 2.2487 96.207 2.24219 95.7383 2.24219H94.8359V3.69531Z" fill="white"/>
<path d="M99.2227 4.17188C99.2227 3.58854 99.3099 3.09896 99.4844 2.70312C99.6146 2.41146 99.7917 2.14974 100.016 1.91797C100.242 1.6862 100.49 1.51432 100.758 1.40234C101.115 1.2513 101.526 1.17578 101.992 1.17578C102.836 1.17578 103.51 1.4375 104.016 1.96094C104.523 2.48438 104.777 3.21224 104.777 4.14453C104.777 5.06901 104.526 5.79297 104.023 6.31641C103.521 6.83724 102.849 7.09766 102.008 7.09766C101.156 7.09766 100.479 6.83854 99.9766 6.32031C99.474 5.79948 99.2227 5.08333 99.2227 4.17188ZM100.414 4.13281C100.414 4.78125 100.564 5.27344 100.863 5.60938C101.163 5.94271 101.543 6.10938 102.004 6.10938C102.465 6.10938 102.842 5.94401 103.137 5.61328C103.434 5.27995 103.582 4.78125 103.582 4.11719C103.582 3.46094 103.438 2.97135 103.148 2.64844C102.862 2.32552 102.48 2.16406 102.004 2.16406C101.527 2.16406 101.143 2.32812 100.852 2.65625C100.56 2.98177 100.414 3.47396 100.414 4.13281Z" fill="white"/>
<path d="M105.676 7V5.90234H106.773V7H105.676Z" fill="white"/>
<path d="M111.574 4.89453L112.695 5.25C112.523 5.875 112.237 6.33984 111.836 6.64453C111.438 6.94661 110.931 7.09766 110.316 7.09766C109.556 7.09766 108.931 6.83854 108.441 6.32031C107.952 5.79948 107.707 5.08854 107.707 4.1875C107.707 3.23438 107.953 2.49479 108.445 1.96875C108.938 1.4401 109.585 1.17578 110.387 1.17578C111.087 1.17578 111.656 1.38281 112.094 1.79688C112.354 2.04167 112.549 2.39323 112.68 2.85156L111.535 3.125C111.467 2.82812 111.326 2.59375 111.109 2.42188C110.896 2.25 110.635 2.16406 110.328 2.16406C109.904 2.16406 109.559 2.31641 109.293 2.62109C109.03 2.92578 108.898 3.41927 108.898 4.10156C108.898 4.82552 109.029 5.34115 109.289 5.64844C109.549 5.95573 109.888 6.10938 110.305 6.10938C110.612 6.10938 110.876 6.01172 111.098 5.81641C111.319 5.62109 111.478 5.3138 111.574 4.89453Z" fill="white"/>
<path d="M113.457 4.17188C113.457 3.58854 113.544 3.09896 113.719 2.70312C113.849 2.41146 114.026 2.14974 114.25 1.91797C114.477 1.6862 114.724 1.51432 114.992 1.40234C115.349 1.2513 115.76 1.17578 116.227 1.17578C117.07 1.17578 117.745 1.4375 118.25 1.96094C118.758 2.48438 119.012 3.21224 119.012 4.14453C119.012 5.06901 118.76 5.79297 118.258 6.31641C117.755 6.83724 117.083 7.09766 116.242 7.09766C115.391 7.09766 114.714 6.83854 114.211 6.32031C113.708 5.79948 113.457 5.08333 113.457 4.17188ZM114.648 4.13281C114.648 4.78125 114.798 5.27344 115.098 5.60938C115.397 5.94271 115.777 6.10938 116.238 6.10938C116.699 6.10938 117.077 5.94401 117.371 5.61328C117.668 5.27995 117.816 4.78125 117.816 4.11719C117.816 3.46094 117.672 2.97135 117.383 2.64844C117.096 2.32552 116.715 2.16406 116.238 2.16406C115.762 2.16406 115.378 2.32812 115.086 2.65625C114.794 2.98177 114.648 3.47396 114.648 4.13281Z" fill="white"/>
<path d="M119.902 7V1.27344H121.633L122.672 5.17969L123.699 1.27344H125.434V7H124.359V2.49219L123.223 7H122.109L120.977 2.49219V7H119.902Z" fill="white"/>
<path d="M28.9141 18V12.2734H30.0703V18H28.9141Z" fill="white"/>
<path d="M31.1875 18V12.2734H32.3125L34.6562 16.0977V12.2734H35.7305V18H34.5703L32.2617 14.2656V18H31.1875Z" fill="white"/>
<path d="M36.9648 18V12.2734H40.8906V13.2422H38.1211V14.5977H40.5117V15.5664H38.1211V18H36.9648Z" fill="white"/>
<path d="M41.6133 15.1719C41.6133 14.5885 41.7005 14.099 41.875 13.7031C42.0052 13.4115 42.1823 13.1497 42.4062 12.918C42.6328 12.6862 42.8802 12.5143 43.1484 12.4023C43.5052 12.2513 43.9167 12.1758 44.3828 12.1758C45.2266 12.1758 45.901 12.4375 46.4062 12.9609C46.9141 13.4844 47.168 14.2122 47.168 15.1445C47.168 16.069 46.9167 16.793 46.4141 17.3164C45.9115 17.8372 45.2396 18.0977 44.3984 18.0977C43.5469 18.0977 42.8698 17.8385 42.3672 17.3203C41.8646 16.7995 41.6133 16.0833 41.6133 15.1719ZM42.8047 15.1328C42.8047 15.7812 42.9544 16.2734 43.2539 16.6094C43.5534 16.9427 43.9336 17.1094 44.3945 17.1094C44.8555 17.1094 45.2331 16.944 45.5273 16.6133C45.8242 16.2799 45.9727 15.7812 45.9727 15.1172C45.9727 14.4609 45.8281 13.9714 45.5391 13.6484C45.2526 13.3255 44.8711 13.1641 44.3945 13.1641C43.918 13.1641 43.5339 13.3281 43.2422 13.6562C42.9505 13.9818 42.8047 14.474 42.8047 15.1328Z" fill="white"/>
<path d="M54.4336 17.9258H55.2656C55.0052 18.4544 54.6055 18.8685 54.0664 19.168C53.4492 19.5117 52.6966 19.6836 51.8086 19.6836C50.9492 19.6836 50.207 19.5378 49.582 19.2461C48.957 18.957 48.4922 18.5299 48.1875 17.9648C47.8828 17.3971 47.7305 16.7799 47.7305 16.1133C47.7305 15.3815 47.9036 14.7005 48.25 14.0703C48.5964 13.4375 49.0703 12.9635 49.6719 12.6484C50.2734 12.3307 50.9609 12.1719 51.7344 12.1719C52.3906 12.1719 52.974 12.2995 53.4844 12.5547C53.9948 12.8099 54.3841 13.1732 54.6523 13.6445C54.9232 14.1133 55.0586 14.6263 55.0586 15.1836C55.0586 15.8477 54.8542 16.4479 54.4453 16.9844C53.9323 17.6615 53.2747 18 52.4727 18C52.2565 18 52.0938 17.9622 51.9844 17.8867C51.875 17.8112 51.8021 17.7005 51.7656 17.5547C51.4583 17.8516 51.1042 18 50.7031 18C50.2708 18 49.9115 17.8516 49.625 17.5547C49.3411 17.2552 49.1992 16.8581 49.1992 16.3633C49.1992 15.7513 49.3711 15.1927 49.7148 14.6875C50.1315 14.0729 50.6654 13.7656 51.3164 13.7656C51.7799 13.7656 52.1224 13.9427 52.3438 14.2969L52.4414 13.8633H53.4727L52.8828 16.6641C52.8464 16.8411 52.8281 16.9557 52.8281 17.0078C52.8281 17.0729 52.8424 17.1224 52.8711 17.1562C52.9023 17.1875 52.9388 17.2031 52.9805 17.2031C53.1055 17.2031 53.2669 17.1276 53.4648 16.9766C53.7305 16.7786 53.9453 16.513 54.1094 16.1797C54.2734 15.8464 54.3555 15.5013 54.3555 15.1445C54.3555 14.5039 54.1237 13.9688 53.6602 13.5391C53.1966 13.1068 52.5495 12.8906 51.7188 12.8906C51.013 12.8906 50.4141 13.0352 49.9219 13.3242C49.4323 13.6107 49.0625 14.0156 48.8125 14.5391C48.5651 15.0599 48.4414 15.6029 48.4414 16.168C48.4414 16.7174 48.5794 17.2174 48.8555 17.668C49.1341 18.1185 49.5234 18.4466 50.0234 18.6523C50.526 18.8607 51.1003 18.9648 51.7461 18.9648C52.3685 18.9648 52.9036 18.8776 53.3516 18.7031C53.7995 18.5312 54.1602 18.2721 54.4336 17.9258ZM50.2109 16.3203C50.2109 16.651 50.2773 16.8945 50.4102 17.0508C50.5456 17.207 50.7122 17.2852 50.9102 17.2852C51.0586 17.2852 51.1979 17.2487 51.3281 17.1758C51.4271 17.1237 51.5247 17.0417 51.6211 16.9297C51.7591 16.7708 51.8776 16.5391 51.9766 16.2344C52.0781 15.9297 52.1289 15.6458 52.1289 15.3828C52.1289 15.0885 52.0599 14.8633 51.9219 14.707C51.7865 14.5482 51.6146 14.4688 51.4062 14.4688C51.1823 14.4688 50.9753 14.556 50.7852 14.7305C50.5951 14.9023 50.4518 15.1484 50.3555 15.4688C50.2591 15.7891 50.2109 16.0729 50.2109 16.3203Z" fill="white"/>
<path d="M55.875 12.2734H57.9883C58.4648 12.2734 58.8281 12.3099 59.0781 12.3828C59.4141 12.4818 59.7018 12.6576 59.9414 12.9102C60.181 13.1628 60.3633 13.4727 60.4883 13.8398C60.6133 14.2044 60.6758 14.6549 60.6758 15.1914C60.6758 15.6628 60.6172 16.069 60.5 16.4102C60.3568 16.8268 60.1523 17.1641 59.8867 17.4219C59.6862 17.6172 59.4154 17.7695 59.0742 17.8789C58.819 17.9596 58.4779 18 58.0508 18H55.875V12.2734ZM57.0312 13.2422V17.0352H57.8945C58.2174 17.0352 58.4505 17.0169 58.5938 16.9805C58.7812 16.9336 58.9362 16.8542 59.0586 16.7422C59.1836 16.6302 59.2852 16.4466 59.3633 16.1914C59.4414 15.9336 59.4805 15.5833 59.4805 15.1406C59.4805 14.6979 59.4414 14.3581 59.3633 14.1211C59.2852 13.8841 59.1758 13.6992 59.0352 13.5664C58.8945 13.4336 58.7161 13.3438 58.5 13.2969C58.3385 13.2604 58.0221 13.2422 57.5508 13.2422H57.0312Z" fill="white"/>
<path d="M61.6641 18V12.2734H64.0977C64.7096 12.2734 65.1536 12.3255 65.4297 12.4297C65.7083 12.5312 65.931 12.7135 66.0977 12.9766C66.2643 13.2396 66.3477 13.5404 66.3477 13.8789C66.3477 14.3086 66.2214 14.6641 65.9688 14.9453C65.7161 15.224 65.3385 15.3997 64.8359 15.4727C65.0859 15.6185 65.2917 15.7786 65.4531 15.9531C65.6172 16.1276 65.8372 16.4375 66.1133 16.8828L66.8125 18H65.4297L64.5938 16.7539C64.2969 16.3086 64.0938 16.0286 63.9844 15.9141C63.875 15.7969 63.7591 15.7174 63.6367 15.6758C63.5143 15.6315 63.3203 15.6094 63.0547 15.6094H62.8203V18H61.6641ZM62.8203 14.6953H63.6758C64.2305 14.6953 64.5768 14.6719 64.7148 14.625C64.8529 14.5781 64.9609 14.4974 65.0391 14.3828C65.1172 14.2682 65.1562 14.125 65.1562 13.9531C65.1562 13.7604 65.1042 13.6055 65 13.4883C64.8984 13.3685 64.7539 13.293 64.5664 13.2617C64.4727 13.2487 64.1914 13.2422 63.7227 13.2422H62.8203V14.6953Z" fill="white"/>
<path d="M72.6055 18H71.3477L70.8477 16.6992H68.5586L68.0859 18H66.8594L69.0898 12.2734H70.3125L72.6055 18ZM70.4766 15.7344L69.6875 13.6094L68.9141 15.7344H70.4766Z" fill="white"/>
<path d="M73.2305 18V12.2734H77.1562V13.2422H74.3867V14.5977H76.7773V15.5664H74.3867V18H73.2305Z" fill="white"/>
<path d="M79.4023 18V13.2422H77.7031V12.2734H82.2539V13.2422H80.5586V18H79.4023Z" fill="white"/>
<path d="M82.7109 16.1367L83.8359 16.0273C83.9036 16.4049 84.0404 16.6823 84.2461 16.8594C84.4544 17.0365 84.7344 17.125 85.0859 17.125C85.4583 17.125 85.7383 17.0469 85.9258 16.8906C86.1159 16.7318 86.2109 16.5469 86.2109 16.3359C86.2109 16.2005 86.1706 16.0859 86.0898 15.9922C86.0117 15.8958 85.8737 15.8125 85.6758 15.7422C85.5404 15.6953 85.2318 15.612 84.75 15.4922C84.1302 15.3385 83.6953 15.1497 83.4453 14.9258C83.0938 14.6107 82.918 14.2266 82.918 13.7734C82.918 13.4818 83 13.2096 83.1641 12.957C83.3307 12.7018 83.569 12.5078 83.8789 12.375C84.1914 12.2422 84.5677 12.1758 85.0078 12.1758C85.7266 12.1758 86.2669 12.3333 86.6289 12.6484C86.9935 12.9635 87.1849 13.3841 87.2031 13.9102L86.0469 13.9609C85.9974 13.6667 85.8906 13.4557 85.7266 13.3281C85.5651 13.1979 85.3216 13.1328 84.9961 13.1328C84.6602 13.1328 84.3971 13.2018 84.207 13.3398C84.0846 13.4284 84.0234 13.5469 84.0234 13.6953C84.0234 13.8307 84.0807 13.9466 84.1953 14.043C84.3411 14.1654 84.6953 14.293 85.2578 14.4258C85.8203 14.5586 86.2357 14.6966 86.5039 14.8398C86.7747 14.9805 86.9857 15.1745 87.1367 15.4219C87.2904 15.6667 87.3672 15.9701 87.3672 16.332C87.3672 16.6602 87.276 16.9674 87.0938 17.2539C86.9115 17.5404 86.6536 17.7539 86.3203 17.8945C85.987 18.0326 85.5716 18.1016 85.0742 18.1016C84.3503 18.1016 83.7943 17.9349 83.4062 17.6016C83.0182 17.2656 82.7865 16.7773 82.7109 16.1367Z" fill="white"/>
<path d="M88.3398 18V12.2734H90.1953C90.8984 12.2734 91.3568 12.3021 91.5703 12.3594C91.8984 12.4453 92.1732 12.6328 92.3945 12.9219C92.6159 13.2083 92.7266 13.5794 92.7266 14.0352C92.7266 14.3867 92.6628 14.6823 92.5352 14.9219C92.4076 15.1615 92.2448 15.3503 92.0469 15.4883C91.8516 15.6237 91.6523 15.7135 91.4492 15.7578C91.1732 15.8125 90.7734 15.8398 90.25 15.8398H89.4961V18H88.3398ZM89.4961 13.2422V14.8672H90.1289C90.5846 14.8672 90.8893 14.8372 91.043 14.7773C91.1966 14.7174 91.3164 14.6237 91.4023 14.4961C91.4909 14.3685 91.5352 14.2201 91.5352 14.0508C91.5352 13.8424 91.474 13.6706 91.3516 13.5352C91.2292 13.3997 91.0742 13.3151 90.8867 13.2812C90.7487 13.2552 90.4714 13.2422 90.0547 13.2422H89.4961Z" fill="white"/>
<path d="M93.6797 18V12.2734H96.1133C96.7253 12.2734 97.1693 12.3255 97.4453 12.4297C97.724 12.5312 97.9466 12.7135 98.1133 12.9766C98.2799 13.2396 98.3633 13.5404 98.3633 13.8789C98.3633 14.3086 98.237 14.6641 97.9844 14.9453C97.7318 15.224 97.3542 15.3997 96.8516 15.4727C97.1016 15.6185 97.3073 15.7786 97.4688 15.9531C97.6328 16.1276 97.8529 16.4375 98.1289 16.8828L98.8281 18H97.4453L96.6094 16.7539C96.3125 16.3086 96.1094 16.0286 96 15.9141C95.8906 15.7969 95.7747 15.7174 95.6523 15.6758C95.5299 15.6315 95.3359 15.6094 95.0703 15.6094H94.8359V18H93.6797ZM94.8359 14.6953H95.6914C96.2461 14.6953 96.5924 14.6719 96.7305 14.625C96.8685 14.5781 96.9766 14.4974 97.0547 14.3828C97.1328 14.2682 97.1719 14.125 97.1719 13.9531C97.1719 13.7604 97.1198 13.6055 97.0156 13.4883C96.9141 13.3685 96.7695 13.293 96.582 13.2617C96.4883 13.2487 96.207 13.2422 95.7383 13.2422H94.8359V14.6953Z" fill="white"/>
<path d="M99.2227 15.1719C99.2227 14.5885 99.3099 14.099 99.4844 13.7031C99.6146 13.4115 99.7917 13.1497 100.016 12.918C100.242 12.6862 100.49 12.5143 100.758 12.4023C101.115 12.2513 101.526 12.1758 101.992 12.1758C102.836 12.1758 103.51 12.4375 104.016 12.9609C104.523 13.4844 104.777 14.2122 104.777 15.1445C104.777 16.069 104.526 16.793 104.023 17.3164C103.521 17.8372 102.849 18.0977 102.008 18.0977C101.156 18.0977 100.479 17.8385 99.9766 17.3203C99.474 16.7995 99.2227 16.0833 99.2227 15.1719ZM100.414 15.1328C100.414 15.7812 100.564 16.2734 100.863 16.6094C101.163 16.9427 101.543 17.1094 102.004 17.1094C102.465 17.1094 102.842 16.944 103.137 16.6133C103.434 16.2799 103.582 15.7812 103.582 15.1172C103.582 14.4609 103.438 13.9714 103.148 13.6484C102.862 13.3255 102.48 13.1641 102.004 13.1641C101.527 13.1641 101.143 13.3281 100.852 13.6562C100.56 13.9818 100.414 14.474 100.414 15.1328Z" fill="white"/>
<path d="M105.676 18V16.9023H106.773V18H105.676Z" fill="white"/>
<path d="M111.574 15.8945L112.695 16.25C112.523 16.875 112.237 17.3398 111.836 17.6445C111.438 17.9466 110.931 18.0977 110.316 18.0977C109.556 18.0977 108.931 17.8385 108.441 17.3203C107.952 16.7995 107.707 16.0885 107.707 15.1875C107.707 14.2344 107.953 13.4948 108.445 12.9688C108.938 12.4401 109.585 12.1758 110.387 12.1758C111.087 12.1758 111.656 12.3828 112.094 12.7969C112.354 13.0417 112.549 13.3932 112.68 13.8516L111.535 14.125C111.467 13.8281 111.326 13.5938 111.109 13.4219C110.896 13.25 110.635 13.1641 110.328 13.1641C109.904 13.1641 109.559 13.3164 109.293 13.6211C109.03 13.9258 108.898 14.4193 108.898 15.1016C108.898 15.8255 109.029 16.3411 109.289 16.6484C109.549 16.9557 109.888 17.1094 110.305 17.1094C110.612 17.1094 110.876 17.0117 111.098 16.8164C111.319 16.6211 111.478 16.3138 111.574 15.8945Z" fill="white"/>
<path d="M113.457 15.1719C113.457 14.5885 113.544 14.099 113.719 13.7031C113.849 13.4115 114.026 13.1497 114.25 12.918C114.477 12.6862 114.724 12.5143 114.992 12.4023C115.349 12.2513 115.76 12.1758 116.227 12.1758C117.07 12.1758 117.745 12.4375 118.25 12.9609C118.758 13.4844 119.012 14.2122 119.012 15.1445C119.012 16.069 118.76 16.793 118.258 17.3164C117.755 17.8372 117.083 18.0977 116.242 18.0977C115.391 18.0977 114.714 17.8385 114.211 17.3203C113.708 16.7995 113.457 16.0833 113.457 15.1719ZM114.648 15.1328C114.648 15.7812 114.798 16.2734 115.098 16.6094C115.397 16.9427 115.777 17.1094 116.238 17.1094C116.699 17.1094 117.077 16.944 117.371 16.6133C117.668 16.2799 117.816 15.7812 117.816 15.1172C117.816 14.4609 117.672 13.9714 117.383 13.6484C117.096 13.3255 116.715 13.1641 116.238 13.1641C115.762 13.1641 115.378 13.3281 115.086 13.6562C114.794 13.9818 114.648 14.474 114.648 15.1328Z" fill="white"/>
<path d="M119.902 18V12.2734H121.633L122.672 16.1797L123.699 12.2734H125.434V18H124.359V13.4922L123.223 18H122.109L120.977 13.4922V18H119.902Z" fill="white"/>
<path d="M9.50039 0C4.2535 0 0 4.2535 0 9.50039C0 14.7473 4.2535 19 9.50039 19C14.7473 19 19 14.7467 19 9.50039C19 4.25413 14.7473 0 9.50039 0ZM5.52028 5.28498L9.44976 1.88205C9.46208 1.87145 9.47779 1.86562 9.49404 1.86562C9.5103 1.86562 9.52601 1.87145 9.53833 1.88205L13.4764 5.2925C13.4884 5.30273 13.4964 5.31681 13.4991 5.33232C13.5018 5.34784 13.499 5.3638 13.4912 5.37746C13.4834 5.39113 13.471 5.40163 13.4563 5.40715C13.4415 5.41268 13.4253 5.41288 13.4104 5.40772C12.2272 5.00125 10.8957 4.77269 9.48754 4.77269C8.08799 4.77269 6.76385 4.99827 5.58611 5.39973C5.57135 5.40455 5.55538 5.40414 5.54089 5.39857C5.52639 5.393 5.51426 5.3826 5.50653 5.36913C5.4988 5.35566 5.49595 5.33994 5.49845 5.32461C5.50096 5.30929 5.50866 5.29529 5.52028 5.28498ZM9.03607 13.2284C8.51197 14.1286 7.70278 14.5786 6.6085 14.5785H3.48899V13.3178L4.95688 13.322H6.35329C7.06791 13.322 7.56619 12.9702 7.84815 12.2666C8.00209 11.8799 8.07911 11.4201 8.07921 10.8871C8.07921 10.1508 7.96368 9.58546 7.73262 9.19095C7.50156 8.79644 7.04173 8.59924 6.35314 8.59934H4.95688V11.9697H3.48899V7.34213H6.6085C7.05714 7.34872 7.43054 7.40097 7.7287 7.49889C8.23629 7.6661 8.64736 7.97215 8.96192 8.41703C9.21013 8.76814 9.38554 9.16539 9.47782 9.58536C9.56947 10.0044 9.6153 10.4037 9.6153 10.7833C9.61561 11.7457 9.42253 12.5608 9.03607 13.2284ZM15.9118 11.4464C15.4888 11.7997 14.8839 11.9765 14.0972 11.9766H12.5904V14.5788H11.0882C11.0866 13.2949 11.0851 12.011 11.0837 10.7272L13.3672 10.7299H13.9531C14.298 10.7299 14.5662 10.6431 14.7578 10.4696C14.9493 10.2962 15.0451 10.0213 15.0451 9.64493C15.0451 9.2687 14.9493 9.00033 14.7578 8.83981C14.5662 8.67929 14.298 8.59913 13.9531 8.59934H12.5904V9.39207H11.0882V7.34213H14.1956C14.9118 7.34213 15.4829 7.52868 15.9089 7.90176C16.3348 8.27485 16.5476 8.85251 16.547 9.63474C16.547 10.4891 16.3353 11.093 15.9118 11.4464Z" fill="white"/>
</svg>
