<svg width="40" height="40" viewBox="0 0 40 40" fill="none" xmlns="http://www.w3.org/2000/svg">
<path fill-rule="evenodd" clip-rule="evenodd" d="M2.10156 0.925781C0.828125 1.83203 0 3.32031 0 5V35C0 37.7617 2.23828 40 5 40H35C37.7617 40 40 37.7617 40 35V5C40 2.23828 37.7617 0 35 0H5C3.91797 0 2.91797 0.34375 2.10156 0.925781ZM22.3789 7H17.6133C17.5664 7.14453 17.543 7.30078 17.5195 7.45312L17.4961 7.61719L17.1289 9.83203C17.125 9.86328 17.1133 9.89062 17.0938 9.91016C17.0742 9.92969 17.0469 9.94531 17.0195 9.94922C16.5977 10.0742 16.1875 10.2227 15.7852 10.4023C15.5156 10.5195 15.2539 10.6523 14.9961 10.793C14.9648 10.8125 14.9336 10.8203 14.8984 10.8164C14.8672 10.8125 14.832 10.8008 14.8086 10.7773L12.6445 9.24219C12.6055 9.21484 12.5703 9.19531 12.5391 9.19141C12.4961 9.1875 12.457 9.21094 12.4062 9.25781L9.18359 12.4453C9.14453 12.4844 9.125 12.5156 9.12109 12.5469C9.12109 12.5742 9.13672 12.6055 9.16406 12.6445L10.7344 14.8008C10.8047 14.8984 10.8125 14.9648 10.7578 15.0742C10.4141 15.7148 10.1406 16.3906 9.94531 17.0938L9.92188 17.1523L9.89453 17.1836C9.86719 17.207 9.83594 17.2227 9.79688 17.2227L7.54297 17.5547L7.19531 17.6016L7 17.6484V22.4531L8.69531 22.7305L9.78516 22.9102C9.82422 22.9141 9.85938 22.9297 9.89062 22.9531L9.93359 23.0039L9.94922 23.0508C10.1445 23.7383 10.418 24.3984 10.7656 25.0234C10.7891 25.0586 10.8008 25.1016 10.7969 25.1445C10.7969 25.1836 10.7812 25.2266 10.7539 25.2578L9.17969 27.4688C9.11328 27.5625 9.10938 27.6172 9.19531 27.7031L12.3672 30.8828C12.4141 30.9297 12.4492 30.9492 12.4883 30.9453C12.5156 30.9453 12.5469 30.9297 12.582 30.9023L14.8047 29.3125L14.8359 29.2891C14.8555 29.2773 14.8789 29.2695 14.9062 29.2695C14.9453 29.2656 14.9844 29.2734 15.0156 29.2969C15.3516 29.4766 15.6953 29.6367 16.0469 29.7773C16.3711 29.9102 16.7031 30.0234 17.0391 30.1172C17.0664 30.1211 17.0938 30.1328 17.1133 30.1484L17.1445 30.1758C17.1719 30.207 17.1875 30.2422 17.1914 30.2852L17.625 32.8633C17.6406 32.9648 17.6797 33 17.7852 33H22.3086C22.418 33 22.4531 32.9648 22.4727 32.8555L22.9062 30.2344C22.9062 30.1953 22.9219 30.1562 22.9453 30.125C22.9688 30.0938 23.0039 30.0742 23.043 30.0664C23.7227 29.8594 24.3828 29.5859 25.0078 29.25C25.0469 29.2266 25.0898 29.2148 25.1328 29.2148C25.1758 29.2188 25.2188 29.2383 25.25 29.2656L27.4648 30.8477C27.5078 30.8789 27.5391 30.8945 27.5703 30.8945C27.6016 30.8906 27.6328 30.8672 27.6719 30.8281L30.8594 27.6328C30.9062 27.5859 30.9258 27.5469 30.9141 27.5078L30.875 27.4336L29.2969 25.2109C29.2695 25.1797 29.25 25.1367 29.2461 25.0938C29.2461 25.0508 29.2539 25.0039 29.2812 24.9688C29.6172 24.3359 29.9102 23.6797 30.0977 22.9844C30.125 22.8867 30.1875 22.8672 30.2695 22.8555L32.043 22.5859L32.9102 22.457C32.9531 22.4531 32.9805 22.4375 32.9922 22.4102L33 22.3594V22.3047V17.7734C33 17.668 32.9688 17.6289 32.8633 17.6133L30.1875 17.168C30.1523 17.168 30.1211 17.1523 30.0938 17.1328L30.0703 17.1016L30.0469 17.0469C29.8516 16.3359 29.5664 15.6523 29.2031 15.0156C29.1641 14.9414 29.1875 14.8945 29.2266 14.8398L30.7969 12.668C30.8594 12.582 30.8789 12.5547 30.8516 12.5117L30.7773 12.4219L27.6719 9.25781C27.5859 9.16797 27.5547 9.125 27.5195 9.12109C27.4844 9.11328 27.4453 9.15234 27.3359 9.22656L25.207 10.707L25.1719 10.7305C25.1484 10.7461 25.1133 10.7539 25.0781 10.7578C25.0312 10.7578 24.9844 10.7461 24.9453 10.7188C24.3203 10.3828 23.6641 10.1094 22.9883 9.90234C22.9531 9.89844 22.9219 9.87891 22.8984 9.85156C22.875 9.82422 22.8594 9.79297 22.8555 9.75781L22.4062 7.10156C22.4062 7.06641 22.3945 7.03125 22.3789 7ZM15.0273 20.0156C15.043 17.1406 17.4219 15.0312 20.0039 15.0625C22.5859 15.043 24.9688 17.168 24.9609 20.0586C24.9531 22.8906 22.6719 25.082 19.8867 25.0273C18.625 25 17.4609 24.5039 16.5859 23.6875C15.625 22.7891 15.0195 21.5 15.0273 20.0156Z" fill="#8C2133"/>
</svg>
