<svg xmlns="http://www.w3.org/2000/svg" viewBox="0 0 1075 901"><defs><style>.cls-1{fill:none;stroke:#8c2133;stroke-miterlimit:10;stroke-width:20px;}.cls-2{fill:#8c2133;}</style></defs><title>ИКОНКИ РЕГИСТРАЦИИ</title><g id="Layer_9" data-name="Layer 9"><circle class="cls-1" cx="538" cy="451" r="391"/><path class="cls-2" d="M333.33,463.66q0-86.8,0-173.61c0-19.24,11.82-31,31.1-31q90.75,0,181.5,0c6.29,0,6.3,0,6.3,6.52q0,40.29,0,80.58c0,8.17,2.75,10.88,11,10.88h81.4c5.68,0,5.7,0,5.7,5.76q0,137.89,0,275.79c0,16.75-12.6,29.58-29.35,29.59q-129.18.09-258.35,0c-16.79,0-29.34-12.81-29.35-29.61Q333.3,551.1,333.33,463.66Zm154.38,28.93q34.88,0,69.75,0c6.92,0,9.48-2.69,9.46-9.6-.07-27.08-18.82-52.85-45.36-61.34-19.28-6.17-39.32-4.86-58.82-2.24-30.14,4-53.67,32.2-54.33,62.48-.18,8.33,2.07,10.69,10.38,10.7Q453.25,492.61,487.71,492.59Zm45.46-138.4c-.24-3.78-.18-6.57-.61-9.29a45.56,45.56,0,0,0-50.5-37.9c-22.47,2.67-40.85,21.82-40,47.32.6,18,7.94,33.5,21.36,45.77,14.08,12.87,31.19,13.78,46,1.86C524.82,389.53,532.22,372.86,533.17,354.19Zm-41.1,207.66H397c-5.81,0-11.63-.09-17.44.08a7.42,7.42,0,0,0-7.46,6.93,7.83,7.83,0,0,0,5.7,8.53,20.61,20.61,0,0,0,6.58.6H600.68a15.26,15.26,0,0,0,5.73-.7,8.07,8.07,0,0,0,5.22-8.91,7.65,7.65,0,0,0-7.47-6.5c-1.79-.1-3.59,0-5.39,0Zm-.25,58.56H600.17a28.36,28.36,0,0,0,5-.19,8,8,0,0,0-.5-15.81,36.45,36.45,0,0,0-4.56-.11H382.55a28.26,28.26,0,0,0-3.32.08,7.85,7.85,0,0,0-7.19,7.77,8.21,8.21,0,0,0,6.87,8.13,34.41,34.41,0,0,0,5,.14Zm.29-101h-108a48.38,48.38,0,0,0-5.39.14,7.77,7.77,0,0,0-.07,15.39,39.19,39.19,0,0,0,5,.17h216a44,44,0,0,0,5.39-.17,7.44,7.44,0,0,0,6.7-7.66c0-5-3.26-7.84-9.53-7.85Q547.14,519.35,492.11,519.37Z"/><path class="cls-2" d="M742.59,472.81q0,59.59,0,119.18c0,5.66,0,5.68-5.81,5.68-20.21,0-40.42-.08-60.62.09-4,0-5.56-1-5.55-5.32q.17-119.58,0-239.17c0-4,1.39-5.26,5.29-5.23,20.49.13,41,.17,61.46,0,4.32,0,5.32,1.56,5.31,5.61C742.54,393.36,742.59,433.09,742.59,472.81Z"/><path class="cls-2" d="M706.69,613.81c10.38,0,20.77.12,31.14-.06,3.59,0,5,1.11,4.81,4.78-.46,7.44.69,14.94-.79,22.35-3.1,15.53-16.92,26.68-32.71,27.48-21.12,1.06-35.68-12.88-38.06-29.59-1-7.28-.3-14.65-.34-22,0-3.1,2.29-3,4.4-3Z"/><path class="cls-2" d="M606.79,340.84c-11.2,0-22.4-.1-33.59.05-3.51.05-4.89-1-4.87-4.71.14-22.53.06-45.07.09-67.61,0-1.15-.63-2.82.77-3.34s2.09,1.08,2.93,1.91q35.14,34.94,70.25,69.94c.82.82,2.41,1.54,1.81,2.94s-2.21.79-3.37.8C629.47,340.86,618.13,340.84,606.79,340.84Z"/><path class="cls-2" d="M706.63,332.41c-9.56,0-19.11,0-28.66,0-4.44,0-4.75-.46-3.24-4.47q11.43-30.29,22.91-60.56c1.83-4.81,5.05-7.38,9-7.38s7.15,2.52,9,7.37q11.48,30.27,22.89,60.57c1.51,4,1.2,4.45-3.25,4.47C725.73,332.43,716.18,332.41,706.63,332.41Z"/><path class="cls-2" d="M487.66,476.87q-28.62,0-57.26,0c-5.39,0-5.75-.56-4.27-5.81a50.28,50.28,0,0,1,48.21-36.8c9.4-.06,18.81-.08,28.21,0,21.65.25,42.4,17.28,47.07,38.33.93,4.21-1.34,4.27-4.28,4.27Q516.51,476.85,487.66,476.87Z"/><path class="cls-2" d="M487.53,322.9a29.65,29.65,0,0,1,29.3,34.44c-1.75,11.42-6.37,21.46-14.57,29.64-9.54,9.51-19.76,9.69-29.08.07-10.88-11.25-17.09-24.56-14.3-40.62C461.25,332.72,473.59,322.89,487.53,322.9Z"/></g></svg>