<svg xmlns="http://www.w3.org/2000/svg" viewBox="0 0 1075 901"><defs><style>.cls-1{fill:none;stroke:#8c2133;stroke-miterlimit:10;stroke-width:20px;}.cls-2{fill:#8c2133;}</style></defs><title>ИКОНКИ РЕГИСТРАЦИИ</title><g id="Layer_9" data-name="Layer 9"><circle class="cls-1" cx="538" cy="451" r="391"/><path class="cls-2" d="M445.74,700.15c-.74-.38-4.18-2.23-6.79-7.61-4.45-9.2-1.82-19.22-1-22.51,4.35-17.52,9.9-34.76,15.46-51.94,13.3-41.05,27.19-81.92,38.78-123.51.47-1.69.92-3.39,2.21-8.12-12.68,14.43-20.14,28.66-28.77,42-9.41,14.56-18.2,29.52-27.64,44.06-7.61,11.74-16.84,15.36-26.87,11.38-9.49-3.76-13.19-12.39-10.82-26,7.44-42.59,25.26-81.6,42-121,9.93-23.43,20-46.82,30.51-70,3.93-8.64.75-10.19-7.09-10.14-39.11.25-78.22.24-117.34.4-7.12,0-14-.51-20.12-4.72-8.86-6.13-9-15.55-.25-21.82,6.16-4.4,13.34-6.26,20.68-7.33C399,316,448.8,305.32,499.47,300.06c14.48-1.5,28,.87,40.6,7.78,39.8,21.8,79.68,43.45,119.06,66,10.63,6.07,18.84,6.92,29-.66,11.8-8.78,24.81-15.95,37.42-23.6,7.06-4.29,14.94-6.78,21,.75,6.23,7.73,2.67,15.65-3.18,21.95C726,391,706.19,406.93,686,422.45c-8.14,6.26-17.37,5.63-26.33,1.88-16.33-6.83-32.74-13.53-48.66-21.24-8.1-3.93-11.76-2-15.12,5.71q-29.08,67-58.7,133.75T478,676.09a84.09,84.09,0,0,1-8.27,13.67c-5.82,8-8.94,9.67-10.68,10.39C458,700.6,451.68,703.2,445.74,700.15Z"/><path class="cls-2" d="M561.86,678.14c-6.21-10.12-6.09-20.79-6-24.45.3-23.84,17.62-42.91,41.4-45.56,22.2-2.49,43.73,14.18,48.74,37.73,4.69,22-9.26,44.18-30.26,51.4C593.93,704.76,571.41,693.72,561.86,678.14Z"/><path class="cls-2" d="M589.65,202c6.4,2.76,13.25,4.42,19,8.8,17.11,13.11,23.28,33.85,15.57,53.14-8.23,20.6-27.53,31.9-49.36,28.9-19.47-2.68-36-19.39-38.43-38.95a47.23,47.23,0,0,1,28.37-49c2.38-1,4.78-1.92,7.17-2.88Z"/></g></svg>