<svg xmlns="http://www.w3.org/2000/svg" viewBox="0 0 1075 901"><defs><style>.cls-1{fill:none;stroke:#8c2133;stroke-miterlimit:10;stroke-width:20px;}.cls-2{fill:#8c2133;}</style></defs><title>ICON</title><g id="Layer_9" data-name="Layer 9"><circle class="cls-1" cx="538" cy="451" r="391"/></g><g id="Layer_10" data-name="Layer 10"><path class="cls-2" d="M473.62,675c0-.68-.09-1.36-.09-2V516.73c0-1.78,0-1.71-1.78-1.9-7.86-.83-15.1-3.21-21.08-8.64A27.68,27.68,0,0,1,442,489.87a34.82,34.82,0,0,1-.55-6.12q0-57.09,0-114.19a30.87,30.87,0,0,1,4.94-17.49c4.47-6.73,11-10.42,18.65-12.41a41.88,41.88,0,0,1,10.52-1.3q63.43,0,126.88.05c7.52,0,14.54,1.92,20.42,7,5.29,4.55,8.26,10.46,9.92,17.11a34.61,34.61,0,0,1,1.1,8.36q0,56.32,0,112.66a31.6,31.6,0,0,1-4.27,16.66c-4.31,7.19-10.92,11.21-18.82,13.38a34,34,0,0,1-7.94,1.32c-.8,0-1.06.36-1,1.1,0,.43,0,.85,0,1.28q0,77.87,0,155.72c0,.68,0,1.36-.08,2Z"/><path class="cls-2" d="M345.45,675c0-.68-.09-1.36-.09-2V516.86c0-2.19.05-1.84-1.9-2.05-7.81-.82-15-3.22-20.95-8.61a27.75,27.75,0,0,1-8.65-16.33,36.58,36.58,0,0,1-.55-6.36q0-56.91,0-113.81a31.11,31.11,0,0,1,4.94-17.62c4.47-6.73,11-10.43,18.65-12.41a41.35,41.35,0,0,1,10.51-1.31q31.79,0,63.57,0c.43,0,.86,0,1.28,0,1,0,1.2.34.83,1.24a46.62,46.62,0,0,0-2.82,9.83,38.66,38.66,0,0,0-.65,6.61q0,79,0,158a35.87,35.87,0,0,0,2.91,15.36c3.63,7.81,9.91,12.55,17.9,15.24a37.62,37.62,0,0,0,9.39,1.88c1.82.13,1.83.15,1.83,2q0,62.54,0,125.08c0,.47-.05.93-.08,1.4Z"/><path class="cls-2" d="M633.83,675c0-.55-.09-1.11-.09-1.66V548.78c0-2.12,0-2,2.2-2.27,8.3-.83,15.8-3.54,21.79-9.61a27.49,27.49,0,0,0,7.55-16.06,59.35,59.35,0,0,0,.51-8.43q0-77.4,0-154.8A49,49,0,0,0,662.48,340c-.57-1.51-.53-1.59,1-1.59,22.52,0,45-.09,67.54.05,8.72.05,16.58,2.73,22.59,9.46,4.38,4.93,6.74,10.83,7.9,17.25.14.75.29,1.5.44,2.25v120l-.45,2.51a27.8,27.8,0,0,1-8.65,16.33c-5.95,5.38-13.14,7.8-21,8.61-2,.21-1.89-.14-1.89,2.05q0,78.06,0,156.1c0,.68,0,1.36-.08,2Z"/><path class="cls-2" d="M537.64,322.62a48.17,48.17,0,1,1,.19-96.33c26.59.17,48.24,21.67,48.09,48.26A48.12,48.12,0,0,1,537.64,322.62Z"/><path class="cls-2" d="M665.82,226.32a48.16,48.16,0,1,1-.1,96.31c-25.22-.26-48-20.24-48-48A48,48,0,0,1,665.82,226.32Z"/><path class="cls-2" d="M409.5,226.32a48,48,0,0,1,48.22,48.34c-.13,28.37-23.56,47.78-48.08,48a48.16,48.16,0,1,1-.14-96.32Z"/></g></svg>