<svg xmlns="http://www.w3.org/2000/svg" viewBox="0 0 1075 901"><defs><style>.cls-1{fill:none;stroke:#8c2133;stroke-miterlimit:10;stroke-width:20px;}.cls-2{fill:#8c2133;}</style></defs><title>ДОВЕРИЕ</title><g id="Layer_9" data-name="Layer 9"><circle class="cls-1" cx="538" cy="451" r="391"/></g><g id="ЭЛЕМЕНТ"><path class="cls-2" d="M581.7,211c5.09.71,10.19,1.37,15.22,2.55,29.75,7,48,25.4,54.32,55.26,6.25,29.42,4.15,58.06-9.16,85.44-1.09,2.24-.93,2.45,1.7,2.45,14.9,0,29.8,0,44.7,0,33,.14,55.8,16.19,69.83,45.29,5.69,11.8,6.67,24.63,5.14,37.6a81.73,81.73,0,0,1-12.38,35,4.27,4.27,0,0,0-.6,3.52,80.53,80.53,0,0,1-7.85,57.28c-1.19,2.23-.45,4.42-.29,6.58,1.41,19.86-2.74,38.29-14.45,54.56-2.89,4-2.3,8.18-2.62,12.35-1.55,20.38-8.17,38.47-23.15,52.93-13.75,13.27-30.38,20.36-49.13,22.9a103.07,103.07,0,0,1-13.93,1c-15.73,0-31.47.18-47.2-.07-19.65-.32-38.81-4-57.76-9.09-21.32-5.72-42.09-13.13-63-20-6.8-2.23-13.68-4.2-20.56-6.17a31.89,31.89,0,0,0-8.88-1.1c-26.31,0-52.62-.23-78.92.07-16.9.2-30.65-11.42-35.28-24.66a39.24,39.24,0,0,1-2-13q-.06-90.42,0-180.82c0-18.31,11.77-33,29.2-36.81a41.69,41.69,0,0,1,8.93-.8c24.31,0,48.61,0,72.92.08a10.37,10.37,0,0,0,7.56-3,180,180,0,0,0,15.94-17.19c12.69-15,24.21-30.94,36.93-45.9,3.94-4.63,7.86-9.28,12.05-13.67,5-5.27,7.71-11.65,9.28-18.52,3.18-13.86,6-27.79,9.92-41.49,3.33-11.8,8.63-22.46,17.35-31.3A40.23,40.23,0,0,1,566.21,211ZM435.49,521.07q0,43.95,0,87.9c0,2.38.66,3.29,3.1,3.14a65.34,65.34,0,0,1,11.94.59c11.81,1.44,23.06,5.07,34.19,9,21.09,7.5,42.21,14.88,64,20a249.59,249.59,0,0,0,41.82,6.63c13.63.85,27.29.53,40.93.43a108.58,108.58,0,0,0,19.13-1.44c9.13-1.69,17.74-4.6,24.76-11,9.16-8.35,12.28-19.3,13-31.16.38-6.08-.41-12.13-1.11-18.16a2.19,2.19,0,0,1,1-2.53c6.83-4.19,11-10.5,13.84-17.79,4.49-11.59,5-23.18-.62-34.59-.83-1.68-.74-2.83.59-4.17A44.42,44.42,0,0,0,712,513.45c6.47-16,3.67-31-5.18-45.18-.88-1.41-1.18-2,.89-2.3,3.54-.53,6.15-2.71,8.43-5.39,3.41-4,5.37-8.8,7.21-13.61,3-8,4.71-16.08,2.77-24.66-3.41-15.08-19.76-28.77-36.05-28.53-32.12.46-64.26.13-96.39.13-3.64,0-3.86-.25-3.5-3.83a101.09,101.09,0,0,1,5.55-23c3.75-10.79,8.93-21,13.51-31.4a91.09,91.09,0,0,0,4.85-61.9c-3.3-12.37-10.54-20.75-23.21-23.92a84,84,0,0,0-15.81-2,4.94,4.94,0,0,0-4.95,2.37,46.93,46.93,0,0,0-6.78,14.66c-3.6,13.5-6.21,27.24-9.9,40.72-3,11.14-7.28,21.71-15,30.39Q522,354.39,507,373.85c-11.7,15.25-23.37,30.51-37.79,43.43-9,8.09-18.54,14.46-31.39,13.1-2.47-.27-2.35,1.36-2.35,3Q435.51,477.24,435.49,521.07Zm-55.24,91a17.7,17.7,0,0,0,18.08-17.62,17.88,17.88,0,1,0-35.75-.45A17.82,17.82,0,0,0,380.25,612.05Z"/></g></svg>