<?xml version="1.0" encoding="utf-8"?>
<!-- Generator: Adobe Illustrator 24.0.3, SVG Export Plug-In . SVG Version: 6.00 Build 0)  -->
<svg version="1.1" id="Layer_1" xmlns="http://www.w3.org/2000/svg" xmlns:xlink="http://www.w3.org/1999/xlink" x="0px" y="0px"
	 viewBox="0 0 680 453" style="enable-background:new 0 0 680 453;" xml:space="preserve">
<style type="text/css">
	.st0{fill:#63A932;}
</style>
<g>
	<path class="st0" d="M361.1,361.9c0-23.4-0.7-43.9,0.3-64.3c0.6-11.7-3.4-14.2-14.5-14.1c-70.4,0.5-140.8,0-211.1,0.5
		c-11.5,0.1-16-1.8-15.6-14.7c1-33,0.8-66,0.1-99c-0.2-10.6,2.7-13.6,13.4-13.5c70.4,0.5,140.8-0.2,211.1,0.6
		c13.8,0.2,17.4-3.7,16.6-17c-1.2-20.5-0.3-41.1-0.3-64.7c82.7,47.8,163.6,94.7,247.3,143.1C525.2,266.9,444.6,313.6,361.1,361.9z"
		/>
</g>
</svg>
