<svg xmlns="http://www.w3.org/2000/svg" viewBox="0 0 1075 901"><defs><style>.cls-1{fill:none;stroke:#8c2133;stroke-miterlimit:10;stroke-width:20px;}.cls-2{font-size:117.37px;font-family:Helvetica-Bold, Helvetica;font-weight:700;}.cls-2,.cls-3{fill:#8c2133;}</style></defs><title>нсфл ИКОНКА-39-40</title><g id="Layer_9" data-name="Layer 9"><circle class="cls-1" cx="538" cy="451" r="391"/><text class="cls-2" transform="translate(282.16 627.92)">нсфл.рф</text></g><g id="ЭЛЕМЕНТЫ"><path class="cls-3" d="M700,319.17l-60.51.12c-3.88,0-7.77-.05-11.66,0-2.05,0-3-.67-3.11-2.9-.61-18.9-2.11-37.71-5.69-56.31-.53-2.73.3-3.52,3-3.51q30.09.12,60.19,0a4.05,4.05,0,0,1,4.27,2.83,162.67,162.67,0,0,1,13.08,48.77,20,20,0,0,0,.44,2.15Z"/><path class="cls-3" d="M700,340.61c-1.43,9.65-2.8,19.31-5.51,28.71a180.12,180.12,0,0,1-8.28,22.78,3.29,3.29,0,0,1-3.37,2.24q-30.74,0-61.46,0c-2.45,0-2.73-1.12-2.37-3.18,1.77-9.92,3.17-19.89,4.14-29.92.83-8.68,1.17-17.38,1.55-26.08.1-2.22.49-3.55,3.13-3.54q36.09.14,72.17.15Z"/><path class="cls-3" d="M532.22,164l.12,57.07c0,6.62-.07,13.24,0,19.86,0,2.43-.87,3.36-3.33,3.35-17-.07-34,0-51.08,0-1.7,0-3.34,0-2.6-2.52,5.5-18.95,12.28-37.33,23.92-53.54,8.1-11.28,18-20.22,31.67-24.19Z"/><path class="cls-3" d="M546.09,164c22,6.77,33.29,24.17,42.84,43.19,5.44,10.82,9.22,22.31,12.6,33.93.72,2.49,0,3.16-2.45,3.16q-25.55-.09-51.08,0c-2.17,0-3.32-.61-3.31-3q.12-38.61.14-77.24Z"/><path class="cls-3" d="M414.41,319.29c-11.24,0-22.48-.09-33.73.06-3.08,0-4-1-3.83-4a163.8,163.8,0,0,1,14-56.56,3.32,3.32,0,0,1,3.43-2.15q30.58,0,61.15,0c2.58,0,3,1.09,2.56,3.31q-2.68,14.72-4.09,29.61c-.83,8.57-1.25,17.17-1.52,25.76-.1,3.24-1.18,4.12-4.26,4.08C436.9,319.2,425.65,319.29,414.41,319.29Z"/><path class="cls-3" d="M414.56,331.65q16.71,0,33.42,0c4.21,0,4.19.07,4.35,4.16.69,17.95,2,35.84,5.4,53.51,1,5,.92,5-4,5-19.12,0-38.25-.07-57.37.07-3.29,0-5-.91-6.36-4.06a164.62,164.62,0,0,1-13.06-53.92c-.33-4.74-.17-4.76,4.52-4.77Z"/><path class="cls-3" d="M578.29,319.29c-10,0-19.95-.06-29.93,0-2.69,0-3.71-.85-3.69-3.62q.12-27.73,0-55.45c0-2.72.9-3.69,3.64-3.68q26.94.12,53.87,0c2.58,0,3.48,1.11,3.91,3.4,3.24,17.35,5.54,34.8,5.84,52.47.12,6.84.19,6.84-6.86,6.84Z"/><path class="cls-3" d="M578.56,331.65q15,0,29.93,0c3.76,0,3.86.35,3.71,4-.43,10.17-1,20.32-2.22,30.43-1,8.55-2.4,17-4,25.48-.38,2-1.34,2.83-3.41,2.82q-27.42-.08-54.82,0c-2.11,0-3-.8-3-3q0-28.37,0-56.71c0-2.72,1.46-3,3.62-3C558.39,331.68,568.48,331.65,578.56,331.65Z"/><path class="cls-3" d="M498.31,319.29c-10.09,0-20.17,0-30.25,0-2.35,0-3.44-.64-3.29-3.26.57-10.36,1-20.74,2.29-31.05,1-8.54,2.45-17,4-25.48.4-2.14,1.46-2.95,3.64-2.94q27.1.09,54.19,0c2.58,0,3.5.91,3.49,3.5q-.11,27.89,0,55.76c0,2.61-1,3.5-3.52,3.48C518.68,319.24,508.49,319.29,498.31,319.29Z"/><path class="cls-3" d="M498.51,331.65c10,0,20,.09,29.93,0,3-.05,4,1,4,4q-.15,27.4,0,54.82c0,3.06-1.06,4-4,3.95q-26.47-.15-52.94,0c-2.88,0-4-1-4.56-3.78a367.34,367.34,0,0,1-6.12-55.93c-.1-2.47,1-3.06,3.19-3.05C478.13,331.69,488.32,331.66,498.51,331.65Z"/><path class="cls-3" d="M499,482.32a92.47,92.47,0,0,1-16.52-4.85Q430.61,457.9,400.94,411c-.28-.44-.53-.91-.82-1.34-1.46-2.21-.64-2.93,1.75-2.93,18.92,0,37.84.06,56.76,0,2.51,0,3.2,1.33,3.71,3.34a207.19,207.19,0,0,0,13.2,37.06c5.69,12,12.51,23.32,21.78,33C497.74,480.5,498.06,481,499,482.32Z"/><path class="cls-3" d="M498.52,169.4c-2.07,2.38-4.18,4.66-6.14,7.08-11.05,13.65-18.48,29.25-24.33,45.68a181.93,181.93,0,0,0-5.66,18.69c-.58,2.42-1.64,3.46-4.29,3.45-18.61-.1-37.21,0-55.81-.06-3.38,0-3.67-.5-1.89-3.35a161.82,161.82,0,0,1,70.39-62.53,147.57,147.57,0,0,1,24.54-8.94C496.28,169.17,497.24,168.43,498.52,169.4Z"/><path class="cls-3" d="M578.44,168.72a89.87,89.87,0,0,1,16.06,4.75Q646.42,193,676.1,240c.45.71.88,1.44,1.27,2.18.69,1.3.25,2-1.2,2.06-.73,0-1.47.05-2.2.05-18.08,0-36.16-.07-54.24.06-3.05,0-4.41-.88-5.21-3.92-5.16-19.73-12.38-38.61-23.77-55.68a102.05,102.05,0,0,0-9.27-12C580.52,171.69,579.28,170.82,578.44,168.72Z"/><path class="cls-3" d="M578.47,481.65c2.1-2.42,4.2-4.7,6.15-7.1,11-13.66,18.51-29.24,24.36-45.67a187.94,187.94,0,0,0,5.74-19c.56-2.31,1.68-3.23,4.14-3.22,18.61.08,37.21,0,55.82.06,3.53,0,3.79.48,1.86,3.53-22.72,35.91-54.39,59.87-95.34,71.46a12.68,12.68,0,0,1-1.84.34C579.19,482.07,579,481.89,578.47,481.65Z"/><path class="cls-3" d="M532.34,446.91q0,18.13,0,36.25c0,3.73-.19,3.89-3.76,2.82-11.37-3.4-19.68-11-26.84-20-10.92-13.8-17.65-29.72-23.18-46.24-1-3.08-1.91-6.22-2.81-9.35-1-3.48-.9-3.66,2.57-3.67,16.81,0,33.63,0,50.44,0,2.77,0,3.65,1,3.63,3.69C532.28,422.54,532.34,434.73,532.34,446.91Z"/><path class="cls-3" d="M544.71,446.87c0-12.09.08-24.17-.06-36.25,0-3,1-4,4-4,16.71.11,33.41.06,50.12.05,2,0,3.68-.07,2.83,2.85-5.89,20.06-13.08,39.51-26.13,56.22-7.17,9.17-15.55,16.82-27.05,20.23-3.54,1.05-3.71.88-3.72-2.89Q544.7,465,544.71,446.87Z"/></g></svg>