<svg xmlns="http://www.w3.org/2000/svg" viewBox="0 0 1075 901"><defs><style>.cls-1{fill:none;stroke:#8c2133;stroke-miterlimit:10;stroke-width:20px;}.cls-2{fill:#8c2133;}</style></defs><title>ШЕСТЕРЕНКА</title><g id="Layer_9" data-name="Layer 9"><circle class="cls-1" cx="538" cy="451" r="391"/><path class="cls-2" d="M493.92,212h88a4.86,4.86,0,0,1,.56,1.89c2.76,16.28,5.57,32.54,8.28,48.83a3,3,0,0,0,2.42,2.71,197.18,197.18,0,0,1,36.12,15,4.07,4.07,0,0,0,4.88-.24Q653.74,266.5,673.46,253c4-2.74,3-2.78,6.24.51q28.69,29.11,57.35,58.27c2.08,2.11,2.09,2.12.34,4.54q-14.52,20-29,39.93c-.75,1-1.18,1.89-.42,3.22a163.57,163.57,0,0,1,15.55,37.35,2.76,2.76,0,0,0,2.6,2.25c16.48,2.7,32.95,5.52,49.43,8.2,1.94.32,2.5,1,2.5,2.95q-.07,41.68,0,83.36c0,.33,0,.67,0,1,.07,1.17-.52,1.65-1.64,1.81-5.33.78-10.66,1.6-16,2.4l-32.77,4.92c-1.53.22-2.68.6-3.17,2.41-3.48,12.79-8.86,24.82-15.1,36.47a3.7,3.7,0,0,0,.33,4.5c9.75,13.59,19.4,27.25,29.14,40.85,1.06,1.47,1,2.36-.28,3.68Q709,621,679.67,650.44c-1.33,1.34-2.23,1.52-3.83.36-13.59-9.75-27.26-19.38-40.85-29.13a3.67,3.67,0,0,0-4.48-.3,193.75,193.75,0,0,1-36.3,15,3.29,3.29,0,0,0-2.56,3.09c-2.65,16.09-5.37,32.16-8,48.26-.32,2-1,2.65-3,2.65q-41.79-.1-83.56,0c-1.94,0-2.64-.62-2.95-2.51-2.61-15.83-5.35-31.63-8-47.45a3.38,3.38,0,0,0-2.81-3.07A183.49,183.49,0,0,1,446,622.24a3.23,3.23,0,0,0-3.94.26c-13.65,9.78-27.37,19.46-41,29.26-1.63,1.17-2.56,1.09-4-.34q-29.18-29.32-58.52-58.52c-1.61-1.6-1.51-2.6-.28-4.3,9.71-13.54,19.3-27.16,29-40.69a3.48,3.48,0,0,0,.22-4.29,175.71,175.71,0,0,1-15.08-36.27,3.22,3.22,0,0,0-3-2.61c-6.7-1.05-13.39-2.24-20.09-3.34q-15.66-2.58-31.33-5.11V407.92c3.27-1,6.67-1.2,10-1.7q20.83-3.12,41.67-6.11a2.92,2.92,0,0,0,2.72-2.41,181.16,181.16,0,0,1,15-37.16c1-2,.85-3.24-.43-5-9.71-13.2-19.29-26.5-29-39.71-1.11-1.52-1-2.38.34-3.66q29.83-29.24,59.55-58.6c1.57-1.55,2.59-1.59,4.34-.34,13.3,9.47,26.67,18.83,40,28.27a2.86,2.86,0,0,0,3.44.32A179.14,179.14,0,0,1,483,266.29a2.43,2.43,0,0,0,2-2.17q3.36-20.38,6.8-40.76C492.46,219.56,492.77,215.7,493.92,212ZM538.1,360.31c-47.68-.52-91.64,38.29-91.88,91.16-.24,52.15,40.79,91.21,89.69,92.19,51.44,1,93.54-39.26,93.69-91.4C629.76,399.05,585.75,360,538.1,360.31Z"/></g></svg>