<svg xmlns="http://www.w3.org/2000/svg" viewBox="0 0 1075 901"><defs><style>.cls-1{fill:#fff;}.cls-2{fill:none;stroke:#8c2133;stroke-miterlimit:10;stroke-width:20px;}.cls-3{fill:#8c2133;}</style></defs><title>lightnin</title><g id="КРУГИ"><circle class="cls-1" cx="543" cy="455" r="391"/></g><g id="Layer_9" data-name="Layer 9"><circle class="cls-2" cx="538" cy="451" r="391"/><path class="cls-3" d="M500.05,377.44c14.91,0,29.82-.2,44.73.06,15.78.28,19.72,6.75,11.9,20.47-23.49,41.2-47.33,82.2-71,123.27q-33.87,58.66-67.79,117.32c-3.75,6.46-7.08,15.55-17,11.09-8.93-4-5.2-12.33-3.4-19.13,13.29-50.19,26.4-100.42,40.34-150.42,3.26-11.69,1.07-15.08-11.16-14.79-28.9.68-57.82.35-86.74.16-18.33-.13-22.23-6.83-13.24-22.42Q395.31,323.9,464.11,204.81a88.54,88.54,0,0,1,5.06-8c2.83-3.87,6.38-6.64,11.52-4.69,4.95,1.87,6.65,6,6.11,10.89a80.71,80.71,0,0,1-2.42,11.9c-13.13,49.29-25.88,98.69-39.79,147.76-3.73,13.17,0,15.66,12.11,15C471.11,376.79,485.6,377.42,500.05,377.44Z"/><path class="cls-3" d="M610.43,668.89c-30.69,0-61.37.1-92,0-17.14-.08-18.73-2.66-19.78-19.61-3.79-61.47,40.65-110.5,97.46-118.69s117.17,36.5,124,93.75c1.06,8.93,1.69,17.94,2,26.94.44,12.34-5.6,17.9-18.2,17.76C672.7,668.64,641.56,668.88,610.43,668.89Z"/><path class="cls-3" d="M671,456c-.44,32.38-28.69,60.21-61.15,60.25-33,0-61.81-29.21-60.88-61.8,1-33.63,29.38-61.08,62.44-60.31C643.62,394.86,671.39,423.69,671,456Z"/></g></svg>