<svg id="Layer_1" data-name="Layer 1" xmlns="http://www.w3.org/2000/svg" viewBox="0 0 21.19 21.2"><defs><style>.cls-1,.cls-2{fill:#8c2133;}.cls-2{fill-rule:evenodd;}</style></defs><title>mainmenu_exchange</title><path class="cls-1" d="M4.84,15.48H6.53v.38H5.3v.53h.61a1.25,1.25,0,0,1,.42.06.61.61,0,0,1,.28.23.69.69,0,0,1-.27,1,1.23,1.23,0,0,1-.43.06H4.84Zm.46,1.89h.44l.3,0a.31.31,0,0,0,.15-.1.28.28,0,0,0,.06-.18.24.24,0,0,0-.11-.23.71.71,0,0,0-.38-.07H5.3Z"/><path class="cls-1" d="M7.11,15.48h.43V17l.92-1.51h.45v2.27H8.48V16.27l-.91,1.48H7.11Z"/><path class="cls-1" d="M9.38,17.75V15.48h.73a3.12,3.12,0,0,1,.55,0,.57.57,0,0,1,.32.23.68.68,0,0,1,.13.44.75.75,0,0,1-.07.35.69.69,0,0,1-.19.22.64.64,0,0,1-.24.11,2.88,2.88,0,0,1-.48,0H9.84v.86Zm.46-1.89v.65h.25a1.25,1.25,0,0,0,.36,0,.26.26,0,0,0,.14-.11.33.33,0,0,0,0-.38.32.32,0,0,0-.18-.1l-.33,0Z"/><path class="cls-1" d="M12.87,15.48v1a.2.2,0,0,0,.17-.08,1.59,1.59,0,0,0,.17-.35,1.09,1.09,0,0,1,.27-.45.93.93,0,0,1,.47-.09H14v.34H14a.35.35,0,0,0-.2,0,.21.21,0,0,0-.11.1l-.12.29a.53.53,0,0,1-.09.2.52.52,0,0,1-.17.15.45.45,0,0,1,.25.18,1.76,1.76,0,0,1,.22.36l.31.63H13.5l-.27-.59s0,0,0-.05l-.06-.1A1,1,0,0,0,13,16.8a.24.24,0,0,0-.14-.05v1h-.45v-1a.21.21,0,0,0-.13.05.57.57,0,0,0-.14.21l-.06.1,0,.05-.27.59h-.54l.31-.63a2.59,2.59,0,0,1,.22-.36.45.45,0,0,1,.25-.18.52.52,0,0,1-.17-.15,1.29,1.29,0,0,1-.09-.2,1.39,1.39,0,0,0-.12-.28.22.22,0,0,0-.1-.11.43.43,0,0,0-.22,0h-.05v-.34h.06a.9.9,0,0,1,.47.09,1,1,0,0,1,.28.45,1.73,1.73,0,0,0,.16.35.21.21,0,0,0,.17.08v-1Z"/><path class="cls-1" d="M16.35,17.75h-.5l-.19-.52h-.91l-.19.52h-.48L15,15.48h.49Zm-.84-.9L15.2,16l-.31.84Z"/><path class="cls-2" d="M6.53,5.61A1.32,1.32,0,0,1,7.84,4.29h5.28a1.32,1.32,0,0,1,1.32,1.32v5.28a1.32,1.32,0,0,1-1.32,1.32H7.84a1.32,1.32,0,0,1-1.31-1.32Zm5.12,5.25c-.08,0-.1-.06-.1-.14v-.61s0,0,0,0H9.11a.71.71,0,0,1-.69-.44.7.7,0,0,1,.05-.7s0,0,0,0A.69.69,0,0,0,9,9.26h2.49s0,0,0,0V8.61a.15.15,0,0,1,.07-.13.14.14,0,0,1,.14,0l1.2.85.09.06.2.14a.27.27,0,0,1,.07.08V9.7a.27.27,0,0,1-.07.08l-1.38,1,0,0-.12.08Zm-2.37-5a.14.14,0,0,0-.1-.15H9.12A1.1,1.1,0,0,0,9,5.77l-.05,0-1.35,1a.27.27,0,0,0-.07.08v.07A.2.2,0,0,0,7.59,7l1,.74L9.07,8a.14.14,0,0,0,.11,0,.12.12,0,0,0,.1-.13V7.32s0,0,0,0h2.51a.65.65,0,0,1,.49.32s0,0,0,0a.76.76,0,0,0,.1-.55.73.73,0,0,0-.74-.6H9.32s0,0,0,0v-.6Z"/></svg>