<?xml version="1.0" encoding="utf-8"?>
<!-- Generator: Adobe Illustrator 24.0.3, SVG Export Plug-In . SVG Version: 6.00 Build 0)  -->
<svg version="1.1" id="Layer_1" xmlns="http://www.w3.org/2000/svg" xmlns:xlink="http://www.w3.org/1999/xlink" x="0px" y="0px"
	 viewBox="0 0 21.2 21.2" style="enable-background:new 0 0 21.2 21.2;" xml:space="preserve">
<style type="text/css">
	.st0{fill:#8C2133;}
	.st1{font-family:'Arial-BoldMT';}
	.st2{font-size:3.1648px;}
	.st3{fill-rule:evenodd;clip-rule:evenodd;fill:#8C2133;}
</style>
<text transform="matrix(1 0 0 1 6.321 17.7493)" class="st0 st1 st2">ЛИГИ</text>
<title>mainmenu_contacts</title>
<path class="st3" d="M8,4.3c-0.7,0-1.3,0.6-1.3,1.3v5.3c0,0.7,0.6,1.3,1.3,1.3h5.3c0.7,0,1.3-0.6,1.3-1.3V5.6c0-0.7-0.6-1.3-1.3-1.3
	H8z M12.4,5.8H8.9l0,0.6c0,0,0,0,0,0c0,0,0,0,0,0H7.9c0,0,0,0,0,0c0,0,0,0,0,0c0,0,0,0,0,0c0,0.1,0,0.2,0,0.2c0,0.2,0,0.3,0,0.5
	C7.9,7.6,8,7.8,8.2,8C8.4,8.2,8.7,8.3,9,8.3c0.1,0,0.1,0,0.2,0c0,0,0,0,0,0c0.2,0.3,0.6,0.6,1,0.7l0,0c0.1,0,0.1,0,0.1,0.1V10
	c0,0,0,0,0,0c0,0-0.1,0-0.1,0c-0.1,0-0.1,0-0.2,0c-0.3,0-0.6,0.3-0.7,0.6c0,0,0,0,0,0.1c0,0,0,0,0,0h0H12c0.1,0,0.1,0,0.1-0.1
	c0-0.1-0.1-0.3-0.2-0.4c-0.1-0.1-0.2-0.2-0.4-0.2c-0.1,0-0.1,0-0.2,0H11c0,0,0,0,0,0c0-0.3,0-0.7,0-1c0,0,0,0,0-0.1
	c0.3-0.1,0.5-0.2,0.8-0.4C11.9,8.5,12,8.4,12,8.3c0,0,0,0,0.1,0c0.1,0,0.3,0,0.4,0c0.1,0,0.3-0.1,0.4-0.1C13,8,13.1,7.9,13.2,7.8
	c0.1-0.1,0.1-0.2,0.2-0.4c0,0,0,0,0-0.1c0,0,0,0,0,0V6.5h-1c0,0,0,0,0,0L12.4,5.8z M8.3,6.9h0.3h0c0,0,0.1,0,0.1,0
	c0.1,0,0.1,0,0.2,0c0,0,0,0,0,0c0,0,0,0.1,0,0.1c0,0.1,0,0.2,0,0.2c0,0.2,0,0.3,0.1,0.5c0,0,0,0,0,0c-0.3,0-0.7-0.2-0.7-0.6
	c0-0.1,0-0.2,0-0.2C8.3,7,8.3,7,8.3,6.9C8.3,6.9,8.3,6.9,8.3,6.9z M12.4,6.9h0.3h0c0,0,0,0,0.1,0c0.1,0,0.1,0,0.2,0c0,0,0,0,0,0
	C13,7,13,7,13,7.1c0,0,0,0.1,0,0.1c0,0.3-0.2,0.5-0.5,0.6c-0.1,0-0.1,0-0.2,0c0,0,0,0,0,0c0.1-0.1,0.1-0.3,0.1-0.5c0,0,0-0.1,0-0.1
	c0-0.1,0-0.1,0-0.2C12.4,7,12.4,7,12.4,6.9C12.4,6.9,12.4,6.9,12.4,6.9z"/>
</svg>
