<svg width="59" height="52" viewBox="0 0 59 52" fill="none" xmlns="http://www.w3.org/2000/svg">
<path d="M2.87695 51V43.8633H0.328125V42.4102H7.1543V43.8633H4.61133V51H2.87695Z" fill="white"/>
<path d="M7.40625 42.4102H9.3457L11.3496 46.8691L13.0605 42.4102H14.8711L11.9707 48.9375C11.6543 49.6445 11.332 50.1836 11.0039 50.5547C10.6758 50.9219 10.252 51.1055 9.73242 51.1055C9.2207 51.1055 8.82031 51.0723 8.53125 51.0059V49.7168C8.77734 49.7324 9 49.7402 9.19922 49.7402C9.60156 49.7402 9.88867 49.668 10.0605 49.5234C10.2363 49.375 10.4043 49.0586 10.5645 48.5742L7.40625 42.4102Z" fill="white"/>
<path d="M15.7441 51V42.4102H18.5273C19.582 42.4102 20.2695 42.4531 20.5898 42.5391C21.082 42.668 21.4941 42.9492 21.8262 43.3828C22.1582 43.8125 22.3242 44.3691 22.3242 45.0527C22.3242 45.5801 22.2285 46.0234 22.0371 46.3828C21.8457 46.7422 21.6016 47.0254 21.3047 47.2324C21.0117 47.4355 20.7129 47.5703 20.4082 47.6367C19.9941 47.7188 19.3945 47.7598 18.6094 47.7598H17.4785V51H15.7441ZM17.4785 43.8633V46.3008H18.4277C19.1113 46.3008 19.5684 46.2559 19.7988 46.166C20.0293 46.0762 20.209 45.9355 20.3379 45.7441C20.4707 45.5527 20.5371 45.3301 20.5371 45.0762C20.5371 44.7637 20.4453 44.5059 20.2617 44.3027C20.0781 44.0996 19.8457 43.9727 19.5645 43.9219C19.3574 43.8828 18.9414 43.8633 18.3164 43.8633H17.4785Z" fill="white"/>
<path d="M23.7539 51V42.4102H25.4883V45.791H28.8867V42.4102H30.6211V51H28.8867V47.2441H25.4883V51H23.7539Z" fill="white"/>
<path d="M32.4434 42.4102H34.0664V48.1289L37.5469 42.4102H39.2754V51H37.6523V45.3926L34.1777 51H32.4434V42.4102Z" fill="white"/>
<path d="M41.0449 51V42.4102H43.8281C44.8828 42.4102 45.5703 42.4531 45.8906 42.5391C46.3828 42.668 46.7949 42.9492 47.127 43.3828C47.459 43.8125 47.625 44.3691 47.625 45.0527C47.625 45.5801 47.5293 46.0234 47.3379 46.3828C47.1465 46.7422 46.9023 47.0254 46.6055 47.2324C46.3125 47.4355 46.0137 47.5703 45.709 47.6367C45.2949 47.7188 44.6953 47.7598 43.9102 47.7598H42.7793V51H41.0449ZM42.7793 43.8633V46.3008H43.7285C44.4121 46.3008 44.8691 46.2559 45.0996 46.166C45.3301 46.0762 45.5098 45.9355 45.6387 45.7441C45.7715 45.5527 45.8379 45.3301 45.8379 45.0762C45.8379 44.7637 45.7461 44.5059 45.5625 44.3027C45.3789 44.0996 45.1465 43.9727 44.8652 43.9219C44.6582 43.8828 44.2422 43.8633 43.6172 43.8633H42.7793Z" fill="white"/>
<path d="M49.0957 42.4102H50.8301V45.8438H53.1504C53.7598 45.8438 54.2832 45.9277 54.7207 46.0957C55.1621 46.2598 55.5293 46.5566 55.8223 46.9863C56.1152 47.4121 56.2617 47.9023 56.2617 48.457C56.2617 49.0391 56.1094 49.541 55.8047 49.9629C55.5 50.3809 55.1602 50.6582 54.7852 50.7949C54.4141 50.9316 53.8691 51 53.1504 51H49.0957V42.4102ZM50.8301 49.5586H52.5234C53.0625 49.5586 53.4375 49.5332 53.6484 49.4824C53.8633 49.4277 54.0527 49.3066 54.2168 49.1191C54.3848 48.9316 54.4688 48.7031 54.4688 48.4336C54.4688 48.0508 54.332 47.7637 54.0586 47.5723C53.7891 47.3809 53.3008 47.2852 52.5938 47.2852H50.8301V49.5586ZM57.2637 42.4102H58.998V51H57.2637V42.4102Z" fill="white"/>
<path fill-rule="evenodd" clip-rule="evenodd" d="M20 0C17.2386 0 15 2.23858 15 5V25C15 27.7614 17.2386 30 20 30H40C42.7614 30 45 27.7614 45 25V5C45 2.23858 42.7614 0 40 0H20ZM36.581 5.90634H23.4328L23.4348 8.31698C23.4346 8.41887 23.4345 8.46947 23.4092 8.4946C23.3842 8.51939 23.3346 8.51939 23.2361 8.51939H19.7454C19.7323 8.51939 19.7194 8.51966 19.7064 8.51993C19.6805 8.52047 19.6546 8.52101 19.6276 8.51939C19.5361 8.51413 19.5062 8.5538 19.5062 8.6465C19.5073 8.95197 19.5052 9.25753 19.5032 9.56309C19.4993 10.1605 19.4954 10.758 19.5147 11.3547C19.5483 12.3797 19.9571 13.2585 20.691 13.9738C21.5375 14.7992 22.5641 15.1603 23.7409 15.0955C24.0004 15.0796 24.2573 15.034 24.5064 14.9595C24.5898 14.9348 24.6391 14.9457 24.6946 15.0202C25.6289 16.282 26.8526 17.1204 28.3731 17.5216L28.4039 17.5309C28.6791 17.6009 28.6791 17.6009 28.6791 17.881V21.4563C28.6791 21.6364 28.6787 21.6364 28.5031 21.6364C28.3746 21.6364 28.2461 21.6362 28.1176 21.636C27.8606 21.6355 27.6034 21.6351 27.3465 21.6364C26.0519 21.6437 24.9334 22.6416 24.7715 23.9261C24.7601 24.0144 24.7538 24.1033 24.7525 24.1924C24.7517 24.2548 24.7768 24.2835 24.8407 24.2835H24.98H35.0339C35.28 24.2835 35.28 24.2835 35.2573 24.0317C35.2068 23.4931 34.9921 22.9831 34.6424 22.5704C34.2927 22.1578 33.8247 21.8624 33.3017 21.7243C33.0843 21.6663 32.8603 21.6369 32.6354 21.6369H31.4897C31.3404 21.6369 31.3351 21.6316 31.3351 21.4786C31.3367 20.2372 31.3359 18.9957 31.3327 17.7543C31.3323 17.6398 31.3655 17.5859 31.4845 17.5588C32.5446 17.3191 33.5271 16.8159 34.3412 16.0958C34.7025 15.7817 35.0264 15.427 35.3067 15.0389C35.365 14.9579 35.4152 14.9348 35.5172 14.9627C36.0392 15.1063 36.5851 15.141 37.1211 15.0647C37.6571 14.9884 38.1716 14.8027 38.6328 14.5192C39.094 14.2357 39.4919 13.8603 39.8019 13.4165C40.1119 12.9726 40.3273 12.4698 40.4348 11.9392C40.4536 11.8487 40.4672 11.7573 40.4807 11.6658C40.487 11.6235 40.4932 11.5811 40.5 11.5389V8.51979H36.7672C36.5835 8.51979 36.5835 8.51939 36.5835 8.3352L36.581 5.90634ZM21.1995 9.85445H22.2589H22.2593C22.3601 9.85445 22.4609 9.85469 22.5618 9.85493C22.8068 9.85552 23.052 9.85611 23.2972 9.85324C23.4008 9.85162 23.4348 9.88805 23.4348 9.98925C23.4358 10.1433 23.4353 10.2974 23.4349 10.4514C23.434 10.7643 23.4332 11.0772 23.4437 11.3903C23.4654 12.0537 23.5882 12.7099 23.8081 13.3362C23.8607 13.4864 23.8603 13.4868 23.7065 13.5054C22.4216 13.6621 21.2242 12.7023 21.1027 11.4069C21.0738 11.1023 21.0782 10.7963 21.0826 10.4897C21.0852 10.311 21.0877 10.1321 21.0837 9.95323C21.0821 9.86781 21.129 9.85445 21.1995 9.85445ZM36.7426 9.85445H37.7586H37.759C37.8454 9.85445 37.9319 9.85465 38.0183 9.85486C38.2778 9.85546 38.5377 9.85607 38.7982 9.85121C38.9022 9.8496 38.933 9.88481 38.933 9.98723C38.9303 10.2101 38.9307 10.433 38.931 10.6558C38.9313 10.843 38.9316 11.0302 38.9301 11.2174C38.9208 12.2983 38.0845 13.286 37.0182 13.4775C36.7692 13.5245 36.5144 13.5325 36.2629 13.5014C36.1758 13.4901 36.1633 13.4577 36.1908 13.382C36.3903 12.8319 36.5147 12.2574 36.5608 11.6741C36.5762 11.4854 36.5835 11.2964 36.5835 11.1073C36.5851 10.8659 36.5845 10.6235 36.584 10.3809C36.5837 10.2594 36.5835 10.1379 36.5835 10.0164C36.5839 9.85445 36.5851 9.85445 36.7426 9.85445Z" fill="white"/>
</svg>
