<svg id="Layer_1" data-name="Layer 1" xmlns="http://www.w3.org/2000/svg" viewBox="0 0 21.19 21.2"><defs><style>.cls-1,.cls-2{fill:#8c2133;}.cls-1{fill-rule:evenodd;}</style></defs><title>mainmenu_dp</title><path class="cls-1" d="M7.92,4.29A1.32,1.32,0,0,0,6.6,5.61v5.28a1.32,1.32,0,0,0,1.32,1.32H13.2a1.32,1.32,0,0,0,1.32-1.32V5.61A1.32,1.32,0,0,0,13.2,4.29Zm3.54,2.57a2.58,2.58,0,0,0-.94-.17,2.52,2.52,0,0,0-.93.17L10.52,6Zm1.39.79a.91.91,0,0,0-.64-.21H11.05V8.2h.56V7.91h.51a.45.45,0,0,1,.3.09.35.35,0,0,1,.11.3.35.35,0,0,1-.11.3.4.4,0,0,1-.3.1H11.05v1.43h.56v-1h.57A1.06,1.06,0,0,0,12.86,9a.88.88,0,0,0,.23-.68A.8.8,0,0,0,12.85,7.65Zm-2.58.19a1.06,1.06,0,0,1,.2.43,2.3,2.3,0,0,1,0,.45,1.73,1.73,0,0,1-.22.91,1,1,0,0,1-.92.5H8.19V9.66H9.28a.58.58,0,0,0,.57-.39,1.29,1.29,0,0,0,.09-.51,1.29,1.29,0,0,0-.13-.63.57.57,0,0,0-.53-.22H8.75V9.16H8.19V7.44H9.38a1.25,1.25,0,0,1,.42.06A.9.9,0,0,1,10.27,7.84Z"/><path class="cls-2" d="M.5,15.48h.83a1.6,1.6,0,0,1,.43,0,.7.7,0,0,1,.34.21.91.91,0,0,1,.22.37,1.6,1.6,0,0,1,.08.53,1.75,1.75,0,0,1-.07.49,1.09,1.09,0,0,1-.25.4,1,1,0,0,1-.32.18,1.4,1.4,0,0,1-.4.05H.5Zm.45.38v1.5h.34a1,1,0,0,0,.28,0,.48.48,0,0,0,.19-.09A.51.51,0,0,0,1.88,17a1.56,1.56,0,0,0,0-.42,1.4,1.4,0,0,0,0-.4A.58.58,0,0,0,1.75,16a.51.51,0,0,0-.22-.11,2.51,2.51,0,0,0-.37,0Z"/><path class="cls-2" d="M2.79,17.75V15.48h1a1.7,1.7,0,0,1,.53.06.5.5,0,0,1,.26.22.61.61,0,0,1,.1.36.6.6,0,0,1-.15.42.73.73,0,0,1-.45.21,1,1,0,0,1,.25.19,2.65,2.65,0,0,1,.26.36l.27.45H4.28L4,17.25a3.22,3.22,0,0,0-.25-.33.22.22,0,0,0-.13-.09.67.67,0,0,0-.23,0h-.1v.95Zm.45-1.31h.34a1.58,1.58,0,0,0,.41,0,.22.22,0,0,0,.13-.1.29.29,0,0,0,0-.17A.28.28,0,0,0,4.11,16a.26.26,0,0,0-.18-.09H3.24Z"/><path class="cls-2" d="M7.12,17.75h-.5l-.2-.52H5.51l-.18.52H4.84l.88-2.27h.49Zm-.85-.9L6,16l-.3.84Z"/><path class="cls-2" d="M7.36,17.75V15.48H8.92v.38H7.82v.54h.95v.38H7.82v1Z"/><path class="cls-2" d="M9.81,17.75V15.86H9.13v-.38h1.8v.38h-.67v1.89Z"/><path class="cls-2" d="M11.11,17l.45,0a.57.57,0,0,0,.16.32.5.5,0,0,0,.33.11.55.55,0,0,0,.34-.09.31.31,0,0,0,.11-.22.22.22,0,0,0-.05-.14.34.34,0,0,0-.16-.1l-.37-.1a1.28,1.28,0,0,1-.52-.22.63.63,0,0,1-.2-.46.62.62,0,0,1,.09-.32.61.61,0,0,1,.29-.23,1.15,1.15,0,0,1,.44-.08.91.91,0,0,1,.64.19.64.64,0,0,1,.23.5l-.46,0a.39.39,0,0,0-.12-.25.48.48,0,0,0-.29-.08.54.54,0,0,0-.31.08.17.17,0,0,0-.08.14.19.19,0,0,0,.07.14,1.16,1.16,0,0,0,.42.15,2,2,0,0,1,.5.17.61.61,0,0,1,.25.23.64.64,0,0,1,.09.36.66.66,0,0,1-.11.36.64.64,0,0,1-.31.25,1.16,1.16,0,0,1-.49.09,1,1,0,0,1-.66-.2A.89.89,0,0,1,11.11,17Z"/><path class="cls-2" d="M14.22,17.75V15.48H15a2.91,2.91,0,0,1,.54,0,.63.63,0,0,1,.33.23.74.74,0,0,1,.13.44.75.75,0,0,1-.08.35.59.59,0,0,1-.19.22.64.64,0,0,1-.24.11,2.74,2.74,0,0,1-.47,0h-.3v.86Zm.46-1.89v.65h.25a1.25,1.25,0,0,0,.36,0,.26.26,0,0,0,.14-.11.29.29,0,0,0,0-.38.29.29,0,0,0-.18-.1,2,2,0,0,0-.33,0Z"/><path class="cls-2" d="M16.34,17.75V15.48h1a1.7,1.7,0,0,1,.53.06.5.5,0,0,1,.26.22.61.61,0,0,1,.1.36.6.6,0,0,1-.15.42.73.73,0,0,1-.45.21.78.78,0,0,1,.24.19,1.92,1.92,0,0,1,.27.36l.27.45h-.54l-.34-.5a2.37,2.37,0,0,0-.24-.33.26.26,0,0,0-.13-.09.67.67,0,0,0-.23,0h-.1v.95Zm.45-1.31h.34a1.58,1.58,0,0,0,.41,0,.22.22,0,0,0,.13-.1.29.29,0,0,0,0-.17.28.28,0,0,0-.06-.18.26.26,0,0,0-.18-.09h-.69Z"/><path class="cls-2" d="M18.53,16.63a1.4,1.4,0,0,1,.1-.58,1.11,1.11,0,0,1,.21-.32,1,1,0,0,1,.3-.2,1.21,1.21,0,0,1,.48-.09,1.06,1.06,0,0,1,.81.31,1.4,1.4,0,0,1,0,1.73,1.09,1.09,0,0,1-.8.3,1.07,1.07,0,0,1-.8-.3A1.18,1.18,0,0,1,18.53,16.63Zm.47,0a.87.87,0,0,0,.18.59.63.63,0,0,0,.9,0,.9.9,0,0,0,.17-.59.85.85,0,0,0-.17-.59.59.59,0,0,0-.45-.19.6.6,0,0,0-.46.2A.87.87,0,0,0,19,16.61Z"/></svg>