<svg id="Layer_1" data-name="Layer 1" xmlns="http://www.w3.org/2000/svg" viewBox="0 0 21.19 21.2"><defs><style>.cls-1,.cls-2{fill:#8c2133;}.cls-2{fill-rule:evenodd;}</style></defs><title>mainmenu_contacts</title><path class="cls-1" d="M2,15.48h.46v1a.34.34,0,0,0,.21-.08A2,2,0,0,0,2.79,16a1,1,0,0,1,.29-.45.88.88,0,0,1,.46-.09H3.6v.33H3.54a.39.39,0,0,0-.21,0,.24.24,0,0,0-.1.1,1.78,1.78,0,0,0-.12.3,1.72,1.72,0,0,1-.09.19.52.52,0,0,1-.17.15.53.53,0,0,1,.25.17,3.57,3.57,0,0,1,.22.38l.31.62H3.09l-.27-.59,0-.05L2.73,17a.57.57,0,0,0-.14-.21.34.34,0,0,0-.17-.05v1H2Z"/><path class="cls-1" d="M3.79,16.63a1.39,1.39,0,0,1,.11-.58,1,1,0,0,1,.21-.31.83.83,0,0,1,.29-.21,1.22,1.22,0,0,1,.49-.09,1.09,1.09,0,0,1,.8.31,1.4,1.4,0,0,1,0,1.73,1.08,1.08,0,0,1-.8.31,1.09,1.09,0,0,1-.8-.31A1.18,1.18,0,0,1,3.79,16.63Zm.47,0a.87.87,0,0,0,.18.59.63.63,0,0,0,.9,0,1.07,1.07,0,0,0,0-1.17.6.6,0,0,0-.46-.2.56.56,0,0,0-.45.2A.82.82,0,0,0,4.26,16.61Z"/><path class="cls-1" d="M6.35,17.75V15.48h.46v.89H7.7v-.89h.46v2.27H7.7v-1H6.81v1Z"/><path class="cls-1" d="M9.15,17.75V15.86H8.47v-.38h1.8v.38H9.6v1.89Z"/><path class="cls-1" d="M12.41,17.75h-.49l-.2-.52h-.91l-.18.52h-.49L11,15.48h.49Zm-.84-.9L11.26,16l-.31.84Z"/><path class="cls-1" d="M12.67,15.48h.45v1a.32.32,0,0,0,.21-.08A1.74,1.74,0,0,0,13.5,16a1,1,0,0,1,.28-.45.91.91,0,0,1,.46-.09h.07v.33h-.07a.35.35,0,0,0-.2,0,.27.27,0,0,0-.11.1l-.12.3a.56.56,0,0,1-.09.19.52.52,0,0,1-.17.15.49.49,0,0,1,.25.17,2.41,2.41,0,0,1,.22.38l.31.62h-.54l-.27-.59,0-.05s0,0-.06-.1a.7.7,0,0,0-.15-.21.31.31,0,0,0-.17-.05v1h-.45Z"/><path class="cls-1" d="M15.18,17.75V15.86h-.67v-.38h1.8v.38h-.67v1.89Z"/><path class="cls-1" d="M16.62,15.48h.46v.91h.61a1.22,1.22,0,0,1,.41.06.67.67,0,0,1,.29.24.69.69,0,0,1,0,.78.55.55,0,0,1-.27.22,1.19,1.19,0,0,1-.43.06H16.62Zm.46,1.89h.44l.3,0a.31.31,0,0,0,.15-.1.29.29,0,0,0,.07-.18.27.27,0,0,0-.11-.23.73.73,0,0,0-.39-.07h-.46Zm1.69-1.89h.46v2.27h-.46Z"/><path class="cls-2" d="M6.64,5.61A1.32,1.32,0,0,1,8,4.29h5.28a1.32,1.32,0,0,1,1.32,1.32v5.28a1.32,1.32,0,0,1-1.32,1.32H8a1.32,1.32,0,0,1-1.32-1.32ZM10,10.82h0V9.06h0A.43.43,0,0,1,9.74,9a.32.32,0,0,1-.1-.18V7.46a.46.46,0,0,1,0-.2.33.33,0,0,1,.21-.13l.11,0h1.4a.32.32,0,0,1,.23.08.33.33,0,0,1,.11.19s0,.06,0,.09V8.71a.41.41,0,0,1,0,.19A.31.31,0,0,1,11.5,9l-.08,0h0v1.74Zm-1.41,0H9.64V9.43s0,0,0,0l-.1,0a.32.32,0,0,1-.23-.34V7.23l0-.1s0,0,0,0H8.6l-.11,0a.33.33,0,0,0-.21.13.36.36,0,0,0-.06.2V8.71s0,0,0,.07a.32.32,0,0,0,.1.18.37.37,0,0,0,.23.1h0v0h0V10.8Zm3.18,0h0V9.41h0A.36.36,0,0,0,12,9.3a.31.31,0,0,0,.09-.18V7.32a.43.43,0,0,0,0-.19s0,0,0,0h.74a.31.31,0,0,1,.25.11.42.42,0,0,1,.09.19v0h0V8.78a.29.29,0,0,1-.1.18.37.37,0,0,1-.23.1h0v0h0v1.74ZM10.49,6.9a.52.52,0,0,0,.21,0,.65.65,0,0,0,.2,0,.61.61,0,0,0,.29-.29.45.45,0,0,0,0-.2.53.53,0,0,0-.53-.53.76.76,0,0,0-.21,0,.61.61,0,0,0-.29.29.52.52,0,0,0,0,.21.45.45,0,0,0,0,.2.43.43,0,0,0,.12.17A.66.66,0,0,0,10.49,6.9Zm1.62-1a.52.52,0,0,1,.21,0,.45.45,0,0,1,.17.11.66.66,0,0,1,.12.17.52.52,0,0,1,0,.21.45.45,0,0,1,0,.2.57.57,0,0,1-.12.18.62.62,0,0,1-.17.11.54.54,0,0,1-.74-.49.45.45,0,0,1,0-.2A.57.57,0,0,1,11.74,6a.34.34,0,0,1,.17-.11A.45.45,0,0,1,12.11,5.88Zm-2.62,0a.48.48,0,0,0-.2,0h0A.52.52,0,0,0,8.91,6a.54.54,0,0,0-.15.38.51.51,0,0,0,.15.37.55.55,0,0,0,.38.16.53.53,0,0,0,.53-.53.65.65,0,0,0,0-.2A.57.57,0,0,0,9.66,6,.45.45,0,0,0,9.49,5.92Z"/></svg>