<svg width="22" height="22" viewBox="0 0 22 22" fill="none" xmlns="http://www.w3.org/2000/svg">
<circle cx="11" cy="11" r="11" fill="white"/>
<path fill-rule="evenodd" clip-rule="evenodd" d="M11 0.548628C5.22787 0.548628 0.548628 5.22787 0.548628 11C0.548628 16.7721 5.22787 21.4514 11 21.4514C16.7721 21.4514 21.4514 16.7721 21.4514 11C21.4514 5.22787 16.7721 0.548628 11 0.548628ZM0 11C0 4.92487 4.92487 0 11 0C17.0751 0 22 4.92487 22 11C22 17.0751 17.0751 22 11 22C4.92487 22 0 17.0751 0 11Z" fill="#17191A"/>
<path d="M4.04178 9.52571C4.06863 9.45702 4.11041 9.39729 4.15218 9.34054C4.51025 9.02099 4.6684 8.88361 4.74598 8.81492C4.76986 8.79402 4.82058 8.74922 4.87728 8.69845C4.99067 8.59989 5.00857 8.58197 5.04736 8.54614C5.14285 8.46252 5.21148 8.40577 5.2443 8.37591C5.47406 8.1788 5.63818 8.02051 5.88585 7.80549C5.9873 7.71888 6.13351 7.59345 6.31852 7.4501C6.32449 7.44711 6.33045 7.44114 6.33344 7.43815C6.414 7.37245 6.49159 7.30973 6.57215 7.24403C6.7482 7.10665 6.93321 6.97823 7.12418 6.86176C7.19579 6.83189 7.26443 6.79904 7.33604 6.76918C7.50314 6.71542 7.67322 6.6975 7.84629 6.70347C7.86718 6.70347 7.88807 6.70646 7.90896 6.70646C8.12678 6.74528 8.33864 6.81397 8.53558 6.91551C8.53857 6.9185 8.5505 6.9185 8.56244 6.9185C8.56244 6.9185 8.59824 6.9185 8.63405 6.89759C8.69671 6.85877 9.016 6.42573 9.11745 6.31822C9.26665 6.15993 9.47552 6.13305 9.77988 6.11215C13.5963 5.84038 16.6041 6.14799 16.6041 6.14799C16.7593 6.18084 16.998 6.25251 17.2367 6.4317C17.6127 6.71542 17.75 7.08574 17.7917 7.20819C17.8246 7.29778 17.8425 7.37842 17.8544 7.43516C17.8544 7.44412 17.8574 7.45607 17.8574 7.46503C17.8872 7.72485 17.8723 7.98468 17.8723 8.2445C17.8753 9.35249 17.8723 10.4605 17.8723 11.5685C17.8723 11.5894 17.8693 11.6103 17.8693 11.6312C17.8455 11.7566 17.8216 11.882 17.7798 12.0045C17.7768 12.0105 17.7768 12.0194 17.7738 12.0254C17.7261 12.121 17.6843 12.2195 17.6246 12.3121C17.4486 12.5898 17.2039 12.7899 16.9115 12.9273C16.8637 12.9452 16.819 12.9632 16.7712 12.9811C16.5445 13.0498 16.3147 13.0617 16.079 13.0587C15.7478 13.0557 15.4165 13.0557 15.0823 13.0587C15.0614 13.0587 15.0197 13.0378 15.0227 13.0916C15.0256 13.1573 14.9958 13.217 14.9779 13.2767C14.8705 13.5007 14.7123 13.8173 14.4975 14.1876C14.214 14.6714 14.0708 14.9163 13.8679 15.0806C13.4979 15.3852 12.8862 15.6301 12.4684 15.4031C12.4147 15.3733 12.3759 15.3434 12.3491 15.3195C12.3252 15.2956 12.3013 15.2747 12.2715 15.2448C12.2565 15.2717 12.2446 15.2956 12.2357 15.3165C12.179 15.433 12.0178 15.7376 11.6627 15.9287C11.5643 15.9825 11.2719 16.1348 10.9078 16.081C10.866 16.0751 10.8243 16.0691 10.7676 16.0482C10.3916 15.9198 10.1827 15.4838 10.1469 15.4121C10.138 15.3942 10.138 15.3912 10.129 15.3822C10.0275 15.2687 9.72617 15.5614 9.32632 15.5226C9.07866 15.4987 8.91156 15.3583 8.86381 15.3075C8.78922 15.2269 8.74147 15.1313 8.74147 15.1313C8.73551 15.1164 8.72954 15.1015 8.72059 15.0865C8.71163 15.0477 8.6997 15.0089 8.69373 14.9671C8.69075 14.9492 8.68776 14.9402 8.68179 14.9372C8.66687 14.9283 8.64897 14.9402 8.643 14.9402C8.57437 14.9731 7.59863 15.1881 7.12716 15.1941C7.10329 15.1941 6.96006 15.197 6.787 15.197C6.70941 15.197 6.63183 15.197 6.55425 15.197C6.47667 15.197 6.39908 15.197 6.3215 15.197C6.24392 15.197 6.16634 15.197 6.08875 15.197C5.59939 15.197 5.11301 15.1941 4.62364 15.197C4.47146 15.197 4.32823 15.1732 4.20291 15.0836C4.19694 15.0806 4.19396 15.0746 4.18799 15.0716C4.17307 15.0567 4.15516 15.0418 4.14024 15.0268C4.12234 14.9999 4.10145 14.976 4.08355 14.9492C4.02387 14.8446 4 14.7312 4 14.6087C4.01194 12.99 4.01194 11.3773 4.01194 9.76164C4.01194 9.681 4.02089 9.60335 4.04178 9.52571ZM7.56879 11.1504C7.72992 11.016 8.00146 10.9055 8.18945 10.8189C8.20436 10.8129 8.23719 10.795 8.26106 10.7591C8.27598 10.7352 8.28195 10.7054 8.28195 10.6665C8.27896 9.7915 8.27896 8.91348 8.27896 8.03843C8.27896 8.02051 8.27896 7.97273 8.25509 7.92196C8.16856 7.76069 7.88508 7.7577 7.78065 7.75472C7.21071 7.74576 5.33084 9.69295 5.1697 9.86019C5.11002 9.89603 5.0593 9.93784 5.08018 10.0185C5.08018 12.3748 5.08018 14.0353 5.0772 14.0741C5.0772 14.0771 5.07422 14.098 5.08615 14.11C5.09809 14.1219 5.12196 14.1189 5.12494 14.1189C5.16373 14.1159 6.04698 14.113 7.29128 14.11C7.33604 14.11 7.38378 14.107 7.42854 14.104C7.81347 14.0771 8.15364 13.9786 8.4401 13.8591C8.72954 13.656 8.96228 13.4798 9.12938 13.3544C9.12938 13.3544 10.5289 12.2733 11.3733 11.1832C11.3823 11.1742 11.3912 11.1533 11.4181 11.1205C11.5016 11.0189 11.5643 10.9055 11.6001 10.777C11.6061 10.7621 11.6061 10.7472 11.6001 10.7293C11.5792 10.6665 11.5374 10.5889 11.4598 10.5501C11.3644 10.5023 11.2599 10.5381 11.1973 10.562C9.77988 11.1115 8.31775 11.9507 8.31775 11.9507C8.14767 12.0463 7.91492 12.1687 7.69411 12.0881C7.49419 12.0135 7.34201 11.7865 7.34798 11.5565C7.35096 11.452 7.38677 11.3684 7.41064 11.3206C7.4733 11.237 7.53 11.1832 7.56879 11.1504ZM10.9585 15.2657C11.0033 15.2866 11.0391 15.2926 11.06 15.2926C11.242 15.3046 11.3942 15.1224 11.5016 14.997C11.5464 14.9432 11.5762 14.8984 11.5762 14.8984C11.7403 14.6595 12.7191 13.226 12.5251 13.0677C12.5191 13.0647 12.5162 13.0557 12.4803 13.0557C12.2416 13.0557 12.0029 13.0557 11.7642 13.0557C11.7493 13.0557 11.7344 13.0557 11.7254 13.0647C11.7135 13.0737 11.7165 13.0946 11.7165 13.0975C11.7194 13.1782 11.1793 14.2533 11.0928 14.4385C11.0868 14.4534 11.054 14.5251 11.0033 14.6207C10.9824 14.6625 10.9615 14.7013 10.9436 14.7431C10.9168 14.8028 10.8123 15.0388 10.9227 15.218C10.9287 15.2329 10.9406 15.2508 10.9585 15.2657ZM10.0425 14.6655C10.0813 14.6326 10.1111 14.6027 10.1409 14.5669C10.3647 14.3041 10.4602 13.9995 10.684 13.432C10.7139 13.3574 10.7377 13.3006 10.7467 13.2737C10.5318 13.441 9.44568 14.2981 9.35915 14.5788C9.34423 14.6296 9.30245 14.761 9.35915 14.8118C9.38302 14.8327 9.41584 14.8327 9.43673 14.8297C9.47254 14.8327 9.52028 14.8357 9.57697 14.8327C9.64561 14.8327 9.85747 14.8148 10.0425 14.6655ZM16.6519 11.8343C16.81 11.676 16.807 11.4759 16.807 11.44C16.822 10.8487 16.816 10.4874 16.807 10.2634C16.8011 10.1349 16.807 9.47792 16.807 9.38833C16.807 9.36742 16.8369 9.31964 16.7742 9.32262C16.6966 9.32262 16.6191 9.32262 16.5415 9.32262C16.4639 9.32262 16.3863 9.32262 16.3087 9.32262C16.2312 9.32262 16.1536 9.32262 16.076 9.32262C15.9984 9.32262 15.9208 9.32262 15.8432 9.32262C15.7657 9.32262 15.6881 9.32262 15.6105 9.32262C15.5329 9.32262 15.4553 9.32262 15.3777 9.32262C15.3002 9.32262 15.2226 9.32262 15.145 9.32262C15.0674 9.32262 14.9898 9.32262 14.9123 9.32262C14.8347 9.32262 14.7571 9.32262 14.6795 9.32262C14.6019 9.32262 14.5243 9.32262 14.4468 9.32262C14.3692 9.32262 14.2916 9.32262 14.214 9.32262C14.1364 9.32262 14.0588 9.32262 13.9813 9.32262C13.9037 9.32262 13.8261 9.32262 13.7485 9.32262C13.6709 9.32262 13.5934 9.32262 13.5158 9.32262C13.4382 9.32262 13.3606 9.32262 13.283 9.32262C13.2054 9.32262 13.1279 9.32262 13.0503 9.32262C12.9727 9.32262 12.8951 9.32262 12.8175 9.32262C12.7399 9.32262 12.6624 9.32262 12.5848 9.32262C12.5072 9.32262 12.4296 9.32262 12.352 9.32262C12.2745 9.32262 12.1969 9.32262 12.1193 9.32262C12.0417 9.32262 11.9641 9.32262 11.8865 9.32262C11.809 9.32262 11.7314 9.32262 11.6538 9.32262C11.5762 9.32262 11.4986 9.32262 11.421 9.32262C11.3435 9.32262 11.2659 9.32262 11.1883 9.32262C11.1107 9.32262 11.0331 9.32262 10.9556 9.32262C10.878 9.32262 10.8004 9.32262 10.7228 9.32262C10.6452 9.32262 10.5676 9.32262 10.4901 9.32262C10.4125 9.32262 10.3349 9.32262 10.2573 9.32262C10.1797 9.32262 10.1021 9.32262 10.0246 9.32262C9.94698 9.32262 9.8694 9.32262 9.79182 9.32262C9.71424 9.32262 9.63665 9.32262 9.55907 9.32262C9.49641 9.32262 9.43076 9.32262 9.3681 9.31964C9.33528 9.31665 9.32334 9.3286 9.32334 9.36443C9.32632 9.42715 9.32632 9.49285 9.32632 9.55557C9.32632 9.63322 9.32632 9.71087 9.32632 9.78852C9.32632 9.86617 9.32632 9.94381 9.32632 10.0215C9.32632 10.0692 9.32632 10.114 9.32632 10.1618C9.32632 10.1797 9.3114 10.2096 9.35318 10.1887C9.42181 10.1499 9.49342 10.1111 9.56206 10.0722C9.66351 10.0185 10.2484 9.71983 10.7019 9.57946C10.8362 9.53765 10.9585 9.50779 11.0928 9.49584C11.3047 9.47195 11.4598 9.49285 11.4956 9.49584C11.6657 9.51973 11.8 9.56453 11.8806 9.59738C11.9761 9.63621 12.0536 9.681 12.1103 9.71684C12.1193 9.72281 12.1253 9.72879 12.1342 9.73476C12.2476 9.8154 12.3371 9.91096 12.4057 10.0125C12.4833 10.1349 12.5967 10.353 12.6266 10.6307C12.6445 10.783 12.6295 10.9085 12.6266 10.9562C12.6087 11.1056 12.5699 11.219 12.5549 11.2638C12.5221 11.3594 12.4833 11.4341 12.1372 11.9418C12.1253 11.9627 12.1133 11.9776 12.1044 11.9925C12.4207 11.9925 12.734 11.9925 13.0443 11.9925C13.1219 11.9925 13.1995 11.9925 13.2771 11.9925C13.3546 11.9925 13.4322 11.9925 13.5098 11.9925C13.5874 11.9925 13.665 11.9925 13.7425 11.9925C13.8201 11.9925 13.8977 11.9925 13.9753 11.9925C14.0529 11.9925 14.1305 11.9925 14.208 11.9925C14.2856 11.9925 14.3632 11.9925 14.4408 11.9925C14.5184 11.9925 14.596 11.9925 14.6735 11.9925C14.7511 11.9925 14.8287 11.9925 14.9063 11.9925C14.9839 11.9925 15.0614 11.9925 15.139 11.9925C15.2166 11.9925 15.2942 11.9925 15.3718 11.9925C15.3777 11.9925 15.6045 11.9925 15.6045 11.9925C15.7179 11.9925 15.9178 11.9925 16.2938 11.9925C16.3445 11.9836 16.5116 11.9716 16.6519 11.8343ZM14.1931 13.0557C13.9276 13.0557 13.6799 13.0557 13.4292 13.0557C13.4292 13.0557 13.4024 13.0617 13.3785 13.0707C13.107 13.1573 12.7787 13.8233 12.8116 14.5281C12.8116 14.552 12.8145 14.5699 12.8145 14.5729C12.8324 14.6684 12.8623 14.7282 12.91 14.7521C12.9548 14.776 13.0145 14.77 13.104 14.7192C13.4054 14.5579 13.5874 14.2145 13.5874 14.2145C13.7724 13.8681 13.9723 13.4888 14.1931 13.0557ZM16.3953 7.19624C16.3505 7.18728 16.3177 7.18728 16.3057 7.18728C14.8675 7.18728 13.4292 7.18728 11.991 7.18728C11.2898 7.18728 10.5885 7.18728 9.8873 7.18728C9.85448 7.18728 9.72916 7.18728 9.60681 7.25896C9.60681 7.25896 9.45165 7.34855 9.3502 7.62331C9.34124 7.6472 9.32931 7.68304 9.34721 7.70395C9.35616 7.71589 9.38302 7.71888 9.42778 7.71888C9.47851 7.71888 9.52923 7.71589 9.57996 7.71589C9.65754 7.71589 9.73512 7.71589 9.81271 7.71589C9.89029 7.71589 9.96787 7.71589 10.0455 7.71589C10.123 7.71589 10.2006 7.71589 10.2782 7.71589C10.3558 7.71589 10.4334 7.71589 10.5109 7.71589C10.5885 7.71589 10.6661 7.71589 10.7437 7.71589C10.8213 7.71589 10.8989 7.71589 10.9764 7.71589C11.054 7.71589 11.1316 7.71589 11.2092 7.71589C11.2868 7.71589 11.3644 7.71589 11.4419 7.71589C11.5195 7.71589 11.5971 7.71589 11.6747 7.71589C11.7523 7.71589 11.8298 7.71589 11.9074 7.71589C11.985 7.71589 12.0626 7.71589 12.1402 7.71589C12.2178 7.71589 12.2953 7.71589 12.3729 7.71589C12.4505 7.71589 12.5281 7.71589 12.6057 7.71589C12.6833 7.71589 12.7608 7.71589 12.8384 7.71589C12.916 7.71589 12.9936 7.71589 13.0712 7.71589C13.1487 7.71589 13.2263 7.71589 13.3039 7.71589C13.3815 7.71589 13.4591 7.71589 13.5367 7.71589C13.6142 7.71589 13.6918 7.71589 13.7694 7.71589C13.847 7.71589 13.9246 7.71589 14.0022 7.71589C14.0797 7.71589 14.1573 7.71589 14.2349 7.71589C14.3125 7.71589 14.3901 7.71589 14.4676 7.71589C14.5452 7.71589 14.6228 7.71589 14.7004 7.71589C14.778 7.71589 14.8556 7.71589 14.9331 7.71589C15.0107 7.71589 15.0883 7.71589 15.1659 7.71589C15.2435 7.71589 15.3211 7.71589 15.3986 7.71589C15.4762 7.71589 15.5538 7.71589 15.6314 7.71589C15.709 7.71589 15.7865 7.71589 15.8641 7.71589C15.9417 7.71589 16.0193 7.71589 16.0969 7.71589C16.1745 7.71589 16.252 7.71589 16.3296 7.71589C16.4072 7.71589 16.4848 7.71589 16.5624 7.71589C16.6399 7.71589 16.7175 7.71589 16.7951 7.71589C16.807 7.71888 16.816 7.71888 16.822 7.71291C16.8309 7.70693 16.8309 7.692 16.8279 7.68304C16.813 7.55462 16.7623 7.46801 16.7623 7.46801C16.7325 7.41724 16.7116 7.37842 16.6638 7.33362C16.6191 7.30674 16.5325 7.22611 16.3953 7.19624Z" fill="#17191A"/>
</svg>
