<svg width="30" height="30" viewBox="0 0 30 30" fill="none" xmlns="http://www.w3.org/2000/svg">
<path fill-rule="evenodd" clip-rule="evenodd" d="M5 0C2.23858 0 0 2.23858 0 5V25C0 27.7614 2.23858 30 5 30H25C27.7614 30 30 27.7614 30 25V5C30 2.23858 27.7614 0 25 0H5ZM6.00229 15.3716V7.41987C6.00229 6.53864 6.54364 6 7.42666 6H15.7393C16.0274 6 16.0279 6 16.0279 6.29863V9.98939C16.0279 10.3636 16.1538 10.4877 16.5317 10.4877H20.2598C20.5199 10.4877 20.5208 10.4877 20.5208 10.7515V23.3834C20.5208 24.1506 19.9438 24.7382 19.1766 24.7387C15.2323 24.7414 11.2882 24.7414 7.34423 24.7387C6.57525 24.7387 6.00046 24.1519 6 23.3825C6.00061 20.7119 6.00137 18.0416 6.00229 15.3716ZM13.0729 16.6967H16.2674C16.5843 16.6967 16.7016 16.5735 16.7007 16.257C16.6975 15.0167 15.8387 13.8363 14.6232 13.4475C13.7402 13.1649 12.8223 13.2249 11.9292 13.3449C10.5488 13.5281 9.47117 14.8197 9.44094 16.2066C9.4327 16.5881 9.53575 16.6962 9.91634 16.6967C10.9685 16.6973 12.0207 16.6973 13.0729 16.6967ZM15.1549 10.3576C15.1511 10.2977 15.149 10.2432 15.1469 10.1924V10.1924C15.1431 10.0964 15.1399 10.0136 15.127 9.93214C15.0403 9.40004 14.7511 8.92213 14.32 8.59853C13.8888 8.27493 13.3492 8.13076 12.8141 8.19623C11.785 8.31852 10.9432 9.19563 10.9821 10.3636C11.0096 11.188 11.3458 11.898 11.9604 12.46C12.6053 13.0494 13.3889 13.0911 14.0672 12.5452C14.7725 11.9763 15.1114 11.2128 15.1549 10.3576ZM8.71315 19.8684H8.71311H8.71298C8.51519 19.8676 8.31728 19.8668 8.11962 19.8726C8.03293 19.872 7.94927 19.9045 7.88575 19.9635C7.82224 20.0225 7.78367 20.1035 7.77795 20.19C7.76717 20.2757 7.78763 20.3623 7.83558 20.4341C7.88354 20.5059 7.95576 20.5579 8.03901 20.5807C8.13733 20.606 8.23909 20.6153 8.34037 20.6082H18.2469C18.3356 20.6143 18.4247 20.6034 18.5093 20.5762C18.5906 20.5468 18.659 20.4899 18.7027 20.4154C18.7463 20.3408 18.7625 20.2533 18.7484 20.1681C18.7359 20.0859 18.6946 20.0109 18.632 19.9564C18.5693 19.9018 18.4893 19.8714 18.4063 19.8703C18.3516 19.8673 18.2968 19.8683 18.2419 19.8693H18.2419C18.2144 19.8698 18.1869 19.8703 18.1594 19.8703L8.91836 19.869C8.85007 19.869 8.78175 19.8687 8.71341 19.8684H8.71337H8.71332H8.71328H8.71324H8.71319H8.71315ZM18.2235 22.5512C18.3 22.555 18.3766 22.5521 18.4525 22.5425C18.5387 22.5265 18.6163 22.4803 18.6713 22.412C18.7262 22.3438 18.755 22.2581 18.7522 22.1705C18.7494 22.083 18.7154 21.9993 18.6562 21.9347C18.597 21.87 18.5166 21.8288 18.4296 21.8183C18.3602 21.8123 18.2904 21.8106 18.2208 21.8133H8.25656C8.20584 21.8115 8.15507 21.8127 8.1045 21.8169C8.01511 21.8245 7.93177 21.8652 7.87084 21.931C7.80991 21.9969 7.7758 22.0831 7.7752 22.1728C7.77487 22.2622 7.80635 22.3487 7.86401 22.4169C7.92166 22.4851 8.00172 22.5306 8.08985 22.5452C8.16592 22.5529 8.24246 22.555 8.31885 22.5516L18.2235 22.5512ZM13.2744 17.9251H8.328C8.24566 17.9227 8.16325 17.9248 8.08115 17.9315C7.99608 17.943 7.91804 17.9849 7.86141 18.0494C7.80477 18.1139 7.77337 18.1967 7.77298 18.2826C7.77259 18.3684 7.80324 18.4515 7.85928 18.5165C7.91532 18.5816 7.99298 18.6241 8.07794 18.6364C8.15403 18.6439 8.23052 18.6465 8.30694 18.6442H18.1997C18.2821 18.6467 18.3645 18.6441 18.4466 18.6364C18.5327 18.6279 18.6124 18.5868 18.6694 18.5217C18.7263 18.4565 18.7564 18.3721 18.7534 18.2856C18.7534 18.0566 18.6041 17.9265 18.3169 17.926C16.6355 17.9236 14.9546 17.9227 13.2744 17.9233V17.9251ZM24.7463 15.7907V21.2495C24.7463 21.5087 24.7463 21.5096 24.4802 21.5096C24.2559 21.5096 24.0315 21.5094 23.8071 21.5092C23.1059 21.5085 22.4047 21.5078 21.7038 21.5137C21.5206 21.5137 21.4492 21.4679 21.4497 21.2701C21.4548 17.6187 21.4548 13.9672 21.4497 10.3155C21.4497 10.1323 21.5133 10.0746 21.6919 10.076C22.6304 10.0819 23.5697 10.0838 24.5068 10.076C24.7047 10.076 24.7505 10.1474 24.75 10.3329C24.7453 11.7564 24.7457 13.1805 24.7461 14.6044L24.7463 15.7907ZM23.5097 22.2498H23.5097H23.5097H23.5097H23.5096H23.5096C23.3738 22.2493 23.2379 22.2489 23.1021 22.2489L21.6571 22.2471L21.6483 22.247C21.5542 22.2469 21.4556 22.2468 21.4556 22.3845C21.4562 22.4866 21.4536 22.5888 21.451 22.691C21.4452 22.9256 21.4393 23.1598 21.4712 23.3921C21.5802 24.1575 22.247 24.796 23.2143 24.7474C23.9375 24.7108 24.5705 24.2001 24.7124 23.4888C24.7545 23.2782 24.7502 23.0661 24.7459 22.8541C24.7433 22.7242 24.7406 22.5945 24.7486 22.4651C24.7573 22.297 24.6927 22.2461 24.5283 22.2461C24.1892 22.252 23.8496 22.2509 23.51 22.2498H23.5097ZM18.5267 9.74621C18.3802 9.74621 18.2336 9.74583 18.0871 9.74546C17.7207 9.74452 17.3544 9.74359 16.9883 9.7485C16.8275 9.75079 16.7643 9.70269 16.7652 9.53277C16.7695 8.84499 16.7693 8.15701 16.7691 7.46897C16.769 7.12468 16.7689 6.78038 16.7694 6.43607C16.7694 6.4239 16.7678 6.41046 16.7662 6.39669C16.761 6.35086 16.7553 6.3014 16.8046 6.28309C16.8533 6.26502 16.8832 6.30284 16.9116 6.33875C16.9207 6.35017 16.9295 6.3614 16.9388 6.37057C18.0118 7.43746 19.0842 8.50527 20.1563 9.57399C20.1648 9.58253 20.1752 9.59084 20.1858 9.59933C20.2218 9.62816 20.2604 9.65911 20.2392 9.70865C20.218 9.75795 20.1696 9.75283 20.1242 9.74804C20.1105 9.7466 20.0971 9.74518 20.0848 9.74529C19.6955 9.74667 19.3062 9.74649 18.917 9.74632H18.9162L18.5267 9.74621ZM21.7868 9.36009H23.0994L23.5368 9.36029C23.8284 9.3605 24.12 9.3607 24.4116 9.36009C24.6154 9.35917 24.6296 9.33856 24.5604 9.15535C24.212 8.23015 23.8626 7.30539 23.512 6.3811C23.4273 6.15896 23.2808 6.04354 23.0998 6.04354C22.9189 6.04354 22.7715 6.16125 22.6877 6.38156C22.3371 7.30585 21.9874 8.23045 21.6384 9.15535C21.5692 9.33902 21.5834 9.36009 21.7868 9.36009ZM13.0706 15.9767H10.4481C10.2013 15.9767 10.1848 15.951 10.2525 15.7106C10.387 15.2276 10.6753 14.8016 11.0738 14.4974C11.4723 14.1932 11.9592 14.0273 12.4606 14.025C12.8911 14.0223 13.322 14.0214 13.7526 14.025C14.7441 14.0365 15.6945 14.8165 15.9084 15.7807C15.951 15.9735 15.847 15.9762 15.7123 15.9762C14.8321 15.9759 13.9515 15.9761 13.0706 15.9767ZM13.6354 9.04941C13.4564 8.96686 13.2617 8.92423 13.0647 8.92449C12.4262 8.92404 11.861 9.37427 11.7525 10.0022C11.6247 10.7378 11.9091 11.3474 12.4074 11.8627C12.8343 12.3033 13.3024 12.2951 13.7393 11.8595C14.1149 11.4848 14.3264 11.025 14.4066 10.5019C14.4384 10.3075 14.4276 10.1084 14.3748 9.91855C14.3219 9.72871 14.2285 9.55263 14.1008 9.40255C13.9731 9.25246 13.8143 9.13196 13.6354 9.04941Z" fill="white"/>
</svg>
