<?xml version="1.0" encoding="utf-8"?>
<!-- Generator: Adobe Illustrator 24.0.3, SVG Export Plug-In . SVG Version: 6.00 Build 0)  -->
<svg version="1.1" id="Layer_1" xmlns="http://www.w3.org/2000/svg" xmlns:xlink="http://www.w3.org/1999/xlink" x="0px" y="0px"
	 viewBox="0 0 27 27" style="enable-background:new 0 0 27 27;" xml:space="preserve">
<style type="text/css">
	.st0{fill-rule:evenodd;clip-rule:evenodd;fill:#17191A;}
	.st1{fill-rule:evenodd;clip-rule:evenodd;}
</style>
<path class="st0" d="M13.5,0.6C6.4,0.6,0.6,6.4,0.6,13.5c0,7.1,5.8,12.9,12.9,12.9c7.1,0,12.9-5.8,12.9-12.9
	C26.4,6.4,20.6,0.6,13.5,0.6z M0,13.5C0,6,6,0,13.5,0C21,0,27,6,27,13.5C27,21,21,27,13.5,27C6,27,0,21,0,13.5z"/>
<g>
	<path class="st1" d="M16.9,20.7L16.9,20.7l0.1-0.1c0.1-0.1,0.2-0.1,0.4-0.2c0.1,0,0.1-0.1,0.1-0.1c1.2-0.9,2.6-1.8,3.8-2.7
		c0.1-0.1,0.1-0.1,0.1-0.2v-0.2c-0.1-0.1-0.1-0.1-0.2-0.2c-0.2-0.1-0.4-0.2-0.6-0.4c-0.1-0.1-0.1-0.1-0.2-0.1
		c-1.2-0.8-2.3-1.5-3.4-2.4c-0.1-0.1-0.2-0.1-0.4-0.1c-0.1,0.1-0.2,0.2-0.2,0.4v1.7c0,0.1,0,0.1-0.1,0.1H9.7c-0.1,0-0.1,0-0.2,0
		c-0.6-0.1-1.1-0.4-1.4-1c0-0.1,0-0.1-0.1,0c-0.4,0.7-0.4,1.3-0.1,2c0.4,0.8,1,1.2,1.9,1.2c1.6,0,3.2,0,4.8,0c0.7,0,1.2,0,1.9,0
		c0.1,0,0.1,0,0.1,0.1v1.7C16.6,20.6,16.7,20.7,16.9,20.7z"/>
	<path class="st1" d="M10.3,6.7c0-0.2-0.1-0.4-0.3-0.4H9.9C9.8,6.3,9.6,6.5,9.5,6.6c-0.1,0-0.1,0.1-0.1,0.1C8.1,7.5,6.8,8.4,5.6,9.3
		C5.5,9.3,5.5,9.4,5.5,9.5v0.2c0.1,0.1,0.1,0.1,0.2,0.2c1,0.7,1.9,1.4,2.9,2.1c0.4,0.3,0.8,0.6,1.2,0.9c0.1,0.1,0.2,0.1,0.3,0.1
		c0.1-0.1,0.3-0.1,0.3-0.4v-1.8c0-0.1,0-0.1,0.1-0.1h6.7c0.1,0,0.2,0,0.3,0c0.6,0.1,1,0.4,1.3,0.9c0.1,0.1,0.1,0.1,0.1,0
		c0.3-0.4,0.4-1,0.3-1.5c-0.2-1-1-1.7-2.1-1.7h-6.7c-0.1,0-0.1,0-0.1-0.1s0-0.3,0-0.4C10.3,7.5,10.3,7.1,10.3,6.7z"/>
</g>
</svg>
