<svg width="30" height="30" viewBox="0 0 30 30" fill="none" xmlns="http://www.w3.org/2000/svg">
<path fill-rule="evenodd" clip-rule="evenodd" d="M5 0C2.23858 0 0 2.23858 0 5V25C0 27.7614 2.23858 30 5 30H25C27.7614 30 30 27.7614 30 25V5C30 2.23858 27.7614 0 25 0H5ZM18.4002 9.72539C17.3456 9.3181 16.1348 9.08725 14.8475 9.08725C13.5694 9.08725 12.3641 9.3158 11.3145 9.71781L14.8527 6.62539L18.4002 9.72539ZM23.6955 12.7264C23.0912 12.202 22.2811 11.9398 21.2652 11.9398H16.8581V14.8254H18.989V13.7077H20.922C21.4112 13.7077 21.7917 13.8207 22.0635 14.0465C22.3352 14.2724 22.471 14.6507 22.4708 15.1814C22.4708 15.711 22.335 16.0981 22.0635 16.3426C21.792 16.5871 21.4115 16.7085 20.922 16.7068H20.0895L16.8504 16.703L16.8568 22.1256H18.9877V18.4629H21.125C22.2401 18.4629 23.0981 18.2141 23.699 17.7164C24.2999 17.2188 24.6004 16.3687 24.6004 15.1661C24.6012 14.0651 24.2996 13.2518 23.6955 12.7264ZM13.9128 13.4543C14.2715 13.9485 14.525 14.5076 14.6584 15.0986C14.7867 15.652 14.8533 16.2173 14.8571 16.7846C14.8571 18.1388 14.5778 19.2857 14.0191 20.2255C13.2614 21.4922 12.0919 22.1256 10.5105 22.1256H6.00098V20.3506L8.1221 20.3567H10.1404C11.174 20.3569 11.8944 19.8619 12.3017 18.8718C12.5245 18.3281 12.6358 17.681 12.6358 16.9304C12.6356 15.8937 12.4684 15.0978 12.1343 14.5427C11.8001 13.9876 11.1355 13.71 10.1404 13.71H8.12112V18.4524H6V11.9398H10.5118C11.1605 11.9498 11.7003 12.0239 12.131 12.1622C12.8639 12.3971 13.4579 12.8278 13.9128 13.4543Z" fill="white"/>
</svg>
