<svg width="30" height="30" viewBox="0 0 30 30" fill="none" xmlns="http://www.w3.org/2000/svg">
<path fill-rule="evenodd" clip-rule="evenodd" d="M5 0C2.23858 0 0 2.23858 0 5V25C0 27.7614 2.23858 30 5 30H25C27.7614 30 30 27.7614 30 25V5C30 2.23858 27.7614 0 25 0H5ZM24 23.3695V9.13052L20.7358 6.00296H19.8912L19.8899 6.04718V6.04726V6.04733C19.8888 6.08458 19.8876 6.12193 19.8876 6.15906V9.76187C19.8876 9.91186 19.8872 9.91186 19.7366 9.91186H10.2584C10.182 9.91186 10.1441 9.91186 10.1252 9.89287C10.1065 9.87408 10.1065 9.83669 10.1065 9.76231V6.15688V6.00078H6.65265C6.30745 6.09671 6.09096 6.31036 6 6.64478V23.3879C6.09051 23.721 6.30654 23.9368 6.65265 24.0319H23.3478C23.6985 23.932 23.919 23.714 24 23.3695ZM21.3143 22.4495H15.0025L8.6993 22.45C8.68658 22.45 8.67381 22.4497 8.66102 22.4495H8.66092H8.6609C8.63532 22.449 8.60967 22.4485 8.58423 22.45C8.50054 22.4552 8.46734 22.416 8.4728 22.3392V22.2747V15.5984V15.5156C8.47007 15.4554 8.49872 15.4253 8.56376 15.4253H8.67883C10.7158 15.4241 12.7526 15.4249 14.7892 15.4275C14.841 15.4294 14.8926 15.4205 14.9405 15.4015C14.9884 15.3824 15.0314 15.3537 15.0666 15.3172C16.0975 14.3271 17.1284 13.3379 18.1593 12.3496C18.2503 12.2642 18.3444 12.204 18.4777 12.204C18.5338 12.2041 18.5892 12.2152 18.6406 12.2366C18.692 12.2581 18.7383 12.2894 18.7765 12.3287L20.6412 14.1194C20.9705 14.4369 21.2998 14.754 21.6291 15.0708C21.6838 15.1181 21.7291 15.1745 21.7628 15.2374C21.8219 15.3599 21.8096 15.4881 21.7014 15.5722C21.5513 15.686 21.5195 15.8234 21.5195 15.9978C21.5219 18.0822 21.5231 20.1667 21.5231 22.2512V22.3706C21.5245 22.3815 21.5232 22.3924 21.5195 22.4027C21.5157 22.413 21.5095 22.4224 21.5014 22.43C21.4932 22.4376 21.4834 22.4434 21.4725 22.4468C21.4617 22.4501 21.4502 22.4511 21.439 22.4495H21.3143ZM19.084 6.00262C19.084 6.0194 19.0857 6.03608 19.0874 6.05276C19.0892 6.06944 19.0909 6.08611 19.0909 6.1029V9.01898C19.0909 9.0829 19.0909 9.11558 19.0745 9.13229C19.0574 9.14979 19.0224 9.14979 18.9508 9.14979H17.5791C17.4426 9.14979 17.434 9.14369 17.434 9.00852V6L19.084 6.00262ZM19.9066 15.6621C19.9962 15.5762 20.0585 15.4807 20.054 15.3547C20.0556 15.3028 20.0458 15.2511 20.0251 15.2031C20.0044 15.1551 19.9733 15.1118 19.9339 15.0761L18.7764 13.9617C18.723 13.9082 18.6546 13.8705 18.5795 13.8531C18.3962 13.8117 18.2598 13.8867 18.1347 14.007C16.6293 15.4514 15.1234 16.8953 13.6171 18.3388C13.5229 18.426 13.5225 18.426 13.4292 18.3388C13.0029 17.9281 12.5754 17.5184 12.1467 17.1097C11.9552 16.9275 11.7173 16.9257 11.5249 17.1071C11.1435 17.4664 10.7645 17.8274 10.3879 18.1902C10.3453 18.2278 10.3113 18.2736 10.288 18.3245C10.2647 18.3754 10.2527 18.4304 10.2527 18.486C10.2527 18.5416 10.2647 18.5966 10.288 18.6475C10.3113 18.6984 10.3453 18.7441 10.3879 18.7818C11.3309 19.6861 12.2737 20.5904 13.2164 21.4947C13.2725 21.5499 13.3435 21.589 13.4215 21.6077C13.6062 21.6513 13.7481 21.5815 13.8763 21.4577C15.3799 20.0118 16.8838 18.566 18.388 17.1202C18.8923 16.6336 19.3985 16.1476 19.9066 15.6621Z" fill="white"/>
</svg>
