<svg width="27" height="27" viewBox="0 0 27 27" fill="none" xmlns="http://www.w3.org/2000/svg">
<path d="M13.5006 0C6.04445 0 0 6.04445 0 13.5006C0 20.9567 6.04445 27 13.5006 27C20.9567 27 27 20.9558 27 13.5006C27 6.04534 20.9567 0 13.5006 0ZM7.8446 7.51024L13.4286 2.67449C13.4461 2.65943 13.4684 2.65114 13.4915 2.65114C13.5146 2.65114 13.537 2.65943 13.5545 2.67449L19.1507 7.52093C19.1677 7.53546 19.1791 7.55547 19.183 7.57751C19.1868 7.59956 19.1828 7.62225 19.1717 7.64166C19.1606 7.66107 19.143 7.676 19.1221 7.68385C19.1011 7.6917 19.0781 7.69198 19.0569 7.68466C17.3755 7.10703 15.4834 6.78225 13.4823 6.78225C11.4935 6.78225 9.61178 7.1028 7.93816 7.6733C7.91719 7.68015 7.89449 7.67957 7.87389 7.67165C7.85329 7.66373 7.83605 7.64896 7.82507 7.62982C7.81408 7.61068 7.81003 7.58834 7.81359 7.56656C7.81715 7.54478 7.8281 7.52489 7.8446 7.51024ZM12.8407 18.7983C12.096 20.0774 10.9461 20.7169 9.39102 20.7167H4.95804V18.9253L7.04399 18.9313H9.02837C10.0439 18.9313 10.752 18.4313 11.1526 17.4314C11.3714 16.882 11.4808 16.2285 11.481 15.4711C11.481 14.4249 11.3168 13.6214 10.9885 13.0608C10.6601 12.5002 10.0067 12.22 9.02814 12.2201H7.04399V17.0095H4.95804V10.4336H9.39102C10.0286 10.4429 10.5592 10.5172 10.9829 10.6563C11.7042 10.8939 12.2884 11.3288 12.7354 11.961C13.0881 12.46 13.3373 13.0245 13.4685 13.6213C13.5987 14.2168 13.6638 14.7843 13.6638 15.3237C13.6643 16.6913 13.3899 17.8495 12.8407 18.7983ZM22.6116 16.2659C22.0104 16.768 21.1508 17.0192 20.0329 17.0193H17.8917V20.7172H15.7569C15.7547 18.8928 15.7525 17.0683 15.7505 15.2439L18.9955 15.2477H19.8281C20.3182 15.2477 20.6994 15.1244 20.9716 14.8779C21.2438 14.6314 21.3799 14.2407 21.3799 13.7059C21.3799 13.1713 21.2438 12.7899 20.9716 12.5618C20.6994 12.3337 20.3182 12.2198 19.8281 12.2201H17.8917V13.3466H15.7569V10.4336H20.1728C21.1905 10.4336 22.002 10.6986 22.6073 11.2288C23.2127 11.759 23.5149 12.5799 23.5142 13.6915C23.5142 14.9055 23.2133 15.7637 22.6116 16.2659Z" fill="white"/>
</svg>
