<svg width="27" height="27" viewBox="0 0 27 27" fill="none" xmlns="http://www.w3.org/2000/svg">
<path fill-rule="evenodd" clip-rule="evenodd" d="M13.5 0.592905C6.37161 0.592905 0.592905 6.37161 0.592905 13.5C0.592905 20.6284 6.37161 26.4071 13.5 26.4071C20.6284 26.4071 26.4071 20.6284 26.4071 13.5C26.4071 6.37161 20.6284 0.592905 13.5 0.592905ZM0 13.5C0 6.04416 6.04416 0 13.5 0C20.9558 0 27 6.04416 27 13.5C27 20.9558 20.9558 27 13.5 27C6.04416 27 0 20.9558 0 13.5Z" fill="#17191A"/>
<path d="M14.8758 22.3448C14.4926 22.2357 14.202 22.0245 14.0928 21.6211C14.0501 21.4637 14.043 21.3003 14.043 21.1372C14.0439 17.4416 14.0445 13.7459 14.0446 10.0501C14.0446 9.99857 14.0387 9.94707 14.0324 9.84158C13.8649 10.2032 13.7922 10.5369 13.7357 10.8711C13.5711 11.8398 13.5152 12.8238 13.5689 13.8049C13.5839 14.0817 13.586 14.3594 13.5857 14.6368C13.5857 14.9628 13.3565 15.2233 13.0471 15.2623C12.7114 15.3045 12.4122 15.1123 12.3334 14.7886C12.2616 14.4937 12.2823 14.1886 12.2723 13.8889C12.2343 12.7731 12.267 11.6597 12.4785 10.5587C12.5921 9.96999 12.7623 9.39987 13.0651 8.87649C13.2454 8.56478 13.474 8.29526 13.7675 8.08383C14.0577 7.87296 14.4081 7.76096 14.767 7.7644C15.6598 7.7644 16.553 7.77801 17.4453 7.75918C18.2717 7.74171 18.8449 8.13351 19.2583 8.80662C19.6602 9.46113 19.8358 10.1925 19.953 10.941C20.1152 11.9757 20.112 13.0179 20.0909 14.0608C20.0868 14.2593 20.0722 14.4578 20.0579 14.6561C20.0418 14.883 19.9359 15.0615 19.7415 15.175C19.6265 15.243 19.622 15.3283 19.6474 15.4352C19.6756 15.5531 19.7722 15.5291 19.8519 15.5305C20.194 15.5357 20.172 15.4912 20.1722 15.854C20.1722 16.722 20.1722 17.5901 20.1722 18.4584C20.1722 18.702 20.1722 18.7027 19.9366 18.7032C19.5868 18.7032 19.237 18.6993 18.8871 18.705C18.7563 18.707 18.7031 18.6617 18.7036 18.5278C18.7063 17.5934 18.7058 16.6589 18.7022 15.7242C18.7022 15.5731 18.761 15.5162 18.9067 15.5298C18.9672 15.5334 19.0279 15.5334 19.0884 15.5298C19.1529 15.528 19.2326 15.5429 19.2417 15.4474C19.2494 15.3655 19.2694 15.2705 19.1702 15.2246C18.8326 15.0692 18.7497 14.7904 18.7747 14.4481C18.8164 13.8648 18.8272 13.2797 18.8072 12.6953C18.7794 11.8575 18.7149 11.0231 18.4753 10.2132C18.442 10.0903 18.3895 9.97347 18.3197 9.86699V10.5086C18.3197 14.0596 18.3197 17.6107 18.3197 21.1617C18.3197 21.8239 18.1066 22.1311 17.4812 22.3441H17.1925C16.5705 22.1627 16.3485 21.8677 16.3481 21.2178C16.3469 19.0005 16.3463 16.7833 16.3463 14.5661C16.3463 14.3721 16.2933 14.3224 16.1341 14.3578C15.9912 14.3896 16.0332 14.5057 16.0332 14.5928C16.031 16.78 16.0304 18.9672 16.0316 21.1547C16.0316 21.826 15.8283 22.1198 15.2011 22.3448H14.8758ZM16.8935 12.4639C16.8885 12.4122 16.8874 12.394 16.8849 12.3761C16.7637 11.4877 16.6432 10.5992 16.5235 9.71068C16.4876 9.44774 16.486 9.4491 16.2038 9.4575C16.1496 9.45902 16.0953 9.45392 16.0423 9.4423C15.9224 9.41553 15.8758 9.45046 15.8588 9.58205C15.739 10.5122 15.6109 11.4423 15.4812 12.3725C15.4685 12.4632 15.4789 12.5361 15.5362 12.6075C15.7213 12.8376 15.9078 13.0667 16.0855 13.3024C16.1673 13.4113 16.2175 13.3877 16.2883 13.2942C16.4594 13.0687 16.6377 12.8485 16.8129 12.6259C16.8583 12.5678 16.8994 12.5093 16.8935 12.4639ZM16.1848 8.45883C15.9146 8.45883 15.7688 8.64033 15.7724 8.9711C15.7724 9.08453 15.9564 9.17528 16.1895 9.17391C16.4121 9.17391 16.5862 9.08657 16.5914 8.97314C16.6055 8.66233 16.4437 8.4577 16.1848 8.45793V8.45883Z" fill="#17191A"/>
<path d="M6.67241 12.1194C6.71828 11.7267 6.75268 11.3326 6.81001 10.9415C6.9116 10.2442 7.08337 9.56439 7.4292 8.94469C7.70577 8.44779 8.06811 8.03948 8.62905 7.85219C8.90585 7.76038 9.1909 7.75579 9.47756 7.76428C9.56104 7.76681 9.60897 7.81019 9.64772 7.87904C10.08 8.6594 11.2072 8.58825 11.57 7.87629C11.6028 7.81179 11.6488 7.77048 11.7245 7.76566C12.2238 7.73399 12.696 7.80147 13.1035 8.12692C13.189 8.19578 13.2264 8.2465 13.1425 8.3468C12.5909 9.00414 12.3627 9.7985 12.2041 10.619C12.0206 11.5685 11.9857 12.5309 11.9873 13.4942C11.9873 13.9264 12.0188 14.3586 12.0479 14.7901C12.0708 15.1343 12.2646 15.3682 12.5804 15.4896C12.7095 15.5392 12.7577 15.6044 12.7538 15.7421C12.745 16.0653 12.7466 16.3886 12.7538 16.7118C12.7567 16.8495 12.7134 16.9147 12.5703 16.9138C12.0352 16.9101 11.4994 16.9097 10.9629 16.9126C10.8134 16.9126 10.7602 16.8516 10.7611 16.704C10.7655 16.0154 10.7639 15.3257 10.7611 14.6367C10.7611 14.5573 10.7889 14.4593 10.6632 14.4332C10.5116 14.4015 10.449 14.4462 10.4485 14.6064C10.4467 15.2895 10.4461 15.9725 10.4467 16.6556C10.4467 16.9097 10.4453 16.911 10.1944 16.9113C9.71951 16.9113 9.24457 16.9129 8.76986 16.9113C8.45407 16.9113 8.45476 16.9078 8.45476 16.5996C8.45476 14.4042 8.45476 12.2084 8.45476 10.0124V9.88572C8.31578 10.1382 8.23942 10.4081 8.18254 10.684C7.9351 11.8834 7.9273 13.0939 7.98532 14.3074C7.99197 14.4474 8.00023 14.5878 7.99518 14.7279C7.98257 15.0756 7.71425 15.3425 7.3776 15.351C7.01067 15.3602 6.73135 15.1132 6.70016 14.7503C6.69282 14.6659 6.70704 14.5789 6.67241 14.4979V12.1194Z" fill="#17191A"/>
<path d="M9.39345 22.3448C8.74963 22.139 8.53564 21.8516 8.53564 21.1899C8.53564 19.8967 8.53526 18.6033 8.53448 17.31C8.53448 17.0835 8.54816 17.0692 8.76957 17.069C9.2926 17.069 9.81563 17.0733 10.3387 17.069C10.4977 17.0672 10.5522 17.1229 10.5517 17.2801C10.5469 18.6388 10.5517 19.9992 10.5475 21.3586C10.5464 21.8525 10.2693 22.1628 9.68974 22.3448H9.39345Z" fill="#17191A"/>
<path d="M11.65 22.3448C11.0598 22.1311 10.8621 21.8349 10.8621 21.1639C10.8621 19.8828 10.8621 18.6016 10.8621 17.3204C10.8621 17.0749 10.8653 17.0713 11.1033 17.0713C11.5748 17.0713 12.0477 17.076 12.5195 17.069C12.6751 17.0668 12.7248 17.125 12.7241 17.2898C12.7188 18.6312 12.7211 19.9724 12.7203 21.3138C12.7203 21.8206 12.4925 22.1517 12.0367 22.3129C12.0099 22.3222 11.9838 22.334 11.9575 22.3444L11.65 22.3448Z" fill="#17191A"/>
<path d="M8.84483 5.66357C8.84577 5.19247 9.03304 4.74077 9.36592 4.40666C9.69879 4.07256 10.1504 3.88305 10.6225 3.87933C11.5905 3.87432 12.4025 4.67901 12.4137 5.65538C12.4255 6.62423 11.6022 7.44736 10.6202 7.44827C9.64741 7.45055 8.84551 6.64381 8.84483 5.66357Z" fill="#17191A"/>
<path d="M17.8448 5.66437C17.8518 6.61627 17.0709 7.44278 16.1601 7.44825C15.2236 7.45394 14.4328 6.64016 14.431 5.67074C14.4293 4.70132 15.1986 3.88641 16.1275 3.87935C17.0616 3.87253 17.8378 4.67924 17.8448 5.66437Z" fill="#17191A"/>
<path d="M12.2586 22.5C13.0299 22.5 13.6552 21.8747 13.6552 21.1034C13.6552 20.3322 13.0299 19.7069 12.2586 19.7069C11.4873 19.7069 10.8621 20.3322 10.8621 21.1034C10.8621 21.8747 11.4873 22.5 12.2586 22.5Z" fill="#17191A"/>
<path fill-rule="evenodd" clip-rule="evenodd" d="M12.181 19.9066C11.4772 19.9066 10.9066 20.4772 10.9066 21.181C10.9066 21.8849 11.4772 22.4555 12.181 22.4555C12.8849 22.4555 13.4555 21.8849 13.4555 21.181C13.4555 20.4772 12.8849 19.9066 12.181 19.9066ZM10.7069 21.181C10.7069 20.3669 11.3669 19.7069 12.181 19.7069C12.9952 19.7069 13.6552 20.3669 13.6552 21.181C13.6552 21.9952 12.9952 22.6552 12.181 22.6552C11.3669 22.6552 10.7069 21.9952 10.7069 21.181Z" fill="#17191A"/>
</svg>
