<svg xmlns="http://www.w3.org/2000/svg" viewBox="0 0 1075 901"><defs><style>.cls-1{fill:#fff;}.cls-2{fill:none;stroke:#8c2133;stroke-miterlimit:10;stroke-width:20px;}.cls-3{fill:#8c2133;}</style></defs><title>power</title><g id="КРУГИ"><circle class="cls-1" cx="543" cy="451" r="391"/></g><g id="Layer_9" data-name="Layer 9"><circle class="cls-2" cx="538" cy="451" r="391"/><path class="cls-3" d="M692.7,450.54c-23-5.72-45.45-3.45-66.61,8-7.34,4-14.83,7.66-22.06,11.83-4.28,2.48-7.84,2.2-11.89-.53-23.79-16-50-21.86-78.31-17.66-19.73,2.94-37.31,11.17-53.16,23.25-6.11,4.65-7.29,4.13-7.87-3.2-3.86-48.74-.06-96.64,16.07-143.13,3.46-10,3.39-10.69,13.76-9.17,20.73,3.05,41.38,1.58,61.06-6.76,5.17-2.19,10.64-2.4,16.16-2.39q19,0,37.92,0c8.74,0,16-2.67,19.46-11.58,3.21-8.31,1.25-14.7-7.27-21.81-3.46-2.89-4.86-6-3-9.93,9.43-20.18,2.29-34.78-14.26-47.62-9.43-7.31-17.7-16.14-26.56-24.85A36.09,36.09,0,0,0,526,196.75a153.8,153.8,0,0,1-17.63,14.19C485,227.45,461,243,436.22,257.27a37.6,37.6,0,0,0-12,11c-40,56.46-70.87,117.45-89.68,184.15a533,533,0,0,0-15.45,77c-2.94,23-4.39,45.94-5.34,69-.32,7.67,2.61,12.52,9.08,16.24,15.82,9.09,32.71,15.51,50.17,20.5,46.3,13.24,93.7,17.49,141.6,15.51,31-1.28,61.7-5.79,91.09-16.64a29.37,29.37,0,0,1,10.53-1.49c18.36,0,36.73.18,55.09-.1,48.49-.73,85.41-35.43,91.18-85.43C767.37,504.77,736.32,461.39,692.7,450.54ZM449.1,579.36a342.24,342.24,0,0,0,156.58-.5C589.48,603.41,477.15,604.12,449.1,579.36Z"/><path class="cls-3" d="M551.61,431.8a42.72,42.72,0,0,1,1.18-4.91c3.39-9.91,6.79-19.82,10.35-29.67,1.62-4.5,4.08-8.65,9.88-6.71,5.63,1.88,5.72,6.49,4.07,11.2-3.88,11-7.83,22-12,32.89-1.38,3.61-4.18,6-8.42,4.84C553.26,438.54,551.75,435.94,551.61,431.8Z"/><path class="cls-3" d="M524.15,408c0-5.94-.2-11.89.07-17.82.17-3.82,1.8-7.17,6.3-7.23,4.2-.07,6.83,2.68,7.23,6.55,1.33,12.78,1,25.63.21,38.43a6.61,6.61,0,0,1-7.17,6.52c-3.93-.12-6.18-2.95-6.38-6.52-.36-6.62-.1-13.28-.1-19.93Z"/><path class="cls-3" d="M508.47,430.25c.07,4.91-.64,7.94-4.13,9.12-3.82,1.3-6.87-.71-8.28-3.85a263.16,263.16,0,0,1-13.35-36.78c-1-3.52.75-6.63,4.26-8.13a5.77,5.77,0,0,1,7.82,3.17C500.26,406.13,505.68,418.54,508.47,430.25Z"/></g></svg>