<svg width="27" height="27" viewBox="0 0 27 27" fill="none" xmlns="http://www.w3.org/2000/svg">
<path fill-rule="evenodd" clip-rule="evenodd" d="M13.5 0.673317C6.41602 0.673317 0.673317 6.41602 0.673317 13.5C0.673317 20.584 6.41602 26.3267 13.5 26.3267C20.584 26.3267 26.3267 20.584 26.3267 13.5C26.3267 6.41602 20.584 0.673317 13.5 0.673317ZM0 13.5C0 6.04416 6.04416 0 13.5 0C20.9558 0 27 6.04416 27 13.5C27 20.9558 20.9558 27 13.5 27C6.04416 27 0 20.9558 0 13.5Z" fill="#17191A"/>
<path d="M6.6096 13.9262C6.6096 11.9781 6.6096 10.0298 6.6096 8.08147C6.6096 7.43374 7.00753 7.03783 7.65661 7.03783C9.69339 7.03783 11.7302 7.03783 13.767 7.03783C13.9787 7.03783 13.9791 7.03783 13.9791 7.25733C13.9791 8.16159 13.9791 9.06586 13.9791 9.97012C13.9791 10.2452 14.0716 10.3364 14.3494 10.3364H17.0898C17.281 10.3364 17.2817 10.3364 17.2817 10.5303C17.2817 13.6251 17.2817 16.72 17.2817 19.815C17.2817 20.3789 16.8575 20.8109 16.2936 20.8112C13.3943 20.8132 10.4951 20.8132 7.59601 20.8112C7.03076 20.8112 6.60826 20.3799 6.60792 19.8143C6.60837 17.8514 6.60893 15.8887 6.6096 13.9262ZM11.8069 14.9001C12.5898 14.9001 13.3725 14.9001 14.1551 14.9001C14.3881 14.9001 14.4743 14.8096 14.4736 14.577C14.4712 13.6653 13.84 12.7977 12.9465 12.5119C12.2974 12.3042 11.6228 12.3483 10.9663 12.4365C9.95161 12.5711 9.15945 13.5205 9.13723 14.5399C9.13117 14.8204 9.20692 14.8998 9.48669 14.9001C10.2601 14.9006 11.0335 14.9006 11.8069 14.9001ZM13.3374 10.2408C13.3293 10.1135 13.3313 10.0196 13.3168 9.92804C13.2532 9.53694 13.0406 9.18566 12.7237 8.94781C12.4067 8.70996 12.01 8.60399 11.6167 8.6521C10.8603 8.74199 10.2415 9.38669 10.2701 10.2452C10.2903 10.8512 10.5374 11.373 10.9892 11.7861C11.4632 12.2193 12.0392 12.25 12.5378 11.8487C13.0563 11.4305 13.3054 10.8693 13.3374 10.2408ZM8.75311 17.2318C8.55751 17.2318 8.36157 17.2288 8.16597 17.2345C8.10225 17.2341 8.04076 17.2579 7.99407 17.3013C7.94738 17.3447 7.91903 17.4043 7.91483 17.4678C7.9069 17.5308 7.92194 17.5945 7.95719 17.6472C7.99244 17.7 8.04553 17.7382 8.10672 17.755C8.179 17.7736 8.2538 17.7804 8.32824 17.7752H15.6102C15.6754 17.7797 15.7409 17.7717 15.8031 17.7516C15.8628 17.7301 15.9131 17.6882 15.9452 17.6334C15.9773 17.5786 15.9892 17.5143 15.9788 17.4517C15.9696 17.3913 15.9393 17.3362 15.8932 17.2961C15.8472 17.256 15.7884 17.2336 15.7273 17.2329C15.6671 17.2295 15.6065 17.2329 15.5459 17.2329L8.75311 17.2318ZM15.593 19.2033C15.6492 19.2061 15.7055 19.204 15.7613 19.1969C15.8247 19.1852 15.8817 19.1512 15.9221 19.1011C15.9625 19.0509 15.9836 18.9879 15.9816 18.9236C15.9796 18.8592 15.9545 18.7977 15.911 18.7502C15.8675 18.7027 15.8084 18.6723 15.7445 18.6647C15.6934 18.6602 15.6422 18.659 15.591 18.661H8.26663C8.22936 18.6597 8.19204 18.6606 8.15486 18.6637C8.08916 18.6692 8.02789 18.6991 7.98311 18.7475C7.93832 18.7959 7.91325 18.8593 7.91281 18.9252C7.91257 18.9909 7.93571 19.0545 7.97809 19.1046C8.02046 19.1548 8.07931 19.1882 8.14409 19.1989C8.20001 19.2046 8.25627 19.2062 8.31242 19.2036L15.593 19.2033ZM11.9551 15.8031H8.31915C8.25863 15.8013 8.19805 15.8028 8.1377 15.8078C8.07517 15.8162 8.0178 15.847 7.97617 15.8944C7.93455 15.9418 7.91146 16.0027 7.91117 16.0658C7.91089 16.1289 7.93342 16.19 7.97461 16.2378C8.01581 16.2856 8.07289 16.3169 8.13534 16.3259C8.19127 16.3314 8.24749 16.3333 8.30367 16.3316H15.5755C15.636 16.3334 15.6966 16.3315 15.7569 16.3259C15.8203 16.3196 15.8788 16.2894 15.9207 16.2416C15.9626 16.1937 15.9847 16.1316 15.9825 16.068C15.9825 15.8997 15.8728 15.8041 15.6617 15.8037C14.4257 15.8019 13.1902 15.8013 11.9551 15.8017V15.8031Z" fill="#17191A"/>
<path d="M20.3877 14.2342C20.3877 15.5717 20.3877 16.9091 20.3877 18.2465C20.3877 18.4371 20.3877 18.4378 20.1921 18.4378C19.5117 18.4378 18.8313 18.4351 18.1513 18.4408C18.0166 18.4408 17.9641 18.4071 17.9644 18.2617C17.9682 15.5778 17.9682 12.8939 17.9644 10.2098C17.9644 10.0752 18.0112 10.0327 18.1425 10.0338C18.8323 10.0381 19.5228 10.0395 20.2116 10.0338C20.3571 10.0338 20.3907 10.0863 20.3904 10.2226C20.386 11.5595 20.3877 12.897 20.3877 14.2342Z" fill="#17191A"/>
<path d="M19.1791 18.9811C19.5285 18.9811 19.8783 18.9852 20.2274 18.9791C20.3483 18.9791 20.3958 19.0165 20.3894 19.14C20.3739 19.3905 20.4126 19.643 20.3628 19.8925C20.2584 20.4153 19.7932 20.7907 19.2616 20.8176C18.5505 20.8533 18.0604 20.384 17.9802 19.8214C17.9466 19.5763 17.9701 19.3282 17.9688 19.0808C17.9688 18.9764 18.0459 18.9798 18.1169 18.9798L19.1791 18.9811Z" fill="#17191A"/>
<path d="M15.8159 9.79138C15.4388 9.79138 15.0617 9.78801 14.685 9.79306C14.5669 9.79474 14.5204 9.75939 14.5211 9.63449C14.5258 8.876 14.5231 8.11718 14.5241 7.35835C14.5241 7.31963 14.5029 7.26341 14.55 7.2459C14.5972 7.2284 14.6204 7.28226 14.6487 7.31021C15.4373 8.09439 16.2257 8.87926 17.0137 9.66479C17.0413 9.6924 17.0948 9.71664 17.0746 9.76377C17.0544 9.8109 17.0002 9.79037 16.9612 9.7907C16.5794 9.79205 16.1976 9.79138 15.8159 9.79138Z" fill="#17191A"/>
<path d="M19.1771 9.50757C18.8552 9.50757 18.5337 9.50757 18.2122 9.50757C18.0627 9.50757 18.0523 9.49209 18.1031 9.35709C18.3597 8.67726 18.6168 7.99766 18.8744 7.31828C18.936 7.15635 19.0444 7.06983 19.1774 7.06983C19.3104 7.06983 19.4181 7.15467 19.4804 7.31794C19.7381 7.99732 19.9949 8.67704 20.251 9.35709C20.3019 9.49175 20.2914 9.5069 20.1416 9.50757C19.8201 9.50824 19.4986 9.50757 19.1771 9.50757Z" fill="#17191A"/>
<path d="M11.8053 14.3709C11.1629 14.3709 10.5204 14.3709 9.87757 14.3709C9.69611 14.3709 9.68399 14.3521 9.73382 14.1753C9.83261 13.8203 10.0446 13.5072 10.3375 13.2836C10.6304 13.06 10.9883 12.9381 11.3568 12.9364C11.6733 12.9344 11.9901 12.9337 12.3066 12.9364C13.0354 12.9448 13.734 13.5182 13.8912 14.2268C13.9225 14.3686 13.8461 14.3706 13.7471 14.3706C13.1001 14.3704 12.4528 14.3705 11.8053 14.3709Z" fill="#17191A"/>
<path d="M11.8009 9.1874C11.9457 9.1872 12.0889 9.21853 12.2204 9.27921C12.3519 9.33989 12.4687 9.42846 12.5625 9.53878C12.6564 9.6491 12.7251 9.77852 12.7639 9.91806C12.8027 10.0576 12.8107 10.2039 12.7873 10.3468C12.7284 10.7313 12.5729 11.0693 12.2968 11.3447C11.9756 11.6649 11.6316 11.6709 11.3178 11.3471C10.9515 10.9683 10.7424 10.5202 10.8364 9.97955C10.9162 9.518 11.3316 9.18706 11.8009 9.1874Z" fill="#17191A"/>
</svg>
