<svg width="20" height="20" viewBox="0 0 20 20" fill="none" xmlns="http://www.w3.org/2000/svg">
<path fill-rule="evenodd" clip-rule="evenodd" d="M0 5C0 2.23858 2.23858 0 5 0H15C17.7614 0 20 2.23858 20 5V15C20 17.7614 17.7614 20 15 20H5C2.23858 20 0 17.7614 0 15V5ZM9.99219 15H5.14015C5.0031 15 5.00094 14.9983 5.00094 14.8904C5.00094 14.7106 5.0007 14.5308 5.00047 14.3511C4.99988 13.9017 4.9993 13.4523 5.00238 13.0029C5.00405 12.7502 5.12218 12.5297 5.32776 12.3366C5.47839 12.195 5.67118 12.0992 5.86379 12.0035C5.89515 11.9879 5.92652 11.9723 5.95769 11.9565C6.65405 11.6098 7.41476 11.353 8.21167 11.1956C8.46374 11.1473 8.71485 11.1001 8.97123 11.0682C9.16938 11.0406 9.3694 11.0225 9.57025 11.0137C9.62342 11.0122 9.6766 11.0101 9.72978 11.008C9.87048 11.0024 10.0112 10.9967 10.1523 11.0023C10.4158 11.013 10.6794 11.0267 10.9406 11.055C11.3169 11.0974 11.6887 11.1619 12.0531 11.2481C12.826 11.4269 13.5667 11.6645 14.228 12.0381L14.2281 12.0382C14.4138 12.143 14.6001 12.2482 14.7357 12.3999C14.8544 12.5298 14.9361 12.6788 14.9753 12.8365C14.9946 12.9279 15.0026 13.0206 14.9993 13.1133V14.8961C14.9993 14.9964 14.9945 15 14.8675 15H9.99219ZM12.0768 8.89171C12.3522 8.48082 12.4994 7.99749 12.5 7.50287C12.5001 6.84071 12.2377 6.2055 11.7704 5.73638C11.3031 5.26726 10.6689 5.00247 10.0067 5.00001C9.51207 4.99869 9.02818 5.14411 8.61624 5.41788C8.2043 5.69165 7.88283 6.08147 7.6925 6.538C7.50217 6.99453 7.45154 7.49725 7.54702 7.98257C7.64249 8.46788 7.87978 8.91397 8.22886 9.26438C8.57793 9.6148 9.02311 9.85379 9.50805 9.95112C9.993 10.0484 10.4959 9.99974 10.9532 9.81116C11.4104 9.62258 11.8015 9.3026 12.0768 8.89171Z" fill="#8C2133"/>
</svg>
