<svg xmlns="http://www.w3.org/2000/svg" viewBox="0 0 1075 901"><defs><style>.cls-1{fill:none;stroke:#8c2133;stroke-miterlimit:10;stroke-width:20px;}.cls-2{fill:#8c2133;}</style></defs><title>rub</title><g id="Layer_9" data-name="Layer 9"><circle class="cls-1" cx="538" cy="451" r="391"/></g><g id="Layer_10" data-name="Layer 10"><path class="cls-2" d="M372.15,596.9h61.13v58.37a10,10,0,0,0,2.46,7A8,8,0,0,0,442,665H487.6a8.16,8.16,0,0,0,6.14-2.74,9.73,9.73,0,0,0,2.59-7V596.9H634.17a8,8,0,0,0,6.27-2.73,10,10,0,0,0,2.46-7V548.27a10,10,0,0,0-2.46-7,8.06,8.06,0,0,0-6.27-2.74H496.33V502.67h92.8q54.58,0,89.11-37.08t34.53-95.76q0-58.65-34.53-95.75T589.13,237H442a8.07,8.07,0,0,0-6.28,2.73,10.1,10.1,0,0,0-2.46,7V437.93H372.15a7.87,7.87,0,0,0-6.28,2.89,10.19,10.19,0,0,0-2.46,6.84v45.28a10,10,0,0,0,2.46,7,8,8,0,0,0,6.28,2.73h61.13v35.87H372.15a8,8,0,0,0-6.28,2.74,10.06,10.06,0,0,0-2.46,7v38.91a10,10,0,0,0,2.46,7A8,8,0,0,0,372.15,596.9ZM496.33,301.75h87.34q28.92,0,46.67,18.85t17.74,49.24q0,30.41-17.74,49.24t-46.67,18.86H496.33Z"/></g></svg>