<svg xmlns="http://www.w3.org/2000/svg" viewBox="0 0 1075 901"><defs><style>.cls-1{fill:#fff;}.cls-2{fill:none;stroke:#8c2133;stroke-miterlimit:10;stroke-width:20px;}.cls-3{fill:#8c2133;}</style></defs><title>runner</title><g id="КРУГИ"><circle class="cls-1" cx="549" cy="451" r="391"/><circle class="cls-1" cx="543" cy="451" r="391"/></g><g id="Layer_9" data-name="Layer 9"><circle class="cls-2" cx="538" cy="451" r="391"/><path class="cls-3" d="M462,309h7.71q46.57,0,93.15,0c4.12,0,7.86-1,10.94-3.72,4.74-4.23,6.07-10.05,3.88-16-1.86-5.07-7.3-8.86-13.27-8.95-7.49-.11-15,0-22.48,0l-179.88,0c-3.43,0-6.86.14-9.88,2.12a14.34,14.34,0,0,0-6.07,16.5c1.67,5.86,7.48,10.05,14.08,10.05Q411.09,309,462,309Zm203.64-53.7c-24-.8-46.1,19.79-45.58,46.41a45.53,45.53,0,0,0,48.11,44.65c23.71-1.09,42.83-20.77,43.19-45.09C711.73,276.1,690.57,254.4,665.64,255.29ZM361.51,346.21q-39,0-78,0a42.72,42.72,0,0,0-5.77.28,13.15,13.15,0,0,0-11.24,9.29,13.89,13.89,0,0,0,3.11,14.61c3.66,3.95,8.35,4.43,13.24,4.43l147.09,0c4.07,0,8.14.08,12.2,0,8.82-.2,14.83-6.11,14.74-14.4s-6.44-14.14-15.36-14.15Q401.49,346.19,361.51,346.21Z"/><path class="cls-3" d="M684.93,455.42c-9.53-1.41-15.21-5-18.65-8-5.12-4.53-16.47-19-21.1-24.45-1.22-1.42-1.94-2.13-2.58-2.06-1.09.12-1.71,1.82-1.88,2.25-2.4,6.14-33.63,64.75-36.67,68.85-.2.27-1.06,1.38-.7,2.22.26.61,1.12.89,2.3,1.07l16.82,2.52c12.77,1.94,25.65,3.38,38.3,5.95,20.11,4.07,33.64,16.35,40.92,35.44q14.43,37.83,28.58,75.76c2.46,6.58,5.44,13,7,19.92,2.75,12.25-5.61,26.82-17.62,30.55-14.56,4.52-30.2-1.61-36.61-20-8.77-25.18-18.6-50-28-74.93-1.39-3.69-3-7.29-4.32-11a3.41,3.41,0,0,0-3.22-2.53q-25.71-3.81-51.4-7.71c-10.77-1.63-21.56-3.22-32.29-5.09a6.79,6.79,0,0,0-7.21,2.56c-11.87,14-23.89,28-35.83,41.92-11.51,13.47-26.38,19.26-43.82,19.93-22.88.87-45.74,2.2-68.61,3.32-8.65.42-17.31.9-26,1.15a27.24,27.24,0,0,1-26.1-17.29,27.53,27.53,0,0,1,6.44-29.82,28.37,28.37,0,0,1,18.86-7.69c17.84-.83,35.68-1.78,53.52-2.64,13.36-.65,26.72-1.28,40.08-1.79a6.41,6.41,0,0,0,5.21-2.41c11.34-13.34,22.79-26.6,34.21-39.89a24.06,24.06,0,0,1,1.69-1.93,13,13,0,0,0,4.53-8.8c.54-5.54,6.58-16.21,7.69-18.16,18.24-32.1,31.57-67.06,52.11-97.74.18-.26.89-1.29.54-2-.16-.34-.59-.6-1.45-.73-13.32-1.9-26.63-3.77-39.93-5.81a3.11,3.11,0,0,0-3.62,1.73Q526,394.86,515.87,411.71c-7,11.62-14.13,23.21-21.14,34.85-1.24,2.05-3.31,3.26-4.71,5.12-3.3,1.63-6.56,3.31-10.35,3.61-7.13.58-12.69-2.43-17.4-7.45A18,18,0,0,1,460.2,445a19.84,19.84,0,0,1-2.59-10.24c0-7,4.19-12.21,7.49-17.75,7.42-12.47,15.1-24.79,22.64-37.19,5.59-9.2,10.64-18.78,16.82-27.56,7.18-10.18,17.5-15.85,30.09-16.74,8.64-.61,17,1.64,25.47,2.81q22.23,3.09,44.41,6.61c9.57,1.51,19.34,2,28.66,4.83a31,31,0,0,1,18.44,14.6c3.56,6.29,8.07,11.77,12.53,17.34,8.22,10.25,16.57,20.4,24.65,30.75,1.91,2.44,3.73,2.45,6.3,1.7q28.77-8.38,57.57-16.61c5.23-1.51,10.48-3,15.69-4.52,11.59-3.46,23.16,2.61,26,14.39A20.45,20.45,0,0,1,792.16,423c-3.57,5.84-9.69,8.05-12.66,9.09-12.55,4.38-39.79,12.49-76,21.95l-8.31,1.73Z"/><path class="cls-3" d="M462,309q-50.91,0-101.82,0c-6.6,0-12.41-4.19-14.08-10.05a14.34,14.34,0,0,1,6.07-16.5c3-2,6.45-2.12,9.88-2.12l179.88,0c7.49,0,15-.08,22.48,0,6,.09,11.41,3.88,13.27,8.95,2.19,6,.86,11.81-3.88,16-3.08,2.75-6.82,3.72-10.94,3.72q-46.58-.06-93.15,0H462Z"/><path class="cls-3" d="M665.64,255.29c24.93-.89,46.09,20.81,45.72,46-.36,24.32-19.48,44-43.19,45.09a45.53,45.53,0,0,1-48.11-44.65C619.54,275.08,641.65,254.49,665.64,255.29Z"/><path class="cls-3" d="M444.81,478.4A13.71,13.71,0,0,1,455,480.7c6,4.4,5.36,12.05,5.33,12.43-.51,3.6-1.82,7.82-5.21,10.58-4.14,3.36-9.46,3-11,3q-84.17-.27-168.35,0c-8.5,0-14.11-5-15.32-11.28-1.51-7.84,2.32-13.79,10.32-16.8l.89-.35Z"/><path class="cls-3" d="M361.51,346.21q40,0,80,0c8.92,0,15.28,5.91,15.36,14.15s-5.92,14.2-14.74,14.4c-4.06.1-8.13,0-12.2,0l-147.09,0c-4.89,0-9.58-.48-13.24-4.43a13.89,13.89,0,0,1-3.11-14.61,13.15,13.15,0,0,1,11.24-9.29,42.72,42.72,0,0,1,5.77-.28Q322.49,346.2,361.51,346.21Z"/><path class="cls-3" d="M368.13,440.74H336.07l-1.36-.21a14.08,14.08,0,0,1-12.35-11.7,14.29,14.29,0,0,1,7.53-15,15.48,15.48,0,0,1,7.41-1.73q36.74,0,73.48,0c7.63,0,14,5.53,14.71,12.55.81,7.86-3.82,14.13-11.69,15.82q-15.46.22-31.18.26Z"/></g></svg>