<?xml version="1.0" encoding="utf-8"?>
<!-- Generator: Adobe Illustrator 24.0.3, SVG Export Plug-In . SVG Version: 6.00 Build 0)  -->
<svg version="1.1" id="Layer_1" xmlns="http://www.w3.org/2000/svg" xmlns:xlink="http://www.w3.org/1999/xlink" x="0px" y="0px"
	 viewBox="0 0 16 16" style="enable-background:new 0 0 16 16;" xml:space="preserve">
<style type="text/css">
	.st0{fill-rule:evenodd;clip-rule:evenodd;fill:#8C2133;}
	.st1{fill:#A73345;}
</style>
<path class="st0" d="M8,14c3.3,0,6-2.7,6-6c0-3.3-2.7-6-6-6C4.7,2,2,4.7,2,8C2,11.3,4.7,14,8,14z M8,16c4.4,0,8-3.6,8-8
	c0-4.4-3.6-8-8-8C3.6,0,0,3.6,0,8C0,12.4,3.6,16,8,16z"/>
<path class="st1" d="M12,8c0,2.2-1.8,4-4,4s-4-1.8-4-4s1.8-4,4-4S12,5.8,12,8z"/>
</svg>
