<svg id="Layer_1" data-name="Layer 1" xmlns="http://www.w3.org/2000/svg" viewBox="0 0 20 20"><defs><style>.cls-1{fill:#8c2133;fill-rule:evenodd;}</style></defs><title>sub_mainmenu_profile</title><path class="cls-1" d="M0,5A5,5,0,0,1,5,0H15a5,5,0,0,1,5,5V15a5,5,0,0,1-5,5H5a5,5,0,0,1-5-5ZM10,15H5.14C5,15,5,15,5,14.89V13a.88.88,0,0,1,.33-.66A2.4,2.4,0,0,1,5.86,12L6,12a8.41,8.41,0,0,1,2.25-.76c.25,0,.5-.1.76-.13s.4-.05.6-.06h.58c.27,0,.53,0,.79.06a8,8,0,0,1,1.11.19,7.87,7.87,0,0,1,2.18.79h0a2,2,0,0,1,.51.36,1.12,1.12,0,0,1,.24.44,2.45,2.45,0,0,1,0,.27V14.9c0,.1,0,.1-.13.1Zm2.09-6.11A2.52,2.52,0,0,0,12.5,7.5,2.51,2.51,0,0,0,10,5,2.49,2.49,0,0,0,7.55,8a2.43,2.43,0,0,0,.68,1.28A2.51,2.51,0,0,0,9.51,10,2.45,2.45,0,0,0,11,9.81,2.54,2.54,0,0,0,12.08,8.89Z"/></svg>