<svg width="34" height="34" viewBox="0 0 34 34" fill="none" xmlns="http://www.w3.org/2000/svg">
<path fill-rule="evenodd" clip-rule="evenodd" d="M5 0C2.23858 0 0 2.23858 0 5V29C0 31.7614 2.23858 34 5 34H29C31.7614 34 34 31.7614 34 29V5C34 2.23858 31.7614 0 29 0H5ZM19.021 5.95H14.97C14.9326 6.07076 14.9145 6.19521 14.8964 6.31976C14.8888 6.37151 14.8813 6.42328 14.8724 6.47482C14.7668 7.1025 14.6625 7.73018 14.5594 8.35787C14.5571 8.3824 14.5469 8.40551 14.5302 8.42363C14.5136 8.44174 14.4915 8.45386 14.4673 8.45812C13.8684 8.63123 13.2909 8.87192 12.7461 9.17558C12.7217 9.19079 12.693 9.19757 12.6644 9.1949C12.6358 9.19223 12.6089 9.18025 12.5877 9.1608C12.3395 8.98441 12.091 8.80863 11.8426 8.63287C11.4767 8.37407 11.111 8.11532 10.7463 7.85477C10.6658 7.79702 10.6188 7.79887 10.5465 7.87047C9.63444 8.77473 8.72066 9.67715 7.80519 10.5777C7.7435 10.6368 7.73844 10.6766 7.78954 10.7468C8.00895 11.0464 8.22692 11.3469 8.44487 11.6475C8.67093 11.9592 8.89695 12.2709 9.12453 12.5813C9.18346 12.6626 9.19036 12.7199 9.14433 12.8123C8.8516 13.3572 8.62001 13.933 8.45381 14.5291C8.44855 14.5591 8.43331 14.5865 8.41057 14.6067C8.38783 14.6269 8.35893 14.6388 8.3286 14.6404C7.68903 14.7325 7.04961 14.8266 6.41034 14.9227C6.36828 14.929 6.32596 14.9343 6.2836 14.9396C6.17159 14.9536 6.05922 14.9677 5.95 15.0012V19.0838C6.43091 19.1617 6.91166 19.2404 7.39226 19.3199C7.51345 19.3398 7.63457 19.3604 7.75568 19.381C7.94278 19.4129 8.12985 19.4447 8.31709 19.4742C8.35024 19.4758 8.38186 19.4886 8.4069 19.5105C8.43194 19.5324 8.44895 19.562 8.45519 19.5947C8.62346 20.1776 8.85631 20.7396 9.14939 21.2704C9.17004 21.2998 9.18027 21.3353 9.17843 21.3712C9.1766 21.4071 9.16281 21.4414 9.13926 21.4686C8.91785 21.7785 8.69769 22.0894 8.47748 22.4005C8.25357 22.7167 8.02962 23.033 7.80427 23.3484C7.74764 23.4269 7.74304 23.4731 7.81716 23.547C8.71759 24.4464 9.61557 25.3475 10.5111 26.2506C10.5774 26.3166 10.6202 26.3203 10.6952 26.2663C11.0411 26.0167 11.3883 25.7688 11.7354 25.5209C12.018 25.3191 12.3007 25.1173 12.5826 24.9145C12.6073 24.8927 12.6385 24.8796 12.6713 24.8774C12.7041 24.8753 12.7367 24.8841 12.764 24.9025C13.3096 25.1976 13.8859 25.4315 14.4825 25.6001C14.5167 25.6059 14.548 25.623 14.5715 25.6487C14.5949 25.6744 14.6091 25.7072 14.6118 25.7419C14.6617 26.0407 14.7123 26.3392 14.7628 26.6378C14.8359 27.0697 14.9091 27.5016 14.9801 27.934C14.9944 28.0214 15.0266 28.05 15.1159 28.05C16.3978 28.0469 17.68 28.0469 18.9626 28.05C19.0546 28.05 19.0859 28.02 19.1007 27.9276C19.169 27.5077 19.2387 27.0883 19.3083 26.6689C19.3621 26.3453 19.4158 26.0218 19.4689 25.698C19.4701 25.6645 19.4823 25.6324 19.5037 25.6065C19.525 25.5807 19.5542 25.5627 19.5868 25.5553C20.1657 25.3817 20.7256 25.1495 21.2578 24.8623C21.2889 24.8414 21.326 24.8314 21.3633 24.8339C21.4006 24.8364 21.4361 24.8513 21.4641 24.8762C21.7769 25.1014 22.0906 25.3252 22.4043 25.549C22.718 25.7729 23.0318 25.9967 23.3446 26.2219C23.4182 26.2755 23.4597 26.2672 23.5209 26.2053C24.421 25.2986 25.3247 24.3928 26.2318 23.4879C26.2908 23.4269 26.2935 23.3858 26.2447 23.3179C26.0341 23.0227 25.8244 22.727 25.6147 22.4313C25.378 22.0974 25.1413 21.7636 24.9033 21.4307C24.8783 21.4026 24.8632 21.3669 24.8605 21.3293C24.8577 21.2917 24.8674 21.2543 24.8881 21.2228C25.1754 20.6846 25.423 20.1288 25.5832 19.5379C25.6058 19.4543 25.6587 19.4367 25.7291 19.4266L27.2377 19.1993C27.3237 19.1864 27.4096 19.1733 27.4954 19.1603C27.6551 19.1361 27.8147 19.1118 27.9742 19.0884C28.0258 19.081 28.053 19.0588 28.0497 19.0048V18.9586C28.0476 17.6749 28.0476 16.3912 28.0497 15.1075C28.0497 15.0174 28.024 14.986 27.9347 14.9712C27.5265 14.9046 27.1186 14.8361 26.7106 14.7676C26.3601 14.7088 26.0097 14.65 25.6592 14.5924C25.6304 14.5912 25.603 14.5803 25.5812 14.5614C25.5595 14.5425 25.5448 14.5168 25.5395 14.4884C25.3729 13.8857 25.1325 13.3061 24.8237 12.7629C24.7887 12.7015 24.8085 12.6603 24.843 12.6141C25.2874 12.0003 25.7324 11.3854 26.178 10.7694C26.2585 10.6576 26.2581 10.6572 26.1623 10.5597L26.1623 10.5597C25.2828 9.66159 24.4027 8.76426 23.5223 7.8677C23.4484 7.7924 23.4224 7.75486 23.3926 7.75154C23.3622 7.74815 23.3279 7.78027 23.235 7.84414C22.6298 8.25993 22.0271 8.67864 21.4268 9.10028C21.3956 9.12628 21.3568 9.14142 21.3163 9.14342C21.2758 9.14541 21.2357 9.13417 21.2021 9.11137C20.6721 8.82564 20.1151 8.59351 19.5394 8.41839C19.5097 8.41262 19.4827 8.39725 19.4626 8.37464C19.4425 8.35203 19.4303 8.32341 19.428 8.29319C19.3452 7.79411 19.2605 7.29564 19.1757 6.7971C19.1326 6.54389 19.0896 6.29065 19.0468 6.03731C19.0442 6.00675 19.0355 5.97703 19.021 5.95ZM12.7741 17.0132C12.7852 14.5706 14.8089 12.7777 17.0038 12.8017C19.1973 12.7874 21.2233 14.5914 21.2159 17.0497C21.209 19.4585 19.271 21.3184 16.903 21.2722C14.6519 21.2269 12.7631 19.4224 12.7741 17.0132Z" fill="#8C2133"/>
</svg>
