<svg width="34" height="34" viewBox="0 0 34 34" fill="none" xmlns="http://www.w3.org/2000/svg">
<path fill-rule="evenodd" clip-rule="evenodd" d="M0 5C0 2.23858 2.23858 0 5 0H29C31.7614 0 34 2.23858 34 5V29C34 31.7614 31.7614 34 29 34H5C2.23858 34 0 31.7614 0 29V5ZM9.62564 6.79997C9.22917 6.79929 8.83647 6.87688 8.47005 7.0283C8.10363 7.17971 7.7707 7.40196 7.49035 7.6823C7.21001 7.96265 6.98776 8.29558 6.83635 8.662C6.68493 9.02842 6.60734 9.42112 6.60802 9.81759V14.3378L9.62564 14.3469V9.8193H24.7223V24.9143H9.62564V20.3861L6.60802 20.377V24.9143C6.60734 25.3107 6.68493 25.7034 6.83635 26.0699C6.98776 26.4363 7.21001 26.7692 7.49035 27.0495C7.7707 27.3299 8.10363 27.5521 8.47005 27.7036C8.83647 27.855 9.22917 27.9326 9.62564 27.9319H24.7223C25.1188 27.9326 25.5115 27.855 25.8779 27.7036C26.2443 27.5521 26.5772 27.3299 26.8576 27.0495C27.1379 26.7692 27.3602 26.4363 27.5116 26.0699C27.663 25.7034 27.7406 25.3107 27.7399 24.9143V9.8193C27.7406 9.42283 27.663 9.03013 27.5116 8.66371C27.3602 8.29729 27.1379 7.96436 26.8576 7.68401C26.5772 7.40367 26.2443 7.18141 25.8779 7.03C25.5115 6.87859 25.1188 6.801 24.7223 6.80167L9.62564 6.79997ZM13.8937 13.4206L15.9844 11.3293L22.0237 17.3663L15.9844 23.4658L13.8937 21.3746L16.3614 18.9058L5.09878 18.8739V15.8563L16.3614 15.8882L13.8937 13.4206Z" fill="#8C2133"/>
</svg>
