<svg width="40" height="40" viewBox="0 0 40 40" fill="none" xmlns="http://www.w3.org/2000/svg">
<path d="M20.0008 0C8.95475 0 0 8.95475 0 20.0008C0 31.0469 8.95475 40 20.0008 40C31.0469 40 40 31.0456 40 20.0008C40 8.95607 31.0469 0 20.0008 0ZM11.6216 11.1263L19.8942 3.96221C19.9202 3.93989 19.9532 3.92761 19.9875 3.92761C20.0217 3.92761 20.0548 3.93989 20.0807 3.96221L28.3714 11.1421C28.3966 11.1636 28.4135 11.1933 28.4192 11.2259C28.4249 11.2586 28.419 11.2922 28.4025 11.321C28.386 11.3497 28.36 11.3718 28.329 11.3835C28.2979 11.3951 28.2638 11.3955 28.2325 11.3847C25.7415 10.5289 22.9383 10.0478 19.9738 10.0478C17.0274 10.0478 14.2397 10.5227 11.7602 11.3679C11.7292 11.378 11.6955 11.3771 11.665 11.3654C11.6345 11.3537 11.609 11.3318 11.5927 11.3034C11.5764 11.2751 11.5704 11.242 11.5757 11.2097C11.581 11.1774 11.5972 11.148 11.6216 11.1263ZM19.0233 27.8493C17.9199 29.7443 16.2164 30.6917 13.9126 30.6915H7.34524V28.0375L10.4355 28.0464H13.3754C14.8798 28.0464 15.9288 27.3057 16.5224 25.8244C16.8465 25.0103 17.0086 24.0422 17.0089 22.9202C17.0089 21.3702 16.7656 20.1799 16.2792 19.3494C15.7927 18.5188 14.8247 18.1037 13.375 18.1039H10.4355V25.1993H7.34524V15.4571H13.9126C14.8571 15.471 15.6433 15.581 16.2709 15.7871C17.3396 16.1392 18.205 16.7835 18.8672 17.7201C19.3898 18.4592 19.759 19.2956 19.9533 20.1797C20.1463 21.062 20.2427 21.9026 20.2427 22.7017C20.2434 24.7278 19.8369 26.4437 19.0233 27.8493ZM33.4986 24.0977C32.608 24.8416 31.3346 25.2136 29.6783 25.2138H26.5062V30.6921H23.3436C23.3403 27.9893 23.3371 25.2864 23.334 22.5836L28.1414 22.5892H29.375C30.1011 22.5892 30.6657 22.4066 31.069 22.0413C31.4723 21.6761 31.6739 21.0974 31.6739 20.3051C31.6739 19.5131 31.4723 18.9481 31.069 18.6101C30.6657 18.2722 30.1011 18.1034 29.375 18.1039H26.5062V19.7728H23.3436V15.4571H29.8856C31.3933 15.4571 32.5956 15.8498 33.4924 16.6353C34.3891 17.4207 34.837 18.6369 34.8359 20.2837C34.8359 22.0823 34.3901 23.3536 33.4986 24.0977Z" fill="white"/>
</svg>
