<svg width="30" height="30" viewBox="0 0 30 30" fill="none" xmlns="http://www.w3.org/2000/svg">
<path fill-rule="evenodd" clip-rule="evenodd" d="M5 0C2.23858 0 0 2.23858 0 5V25C0 27.7614 2.23858 30 5 30H25C27.7614 30 30 27.7614 30 25V5C30 2.23858 27.7614 0 25 0H5ZM21.5804 5.90563H8.4322L8.43422 8.31628C8.43402 8.41816 8.43392 8.46876 8.40857 8.49389C8.38356 8.51868 8.33397 8.51868 8.23546 8.51868H4.74478C4.73169 8.51868 4.71874 8.51895 4.70579 8.51922C4.67988 8.51976 4.65397 8.5203 4.62698 8.51868C4.5355 8.51342 4.50554 8.55309 4.50554 8.64579C4.50664 8.95126 4.50463 9.25682 4.50262 9.56238C4.49869 10.1598 4.49476 10.7572 4.51404 11.354C4.54764 12.3789 4.9565 13.2578 5.69042 13.9731C6.53688 14.7985 7.56347 15.1596 8.74026 15.0948C8.99979 15.0789 9.25664 15.0333 9.50575 14.9588C9.58914 14.9341 9.63853 14.945 9.69399 15.0195C10.6283 16.2813 11.852 17.1197 13.3725 17.5208L13.4033 17.5302C13.6785 17.6002 13.6785 17.6002 13.6785 17.8803V21.4556C13.6785 21.6357 13.6781 21.6357 13.5024 21.6357C13.374 21.6357 13.2455 21.6355 13.117 21.6353C12.8599 21.6348 12.6028 21.6344 12.3459 21.6357C11.0513 21.643 9.93283 22.6409 9.7709 23.9253C9.7595 24.0137 9.75315 24.1026 9.75188 24.1917C9.75107 24.254 9.77617 24.2828 9.84013 24.2828H9.97938H20.0332C20.1552 24.2828 20.2168 24.2828 20.245 24.2521C20.2738 24.2209 20.2681 24.158 20.2567 24.031C20.2062 23.4924 19.9915 22.9824 19.6418 22.5697C19.292 22.1571 18.824 21.8617 18.3011 21.7236C18.0837 21.6656 17.8597 21.6362 17.6347 21.6361H16.4891C16.3398 21.6361 16.3345 21.6309 16.3345 21.4779C16.3361 20.2364 16.3353 18.995 16.3321 17.7536C16.3317 17.639 16.3648 17.5852 16.4839 17.5581C17.544 17.3184 18.5265 16.8152 19.3406 16.0951C19.7019 15.781 20.0258 15.4263 20.3061 15.0381C20.3644 14.9572 20.4146 14.9341 20.5166 14.962C21.0386 15.1056 21.5845 15.1403 22.1205 15.064C22.6564 14.9877 23.171 14.802 23.6322 14.5185C24.0933 14.2349 24.4913 13.8596 24.8013 13.4158C25.1113 12.9719 25.3267 12.4691 25.4342 11.9385C25.453 11.848 25.4666 11.7565 25.4801 11.665C25.4863 11.6227 25.4926 11.5804 25.4994 11.5382V8.51909H21.7666C21.5828 8.51909 21.5828 8.51868 21.5828 8.33449L21.5804 5.90563ZM6.19886 9.85374H7.25825H7.25865C7.35945 9.85374 7.46029 9.85399 7.56114 9.85423C7.8062 9.85481 8.05139 9.8554 8.29659 9.85253C8.40022 9.85091 8.43422 9.88734 8.43422 9.98855C8.43515 10.1426 8.43472 10.2966 8.43429 10.4506C8.43342 10.7636 8.43254 11.0765 8.44313 11.3896C8.46477 12.053 8.58763 12.7092 8.80746 13.3355C8.86008 13.4857 8.85968 13.4861 8.70585 13.5047C7.42098 13.6614 6.22355 12.7016 6.10211 11.4062C6.07321 11.1016 6.07759 10.7956 6.08199 10.489C6.08455 10.3103 6.08711 10.1314 6.08308 9.95252C6.08146 9.8671 6.12842 9.85374 6.19886 9.85374ZM21.7419 9.85374H22.758H22.7584C22.8448 9.85374 22.9312 9.85395 23.0177 9.85415C23.2772 9.85476 23.537 9.85536 23.7976 9.85051C23.9016 9.84889 23.9324 9.8841 23.9324 9.98652C23.9297 10.2094 23.9301 10.4322 23.9304 10.6551C23.9307 10.8423 23.931 11.0295 23.9295 11.2167C23.9202 12.2976 23.0839 13.2853 22.0176 13.4768C21.7686 13.5238 21.5138 13.5318 21.2622 13.5007C21.1752 13.4893 21.1627 13.457 21.1902 13.3813C21.3897 12.8312 21.5141 12.2567 21.5602 11.6734C21.5756 11.4847 21.5828 11.2957 21.5828 11.1066C21.5845 10.8652 21.5839 10.6228 21.5834 10.3801C21.5831 10.2587 21.5828 10.1372 21.5828 10.0157C21.5833 9.85374 21.5845 9.85374 21.7419 9.85374Z" fill="white"/>
</svg>
