<?xml version="1.0" encoding="utf-8"?>
<!-- Generator: Adobe Illustrator 24.0.3, SVG Export Plug-In . SVG Version: 6.00 Build 0)  -->
<svg version="1.1" id="Layer_1" xmlns="http://www.w3.org/2000/svg" xmlns:xlink="http://www.w3.org/1999/xlink" x="0px" y="0px"
	 viewBox="0 0 30 30" style="enable-background:new 0 0 30 30;" xml:space="preserve">
<style type="text/css">
	.st0{fill-rule:evenodd;clip-rule:evenodd;fill:#8C2133;}
</style>
<path class="st0" d="M5,0C2.2,0,0,2.2,0,5v20c0,2.8,2.2,5,5,5h20c2.8,0,5-2.2,5-5V5c0-2.8-2.2-5-5-5H5z M21.6,5.9H8.4l0,2.4
	c0,0.1,0,0.2,0,0.2c0,0-0.1,0-0.2,0H4.7c0,0,0,0,0,0c0,0-0.1,0-0.1,0c-0.1,0-0.1,0-0.1,0.1c0,0.3,0,0.6,0,0.9c0,0.6,0,1.2,0,1.8
	c0,1,0.4,1.9,1.2,2.6c0.8,0.8,1.9,1.2,3,1.1C9,15.1,9.3,15,9.5,15c0.1,0,0.1,0,0.2,0.1c0.9,1.3,2.2,2.1,3.7,2.5l0,0
	c0.3,0.1,0.3,0.1,0.3,0.4v3.6c0,0.2,0,0.2-0.2,0.2c-0.1,0-0.3,0-0.4,0c-0.3,0-0.5,0-0.8,0c-1.3,0-2.4,1-2.6,2.3c0,0.1,0,0.2,0,0.3
	c0,0.1,0,0.1,0.1,0.1H10H20c0.1,0,0.2,0,0.2,0c0,0,0-0.1,0-0.2c-0.1-0.5-0.3-1-0.6-1.5c-0.3-0.4-0.8-0.7-1.3-0.8
	c-0.2-0.1-0.4-0.1-0.7-0.1h-1.1c-0.1,0-0.2,0-0.2-0.2c0-1.2,0-2.5,0-3.7c0-0.1,0-0.2,0.2-0.2c1.1-0.2,2-0.7,2.9-1.5
	c0.4-0.3,0.7-0.7,1-1.1c0.1-0.1,0.1-0.1,0.2-0.1c0.5,0.1,1.1,0.2,1.6,0.1c0.5-0.1,1.1-0.3,1.5-0.5c0.5-0.3,0.9-0.7,1.2-1.1
	c0.3-0.4,0.5-0.9,0.6-1.5c0-0.1,0-0.2,0-0.3c0,0,0-0.1,0-0.1v-3h-3.7c-0.2,0-0.2,0-0.2-0.2L21.6,5.9z M6.2,9.9h1.1h0
	c0.1,0,0.2,0,0.3,0c0.2,0,0.5,0,0.7,0c0.1,0,0.1,0,0.1,0.1c0,0.2,0,0.3,0,0.5c0,0.3,0,0.6,0,0.9c0,0.7,0.1,1.3,0.4,1.9
	c0.1,0.2,0.1,0.2-0.1,0.2c-1.3,0.2-2.5-0.8-2.6-2.1c0-0.3,0-0.6,0-0.9c0-0.2,0-0.4,0-0.5C6.1,9.9,6.1,9.9,6.2,9.9z M21.7,9.9h1h0
	c0.1,0,0.2,0,0.3,0c0.3,0,0.5,0,0.8,0c0.1,0,0.1,0,0.1,0.1c0,0.2,0,0.4,0,0.7c0,0.2,0,0.4,0,0.6c0,1.1-0.8,2.1-1.9,2.3
	c-0.2,0-0.5,0.1-0.8,0c-0.1,0-0.1,0-0.1-0.1c0.2-0.6,0.3-1.1,0.4-1.7c0-0.2,0-0.4,0-0.6c0-0.2,0-0.5,0-0.7c0-0.1,0-0.2,0-0.4
	C21.6,9.9,21.6,9.9,21.7,9.9z"/>
</svg>
