<svg width="20" height="20" viewBox="0 0 20 20" fill="none" xmlns="http://www.w3.org/2000/svg">
<path fill-rule="evenodd" clip-rule="evenodd" d="M5 0C2.23858 0 0 2.23858 0 5V15C0 17.7614 2.23858 20 5 20H15C17.7614 20 20 17.7614 20 15V5C20 2.23858 17.7614 0 15 0H5ZM16.2645 7.37998C16.3768 7.26769 16.4548 7.14286 16.4491 6.97812C16.4512 6.91023 16.4388 6.84267 16.4129 6.77989C16.387 6.71711 16.348 6.66054 16.2987 6.61389L14.848 5.15695C14.781 5.08703 14.6953 5.03777 14.6012 5.01502C14.3715 4.96087 14.2005 5.05891 14.0437 5.21623C12.157 7.10447 10.2697 8.99215 8.38184 10.8792C8.26385 10.9932 8.26328 10.9932 8.14643 10.8792C7.61214 10.3423 7.07634 9.80668 6.53901 9.2724C6.29904 9.03414 6.00093 9.03186 5.75981 9.26898C5.28177 9.73866 4.80676 10.2106 4.3348 10.6849C4.28138 10.7341 4.23874 10.7939 4.20958 10.8605C4.18042 10.9271 4.16536 10.999 4.16536 11.0716C4.16536 11.1443 4.18042 11.2162 4.20958 11.2827C4.23874 11.3493 4.28138 11.4091 4.3348 11.4584C5.51661 12.6406 6.69823 13.8228 7.87967 15.005C7.94996 15.0771 8.03899 15.1282 8.13674 15.1526C8.36816 15.2096 8.546 15.1184 8.70675 14.9565C10.5912 13.0664 12.476 11.1762 14.3612 9.28608C14.9932 8.64995 15.6276 8.01458 16.2645 7.37998Z" fill="#8C2133"/>
</svg>
