<svg width="21" height="21" viewBox="0 0 21 21" fill="none" xmlns="http://www.w3.org/2000/svg">
<path fill-rule="evenodd" clip-rule="evenodd" d="M5 0C2.23858 0 0 2.23858 0 5V16C0 18.7614 2.23858 21 5 21H16C18.7614 21 21 18.7614 21 16V5C21 2.23858 18.7614 0 16 0H5ZM8.81202 7.60982V8.73613L8.81233 8.73705C8.81233 8.86722 8.81253 8.9974 8.81273 9.12758C8.81314 9.38799 8.81355 9.64844 8.81233 9.90902C8.81141 10.043 8.76636 10.081 8.63455 10.0771C8.51218 10.0731 8.42999 10.0095 8.35754 9.91511C7.81796 9.22198 7.346 8.47878 6.94812 7.69566C6.79013 7.3806 6.61601 7.07223 6.37248 6.80983C6.32601 6.75629 6.26853 6.71343 6.20396 6.68416C6.13939 6.6549 6.06926 6.63993 5.99836 6.64027C5.34662 6.63905 4.69519 6.63814 4.04375 6.64271C3.84893 6.64484 3.75121 6.73068 3.70464 6.91881C3.6509 7.1141 3.66158 7.32153 3.73508 7.51028C3.74234 7.52822 3.74957 7.54618 3.75681 7.56415C3.80933 7.6946 3.86192 7.82523 3.92534 7.95045C4.36929 8.83078 4.88059 9.6755 5.45469 10.4771C6.01785 11.26 6.62758 12.0061 7.26441 12.7297C7.68266 13.2046 8.14811 13.6243 8.69878 13.9412C8.72681 13.9573 8.75478 13.9738 8.78279 13.9902C8.96987 14.1002 9.15902 14.2114 9.38249 14.2289C9.86624 14.2668 10.3508 14.2609 10.8353 14.2549C10.9575 14.2534 11.0797 14.2519 11.2019 14.2511C11.3712 14.2499 11.5149 14.1866 11.6028 14.0313C11.6673 13.9221 11.7107 13.8017 11.7307 13.6764C11.7561 13.501 11.7633 13.3243 11.7705 13.1476C11.7719 13.1127 11.7733 13.0778 11.7748 13.0429C11.7759 13.0201 11.7767 12.9973 11.7776 12.9744C11.7837 12.8119 11.79 12.6482 11.8497 12.4929C11.9267 12.2932 12.1407 12.2435 12.3033 12.3845C12.4803 12.538 12.6458 12.7033 12.8115 12.8687C12.8458 12.9029 12.8801 12.9372 12.9146 12.9714C13.0219 13.0777 13.1273 13.1861 13.2326 13.2945C13.5011 13.5707 13.7694 13.8469 14.0713 14.0873L14.0748 14.0901C14.1762 14.1708 14.2799 14.2532 14.4174 14.2517C14.6784 14.249 14.9393 14.2514 15.2003 14.2538C15.7059 14.2584 16.2115 14.2631 16.7166 14.2307C17.0137 14.2115 17.2892 13.9166 17.3181 13.6167C17.3423 13.3662 17.2038 13.1928 17.065 13.019C17.0603 13.013 17.0556 13.0071 17.0509 13.0012C16.7911 12.6757 16.505 12.3739 16.219 12.0721C16.134 11.9824 16.049 11.8927 15.9647 11.8025C15.7005 11.5197 15.4399 11.2347 15.1994 10.9303C15.0832 10.7836 15.0801 10.727 15.1714 10.5672C15.3931 10.1696 15.6609 9.80339 15.941 9.44571C16.0493 9.30773 16.1614 9.17287 16.2733 9.03809C16.5107 8.75241 16.7478 8.46705 16.9486 8.15288C17.1105 7.89992 17.2445 7.63874 17.2834 7.33433C17.3251 7.00983 17.1571 6.74012 16.8481 6.66767C16.7497 6.64751 16.6493 6.63842 16.5489 6.64058C16.2843 6.63972 16.0196 6.63996 15.755 6.6402C15.2713 6.64065 14.7875 6.64109 14.3039 6.63479C14.0865 6.63297 13.9505 6.71698 13.8655 6.90694C13.8567 6.92649 13.847 6.94564 13.8372 6.96485C13.8301 6.97883 13.823 6.99285 13.8162 7.00709C13.5664 7.5322 13.3362 8.06586 13.1059 8.59961C13.0828 8.65314 13.0597 8.70666 13.0366 8.76018C12.8494 9.19427 12.6269 9.6034 12.2677 9.92303C12.2016 9.98208 12.1343 10.042 12.0494 10.0752C11.9216 10.1248 11.8281 10.078 11.7925 9.94677C11.7761 9.87421 11.7693 9.7998 11.7724 9.72546C11.7723 9.48672 11.7725 9.24796 11.7726 9.00919C11.773 8.38849 11.7734 7.76772 11.7697 7.14711C11.7681 6.89385 11.7657 6.62992 11.5188 6.46767C11.3401 6.34987 11.1322 6.30634 10.9228 6.30451C10.2044 6.29873 9.48568 6.30116 8.76727 6.30451C8.62079 6.30687 8.47847 6.35357 8.35906 6.43845C8.18129 6.56021 8.10031 6.78639 8.15085 7.02383C8.19346 7.2223 8.35328 7.25061 8.51614 7.27405L8.53805 7.27862C8.75632 7.32002 8.81202 7.38364 8.81202 7.60982Z" fill="white"/>
</svg>
