<svg width="21" height="20" viewBox="0 0 21 20" fill="none" xmlns="http://www.w3.org/2000/svg">
<path fill-rule="evenodd" clip-rule="evenodd" d="M5.17969 0C2.41826 0 0.179688 2.23858 0.179688 5V15C0.179688 17.7614 2.41826 20 5.17968 20H15.0667C17.8281 20 20.0667 17.7614 20.0667 15V5C20.0667 2.23858 17.8281 0 15.0667 0H5.17969ZM8.5289 7.24649V8.31917L8.52918 8.32004C8.52918 8.44402 8.52938 8.56799 8.52957 8.69198C8.52995 8.93998 8.53034 9.18803 8.52918 9.43621C8.52832 9.56377 8.48565 9.60001 8.36083 9.59624C8.24494 9.59247 8.16711 9.53188 8.0985 9.44201C7.58751 8.78189 7.14057 8.07407 6.76378 7.32825C6.61417 7.02818 6.44927 6.7345 6.21865 6.4846C6.17464 6.43361 6.1202 6.39278 6.05905 6.36491C5.99791 6.33704 5.93149 6.32278 5.86436 6.32311C5.24716 6.32195 4.63025 6.32108 4.01334 6.32543C3.82884 6.32746 3.73631 6.40922 3.6922 6.58838C3.64131 6.77438 3.65142 6.97193 3.72103 7.15169C3.7279 7.16878 3.73475 7.18588 3.7416 7.20299C3.79134 7.32724 3.84115 7.45165 3.9012 7.5709C4.32162 8.40931 4.80583 9.2138 5.3495 9.97719C5.88281 10.7228 6.46023 11.4334 7.0633 12.1226C7.45939 12.5748 7.90017 12.9746 8.42166 13.2764C8.4482 13.2917 8.47468 13.3074 8.50121 13.3231C8.67838 13.4278 8.85751 13.5337 9.06913 13.5504C9.52725 13.5865 9.9861 13.5808 10.445 13.5752C10.5607 13.5737 10.6764 13.5723 10.7922 13.5715C10.9524 13.5704 11.0885 13.5101 11.1718 13.3622C11.2329 13.2582 11.274 13.1435 11.2929 13.0242C11.317 12.8571 11.3237 12.6889 11.3305 12.5206C11.3319 12.4874 11.3332 12.4541 11.3347 12.4209C11.3356 12.3992 11.3365 12.3774 11.3373 12.3556C11.3431 12.2008 11.349 12.0449 11.4056 11.897C11.4785 11.7068 11.6812 11.6596 11.8351 11.7938C12.0028 11.94 12.1595 12.0974 12.3164 12.2549C12.3489 12.2876 12.3814 12.3202 12.414 12.3527C12.5157 12.454 12.6155 12.5572 12.7152 12.6604C12.9694 12.9235 13.2235 13.1865 13.5094 13.4156L13.5127 13.4182C13.6088 13.4951 13.7069 13.5736 13.8372 13.5721C14.0843 13.5696 14.3315 13.5718 14.5786 13.5741C15.0574 13.5785 15.5362 13.5829 16.0146 13.5521C16.2959 13.5339 16.5568 13.2529 16.5842 12.9674C16.6071 12.7288 16.476 12.5636 16.3445 12.3981C16.34 12.3924 16.3356 12.3868 16.3311 12.3812C16.0851 12.0711 15.8142 11.7837 15.5433 11.4963C15.4628 11.4109 15.3823 11.3255 15.3025 11.2395C15.0523 10.9701 14.8055 10.6988 14.5778 10.4089C14.4677 10.2691 14.4648 10.2152 14.5513 10.063C14.7611 9.68438 15.0148 9.33561 15.28 8.99496C15.3826 8.86355 15.4887 8.73512 15.5948 8.60675C15.8195 8.33468 16.044 8.06291 16.2342 7.7637C16.3876 7.52278 16.5144 7.27403 16.5513 6.98412C16.5908 6.67507 16.4317 6.41821 16.1391 6.34921C16.0459 6.33001 15.9508 6.32135 15.8557 6.3234C15.6051 6.32258 15.3545 6.32281 15.1039 6.32305C14.6458 6.32347 14.1877 6.32389 13.7297 6.3179C13.5239 6.31616 13.395 6.39617 13.3146 6.57708C13.3062 6.5957 13.297 6.61394 13.2878 6.63223C13.281 6.64555 13.2743 6.6589 13.2679 6.67246C13.0313 7.17256 12.8133 7.6808 12.5952 8.18914C12.5733 8.24012 12.5515 8.2911 12.5296 8.34207C12.3523 8.75549 12.1416 9.14514 11.8014 9.44954C11.7389 9.50579 11.6751 9.5629 11.5947 9.5945C11.4736 9.64176 11.3851 9.59711 11.3514 9.47216C11.3359 9.40305 11.3295 9.33218 11.3324 9.26139C11.3323 9.03403 11.3324 8.80664 11.3326 8.57925C11.333 7.9881 11.3333 7.39688 11.3298 6.80582C11.3283 6.56461 11.326 6.31326 11.0922 6.15873C10.923 6.04654 10.7261 6.00508 10.5278 6.00334C9.84747 5.99783 9.16685 6.00015 8.48652 6.00334C8.3478 6.00559 8.21302 6.05007 8.09994 6.1309C7.93159 6.24687 7.85491 6.46227 7.90276 6.68841C7.94312 6.87743 8.09446 6.90439 8.24869 6.92671L8.26945 6.93106C8.47614 6.97049 8.5289 7.03108 8.5289 7.24649Z" fill="white"/>
</svg>
