<?xml version="1.0" encoding="utf-8"?>
<!-- Generator: Adobe Illustrator 24.0.3, SVG Export Plug-In . SVG Version: 6.00 Build 0)  -->
<svg version="1.1" id="Layer_1" xmlns="http://www.w3.org/2000/svg" xmlns:xlink="http://www.w3.org/1999/xlink" x="0px" y="0px"
	 viewBox="0 0 66 20" style="enable-background:new 0 0 66 20;" xml:space="preserve">
<style type="text/css">
	.st0{fill:#FFFFFF;}
</style>
<g>
	<g>
		<path class="st0" d="M16,11.2c0,0,0.1,0,0.2,0v1.9c-0.1,0-0.2,0-0.3,0c-0.1,0-0.2,0-0.2,0c-0.7,0-1.2,0.2-1.5,0.7
			C14,14,13.9,14.5,13.9,15v3.3h-1.8v-7h1.7v1.2c0.3-0.5,0.5-0.8,0.7-1C14.9,11.4,15.3,11.2,16,11.2C15.9,11.2,15.9,11.2,16,11.2z"
			/>
		<path class="st0" d="M19.9,14.1c0.3,0,0.6-0.1,0.7-0.2c0.3-0.1,0.4-0.3,0.4-0.5c0-0.3-0.1-0.5-0.3-0.6c-0.2-0.1-0.5-0.2-0.9-0.2
			c-0.4,0-0.7,0.1-0.9,0.3c-0.1,0.2-0.2,0.4-0.3,0.6h-1.8c0-0.6,0.2-1.1,0.5-1.5c0.5-0.6,1.3-0.9,2.5-0.9c0.8,0,1.4,0.2,2,0.5
			c0.6,0.3,0.9,0.9,0.9,1.7v3.2c0,0.2,0,0.5,0,0.8c0,0.2,0,0.4,0.1,0.5c0.1,0.1,0.1,0.2,0.3,0.2v0.3h-2c-0.1-0.1-0.1-0.3-0.1-0.4
			c0-0.1,0-0.3-0.1-0.4c-0.3,0.3-0.5,0.5-0.9,0.7c-0.4,0.2-0.8,0.3-1.3,0.3c-0.6,0-1.2-0.2-1.6-0.5c-0.4-0.4-0.6-0.9-0.6-1.5
			c0-0.9,0.3-1.5,1-1.9c0.4-0.2,0.9-0.4,1.6-0.4L19.9,14.1z M21,15c-0.1,0.1-0.2,0.1-0.4,0.2c-0.1,0-0.3,0.1-0.5,0.1l-0.4,0.1
			c-0.4,0.1-0.7,0.2-0.8,0.2c-0.3,0.2-0.4,0.4-0.4,0.8c0,0.3,0.1,0.5,0.3,0.7c0.2,0.1,0.4,0.2,0.6,0.2c0.4,0,0.8-0.1,1.1-0.3
			c0.3-0.2,0.5-0.6,0.5-1.3V15z"/>
		<path class="st0" d="M27.3,8.8c0.1,0,0.2,0,0.4,0v1.5c-0.1,0-0.3,0-0.5,0c-0.2,0-0.4,0-0.5,0.2c-0.1,0.1-0.1,0.2-0.1,0.4
			c0,0.1,0,0.3,0,0.6h1.2v1.3h-1.2v5.6h-1.8v-5.6h-1v-1.3h1V11c0-0.7,0.1-1.3,0.4-1.5C25.4,9,26,8.8,27,8.8
			C27.1,8.8,27.2,8.8,27.3,8.8z"/>
		<path class="st0" d="M28.1,12.7v-1.3h1V9.5h1.8v1.9H32v1.3h-1.1v3.7c0,0.3,0,0.5,0.1,0.5c0.1,0.1,0.3,0.1,0.7,0.1
			c0.1,0,0.1,0,0.2,0c0.1,0,0.1,0,0.2,0v1.4l-0.9,0c-0.9,0-1.4-0.1-1.8-0.4c-0.2-0.2-0.3-0.5-0.3-1v-4.3H28.1z"/>
		<path class="st0" d="M34.6,16.1c0,0.3,0.1,0.6,0.3,0.7c0.2,0.2,0.6,0.4,1.3,0.4c0.4,0,0.6-0.1,0.9-0.2c0.2-0.1,0.3-0.3,0.3-0.5
			c0-0.2-0.1-0.4-0.3-0.5c-0.2-0.1-0.8-0.3-1.9-0.5c-0.8-0.2-1.3-0.4-1.7-0.7c-0.3-0.3-0.5-0.7-0.5-1.3c0-0.6,0.3-1.2,0.8-1.7
			c0.5-0.5,1.2-0.7,2.1-0.7c0.9,0,1.6,0.2,2.1,0.5c0.5,0.3,0.9,0.9,0.9,1.8h-1.8c0-0.2-0.1-0.4-0.2-0.6c-0.2-0.2-0.5-0.4-1-0.4
			c-0.4,0-0.7,0.1-0.8,0.2c-0.2,0.1-0.3,0.3-0.3,0.4c0,0.2,0.1,0.4,0.3,0.5c0.2,0.1,0.8,0.3,1.9,0.5c0.7,0.2,1.3,0.4,1.6,0.8
			c0.4,0.3,0.5,0.8,0.5,1.3c0,0.7-0.3,1.3-0.8,1.7c-0.5,0.4-1.3,0.7-2.4,0.7c-1.1,0-1.9-0.2-2.4-0.7c-0.5-0.5-0.8-1.1-0.8-1.8H34.6z
			"/>
	</g>
	<g>
		<path class="st0" d="M55.1,11.2c0,0,0.1,0,0.2,0v1.9c-0.1,0-0.2,0-0.3,0c-0.1,0-0.2,0-0.2,0c-0.7,0-1.2,0.2-1.5,0.7
			C53.1,14,53,14.5,53,15v3.3h-1.8v-7h1.7v1.2c0.3-0.5,0.5-0.8,0.7-1C54,11.4,54.5,11.2,55.1,11.2C55,11.2,55.1,11.2,55.1,11.2z"/>
		<path class="st0" d="M62.1,17.5c-0.6,0.7-1.5,1.1-2.7,1.1c-1.2,0-2.1-0.4-2.7-1.1c-0.6-0.7-0.9-1.6-0.9-2.6c0-1,0.3-1.9,0.9-2.6
			c0.6-0.7,1.5-1.1,2.7-1.1c1.2,0,2.1,0.4,2.7,1.1c0.6,0.7,0.9,1.6,0.9,2.6C63,15.9,62.7,16.8,62.1,17.5z M60.7,16.5
			c0.3-0.4,0.4-0.9,0.4-1.6c0-0.7-0.1-1.2-0.4-1.6c-0.3-0.4-0.7-0.6-1.2-0.6c-0.5,0-0.9,0.2-1.2,0.6c-0.3,0.4-0.4,0.9-0.4,1.6
			c0,0.7,0.1,1.2,0.4,1.6c0.3,0.4,0.7,0.6,1.2,0.6C60,17.1,60.4,16.9,60.7,16.5z"/>
	</g>
	<path class="st0" d="M32.9,6.3c2.7,0,5.2,0.4,7.4,1.2c0.1,0,0.2-0.1,0.1-0.2L33,0.8c0,0-0.1,0-0.2,0l-7.4,6.4
		c-0.1,0.1,0,0.3,0.1,0.2C27.7,6.7,30.2,6.3,32.9,6.3z"/>
	<path class="st0" d="M10.6,11.8c-0.1-0.5-0.3-1.1-0.7-1.5C9.5,9.7,9,9.3,8.3,9.1C7.9,9,7.4,8.9,6.9,8.9H2.8v6h1.9v-4.4h1.8
		c0.9,0,1.5,0.3,1.8,0.8c0.3,0.5,0.5,1.2,0.5,2.2c0,0.7-0.1,1.3-0.3,1.8c-0.4,0.9-1,1.4-1.9,1.4H4.7c-0.6,0-1.3,0-1.9,0v1.6h4.1
		c1.4,0,2.5-0.6,3.2-1.8c0.5-0.9,0.8-1.9,0.8-3.2C10.8,12.9,10.7,12.4,10.6,11.8z"/>
	<path class="st0" d="M49,9.7c-0.6-0.5-1.3-0.7-2.2-0.7h-4v2.7h2v-1h1.8c0.4,0,0.8,0.1,1,0.3c0.2,0.2,0.4,0.6,0.4,1
		c0,0.5-0.1,0.8-0.4,1.1c-0.2,0.2-0.6,0.3-1,0.3h-0.8c-1,0-2,0-3,0c0,1.7,0,3.3,0,5h2V15h2c1,0,1.8-0.2,2.4-0.7
		c0.6-0.5,0.8-1.2,0.8-2.4C49.8,10.9,49.5,10.1,49,9.7z"/>
</g>
</svg>
